<?xml version="1.0" standalone="no"?>
<!DOCTYPE svg PUBLIC "-//W3C//DTD SVG 1.1//EN" "http://www.w3.org/Graphics/SVG/1.1/DTD/svg11.dtd" >
<svg>
<metadata>
Created by FontForge 20090914 at Wed Feb 27 12:30:59 2013
 By www-data
1996 Hans Reichel, published by FontShop International for the FontFont library.
</metadata>
<defs>
<font id="Dax-Regular" horiz-adv-x="528" >
  <font-face 
    font-family="Dax-Regular"
    font-weight="400"
    font-stretch="normal"
    units-per-em="1000"
    panose-1="2 0 5 6 6 0 0 2 0 4"
    ascent="785"
    descent="-215"
    x-height="539"
    cap-height="688"
    bbox="-112 -227 1127 899.001"
    underline-thickness="50"
    underline-position="-75"
    unicode-range="U+0020-U+FB02"
  />
<missing-glyph horiz-adv-x="533" 
d="M405 57v584h-277v-584h277zM71 698h391v-698h-391v698z" />
    <glyph glyph-name=".notdef" horiz-adv-x="533" 
d="M405 57v584h-277v-584h277zM71 698h391v-698h-391v698z" />
    <glyph glyph-name="space" unicode=" " horiz-adv-x="276" 
 />
    <glyph glyph-name="exclam" unicode="!" horiz-adv-x="290" 
d="M214 53c0 -16 -5.66699 -29.667 -17 -41s-25 -17 -41 -17c-15.333 0 -28.666 5.66699 -39.999 17s-17 25 -17 41c0 15.333 5.66699 28.666 17 39.999s24.666 17 39.999 17c16 0 29.667 -5.66699 41 -17s17 -24.666 17 -39.999zM189 226h-66l-19 462h104z" />
    <glyph glyph-name="quotedbl" unicode="&#x22;" horiz-adv-x="384" 
d="M134 426h-45l-20 250c10 14 24.333 21 43 21c18 0 32 -7 42 -21zM295 426h-46l-20 250c10.667 14 25 21 43 21c18.667 0 33 -7 43 -21z" />
    <glyph glyph-name="numbersign" unicode="#" 
d="M218 431l-28 -156h117l29 156h-118zM388 431l-29 -156h105v-46h-113l-39 -229h-52l40 229h-117l-42 -229h-51l41 229h-103v46h111l28 156h-103v45h111l37 212h52l-37 -212h117l37 212h52l-37 -212h104v-45h-112z" />
    <glyph glyph-name="dollar" unicode="$" 
d="M441 194c0 -27.333 -4.16699 -52.333 -12.5 -75s-20.333 -42.667 -36 -60s-34.167 -31.666 -55.5 -42.999s-45 -18.666 -71 -21.999l9 -122h-58l9 120c-36 0.666992 -65.5 4.16699 -88.5 10.5s-42.833 15.166 -59.5 26.499l23 61
c13.333 -8.66699 29.5 -16.334 48.5 -23.001s42.5 -10 70.5 -10c40 0 71.833 12 95.5 36s35.5 56 35.5 96c0 32 -9.33301 58.167 -28 78.5s-50 38.833 -94 55.5c-52 20 -89.167 45.833 -111.5 77.5s-33.5 66.5 -33.5 104.5c0 24 3.83301 46.833 11.5 68.5s18.667 41 33 58
s32 31 53 42s44.5 18.167 70.5 21.5l-9 115h56l-9 -114c28 -1.33301 52.333 -5.33301 73 -12s38 -14.667 52 -24l-21 -53c-12 7.33301 -27.167 14.166 -45.5 20.499s-39.166 9.5 -62.499 9.5c-36.667 0 -65.167 -11.167 -85.5 -33.5s-30.5 -51.833 -30.5 -88.5
c0 -19.333 3.16699 -35.666 9.5 -48.999s14.666 -24.833 24.999 -34.5s22.5 -18.167 36.5 -25.5s29 -14 45 -20c31.333 -12 57 -25.5 77 -40.5s35.833 -30.833 47.5 -47.5s19.667 -33.667 24 -51s6.5 -35 6.5 -53z" />
    <glyph glyph-name="percent" unicode="%" horiz-adv-x="854" 
d="M278 465c0 20.667 -0.666992 42.335 -2 65.002s-4.5 43.667 -9.5 63s-12.5 35.333 -22.5 48s-23.333 19 -40 19c-17.333 0 -31 -6.33301 -41 -19s-17.5 -28.667 -22.5 -48s-8.16699 -40.333 -9.5 -63s-2 -44.334 -2 -65.001c0 -20 0.666992 -41.333 2 -64
s4.5 -43.334 9.5 -62.001s12.5 -34.167 22.5 -46.5s23.667 -18.5 41 -18.5c16.667 0 30 6.16699 40 18.5s17.5 28 22.5 47s8.16699 39.667 9.5 62s2 43.5 2 63.5zM725 226.001c0 20 -0.666992 41.5 -2 64.5s-4.5 44 -9.5 63s-12.5 34.833 -22.5 47.5s-23.667 19 -41 19
s-30.833 -6.33301 -40.5 -19s-17 -28.5 -22 -47.5s-8.16699 -40 -9.5 -63s-2 -44.5 -2 -64.5s0.666992 -41.167 2 -63.5s4.5 -43 9.5 -62s12.333 -34.667 22 -47s23.167 -18.5 40.5 -18.5s31 6.16699 41 18.5s17.5 28 22.5 47s8.16699 39.667 9.5 62s2 43.5 2 63.5z
M338 464.001c0 -26.667 -1.83301 -53.834 -5.5 -81.501s-10.334 -52.834 -20.001 -75.501s-23.167 -41.334 -40.5 -56.001s-40 -22 -68 -22s-50.833 7.33301 -68.5 22s-31.5 33.334 -41.5 56.001s-16.667 47.834 -20 75.501s-5 54.834 -5 81.501s1.66699 53.834 5 81.501
s10 52.834 20 75.501s23.833 41.334 41.5 56.001s40.5 22 68.5 22s50.667 -7.33301 68 -22s30.833 -33.334 40.5 -56.001s16.334 -47.834 20.001 -75.501s5.5 -54.834 5.5 -81.501zM332 -7.99902l-46 14l234 689l46 -13zM785 225.001c0 -26.667 -1.83203 -54 -5.49902 -82
s-10.334 -53.333 -20.001 -76s-23.334 -41.334 -41.001 -56.001s-40.5 -22 -68.5 -22s-50.833 7.33301 -68.5 22s-31.334 33.334 -41.001 56.001s-16.167 48 -19.5 76s-5 55.333 -5 82s1.66699 53.834 5 81.501s10 52.834 20 75.501s23.667 41.167 41 55.5s40 21.5 68 21.5
s50.833 -7.16699 68.5 -21.5s31.334 -32.833 41.001 -55.5s16.334 -47.834 20.001 -75.501s5.5 -54.834 5.5 -81.501z" />
    <glyph glyph-name="ampersand" unicode="&#x26;" horiz-adv-x="619" 
d="M405 391c-44.667 -10.667 -83.167 -21.8311 -115.5 -33.498s-59 -25.167 -80 -40.5s-36.5 -33 -46.5 -53s-15 -44 -15 -72c0 -44.667 13.667 -79.834 41 -105.501s68 -38.5 122 -38.5c21.333 0 39.5 1.16699 54.5 3.5s28.167 6.16602 39.5 11.499v328zM602 450.003
c-13.333 -6.66699 -30.5 -13.833 -51.5 -21.5s-40.833 -13.834 -59.5 -18.501v-381c-17.333 -11.333 -41.666 -20.666 -72.999 -27.999s-68.333 -11 -111 -11c-38.667 0 -73.667 4.5 -105 13.5s-58 22 -80 39s-39 37.667 -51 62s-18 51.833 -18 82.5
c0 50.667 16.333 93.167 49 127.5s76 59.5 130 75.5v2c-42.667 11.333 -75.834 29.833 -99.501 55.5s-35.5 57.5 -35.5 95.5c0 22 4.33301 42.5 13 61.5s21.167 35.5 37.5 49.5s36 24.833 59 32.5s48.833 11.5 77.5 11.5c29.333 0 56.333 -3.66699 81 -11
s44.667 -15.666 60 -24.999l-25 -51c-11.333 6.66699 -25.666 12.834 -42.999 18.501s-36 8.5 -56 8.5c-40 0 -69.333 -9.16699 -88 -27.5s-28 -42.5 -28 -72.5c0 -17.333 3.5 -32.833 10.5 -46.5s16.333 -25.167 28 -34.5s25.5 -16.5 41.5 -21.5s33 -7.5 51 -7.5
c22 0 44.5 2.16699 67.5 6.5s45.667 10.166 68 17.499s44.166 15.666 65.499 24.999s41.333 19 60 29z" />
    <glyph glyph-name="quotesingle" unicode="'" horiz-adv-x="224" 
d="M134 426h-45l-20 250c10 14 24.333 21 43 21s33 -7 43 -21z" />
    <glyph glyph-name="parenleft" unicode="(" horiz-adv-x="363" 
d="M286 -226c-38 46 -70.667 90.668 -98 134.001s-49.833 85.833 -67.5 127.5s-30.834 83.167 -39.501 124.5s-13 83.333 -13 126s4.33301 84.5 13 125.5s21.834 82.333 39.501 124s40.167 84.167 67.5 127.5s60 88 98 134l43 -26
c-50 -70.667 -90.167 -146.334 -120.5 -227.001s-45.5 -166.667 -45.5 -258s15.167 -177.5 45.5 -258.5s70.5 -156.833 120.5 -227.5z" />
    <glyph glyph-name="parenright" unicode=")" horiz-adv-x="363" 
d="M295 286c0 -42.667 -4.33301 -84.668 -13 -126.001s-21.834 -82.833 -39.501 -124.5s-40.167 -84.167 -67.5 -127.5s-60 -88 -98 -134l-43 26c50 70.667 90.167 146.5 120.5 227.5s45.5 167.167 45.5 258.5s-15.167 177.333 -45.5 258s-70.5 156.334 -120.5 227.001
l43 26c38 -46 70.667 -90.667 98 -134s49.833 -85.833 67.5 -127.5s30.834 -83 39.501 -124s13 -82.833 13 -125.5z" />
    <glyph glyph-name="asterisk" unicode="*" horiz-adv-x="422" 
d="M175 539c0 -11.333 -4.16699 -21.166 -12.5 -29.499s-18.166 -12.5 -29.499 -12.5s-21.166 4.16699 -29.499 12.5s-12.5 18.166 -12.5 29.499c0 12 4.16699 22.167 12.5 30.5s18.166 12.5 29.499 12.5s21.166 -4.16699 29.499 -12.5s12.5 -18.5 12.5 -30.5zM136 674
c0 -11.333 -4.16699 -21.166 -12.5 -29.499s-18.166 -12.5 -29.499 -12.5s-21.166 4.16699 -29.499 12.5s-12.5 18.166 -12.5 29.499c0 12 4.16699 22.167 12.5 30.5s18.166 12.5 29.499 12.5s21.166 -4.16699 29.499 -12.5s12.5 -18.5 12.5 -30.5zM330 539
c0 -12 -4.16699 -22.001 -12.5 -30.001s-18.166 -12 -29.499 -12s-21.166 4 -29.499 12s-12.5 18 -12.5 30s4.16699 22 12.5 30s18.166 12 29.499 12s21.166 -4.16699 29.499 -12.5s12.5 -18.166 12.5 -29.499zM247 635.999c0 -10 -3.5 -18.5 -10.5 -25.5
s-15.5 -10.5 -25.5 -10.5s-18.5 3.5 -25.5 10.5s-10.5 15.5 -10.5 25.5c0 10.667 3.5 19.5 10.5 26.5s15.5 10.5 25.5 10.5s18.5 -3.5 25.5 -10.5s10.5 -15.833 10.5 -26.5zM253 757.999c0 -11.333 -4.16699 -21.166 -12.5 -29.499s-18.166 -12.5 -29.499 -12.5
s-21.166 4.16699 -29.499 12.5s-12.5 18.166 -12.5 29.499c0 12 4.16699 22.167 12.5 30.5s18.166 12.5 29.499 12.5s21.166 -4.16699 29.499 -12.5s12.5 -18.5 12.5 -30.5zM370 673.999c0 -12 -4.16699 -22.168 -12.5 -30.501s-18.166 -12.166 -29.499 -11.499
c-11.333 0 -21.166 4 -29.499 12s-12.5 18 -12.5 30s4.16699 22 12.5 30s18.166 12 29.499 12s21.166 -4 29.499 -12s12.5 -18 12.5 -30z" />
    <glyph glyph-name="plus" unicode="+" 
d="M294 304v-175h-61v175h-161v60h161v175h61v-175h162v-60h-162z" />
    <glyph glyph-name="comma" unicode="," horiz-adv-x="262" 
d="M64 -169h-51.998l85 247c6.66699 7.33301 14.667 13.333 24 18s21 7 35 7c13.333 0 22.666 -2.5 27.999 -7.5s8.66602 -10.833 9.99902 -17.5z" />
    <glyph glyph-name="hyphen" unicode="-" horiz-adv-x="344" 
d="M59 302v70h226v-70h-226z" />
    <glyph glyph-name="hyphen" unicode="&#xad;" horiz-adv-x="344" 
d="M59 302v70h226v-70h-226z" />
    <glyph glyph-name="period" unicode="." horiz-adv-x="250" 
d="M182 54c0 -16 -5.5 -29.667 -16.5 -41s-24.5 -17 -40.5 -17s-29.667 5.66699 -41 17s-17 25 -17 41s5.66699 29.5 17 40.5s25 16.5 41 16.5s29.5 -5.5 40.5 -16.5s16.5 -24.5 16.5 -40.5z" />
    <glyph glyph-name="slash" unicode="/" horiz-adv-x="563" 
d="M73 -227l-57 28l474 995l57 -28z" />
    <glyph glyph-name="zero" unicode="0" 
d="M388 345c0 30.667 -1.33301 63.5 -4 98.5s-8.5 67.333 -17.5 97s-21.667 54.334 -38 74.001s-37.833 29.5 -64.5 29.5c-27.333 0 -49 -9.83301 -65 -29.5s-28.5 -44.334 -37.5 -74.001s-14.833 -62 -17.5 -97s-4 -67.833 -4 -98.5s1.33301 -63.334 4 -98.001
s8.5 -66.5 17.5 -95.5s21.5 -53.167 37.5 -72.5s37.667 -29 65 -29c26.667 0 48.167 9.66699 64.5 29s29 43.5 38 72.5s14.833 60.833 17.5 95.5s4 67.334 4 98.001zM473 344c0 -38.667 -3 -78.834 -9 -120.501s-16.833 -79.834 -32.5 -114.501s-37 -63.167 -64 -85.5
s-61.5 -33.5 -103.5 -33.5s-76.5 11.167 -103.5 33.5s-48.333 50.833 -64 85.5s-26.5 72.834 -32.5 114.501s-9 81.834 -9 120.501s3 78.834 9 120.501s16.833 79.834 32.5 114.501s37 63.167 64 85.5s61.5 33.5 103.5 33.5s76.5 -11.167 103.5 -33.5
s48.333 -50.833 64 -85.5s26.5 -72.834 32.5 -114.501s9 -81.834 9 -120.501z" />
    <glyph glyph-name="one" unicode="1" 
d="M271 0l0.000976562 577.999c-9.33301 -6 -21 -11.667 -35 -17s-29 -10.166 -45 -14.499s-32.333 -8 -49 -11s-32.334 -5.16699 -47.001 -6.5l-10 53c60.667 8 108.167 22.167 142.5 42.5s58.5 41.5 72.5 63.5h61v-688h-90z" />
    <glyph glyph-name="two" unicode="2" 
d="M40 0l242.996 345c13.333 19.333 24.333 36.666 33 51.999s15.334 29.5 20.001 42.5s7.83398 25 9.50098 36s2.5 21.833 2.5 32.5c0 82.667 -47.333 124 -142 124c-28.667 0 -52.5 -2.83301 -71.5 -8.5s-36.167 -12.167 -51.5 -19.5l-23 57
c21.333 11.333 45.333 20.333 72 27s60.334 10 101.001 10c32 0 61 -4.5 87 -13.5s48 -21.5 66 -37.5s31.833 -35.167 41.5 -57.5s14.5 -46.833 14.5 -73.5c0 -25.333 -6.66699 -53.666 -20 -84.999s-35.666 -68 -66.999 -110l-184 -248h279v-73h-410z" />
    <glyph glyph-name="three" unicode="3" 
d="M450 199c0 -32 -5.83301 -60.833 -17.5 -86.5s-27.834 -47.5 -48.501 -65.5s-45 -32 -73 -42s-58.333 -15 -91 -15c-42 0 -76.833 3.16699 -104.5 9.5s-51.167 15.166 -70.5 26.499l25 60c13.333 -8 31.5 -15 54.5 -21s49.5 -9 79.5 -9c46 0 82.667 12.5 110 37.5
s41 60.167 41 105.5c0 32.667 -6.83301 58.834 -20.5 78.501s-30.5 34.667 -50.5 45s-41.5 16.833 -64.5 19.5s-43.5 3.66699 -61.5 3v50c52 4 94 18 126 42s48 55.667 48 95c0 18.667 -3.16699 34.5 -9.5 47.5s-15 23.5 -26 31.5s-23.667 13.833 -38 17.5
s-29.166 5.5 -44.499 5.5c-26 0 -50.5 -2.66699 -73.5 -8s-41.5 -11.666 -55.5 -18.999l-23 55c16 9.33301 37.833 17.666 65.5 24.999s60.834 11 99.501 11c26.667 0 51.667 -3.5 75 -10.5s43.833 -17 61.5 -30s31.667 -29.333 42 -49s15.5 -41.834 15.5 -66.501
c0 -23.333 -4.66699 -44 -14 -62s-20.666 -33.333 -33.999 -46s-27.333 -22.834 -42 -30.501s-27.334 -13.5 -38.001 -17.5v-2c18 -4.66699 36.167 -11.5 54.5 -20.5s35.166 -20.667 50.499 -35s27.833 -32.166 37.5 -53.499s14.5 -46.666 14.5 -75.999z" />
    <glyph glyph-name="four" unicode="4" 
d="M336 598l-14.001 -27.999c-9.33301 -18.667 -21.666 -41.334 -36.999 -68.001l-169 -293h220v289c0 27.333 0.333008 50.833 1 70.5l1 29.5h-2zM416.999 157.001v-157h-81v157h-281v57l278 474h84v-479h56v-52h-56z" />
    <glyph glyph-name="five" unicode="5" 
d="M458 199c0 -28.667 -5.66895 -55.666 -17.002 -80.999s-27.166 -47.5 -47.499 -66.5s-44.666 -34 -72.999 -45s-59.5 -16.5 -93.5 -16.5c-38 0 -71 3.16699 -99 9.5s-52.333 15.166 -73 26.499l23 60c15.333 -8 34.333 -15.167 57 -21.5s49 -9.5 79 -9.5
c18 0 35.833 3 53.5 9s33.667 15 48 27s26 26.833 35 44.5s13.5 38.5 13.5 62.5c0 26.667 -4.66699 50.834 -14 72.501s-24.833 39.5 -46.5 53.5s-50 23.167 -85 27.5s-78.167 2.5 -129.5 -5.5l29 342h321v-73h-258l-16 -211c49.333 5.33301 92.333 4 129 -4
s67.167 -21.333 91.5 -40s42.5 -41.834 54.5 -69.501s18 -58.167 18 -91.5z" />
    <glyph glyph-name="six" unicode="6" 
d="M390 205c0 51.333 -12.333 90.3291 -37 116.996s-62.334 40 -113.001 40c-21.333 0 -39.666 -2 -54.999 -6s-27.333 -8 -36 -12c-3.33301 -17.333 -5.66602 -33 -6.99902 -47s-2 -30.333 -2 -49c0 -29.333 2.5 -56.166 7.5 -80.499s12.833 -45.166 23.5 -62.499
s24.167 -30.833 40.5 -40.5s35.833 -14.5 58.5 -14.5c21.333 0 39.666 4.33301 54.999 13s27.833 20.334 37.5 35.001s16.667 31.334 21 50.001s6.5 37.667 6.5 57zM474 200.996c0 -27.333 -4.33691 -53.832 -13.0039 -79.499s-21.5 -48.167 -38.5 -67.5
s-38.5 -34.833 -64.5 -46.5s-56 -17.5 -90 -17.5c-35.333 0 -66.166 6.16699 -92.499 18.5s-48.166 30 -65.499 53s-30.333 50.333 -39 82s-13 67.167 -13 106.5c0 51.333 6.16699 97.5 18.5 138.5s28.5 77.333 48.5 109s42.333 59 67 82s49.334 42.333 74.001 58
s48.167 28.167 70.5 37.5s40.833 15.666 55.5 18.999l23 -59c-20.667 -6.66699 -42.834 -15.667 -66.501 -27s-47.167 -26.5 -70.5 -45.5s-45.333 -42.333 -66 -70s-38 -60.834 -52 -99.501c14 5.33301 28.833 9.66602 44.5 12.999s32.5 5 50.5 5
c30 0 58.333 -4.16699 85 -12.5s49.834 -21.166 69.501 -38.499s35.334 -39.166 47.001 -65.499s17.5 -57.5 17.5 -93.5z" />
    <glyph glyph-name="seven" unicode="7" 
d="M398 473l-55.5 -135l-50.5 -132l-41 -116.5c-12 -35.667 -21 -65.5 -27 -89.5h-110l269 615h-319v73h426z" />
    <glyph glyph-name="eight" unicode="8" 
d="M391 163c0 16 -1.66602 30.666 -4.99902 43.999s-9.83301 26.5 -19.5 39.5s-22.834 26.167 -39.501 39.5s-38.334 27.666 -65.001 42.999c-26.667 -15.333 -48.334 -29.5 -65.001 -42.5s-29.667 -25.833 -39 -38.5s-15.666 -25.667 -18.999 -39s-5 -28 -5 -44
c0 -18 3.5 -34.167 10.5 -48.5s16.333 -26.666 28 -36.999s25.334 -18.166 41.001 -23.499s32.167 -8 49.5 -8c37.333 0 68 10.667 92 32s36 49 36 83zM378.001 534.999c0 32 -10.3311 58.333 -30.998 79s-48 31 -82 31s-61.167 -10.167 -81.5 -30.5
s-30.5 -46.5 -30.5 -78.5c0 -15.333 1.83301 -29.166 5.5 -41.499s10 -24 19 -35s20.667 -21.833 35 -32.5s32.166 -22.334 53.499 -35.001c22 12 40.167 23.5 54.5 34.5s25.666 22 33.999 33s14.333 22.667 18 35s5.5 25.833 5.5 40.5zM473.003 162.999
c0 -25.333 -5.33496 -48.6641 -16.002 -69.9971s-25.167 -39.666 -43.5 -54.999s-40.333 -27.166 -66 -35.499s-53.5 -12.5 -83.5 -12.5c-27.333 0 -53.666 3.83301 -78.999 11.5s-47.666 18.667 -66.999 33s-34.666 32.166 -45.999 53.499s-17 46 -17 74
c0 20 2.66699 38.5 8 55.5s14 33.333 26 49s27.667 31 47 46s42.666 30.5 69.999 46.5c-47.333 27.333 -80.666 54.333 -99.999 81s-29 58 -29 94c0 24 4.83301 46.167 14.5 66.5s23 37.666 40 51.999s36.833 25.5 59.5 33.5s47 12 73 12c25.333 0 49.333 -4 72 -12
s42.5 -19.167 59.5 -33.5s30.5 -31.5 40.5 -51.5s15 -42 15 -66c0 -35.333 -9.83301 -66.333 -29.5 -93s-52.834 -53.334 -99.501 -80.001c54.667 -32.667 93.5 -64.334 116.5 -95.001s34.5 -65.334 34.5 -104.001z" />
    <glyph glyph-name="nine" unicode="9" 
d="M387 438c0 29.333 -2.49805 56.167 -7.49805 80.5s-12.833 45.333 -23.5 63s-24 31.334 -40 41.001s-35.333 14.5 -58 14.5c-22 0 -40.667 -4.5 -56 -13.5s-27.833 -20.833 -37.5 -35.5s-16.667 -31.334 -21 -50.001s-6.5 -37.667 -6.5 -57
c0 -51.333 12.5 -90.333 37.5 -117s62.5 -40 112.5 -40c21.333 0 39.666 2 54.999 6s27.666 8 36.999 12c3.33301 15.333 5.5 30.833 6.5 46.5s1.5 32.167 1.5 49.5zM470.002 434.001c0 -51.333 -6.16504 -97.5039 -18.498 -138.504s-28.5 -77.333 -48.5 -109
s-42.333 -59 -67 -82s-49.334 -42.333 -74.001 -58s-48.167 -28 -70.5 -37s-40.833 -15.5 -55.5 -19.5l-23 58c20.667 6.66699 42.834 15.834 66.501 27.501s47.167 26.834 70.5 45.501s45.333 41.834 66 69.501s38 61.167 52 100.5
c-14 -5.33301 -28.833 -9.66602 -44.5 -12.999s-32.5 -5 -50.5 -5c-30 0 -58.333 4.16699 -85 12.5s-49.834 21.166 -69.501 38.499s-35.334 39 -47.001 65s-17.5 57 -17.5 93c0 28 4.33301 54.667 13 80s21.667 47.833 39 67.5s39 35.334 65 47.001s56 17.5 90 17.5
c35.333 0 66 -6.16699 92 -18.5s47.667 -30 65 -53s30.333 -50.5 39 -82.5s13 -67.333 13 -106z" />
    <glyph glyph-name="colon" unicode=":" horiz-adv-x="250" 
d="M182 54c0 -16 -5.5 -29.667 -16.5 -41s-24.5 -17 -40.5 -17s-29.667 5.66699 -41 17s-17 25 -17 41s5.66699 29.5 17 40.5s25 16.5 41 16.5s29.5 -5.5 40.5 -16.5s16.5 -24.5 16.5 -40.5zM182 361c0 -16 -5.5 -29.5 -16.5 -40.5s-24.5 -16.5 -40.5 -16.5
s-29.667 5.5 -41 16.5s-17 24.5 -17 40.5s5.66699 29.667 17 41s25 17 41 17s29.5 -5.66699 40.5 -17s16.5 -25 16.5 -41z" />
    <glyph glyph-name="semicolon" unicode=";" horiz-adv-x="262" 
d="M64 -169h-51.999l85 247c6.66699 7.33301 14.667 13.666 24 18.999s20.666 8 33.999 8c12.667 0 22 -2.66699 28 -8s9.66699 -11.666 11 -18.999zM194.001 361c0 -16 -5.66699 -29.5 -17 -40.5s-25 -16.5 -41 -16.5c-15.333 0 -28.666 5.5 -39.999 16.5
s-17 24.5 -17 40.5s5.66699 29.667 17 41s24.666 17 39.999 17c16 0 29.667 -5.66699 41 -17s17 -25 17 -41z" />
    <glyph glyph-name="semicolon" unicode="&#x37e;" horiz-adv-x="262" 
d="M64 -169h-51.999l85 247c6.66699 7.33301 14.667 13.666 24 18.999s20.666 8 33.999 8c12.667 0 22 -2.66699 28 -8s9.66699 -11.666 11 -18.999zM194.001 361c0 -16 -5.66699 -29.5 -17 -40.5s-25 -16.5 -41 -16.5c-15.333 0 -28.666 5.5 -39.999 16.5
s-17 24.5 -17 40.5s5.66699 29.667 17 41s24.666 17 39.999 17c16 0 29.667 -5.66699 41 -17s17 -25 17 -41z" />
    <glyph glyph-name="less" unicode="&#x3c;" 
d="M72 308v58l384 169v-66l-312 -132l312 -132v-65z" />
    <glyph glyph-name="equal" unicode="=" 
d="M72 215v60h384v-60h-384zM72 392v60h384v-60h-384z" />
    <glyph glyph-name="greater" unicode="&#x3e;" 
d="M72 140v65l312 132l-312 132v66l384 -169v-58z" />
    <glyph glyph-name="question" unicode="?" horiz-adv-x="394" 
d="M250 53c0 -16 -5.66699 -29.667 -17 -41s-25 -17 -41 -17c-15.333 0 -28.666 5.66699 -39.999 17s-17 25 -17 41s5.66699 29.667 17 41s24.666 17 39.999 17c16 0 29.667 -5.66699 41 -17s17 -25 17 -41zM380 534c0 -22.667 -5.00098 -43.002 -15.001 -61.002
s-22.167 -33.833 -36.5 -47.5s-29.833 -25 -46.5 -34s-32 -15.5 -46 -19.5l-11 -146h-66l-14 173c15.333 3.33301 31.5 8.5 48.5 15.5s32.5 15.833 46.5 26.5s25.5 23.334 34.5 38.001s13.5 31.334 13.5 50.001c0 30 -9.33301 54.833 -28 74.5s-48.334 29.5 -89.001 29.5
c-23.333 0 -43.666 -2.83301 -60.999 -8.5s-31.666 -11.5 -42.999 -17.5l-25 52c16.667 10 37.167 18.667 61.5 26s51.833 11 82.5 11c60 0 107.333 -14.5 142 -43.5s52 -68.5 52 -118.5z" />
    <glyph glyph-name="at" unicode="@" horiz-adv-x="870" 
d="M535 335c0.666992 20 -1.49805 37.501 -6.49805 52.501s-11.833 27.5 -20.5 37.5s-18.5 17.5 -29.5 22.5s-22.167 7.5 -33.5 7.5c-26 0 -48.333 -8.33301 -67 -25s-34.334 -37 -47.001 -61s-22 -49.167 -28 -75.5s-9 -49.5 -9 -69.5c0 -15.333 1.66699 -30 5 -44
s8.66602 -26.333 15.999 -37s16.5 -19.334 27.5 -26.001s24.167 -10 39.5 -10c25.333 0 47.5 8.16699 66.5 24.5s34.833 36.333 47.5 60s22.167 48.5 28.5 74.5s9.83301 49 10.5 69zM803.002 413.001c0 -21.333 -2.16309 -44.6709 -6.49609 -70.0039s-10.5 -51 -18.5 -77
s-18.333 -51 -31 -75s-27 -45.333 -43 -64s-34.167 -33.667 -54.5 -45s-42.5 -17 -66.5 -17c-22 0 -39 6.83301 -51 20.5s-18.667 37.5 -20 71.5c-20 -32.667 -42.667 -56 -68 -70s-54.333 -21 -87 -21c-20 0 -37.5 4.33301 -52.5 13s-27.333 20.167 -37 34.5
s-16.834 30.833 -21.501 49.5s-7 38.334 -7 59.001c0 26.667 4.5 55.834 13.5 87.501s22 61.167 39 88.5s37.833 50.333 62.5 69s53 28 85 28s57.167 -9.16699 75.5 -27.5s31.833 -40.5 40.5 -66.5l15 77h50l-34 -158l-16.5 -75.5c-5.66699 -25.667 -8.5 -50.167 -8.5 -73.5
c0 -25.333 3 -42.666 9 -51.999s16.667 -14 32 -14c20.667 0 40.667 10.333 60 31s36.333 46.5 51 77.5s26.334 64.5 35.001 100.5s13 69 13 99c0 38.667 -6.16699 73.5 -18.5 104.5s-29.5 57.5 -51.5 79.5s-48.333 38.833 -79 50.5s-64.334 17.5 -101.001 17.5
c-58 0 -111.667 -12.5 -161 -37.5s-91.833 -58.167 -127.5 -99.5s-63.5 -88.666 -83.5 -141.999s-30 -108.333 -30 -165c0 -52.667 8 -99 24 -139s38.5 -73.5 67.5 -100.5s63.5 -47.333 103.5 -61s84.333 -20.5 133 -20.5c38 0 72.333 3.16699 103 9.5s59 15.833 85 28.5
s50.5 28 73.5 46s45.5 39 67.5 63l22 -26c-22.667 -25.333 -46.167 -47.833 -70.5 -67.5s-50.666 -36 -78.999 -49s-59 -22.833 -92 -29.5s-69.5 -10 -109.5 -10c-55.333 0 -105.833 7.83301 -151.5 23.5s-84.834 38.667 -117.501 69s-57.834 67.666 -75.501 111.999
s-26.5 95.166 -26.5 152.499c0 64 11.667 124.833 35 182.5s55.166 108.334 95.499 152.001s87.833 78.334 142.5 104.001s113 38.5 175 38.5c42 0 80.833 -6.5 116.5 -19.5s66.167 -31.833 91.5 -56.5s45.166 -54.667 59.499 -90s21.5 -75.333 21.5 -120z" />
    <glyph glyph-name="A" unicode="A" horiz-adv-x="585" 
d="M311 522c-8.66699 27.333 -14.166 48 -16.499 62l-3.5 21h-2l-4 -21c-2.66699 -14 -8.33398 -34.667 -17.001 -62l-82 -261h205zM471.001 0l-65 206h-236l-67 -206h-84l233 688h82l232 -688h-95z" />
    <glyph glyph-name="B" unicode="B" horiz-adv-x="562" 
d="M421 185c0 54 -16.498 93.167 -49.498 117.5s-86.833 36.5 -161.5 36.5h-46v-274c13.333 -5.33301 27.5 -9.33301 42.5 -12s33.167 -4 54.5 -4c22.667 0 43.667 2.33301 63 7s36.166 12.5 50.499 23.5s25.666 25 33.999 42s12.5 38.167 12.5 63.5zM399.002 519
c0 42 -12.167 73.498 -36.5 94.498s-60.166 31.5 -107.499 31.5c-18 0 -34.167 -1.16699 -48.5 -3.5s-28.5 -6.16602 -42.5 -11.499v-245h45c35.333 0 65.166 2.83301 89.499 8.5s44 14 59 25s25.667 24.833 32 41.5s9.5 36.334 9.5 59.001zM514.002 185.998
c0 -34.667 -6.33594 -64.332 -19.0029 -88.999s-30.167 -45 -52.5 -61s-48.666 -27.667 -78.999 -35s-63.166 -11 -98.499 -11c-39.333 0 -75 3.33301 -107 10s-59 16 -81 28v632c19.333 11.333 44.5 20.5 75.5 27.5s65.5 10.5 103.5 10.5s71.333 -4.33301 100 -13
s52.834 -20.5 72.501 -35.5s34.5 -33.167 44.5 -54.5s15 -44.333 15 -69s-4 -46.334 -12 -65.001s-18.5 -34.5 -31.5 -47.5s-27.5 -23.5 -43.5 -31.5s-31.667 -13.333 -47 -16v-2c16 -3.33301 33.333 -9.5 52 -18.5s36 -21 52 -36s29.333 -32.833 40 -53.5s16 -44 16 -70z
" />
    <glyph glyph-name="C" unicode="C" horiz-adv-x="478" 
d="M447 28c-15.333 -11.333 -34.666 -20.502 -57.999 -27.502s-49 -10.5 -77 -10.5c-41.333 0 -78 9.33301 -110 28s-59 44 -81 76s-38.667 69.5 -50 112.5s-17 88.833 -17 137.5c0 48 5.66699 93.333 17 136s28 80.167 50 112.5s49 58 81 77s68.667 28.5 110 28.5
c30.667 0 56.834 -3.5 78.501 -10.5s40.167 -16.167 55.5 -27.5l-22 -54c-10.667 6.66699 -24 12.834 -40 18.501s-34.667 8.5 -56 8.5c-33.333 0 -61.333 -8.16699 -84 -24.5s-41 -38 -55 -65s-24 -57.833 -30 -92.5s-9 -70.334 -9 -107.001
c0 -37.333 3.33301 -73.166 10 -107.499s17.167 -64.666 31.5 -90.999s32.666 -47.333 54.999 -63s49.166 -23.5 80.499 -23.5c21.333 0 39.333 2.5 54 7.5s28.667 11.5 42 19.5z" />
    <glyph glyph-name="D" unicode="D" horiz-adv-x="595" 
d="M446 352c0 95.333 -15.666 167.001 -46.999 215.001s-80 72 -146 72c-18 0 -33.667 -1 -47 -3s-26 -5.66699 -38 -11v-557c21.333 -8.66699 50 -13 86 -13c69.333 0 118.666 25.167 147.999 75.5s44 124.166 44 221.499zM541.001 351.001
c0 -53.333 -5.49902 -102 -16.499 -146s-28 -82 -51 -114s-52.333 -56.833 -88 -74.5s-77.834 -26.5 -126.501 -26.5c-40 0 -75.833 3.5 -107.5 10.5s-56.5 15.833 -74.5 26.5v633c20 11.333 45.167 20.5 75.5 27.5s64.5 10.5 102.5 10.5
c47.333 0 88.833 -8.16699 124.5 -24.5s65.5 -39.5 89.5 -69.5s42 -66.333 54 -109s18 -90.667 18 -144z" />
    <glyph glyph-name="E" unicode="E" horiz-adv-x="442" 
d="M77 0v688h319v-62h-227v-240h204v-61h-204v-263h227v-62h-319z" />
    <glyph glyph-name="F" unicode="F" horiz-adv-x="434" 
d="M169 626v-240h203v-61h-203v-325h-92v688h318v-62h-226z" />
    <glyph glyph-name="G" unicode="G" horiz-adv-x="588" 
d="M517 28c-21.333 -12 -44.8301 -21.3311 -70.4971 -27.998s-60.167 -10 -103.5 -10c-40 0 -77.5 7.33301 -112.5 22s-65.667 36.834 -92 66.501s-47 67 -62 112s-22.5 97.833 -22.5 158.5c0 57.333 7.66699 107.666 23 150.999s36.166 79.666 62.499 108.999
s57 51.5 92 66.5s72.167 22.5 111.5 22.5c38 0 70.167 -3.33301 96.5 -10s47.833 -15.334 64.5 -26.001l-27 -57c-11.333 7.33301 -27.166 13.833 -47.499 19.5s-45.833 8.5 -76.5 8.5c-63.333 0 -113.166 -23.667 -149.499 -71s-54.5 -121 -54.5 -221
c0 -46.667 5 -87.834 15 -123.501s23.667 -65.667 41 -90s37.666 -42.666 60.999 -54.999s48.666 -18.5 75.999 -18.5c23.333 0 41.666 1.66699 54.999 5s23.666 7 30.999 11v258h-117v58h206v-358z" />
    <glyph glyph-name="H" unicode="H" horiz-adv-x="597" 
d="M428 0v325h-259v-325h-92v688h92v-302h259v302h92v-688h-92z" />
    <glyph glyph-name="I" unicode="I" horiz-adv-x="253" 
d="M80 0v688h92v-688h-92z" />
    <glyph glyph-name="J" unicode="J" horiz-adv-x="253" 
d="M172 28c0 -37.333 -5.83301 -70.501 -17.5 -99.501s-27.5 -53.833 -47.5 -74.5s-43 -37.167 -69 -49.5s-53.333 -20.5 -82 -24.5v65c16.667 4.66699 32.5 11.834 47.5 21.501s28.167 22 39.5 37s20.333 32.333 27 52s10 42.167 10 67.5v665h92v-660z" />
    <glyph glyph-name="K" unicode="K" horiz-adv-x="519" 
d="M397 0l-224 356h-2v-356h-91v688h91v-319h2l221 319h96l-235 -320l246 -368h-104z" />
    <glyph glyph-name="L" unicode="L" horiz-adv-x="411" 
d="M80 0v688h92v-626h207v-62h-299z" />
    <glyph glyph-name="M" unicode="M" horiz-adv-x="782" 
d="M642 0c0 1.33301 -1.00098 11.833 -3.00098 31.5s-4.66699 44.5 -8 74.5s-6.83301 63.5 -10.5 100.5l-11 109l-10 99c-3 30.333 -5.5 54.5 -7.5 72.5s-3 27.333 -3 28c-2 21.333 -3.33301 40.166 -4 56.499l-1 24.5h-2l-5 -24.5c-3.33301 -16.333 -8 -35.166 -14 -56.499
c0 -0.666992 -2.5 -9.83398 -7.5 -27.501l-20.5 -72.5l-28 -99l-30.5 -108l-28.5 -100.5l-21.5 -75c-5.66699 -19.667 -8.83398 -30.5 -9.50098 -32.5h-61c-0.666992 1.33301 -3.66699 11.833 -9 31.5l-21 75l-28 101l-30 109l-28 99l-20.5 72.5c-5 18 -7.5 27.333 -7.5 28
c-5.33301 20.667 -9.83301 39.167 -13.5 55.5l-5.5 24.5h-2l-1 -24.5c-0.666992 -16.333 -2 -34.833 -4 -55.5c0 -0.666992 -1 -10 -3 -28s-4.5 -42.167 -7.5 -72.5s-6.5 -63.333 -10.5 -99s-7.83301 -72 -11.5 -109s-7.16699 -70.667 -10.5 -101l-8 -75
c-2 -19.667 -3 -30.167 -3 -31.5h-79l82 688h97l138 -497c6.66699 -23.333 11.334 -42.166 14.001 -56.499l4 -21.5h2l4 21.5c2.66699 14.333 7.33398 32.833 14.001 55.5l142 498h97l82 -688h-87z" />
    <glyph glyph-name="N" unicode="N" horiz-adv-x="647" 
d="M490 0l-293.001 502c-12.667 21.333 -23.167 40.5 -31.5 57.5l-12.5 25.5h-2c0 -1.33301 0.166992 -5.5 0.5 -12.5l1.5 -31c0.666992 -13.667 1 -27.5 1 -41.5v-500h-77v688h97l281 -483c12.667 -21.333 22.334 -38.833 29.001 -52.5l10 -20.5h2l-1.5 22
c-1 14.667 -1.5 32.667 -1.5 54v480h77v-688h-80z" />
    <glyph glyph-name="O" unicode="O" horiz-adv-x="605" 
d="M458 347c0 34.667 -2.16699 69.334 -6.5 104.001s-12.333 65.667 -24 93s-27.5 49.666 -47.5 66.999s-45.667 26 -77 26s-57.166 -8.66699 -77.499 -26s-36.333 -39.666 -48 -66.999s-19.667 -58.333 -24 -93s-6.5 -69.334 -6.5 -104.001s2 -69.167 6 -103.5
s11.667 -65.333 23 -93s27.166 -50 47.499 -67s46.833 -25.5 79.5 -25.5s59 8.5 79 25.5s35.667 39.333 47 67s19 58.667 23 93s6 68.833 6 103.5zM551 344c0 -49.333 -4.5 -95.5 -13.5 -138.5s-23.5 -80.5 -43.5 -112.5s-45.667 -57.167 -77 -75.5
s-69.333 -27.5 -114 -27.5s-82.834 9.16699 -114.501 27.5s-57.5 43.5 -77.5 75.5s-34.5 69.5 -43.5 112.5s-13.5 89.167 -13.5 138.5c0 48.667 4.5 94.5 13.5 137.5s23.5 80.5 43.5 112.5s45.833 57.333 77.5 76s69.834 28 114.501 28s82.667 -9.33301 114 -28
s57 -44 77 -76s34.5 -69.5 43.5 -112.5s13.5 -88.833 13.5 -137.5z" />
    <glyph glyph-name="P" unicode="P" horiz-adv-x="525" 
d="M395 491c0 50 -11.832 87.833 -35.499 113.5s-61.834 38.5 -114.501 38.5c-18.667 0 -34.5 -1.33301 -47.5 -4s-23.167 -5.66699 -30.5 -9v-288l30 -3c36 -3.33301 66.667 -2 92 4s45.833 15.833 61.5 29.5s27 30.5 34 50.5s10.5 42.667 10.5 68zM484.001 490
c0 -30.667 -5.33008 -59.668 -15.9971 -87.001s-27.5 -50.666 -50.5 -69.999s-52.667 -33.833 -89 -43.5s-79.833 -11.834 -130.5 -6.50098l-31 3v-286h-90v660c19.333 11.333 43.666 20.5 72.999 27.5s62.333 10.5 99 10.5c40.667 0 75.667 -5.16699 105 -15.5
s53.666 -24.666 72.999 -42.999s33.666 -40.333 42.999 -66s14 -53.5 14 -83.5z" />
    <glyph glyph-name="Q" unicode="Q" horiz-adv-x="605" 
d="M459 349c0 34.667 -1.99805 69.167 -5.99805 103.5s-11.833 65.166 -23.5 92.499s-27.667 49.5 -48 66.5s-46.5 25.5 -78.5 25.5s-58.167 -8.5 -78.5 -25.5s-36.333 -39.167 -48 -66.5s-19.5 -58.166 -23.5 -92.499s-6 -68.833 -6 -103.5s2 -69.167 6 -103.5
s11.5 -65.333 22.5 -93s26.667 -50 47 -67s47.166 -25.5 80.499 -25.5c32.667 0 59.167 8.5 79.5 25.5s36.166 39.333 47.499 67s19 58.667 23 93s6 68.833 6 103.5zM551.002 345c0 -70 -10.001 -133.501 -30.001 -190.501s-53.667 -101.5 -101 -133.5l119 -150l-69 -61
l-104 191c-12 -3.33301 -22.667 -5.5 -32 -6.5s-19.666 -1.5 -30.999 -1.5c-44.667 0 -82.834 9.16699 -114.501 27.5s-57.5 43.5 -77.5 75.5s-34.5 69.333 -43.5 112s-13.5 88.334 -13.5 137.001s4.5 94.5 13.5 137.5s23.5 80.5 43.5 112.5s45.833 57.167 77.5 75.5
s69.834 27.5 114.501 27.5s82.667 -9.16699 114 -27.5s57 -43.5 77 -75.5s34.5 -69.5 43.5 -112.5s13.5 -88.833 13.5 -137.5z" />
    <glyph glyph-name="R" unicode="R" horiz-adv-x="542" 
d="M395 490c0 52.667 -11.832 91.499 -35.499 116.499s-60.834 37.5 -111.501 37.5c-34 0 -60 -5 -78 -15v-288c5.33301 -1.33301 13.5 -2.66602 24.5 -3.99902s22.5 -2 34.5 -2c56.667 0 98.5 13.333 125.5 40s40.5 65 40.5 115zM398.001 -0.000976562l-225.999 321.002h-2
v-321h-91v661c18 10 41.667 18.667 71 26s62.666 11 99.999 11c78.667 0 137.667 -17.833 177 -53.5s59 -85.834 59 -150.501c0 -29.333 -5 -55.5 -15 -78.5s-24.167 -42.667 -42.5 -59s-40.333 -28.833 -66 -37.5s-54.167 -13.334 -85.5 -14.001v-2l225 -303h-104z" />
    <glyph glyph-name="S" unicode="S" horiz-adv-x="465" 
d="M411 194c0 -30 -5.16699 -57.498 -15.5 -82.498s-24.666 -46.5 -42.999 -64.5s-40.333 -32 -66 -42s-53.5 -15 -83.5 -15c-39.333 0 -71.333 3.5 -96 10.5s-46 16.167 -64 27.5l24 64c13.333 -8 29.666 -15.333 48.999 -22s43 -10 71 -10c40 0 71.5 11.667 94.5 35
s34.5 54.666 34.5 93.999c0 30.667 -9.16699 56 -27.5 76s-49.166 38.667 -92.499 56c-28.667 11.333 -52.5 24.166 -71.5 38.499s-34 29.5 -45 45.5s-18.667 32.5 -23 49.5s-6.5 33.833 -6.5 50.5c0 26 4.5 50.667 13.5 74s21.833 43.833 38.5 61.5s37 31.667 61 42
s51 15.5 81 15.5c32 0 59.667 -3.5 83 -10.5s42.666 -15.833 57.999 -26.5l-22 -58c-12 7.33301 -27.333 14.5 -46 21.5s-39.667 10.5 -63 10.5c-36.667 0 -64.834 -11 -84.501 -33s-29.5 -51.333 -29.5 -88c0 -18 3 -33.5 9 -46.5s14.333 -24.333 25 -34
s22.834 -18.167 36.501 -25.5s28.5 -14 44.5 -20c34 -13.333 61.167 -28 81.5 -44s36 -32.667 47 -50s18.333 -34.5 22 -51.5s5.5 -33.167 5.5 -48.5z" />
    <glyph glyph-name="T" unicode="T" horiz-adv-x="426" 
d="M259 626v-626h-92v626h-137v62h366v-62h-137z" />
    <glyph glyph-name="U" unicode="U" horiz-adv-x="583" 
d="M506 196c0 -29.333 -4.99512 -56.666 -14.9951 -81.999s-24.333 -47.166 -43 -65.499s-41.334 -32.833 -68.001 -43.5s-56.334 -16 -89.001 -16s-62.167 5.33301 -88.5 16s-48.833 25.167 -67.5 43.5s-33 40.166 -43 65.499s-15 52.666 -15 81.999v492h92v-491
c0 -22 3.5 -41.333 10.5 -58s16.167 -30.834 27.5 -42.501s24.666 -20.5 39.999 -26.5s31.666 -9 48.999 -9c16.667 0 32.667 3 48 9s28.666 14.833 39.999 26.5s20.5 25.834 27.5 42.501s10.5 36 10.5 58v491h84v-492z" />
    <glyph glyph-name="V" unicode="V" horiz-adv-x="529" 
d="M308 0h-80l-204 688h98l127 -484l10 -42.5c3.33301 -14.333 5.83301 -25.5 7.5 -33.5s2.5 -12.667 2.5 -14h2c0 1.33301 1 6 3 14l8 33.5l10 42.5l129 484h87z" />
    <glyph glyph-name="W" unicode="W" horiz-adv-x="817" 
d="M622 0h-81.001l-116 480c-5.33301 20.667 -9.16602 38.667 -11.499 54l-3.5 23h-2l-2.5 -22.5c-1.66699 -15 -5.16699 -33.167 -10.5 -54.5l-117 -480h-81l-161 688h95l99 -497c4 -20 7 -38.167 9 -54.5l3 -24.5h2l3.5 24.5c2.33301 16.333 6.16602 34.5 11.499 54.5
l119 497h70l118 -497c2.66699 -12 5.16699 -24.333 7.5 -37s4 -22.5 5 -29.5s1.5 -11.167 1.5 -12.5h2c0 1.33301 0.5 5.5 1.5 12.5s2.33301 16.833 4 29.5s3.83398 25 6.50098 37l104 497h85z" />
    <glyph glyph-name="X" unicode="X" horiz-adv-x="519" 
d="M392 0l-134 285h-2l-139 -285h-93l187 354l-167 334h100l116 -260h2l131 260h86l-171 -323l188 -365h-104z" />
    <glyph glyph-name="Y" unicode="Y" horiz-adv-x="500" 
d="M296 305v-305h-92v305l-187 383h99l137 -311h2l142 311h88z" />
    <glyph glyph-name="Z" unicode="Z" horiz-adv-x="433" 
d="M24 0l253 626h-237v62h353l-250 -626h257v-62h-376z" />
    <glyph glyph-name="bracketleft" unicode="[" horiz-adv-x="343" 
d="M78 -215v1000h215v-52h-136v-895h137v-53h-216z" />
    <glyph glyph-name="backslash" unicode="\" horiz-adv-x="568" 
d="M493 -227l-477 994l59 30l477 -995z" />
    <glyph glyph-name="bracketright" unicode="]" horiz-adv-x="343" 
d="M49 -215v53h136v895h-136v52h216v-1000h-216z" />
    <glyph glyph-name="asciicircum" unicode="^" horiz-adv-x="578" 
d="M451 446l-162 184l-162 -184l-32 33l147 192c6.66699 8.66699 14.167 15 22.5 19s16.5 6 24.5 6s16.167 -2 24.5 -6s15.833 -10.333 22.5 -19l147 -192z" />
    <glyph glyph-name="underscore" unicode="_" 
d="M-10 -197v57h548v-57h-548z" />
    <glyph glyph-name="grave" unicode="`" horiz-adv-x="196" 
d="M106 598l-114.001 136c2 6 6.33301 10.5 13 13.5s14.334 4.5 23.001 4.5c9.33301 0 19 -1.5 29 -4.5s19.667 -7.16699 29 -12.5l70 -137h-50z" />
    <glyph glyph-name="a" unicode="a" horiz-adv-x="499" 
d="M345 306c-34 -4 -64.498 -9.33301 -91.498 -16s-49.667 -15.667 -68 -27s-32.5 -26 -42.5 -44s-15 -40.667 -15 -68c0 -39.333 11.333 -67.5 34 -84.5s54 -25.5 94 -25.5c17.333 0 33.666 1.5 48.999 4.5s28.666 7.5 39.999 13.5v247zM428.002 28
c-20.667 -11.333 -46.166 -20.4971 -76.499 -27.4971s-64.5 -10.5 -102.5 -10.5c-70.667 0 -122.5 14.167 -155.5 42.5s-49.5 67.166 -49.5 116.499c0 36 7.83301 65.833 23.5 89.5s37.167 43.167 64.5 58.5s59.166 27.166 95.499 35.499s75.5 14.5 117.5 18.5v33
c0 41.333 -11.167 69.5 -33.5 84.5s-50.833 22.5 -85.5 22.5c-26 0 -50.333 -3.83301 -73 -11.5s-41.667 -15.167 -57 -22.5l-21 52c15.333 8.66699 37.333 17.5 66 26.5s61.667 13.5 99 13.5c24.667 0 48.5 -3 71.5 -9s43 -15.667 60 -29s30.667 -31.333 41 -54
s15.5 -50.334 15.5 -83.001v-346z" />
    <glyph glyph-name="b" unicode="b" horiz-adv-x="527" 
d="M389 276c0 29.333 -2.66797 57.166 -8.00098 83.499s-13.833 49.5 -25.5 69.5s-26.5 35.833 -44.5 47.5s-39.667 17.5 -65 17.5c-20 0 -36.5 -1.66699 -49.5 -5s-25.833 -8.66602 -38.5 -15.999v-413c10 -5.33301 21.667 -8.83301 35 -10.5s27 -2.5 41 -2.5
c28 0 51.667 5.5 71 16.5s35.333 26.667 48 47s21.834 44.5 27.501 72.5s8.5 59 8.5 93zM476.999 279c0 -43.333 -5.33594 -82.668 -16.0029 -118.001s-26.167 -65.666 -46.5 -90.999s-45.833 -45 -76.5 -59s-66 -21 -106 -21c-36.667 0 -68.667 3.66699 -96 11
s-49 16.333 -65 27v757h87v-264c13.333 7.33301 28.333 13.333 45 18s38.334 7 65.001 7c30.667 0 58.834 -6.33301 84.501 -19s47.834 -30.5 66.501 -53.5s33 -51 43 -84s15 -69.833 15 -110.5z" />
    <glyph glyph-name="c" unicode="c" horiz-adv-x="411" 
d="M376 26c-10.667 -9.33301 -25.999 -17.6689 -45.999 -25.002s-45 -11 -75 -11c-29.333 0 -56.5 6.5 -81.5 19.5s-46.667 31.5 -65 55.5s-32.666 53.333 -42.999 88s-15.5 73.667 -15.5 117c0 44 5.16699 83.333 15.5 118s24.666 64 42.999 88s40.166 42.167 65.499 54.5
s53 18.5 83 18.5c33.333 0 59.333 -4.16699 78 -12.5s32.334 -16.166 41.001 -23.499l-21 -51c-8 6 -18.333 11.833 -31 17.5s-29 8.5 -49 8.5c-24.667 0 -45.5 -5.33301 -62.5 -16s-31 -25.5 -42 -44.5s-19 -41.667 -24 -68s-7.5 -55.166 -7.5 -86.499
c0 -32 2.83301 -61.5 8.5 -88.5s14.167 -50 25.5 -69s25.166 -33.833 41.499 -44.5s35.5 -16 57.5 -16c18.667 0 34.5 2.5 47.5 7.5s24.5 11.167 34.5 18.5z" />
    <glyph glyph-name="d" unicode="d" horiz-adv-x="527" 
d="M369 483c-11.333 3.33301 -22.501 5.83496 -33.501 7.50195s-22.167 2.5 -33.5 2.5c-31.333 0 -57.5 -6.16699 -78.5 -18.5s-38 -29 -51 -50s-22.167 -45 -27.5 -72s-8 -55.167 -8 -84.5c0 -32 2.83301 -61.333 8.5 -88s14.667 -49.834 27 -69.501s28.333 -35 48 -46
s43.167 -16.5 70.5 -16.5c18 0 33.333 1.16699 46 3.5s23.334 6.16602 32.001 11.499v420zM455.999 28.002c-18 -11.333 -41.168 -20.5 -69.501 -27.5s-61.5 -10.5 -99.5 -10.5c-38.667 0 -72.667 6.5 -102 19.5s-54 31.333 -74 55s-35.167 52.167 -45.5 85.5
s-15.5 70.333 -15.5 111c0 44.667 5.66699 84.5 17 119.5s27.333 64.667 48 89s45.334 42.833 74.001 55.5s60.334 19 95.001 19c15.333 0 29.666 -1 42.999 -3s27.333 -5 42 -9v253h87v-757z" />
    <glyph glyph-name="e" unicode="e" horiz-adv-x="522" 
d="M388 322c0 61.333 -11 105 -33 131s-52.333 39 -91 39c-19.333 0 -37.333 -4 -54 -12s-31 -20.5 -43 -37.5s-21.333 -38.667 -28 -65s-9.66699 -57.833 -9 -94.5zM133 236c5.33301 -61.333 21.834 -107 49.501 -137s65.834 -45 114.501 -45c30.667 0 57 3.16699 79 9.5
s40 13.5 54 21.5l23 -58c-16.667 -10 -38.834 -18.667 -66.501 -26s-59.834 -11 -96.501 -11c-35.333 0 -67.666 5.66699 -96.999 17s-54.666 28.5 -75.999 51.5s-37.833 52.167 -49.5 87.5s-17.5 77 -17.5 125c0 46 5.33301 86.333 16 121s25.667 63.667 45 87
s42.166 40.833 68.499 52.5s55.5 17.5 87.5 17.5c64.667 0 115.167 -21.5 151.5 -64.5s54.166 -109.5 53.499 -199.5z" />
    <glyph glyph-name="f" unicode="f" horiz-adv-x="309" 
d="M189 484v-484.001h-88v484h-62v55h62v76c0 26.667 4 50.667 12 72s19.667 39.5 35 54.5s34.333 26.333 57 34s48.667 10.834 78 9.50098v-56c-26.667 -1.33301 -49 -9.5 -67 -24.5s-27 -41.5 -27 -79.5v-86h94v-55h-94z" />
    <glyph glyph-name="g" unicode="g" horiz-adv-x="526" 
d="M370 481c-10 5.33301 -21.498 9.16699 -34.498 11.5s-27.167 3.5 -42.5 3.5c-27.333 0 -50.833 -5.5 -70.5 -16.5s-35.834 -26.667 -48.501 -47s-22 -44.833 -28 -73.5s-9 -60.667 -9 -96c0 -70 11.667 -123.667 35 -161s61 -56 113 -56c17.333 0 33.166 2 47.499 6
s26.833 9.33301 37.5 16v413zM455.002 -10.999c0 -68.667 -18.334 -121.668 -55.001 -159.001s-87.334 -56 -152.001 -56c-36 0 -68.333 3.33301 -97 10s-52 15.667 -70 27l27 59c15.333 -8.66699 34 -16.167 56 -22.5s45 -9.5 69 -9.5c49.333 0 84.5 13.333 105.5 40
s31.5 60.334 31.5 101.001v38c-12 -7.33301 -27.167 -13 -45.5 -17s-39.166 -6 -62.499 -6c-32 0 -61.167 6.16699 -87.5 18.5s-48.666 30 -66.999 53s-32.5 50.833 -42.5 83.5s-15 69.667 -15 111c0 42.667 5.16699 81.667 15.5 117s25.666 65.833 45.999 91.5
s45.833 45.5 76.5 59.5s66.334 21 107.001 21c38 0 70.333 -3.83301 97 -11.5s47.667 -16.5 63 -26.5v-522z" />
    <glyph glyph-name="h" unicode="h" horiz-adv-x="533" 
d="M374 0l-0.00195312 382c0 14 -1.66699 27.333 -5 40s-9.16602 24 -17.499 34s-19.666 17.833 -33.999 23.5s-32.166 8.5 -53.499 8.5c-20 0 -38.333 -2 -55 -6s-33.334 -11 -50.001 -21v-461h-88v785h88v-274c22.667 11.333 44 19.666 64 24.999s40 8 60 8
c34 0 62.5 -4.66699 85.5 -14s41.5 -21.666 55.5 -36.999s23.833 -32.5 29.5 -51.5s8.5 -37.833 8.5 -56.5v-385h-88z" />
    <glyph glyph-name="i" unicode="i" horiz-adv-x="241" 
d="M77 0v539h88v-539h-88zM172 691c0 -13.333 -5 -24.666 -15 -33.999s-22 -14 -36 -14c-14.667 0 -27 4.66699 -37 14s-15 20.666 -15 33.999s5 24.833 15 34.5s22.333 14.5 37 14.5c14 0 26 -4.83301 36 -14.5s15 -21.167 15 -34.5z" />
    <glyph glyph-name="j" unicode="j" horiz-adv-x="244" 
d="M167 31c0 -38.667 -5.16699 -73.165 -15.5 -103.498s-24.333 -56 -42 -77s-37.667 -37.667 -60 -50s-45.5 -19.833 -69.5 -22.5v58c14 5.33301 27.167 12.666 39.5 21.999s22.833 21.5 31.5 36.5s15.5 33.167 20.5 54.5s7.5 46.666 7.5 75.999v514h88v-508zM175 691.002
c0 -13.333 -5 -24.666 -15 -33.999s-22.333 -14 -37 -14c-14 0 -26.167 4.66699 -36.5 14s-15.5 20.666 -15.5 33.999s5 24.833 15 34.5s22.333 14.5 37 14.5s27 -4.83301 37 -14.5s15 -21.167 15 -34.5z" />
    <glyph glyph-name="k" unicode="k" horiz-adv-x="476" 
d="M370 0l-206 278h-2v-278h-86v785h86v-496h2l192 250h92l-204 -252l226 -287h-100z" />
    <glyph glyph-name="l" unicode="l" horiz-adv-x="243" 
d="M77 0v785h88v-785h-88z" />
    <glyph glyph-name="m" unicode="m" horiz-adv-x="836" 
d="M677 0v388c0 13.333 -1.83301 26.166 -5.5 38.499s-9.5 23.333 -17.5 33s-18.667 17.334 -32 23.001s-29.666 8.5 -48.999 8.5c-44 0 -81 -16 -111 -48v-443h-88v392c0 30 -9.83301 54.167 -29.5 72.5s-49.167 27.5 -88.5 27.5c-22 0 -40 -1.5 -54 -4.5
s-28.333 -7.5 -43 -13.5v-474h-88v511c24.667 12 51.167 21.333 79.5 28s64.166 10 107.499 10c42 0 76 -5.83301 102 -17.5s47 -27.5 63 -47.5c18.667 19.333 41.667 35 69 47s60 18 98 18c32 0 59.167 -4.83301 81.5 -14.5s40.5 -22 54.5 -37s24 -32 30 -51
s9 -37.833 9 -56.5v-390h-88z" />
    <glyph glyph-name="n" unicode="n" horiz-adv-x="533" 
d="M374 0l0.000976562 386.999c0 12.667 -1.5 25.167 -4.5 37.5s-8.83301 23.5 -17.5 33.5s-20.334 18.167 -35.001 24.5s-33.334 9.5 -56.001 9.5c-25.333 0 -45.166 -1.66699 -59.499 -5s-28.5 -8 -42.5 -14v-473h-88v511c24 11.333 52 20.5 84 27.5s69.667 10.5 113 10.5
c37.333 0 68.5 -4.66699 93.5 -14s45 -21.666 60 -36.999s25.5 -32.5 31.5 -51.5s9 -38.167 9 -57.5v-389h-88z" />
    <glyph glyph-name="o" unicode="o" horiz-adv-x="521" 
d="M383 269c0 26.667 -1.5 53.5 -4.5 80.5s-9 51 -18 72s-21.333 38.167 -37 51.5s-36.5 20 -62.5 20s-47 -6.5 -63 -19.5s-28.5 -30.167 -37.5 -51.5s-15 -45.333 -18 -72s-4.5 -53.667 -4.5 -81s1.66699 -54 5 -80s9.5 -49.333 18.5 -70s21.5 -37.167 37.5 -49.5
s36.667 -18.5 62 -18.5c26 0 46.833 6.33301 62.5 19s28 29.167 37 49.5s15 43.5 18 69.5s4.5 52.667 4.5 80zM471 269c0 -39.333 -4.16699 -76 -12.5 -110s-21 -63.5 -38 -88.5s-38.667 -44.667 -65 -59s-57.833 -21.5 -94.5 -21.5s-68.334 7.16699 -95.001 21.5
s-48.5 34 -65.5 59s-29.667 54.5 -38 88.5s-12.5 70.667 -12.5 110c0 40 4.16699 77.167 12.5 111.5s21 64 38 89s38.833 44.5 65.5 58.5s58 21 94 21c36.667 0 68.334 -7 95.001 -21s48.667 -33.5 66 -58.5s30 -54.667 38 -89s12 -71.5 12 -111.5z" />
    <glyph glyph-name="p" unicode="p" horiz-adv-x="527" 
d="M389 274c0 34 -2.66699 64.833 -8 92.5s-14 51 -26 70s-27.833 33.667 -47.5 44s-43.834 15.5 -72.501 15.5c-16.667 0 -31 -1.33301 -43 -4s-23.333 -6.33398 -34 -11.001v-423c8.66699 -3.33301 18.5 -6.16602 29.5 -8.49902s23.167 -3.5 36.5 -3.5
c54.667 0 95.834 20 123.501 60s41.5 96 41.5 168zM477 278c0 -44.667 -5.66992 -84.667 -17.0029 -120s-27.166 -65.333 -47.499 -90s-45 -43.5 -74 -56.5s-61.167 -19.5 -96.5 -19.5c-15.333 0 -30.666 1.33301 -45.999 4s-28 5.66699 -38 9v-220h-87v726
c18 10.667 40.833 19.667 68.5 27s60.834 11 99.501 11c38 0 71.833 -6.33301 101.5 -19s54.5 -30.834 74.5 -54.501s35.333 -52.167 46 -85.5s16 -70.666 16 -111.999z" />
    <glyph glyph-name="q" unicode="q" horiz-adv-x="527" 
d="M370 481c-10 5.33301 -21.501 9.16699 -34.501 11.5s-27.167 3.5 -42.5 3.5c-27.333 0 -50.666 -5.5 -69.999 -16.5s-35.5 -26.667 -48.5 -47s-22.5 -44.833 -28.5 -73.5s-9 -60.667 -9 -96c0 -68.667 11.667 -122 35 -160s60.666 -57 111.999 -57
c17.333 0 33.333 2.16699 48 6.5s27.334 9.5 38.001 15.5v413zM369.999 -214.999v232c-13.333 -7.33301 -29 -13.333 -47 -18s-38.667 -7 -62 -7c-32 0 -61 6.16699 -87 18.5s-48.167 30.166 -66.5 53.499s-32.5 51.333 -42.5 84s-15 69.667 -15 111c0 42 5 80.667 15 116
s25 65.833 45 91.5s45.333 45.834 76 60.501s67 22 109 22c38 0 70.5 -3.83301 97.5 -11.5s48.167 -16.5 63.5 -26.5v-726h-86z" />
    <glyph glyph-name="r" unicode="r" horiz-adv-x="322" 
d="M282 481c-22 6.66699 -44.333 9.00195 -67 7.00195s-41.334 -7.66699 -56.001 -17v-471h-88v510c13.333 6.66699 26.833 12.5 40.5 17.5s29.334 9.16699 47.001 12.5s38.167 5.66602 61.5 6.99902s51 1.66602 83 0.999023z" />
    <glyph glyph-name="s" unicode="s" horiz-adv-x="404" 
d="M357 150c0 -20.667 -4.33398 -40.499 -13.001 -59.499s-20.834 -35.833 -36.501 -50.5s-34.667 -26.334 -57 -35.001s-47.166 -13 -74.499 -13c-29.333 0 -56 3.33301 -80 10s-43.333 15.667 -58 27l24 58c9.33301 -8 23.166 -15.333 41.499 -22s39.5 -10 63.5 -10
c30 0 54.167 9 72.5 27s27.5 40 27.5 66c0 28 -7.33301 49.333 -22 64s-37 27.667 -67 39c-26 10 -47.333 20.833 -64 32.5s-29.5 24 -38.5 37s-15.167 26.333 -18.5 40s-5 27.5 -5 41.5c0 20 3.83301 39 11.5 57s18.5 33.667 32.5 47s30.833 24 50.5 32
s41.834 12 66.501 12c28 0 52.5 -3.83301 73.5 -11.5s38.5 -16.167 52.5 -25.5l-23 -53c-8 6 -19.667 12.5 -35 19.5s-33.666 10.5 -54.999 10.5c-30 0 -52.5 -8.33301 -67.5 -25s-22.5 -36.667 -22.5 -60c0 -26 8.5 -46.167 25.5 -60.5s38.5 -26.5 64.5 -36.5
s47.5 -21 64.5 -33s30.5 -24.667 40.5 -38s16.833 -27.333 20.5 -42s5.5 -29.667 5.5 -45z" />
    <glyph glyph-name="t" unicode="t" horiz-adv-x="321" 
d="M283 3l-19.499 -5.00098c-7.66699 -2 -17.167 -3 -28.5 -3c-24.667 0 -45.5 4 -62.5 12s-30.833 18.5 -41.5 31.5s-18.334 27.5 -23.001 43.5s-7 32.333 -7 49v353h-62v55h62v124l88 27v-151h94v-55h-94v-351c0 -21.333 5.16699 -39.666 15.5 -54.999
s27.833 -23 52.5 -23c4.66699 0 9 0.333008 13 1s8.33301 1.66699 13 3v-56z" />
    <glyph glyph-name="u" unicode="u" horiz-adv-x="523" 
d="M452 32c-20 -11.333 -45.665 -21.333 -76.998 -30s-69 -13 -113 -13c-67.333 0 -116 15.833 -146 47.5s-45 74.5 -45 128.5v374h88v-377c0 -32 8.66699 -58.5 26 -79.5s44.666 -31.5 81.999 -31.5c21.333 0 39.666 1.83301 54.999 5.5s29.333 9.16699 42 16.5v466h88
v-507z" />
    <glyph glyph-name="v" unicode="v" horiz-adv-x="488" 
d="M287 0l-79 -0.000976562l-179 539h94l113 -386c5.33301 -18 9 -33.5 11 -46.5l3 -19.5h2l2.5 19c1.66699 12.667 5.16699 28.334 10.5 47.001l115 386h82z" />
    <glyph glyph-name="w" unicode="w" horiz-adv-x="771" 
d="M585 0h-76l-109 385c-4.66699 16.667 -7.66699 31.334 -9 44.001l-2 19h-1l-2.5 -19c-1.66699 -12.667 -5.16699 -27.334 -10.5 -44.001l-111 -385h-76l-153 539h90l94 -387c4.66699 -18.667 7.66699 -34 9 -46l2 -18h2l2.5 18c1.66699 12 5.16699 27.333 10.5 46
l109 387h76l106 -387c4 -15.333 7 -29.833 9 -43.5l3 -20.5h2l2.5 20.5c1.66699 13.667 4.5 28.5 8.5 44.5l98 386h80z" />
    <glyph glyph-name="x" unicode="x" horiz-adv-x="472" 
d="M351 0l-116 219h-2l-118 -219h-91l167 279l-149 260h92l105 -197h2l107 197h83l-150 -253l167 -286h-97z" />
    <glyph glyph-name="y" unicode="y" horiz-adv-x="488" 
d="M214 -215h-95l90 215l-180 539h94l111 -387c5.33301 -18.667 8.83301 -34.834 10.5 -48.501l2.5 -20.5h2l3 20.5c2 13.667 5.66699 29.834 11 48.501l117 387h82z" />
    <glyph glyph-name="z" unicode="z" horiz-adv-x="417" 
d="M30 0l227 484h-210v55h322l-222 -484h230v-55h-347z" />
    <glyph glyph-name="braceleft" unicode="{" horiz-adv-x="370" 
d="M315 -129c-27.333 0 -52.334 2.83789 -75.001 8.50488s-42.334 14.667 -59.001 27s-29.5 28.166 -38.5 47.499s-13.5 42.666 -13.5 69.999v156c0 45.333 -6.16699 77.166 -18.5 95.499s-31.833 28.166 -58.5 29.499v49c26.667 1.33301 46.167 11 58.5 29
s18.5 49.333 18.5 94v156c0 26.667 4.5 49.667 13.5 69s21.833 35.166 38.5 47.499s36.334 21.333 59.001 27s47.667 8.5 75 8.5v-48c-35.333 0 -62.166 -8 -80.499 -24s-27.5 -42 -27.5 -78v-184c0 -37.333 -7.5 -65.5 -22.5 -84.5s-35.167 -31.167 -60.5 -36.5
c0.666992 0 0.833984 -0.333008 0.500977 -1l-0.5 -1c25.333 -6 45.5 -18.333 60.5 -37s22.5 -47 22.5 -85v-184c0 -36 9.16699 -62 27.5 -78s45.166 -24 80.499 -24v-49z" />
    <glyph glyph-name="bar" unicode="|" horiz-adv-x="228" 
d="M78 -215v1000h72v-1000h-72z" />
    <glyph glyph-name="braceright" unicode="}" horiz-adv-x="370" 
d="M318 305c-26.667 -1.33301 -46.167 -11.1709 -58.5 -29.5039s-18.5 -50.166 -18.5 -95.499v-156c0 -27.333 -4.5 -50.666 -13.5 -69.999s-21.833 -35.166 -38.5 -47.499s-36.334 -21.333 -59.001 -27s-47.667 -8.5 -75 -8.5v49c35.333 0 62.333 8 81 24s28 42 28 78v184
c0 38 7.33301 66.333 22 85s34.667 31 60 37v2c-25.333 5.33301 -45.333 17.5 -60 36.5s-22 47.167 -22 84.5v184c0 36 -9.33301 62 -28 78s-45.667 24 -81 24v48c27.333 0 52.333 -2.83301 75 -8.5s42.334 -14.667 59.001 -27s29.5 -28.166 38.5 -47.499
s13.5 -42.333 13.5 -69v-156c0 -44.667 6.16699 -76 18.5 -94s31.833 -27.667 58.5 -29v-49z" />
    <glyph glyph-name="asciitilde" unicode="~" horiz-adv-x="578" 
d="M494 353c-7.33301 -21.333 -18.8311 -39.001 -34.498 -53.001s-38.5 -23 -68.5 -27c-19.333 -2.66699 -36.833 -0.5 -52.5 6.5s-31 15 -46 24s-30.333 17 -46 24s-32.834 9.5 -51.501 7.5c-22.667 -3.33301 -40.167 -11.833 -52.5 -25.5s-21.5 -27.5 -27.5 -41.5l-31 51
c9.33301 21.333 21 39.5 35 54.5s35.333 24.167 64 27.5c21.333 2 40.166 -0.5 56.499 -7.5s31.833 -15 46.5 -24s29.5 -17.167 44.5 -24.5s31.5 -9.66602 49.5 -6.99902c22 3.33301 39.333 11.5 52 24.5s22 27.167 28 42.5z" />
    <glyph glyph-name="Zcaron" horiz-adv-x="433" 
d="M24 0l253 626h-237v62h353l-250 -626h257v-62h-376zM248 755c-10 -10 -21.333 -15 -34 -15s-24 5 -34 15l-99 100l25 21l109 -79l107 79l25 -21z" />
    <glyph glyph-name="Zcaron" unicode="&#x17d;" horiz-adv-x="433" 
d="M24 0l253 626h-237v62h353l-250 -626h257v-62h-376zM248 755c-10 -10 -21.333 -15 -34 -15s-24 5 -34 15l-99 100l25 21l109 -79l107 79l25 -21z" />
    <glyph glyph-name="zcaron" horiz-adv-x="417" 
d="M30 0l227 484h-210v55h322l-222 -484h230v-55h-347zM239 613c-10 -10 -21.333 -15 -34 -15s-24 5 -34 15l-99 101l25 21l109 -80l107 80l25 -21z" />
    <glyph glyph-name="zcaron" unicode="&#x17e;" horiz-adv-x="417" 
d="M30 0l227 484h-210v55h322l-222 -484h230v-55h-347zM239 613c-10 -10 -21.333 -15 -34 -15s-24 5 -34 15l-99 101l25 21l109 -80l107 80l25 -21z" />
    <glyph glyph-name="nonbreakingspace" unicode="&#xa0;" horiz-adv-x="276" 
 />
    <glyph glyph-name="exclamdown" unicode="&#xa1;" horiz-adv-x="290" 
d="M104 -215l19 462h66l19 -462h-104zM214 420c0 -16 -5.66699 -29.5 -17 -40.5s-25 -16.5 -41 -16.5c-15.333 0 -28.666 5.5 -39.999 16.5s-17 24.5 -17 40.5s5.66699 29.667 17 41s24.666 17 39.999 17c16 0 29.667 -5.66699 41 -17s17 -25 17 -41z" />
    <glyph glyph-name="cent" unicode="&#xa2;" 
d="M409 134c-9.33301 -7.33301 -22.832 -13.833 -40.499 -19.5s-39.834 -9.16699 -66.501 -10.5l8 -103h-61l9 106c-52 7.33301 -93.333 31 -124 71s-46 95.333 -46 166c0 68.667 15.667 123.667 47 165s73 65.666 125 72.999l-9 105h60l-7 -103
c25.333 -1.33301 46.5 -4.66602 63.5 -9.99902s30.833 -12 41.5 -20l-19 -46c-9.33301 6 -20.5 11 -33.5 15s-28.5 6 -46.5 6c-24 0 -44.667 -4.5 -62 -13.5s-31.5 -21.5 -42.5 -37.5s-19.167 -35.167 -24.5 -57.5s-8 -46.833 -8 -73.5c0 -56.667 11.5 -101.5 34.5 -134.5
s56.5 -49.5 100.5 -49.5c18 0 33.5 2 46.5 6s24.5 9 34.5 15z" />
    <glyph glyph-name="sterling" unicode="&#xa3;" 
d="M69 0c28.667 34 52.1719 71.499 70.5049 112.499s27.5 82.5 27.5 124.5c0 17.333 -1 32.666 -3 45.999s-5.33301 29 -10 47h-96v52h82c-6 20 -11.333 41.667 -16 65s-7 46.666 -7 69.999c0 24.667 4.66699 48 14 70s22.666 41.333 39.999 58s38.666 29.667 63.999 39
s53.666 14 84.999 14c34.667 0 64.667 -3.83301 90 -11.5s44 -15.5 56 -23.5l-23 -56c-11.333 6 -26 12 -44 18s-39.667 9 -65 9c-23.333 0 -43.333 -3.66699 -60 -11s-30.334 -17.166 -41.001 -29.499s-18.334 -27.166 -23.001 -44.499s-7 -36 -7 -56
c0 -17.333 1.33301 -34.833 4 -52.5s7 -37.167 13 -58.5h136v-52h-126c4 -17.333 6.5 -33 7.5 -47s1.5 -28.667 1.5 -44c0 -16.667 -2 -33.667 -6 -51s-8.66699 -33.666 -14 -48.999s-10.833 -28.833 -16.5 -40.5s-10.5 -20.167 -14.5 -25.5h289v-73h-408z" />
    <glyph glyph-name="currency" unicode="&#xa4;" 
d="M392 341c0 18 -3.33301 34.667 -10 50s-15.834 28.833 -27.501 40.5s-25.167 20.834 -40.5 27.501s-32 10 -50 10s-34.667 -3.33301 -50 -10s-28.833 -15.834 -40.5 -27.501s-20.834 -25.167 -27.501 -40.5s-10 -32 -10 -50s3.33301 -34.833 10 -50.5
s15.834 -29.334 27.501 -41.001s25.167 -20.834 40.5 -27.501s32 -10 50 -10s34.667 3.33301 50 10s28.833 15.834 40.5 27.501s20.834 25.334 27.501 41.001s10 32.5 10 50.5zM448 122l-72 72c-15.333 -12 -32.5 -21.333 -51.5 -28s-39.167 -10 -60.5 -10
s-41.5 3.33301 -60.5 10s-36.167 16 -51.5 28l-72 -72l-35 35l72 72c-12 15.333 -21.333 32.5 -28 51.5s-10 39.167 -10 60.5s3.33301 41.5 10 60.5s16 36.167 28 51.5l-72 72l35 35l72 -72c15.333 12 32.5 21.333 51.5 28s39.167 10 60.5 10s41.5 -3.33301 60.5 -10
s36.167 -16 51.5 -28l72 72l35 -35l-72 -72c12 -15.333 21.333 -32.5 28 -51.5s10 -39.167 10 -60.5s-3.33301 -41.5 -10 -60.5s-16 -36.167 -28 -51.5l72 -72z" />
    <glyph glyph-name="yen" unicode="&#xa5;" 
d="M373 440l108 7v-45l-122 9l-50 -101l172 7v-46l-174 10v-281h-85v281l-176 -10v46l174 -7l-50 101l-124 -9v45l110 -7l-122 248h93l139 -319h2l144 319h82z" />
    <glyph glyph-name="brokenbar" unicode="&#xa6;" horiz-adv-x="228" 
d="M78 -215v395h72v-395h-72zM78 390v395h72v-395h-72z" />
    <glyph glyph-name="section" unicode="&#xa7;" 
d="M379 206c0 12 -0.832031 23.334 -2.49902 34.001s-4.83398 21 -9.50098 31s-11 19.833 -19 29.5s-18.333 20.167 -31 31.5l-87 74c-10 -6 -20 -13 -30 -21s-19.167 -17.167 -27.5 -27.5s-15 -21.833 -20 -34.5s-7.5 -26.334 -7.5 -41.001
c0 -27.333 5.33301 -50.5 16 -69.5s27.667 -38.5 51 -58.5l81 -69c23.333 14.667 43.5 31.5 60.5 50.5s25.5 42.5 25.5 70.5zM453.001 217.001c0 -18.667 -3.33203 -36.167 -9.99902 -52.5s-15.5 -31.5 -26.5 -45.5s-23.667 -26.667 -38 -38
s-29.166 -21.666 -44.499 -30.999c29.333 -26 48.333 -49.833 57 -71.5s13 -42.167 13 -61.5c0 -20 -4 -38.5 -12 -55.5s-19.167 -31.667 -33.5 -44s-31.5 -22.166 -51.5 -29.499s-42 -11 -66 -11c-30 0 -55.833 3.5 -77.5 10.5s-39.834 15.5 -54.501 25.5l24 55
c9.33301 -7.33301 22.333 -14.333 39 -21s35 -10 55 -10c25.333 0 47.5 6.66699 66.5 20s28.5 32.666 28.5 57.999c0 8 -0.5 15.667 -1.5 23s-3.5 14.833 -7.5 22.5s-9.66699 15.834 -17 24.501s-17.333 18.334 -30 29.001l-103 87
c-34.667 28.667 -57.834 56.167 -69.501 82.5s-17.5 55.166 -17.5 86.499c0 20.667 3.5 39.5 10.5 56.5s16.167 32.5 27.5 46.5s23.833 26.667 37.5 38s27.5 21.333 41.5 30c-22 21.333 -37.333 41.5 -46 60.5s-13 40.167 -13 63.5c0 17.333 3.66699 33.833 11 49.5
s17.5 29.5 30.5 41.5s28.667 21.5 47 28.5s38.5 10.5 60.5 10.5c30 0 55.167 -3.5 75.5 -10.5s36.5 -14.833 48.5 -23.5l-22 -49c-9.33301 6 -21.666 12 -36.999 18s-33 9 -53 9c-24.667 0 -44.834 -6.33301 -60.501 -19s-23.5 -31.334 -23.5 -56.001
c0 -8.66699 0.833008 -17 2.5 -25s5 -16.333 10 -25s12 -17.834 21 -27.501s20.5 -20.5 34.5 -32.5l81 -69c17.333 -15.333 32 -29.5 44 -42.5s21.667 -26.167 29 -39.5s12.5 -27 15.5 -41s4.5 -29 4.5 -45z" />
    <glyph glyph-name="dieresis" unicode="&#xa8;" horiz-adv-x="196" 
d="M61 659c0 -12 -4.5 -21.999 -13.5 -29.999s-19.833 -12 -32.5 -12s-23.334 4.16699 -32.001 12.5s-13 18.166 -13 29.499c0 12 4.33301 22.167 13 30.5s19.334 12.5 32.001 12.5s23.5 -4.16699 32.5 -12.5s13.5 -18.5 13.5 -30.5zM225 659.001
c0 -12 -4.33301 -21.999 -13 -29.999s-19.334 -12 -32.001 -12s-23.334 4.16699 -32.001 12.5s-13 18.166 -13 29.499c0 12 4.33301 22.167 13 30.5s19.334 12.5 32.001 12.5s23.334 -4.16699 32.001 -12.5s13 -18.5 13 -30.5z" />
    <glyph glyph-name="copyright" unicode="&#xa9;" horiz-adv-x="825" 
d="M576 211c-20 -24 -43.834 -42.667 -71.501 -56s-57.5 -20 -89.5 -20c-29.333 0 -56.666 5.5 -81.999 16.5s-47.5 26 -66.5 45s-34 41.167 -45 66.5s-16.5 52.666 -16.5 81.999s5.5 56.833 16.5 82.5s26 48 45 67s41.167 34 66.5 45s52.666 16.5 81.999 16.5
c33.333 0 63.333 -6.66699 90 -20s50 -31.666 70 -54.999l-34 -31c-15.333 18.667 -33.833 33.5 -55.5 44.5s-45.167 16.5 -70.5 16.5c-22.667 0 -43.834 -4.33301 -63.501 -13s-37 -20.5 -52 -35.5s-26.833 -32.667 -35.5 -53s-13 -41.833 -13 -64.5s4.33301 -44 13 -64
s20.5 -37.5 35.5 -52.5s32.333 -26.833 52 -35.5s40.834 -13 63.501 -13c24.667 0 47.834 5.33301 69.501 16s40.167 25 55.5 43zM722.999 343c0 42.667 -8.16699 82.834 -24.5 120.501s-38.5 70.667 -66.5 99s-61 50.666 -99 66.999s-78.333 24.5 -121 24.5
s-82.834 -8.16699 -120.501 -24.5s-70.5 -38.666 -98.5 -66.999s-50.167 -61.333 -66.5 -99s-24.5 -77.834 -24.5 -120.501s8.16699 -82.834 24.5 -120.501s38.5 -70.5 66.5 -98.5s60.833 -50.167 98.5 -66.5s77.834 -24.5 120.501 -24.5s83 8.16699 121 24.5
s71 38.5 99 66.5s50.167 60.833 66.5 98.5s24.5 77.834 24.5 120.501zM765.999 343c0 -48.667 -9.33301 -94.5 -28 -137.5s-44 -80.5 -76 -112.5s-69.5 -57.167 -112.5 -75.5s-88.833 -27.5 -137.5 -27.5s-94.5 9.16699 -137.5 27.5s-80.5 43.5 -112.5 75.5
s-57.167 69.5 -75.5 112.5s-27.5 88.833 -27.5 137.5s9.16699 94.5 27.5 137.5s43.5 80.5 75.5 112.5s69.5 57.333 112.5 76s88.833 28 137.5 28s94.5 -9.33301 137.5 -28s80.5 -44 112.5 -76s57.333 -69.5 76 -112.5s28 -88.833 28 -137.5z" />
    <glyph glyph-name="ordfeminine" unicode="&#xaa;" horiz-adv-x="353" 
d="M242 539c-22 -2.66699 -41.668 -5.66797 -59.001 -9.00098s-32 -8.33301 -44 -15s-21.333 -15.167 -28 -25.5s-10 -23.5 -10 -39.5c0 -23.333 7.83301 -39.666 23.5 -48.999s36.167 -14 61.5 -14c22.667 0 41.334 3.33301 56.001 10v142zM300.999 374.999
c-14 -7.33301 -30.998 -13.332 -50.998 -17.999s-42.667 -7 -68 -7c-47.333 0 -82.333 9.16699 -105 27.5s-34 42.5 -34 72.5c0 23.333 5.33301 42.333 16 57s25.167 26.5 43.5 35.5s39.5 15.667 63.5 20s49.333 7.83301 76 10.5v19c0 24 -6.83301 40.333 -20.5 49
s-31.834 13 -54.501 13c-15.333 0 -30.5 -2 -45.5 -6s-27.833 -8.66699 -38.5 -14l-15 37c11.333 6 26.166 11.5 44.499 16.5s39.5 7.5 63.5 7.5c17.333 0 33.5 -1.83301 48.5 -5.5s28.167 -9.66699 39.5 -18s20.333 -19.333 27 -33s10 -30.834 10 -51.501v-212z" />
    <glyph glyph-name="guillemotleft" unicode="&#xab;" horiz-adv-x="514" 
d="M211 116l-151 218l151 218l47 -31l-128 -187l128 -187zM395 116l-151 218l151 218l47 -31l-128 -187l128 -187z" />
    <glyph glyph-name="logicalnot" unicode="&#xac;" 
d="M393 146v160h-321v60h384v-220h-63z" />
    <glyph glyph-name="registered" unicode="&#xae;" horiz-adv-x="825" 
d="M491 450c0 15.333 -3.00098 28 -9.00098 38s-13.667 18 -23 24s-19.833 10.167 -31.5 12.5s-22.834 3.5 -33.501 3.5c-17.333 0 -32.333 -2.66699 -45 -8v-155h37c14 0 27.333 1.5 40 4.5s23.834 7.66699 33.501 14s17.334 15 23.001 26s8.5 24.5 8.5 40.5zM500.999 139
l-137.004 193.001h-15v-193h-47v408c26.667 13.333 59.334 20 98.001 20c18.667 0 36.334 -2.5 53.001 -7.5s31.334 -12.333 44.001 -22s22.834 -21.834 30.501 -36.501s11.5 -32 11.5 -52c0 -36 -11.667 -63.5 -35 -82.5s-53 -29.5 -89 -31.5l142 -196h-56z
M722.995 343.001c0 42.667 -8.16699 82.834 -24.5 120.501s-38.5 70.667 -66.5 99s-61 50.666 -99 66.999s-78.333 24.5 -121 24.5s-82.834 -8.16699 -120.501 -24.5s-70.5 -38.666 -98.5 -66.999s-50.167 -61.333 -66.5 -99s-24.5 -77.834 -24.5 -120.501
s8.16699 -82.834 24.5 -120.501s38.5 -70.5 66.5 -98.5s60.833 -50.167 98.5 -66.5s77.834 -24.5 120.501 -24.5s83 8.16699 121 24.5s71 38.5 99 66.5s50.167 60.833 66.5 98.5s24.5 77.834 24.5 120.501zM765.995 343.001c0 -48.667 -9.33301 -94.5 -28 -137.5
s-44 -80.5 -76 -112.5s-69.5 -57.167 -112.5 -75.5s-88.833 -27.5 -137.5 -27.5s-94.5 9.16699 -137.5 27.5s-80.5 43.5 -112.5 75.5s-57.167 69.5 -75.5 112.5s-27.5 88.833 -27.5 137.5s9.16699 94.5 27.5 137.5s43.5 80.5 75.5 112.5s69.5 57.333 112.5 76
s88.833 28 137.5 28s94.5 -9.33301 137.5 -28s80.5 -44 112.5 -76s57.333 -69.5 76 -112.5s28 -88.833 28 -137.5z" />
    <glyph glyph-name="macron" unicode="&#xaf;" horiz-adv-x="196" 
d="M-44 629v51h284v-51h-284z" />
    <glyph glyph-name="macron" unicode="&#x2c9;" horiz-adv-x="196" 
d="M-44 629v51h284v-51h-284z" />
    <glyph glyph-name="degree" unicode="&#xb0;" horiz-adv-x="420" 
d="M313 549c0 14 -2.66699 27.333 -8 40s-12.666 23.667 -21.999 33s-20.333 16.666 -33 21.999s-26 8 -40 8s-27.333 -2.66699 -40 -8s-23.667 -12.666 -33 -21.999s-16.666 -20.333 -21.999 -33s-8 -26 -8 -40s2.66699 -27.333 8 -40s12.666 -23.667 21.999 -33
s20.333 -16.666 33 -21.999s26 -8 40 -8s27.333 2.66699 40 8s23.667 12.666 33 21.999s16.666 20.333 21.999 33s8 26 8 40zM360 549c0 -20.667 -4 -40.167 -12 -58.5s-18.667 -34.166 -32 -47.499s-29.166 -24 -47.499 -32s-37.833 -12 -58.5 -12s-40.167 4 -58.5 12
s-34.166 18.667 -47.499 32s-24 29.166 -32 47.499s-12 37.833 -12 58.5s4 40.167 12 58.5s18.667 34.166 32 47.499s29.166 24 47.499 32s37.833 12 58.5 12s40.167 -4 58.5 -12s34.166 -18.667 47.499 -32s24 -29.166 32 -47.499s12 -37.833 12 -58.5z" />
    <glyph glyph-name="plusminus" unicode="&#xb1;" 
d="M72 71v58h384v-58h-384zM294 364v-173h-61v173h-161v58h161v171h61v-171h162v-58h-162z" />
    <glyph glyph-name="twosuperior" unicode="&#xb2;" horiz-adv-x="368" 
d="M48 271l151.999 210c15.333 21.333 25.5 38.333 30.5 51s7.5 26.334 7.5 41.001c0 20 -6.66699 36.667 -20 50s-34 20 -62 20c-14.667 0 -27.667 -1.5 -39 -4.5s-21.666 -6.83301 -30.999 -11.5l-19 43c14 7.33301 30.167 13.166 48.5 17.499s37.833 6.5 58.5 6.5
c40.667 0 72.667 -10.667 96 -32s35 -49 35 -83c0 -16 -4 -33.5 -12 -52.5s-21.667 -40.833 -41 -65.5l-105 -136h161v-54h-260z" />
    <glyph glyph-name="threesuperior" unicode="&#xb3;" horiz-adv-x="368" 
d="M305 393c0 -19.333 -3.66699 -37.0039 -11 -53.0039s-17.333 -29.667 -30 -41s-27.667 -20 -45 -26s-36 -9 -56 -9c-25.333 0 -46.5 2.16699 -63.5 6.5s-32.5 10.5 -46.5 18.5l18 45c10.667 -5.33301 22.667 -9.83301 36 -13.5s28.666 -5.5 45.999 -5.5
c26.667 0 47.5 6.83301 62.5 20.5s22.5 32.834 22.5 57.501c0 18 -3.83301 32.5 -11.5 43.5s-17.167 19.5 -28.5 25.5s-24 9.83301 -38 11.5s-27 2.16699 -39 1.5v40c32.667 2.66699 58 10.667 76 24s27 30.333 27 51s-6.5 35.334 -19.5 44.001s-28.833 13 -47.5 13
c-25.333 0 -49.333 -5.66699 -72 -17l-18 41c14.667 8 29.834 14 45.501 18s34.167 6 55.5 6c16 0 31.333 -2.16699 46 -6.5s27.5 -10.5 38.5 -18.5s19.667 -18.167 26 -30.5s9.5 -26.5 9.5 -42.5c0 -12.667 -2.16699 -24 -6.5 -34s-10 -18.667 -17 -26
s-14.5 -13.666 -22.5 -18.999s-15.333 -9.66602 -22 -12.999c10 -3.33301 20.167 -8 30.5 -14s19.5 -13.5 27.5 -22.5s14.5 -19.667 19.5 -32s7.5 -26.833 7.5 -43.5z" />
    <glyph glyph-name="acute" unicode="&#xb4;" horiz-adv-x="196" 
d="M90 598h-50l70 137c8.66699 5.33301 18.167 9.5 28.5 12.5s19.833 4.5 28.5 4.5c9.33301 0 17.333 -1.5 24 -4.5s11 -7.5 13 -13.5z" />
    <glyph glyph-name="mu" unicode="&#xb5;" horiz-adv-x="533" 
d="M462 33c-23.333 -13.333 -48.333 -23.333 -75 -30s-60.334 -10 -101.001 -10c-22.667 0 -44.667 3 -66 9s-41.666 14.333 -60.999 25v-242h-88v754h88v-461c16 -9.33301 32.833 -16.333 50.5 -21s37.167 -7 58.5 -7c25.333 0 46 1.83301 62 5.5s30.667 9.16699 44 16.5
v467h88v-506z" />
    <glyph glyph-name="mu" unicode="&#x3bc;" horiz-adv-x="533" 
d="M462 33c-23.333 -13.333 -48.333 -23.333 -75 -30s-60.334 -10 -101.001 -10c-22.667 0 -44.667 3 -66 9s-41.666 14.333 -60.999 25v-242h-88v754h88v-461c16 -9.33301 32.833 -16.333 50.5 -21s37.167 -7 58.5 -7c25.333 0 46 1.83301 62 5.5s30.667 9.16699 44 16.5
v467h88v-506z" />
    <glyph glyph-name="paragraph" unicode="&#xb6;" 
d="M455 643v-858.004h-63v858h-135v-858h-63v540c-25.333 2.66699 -48.166 8.83398 -68.499 18.501s-37.833 22.334 -52.5 38.001s-25.834 33.667 -33.501 54s-11.5 42.833 -11.5 67.5c0 33.333 6 61.833 18 85.5s28.167 42.834 48.5 57.501s43.833 25.334 70.5 32.001
s54.667 10 84 10h237v-45h-31z" />
    <glyph glyph-name="periodcentered" unicode="&#xb7;" horiz-adv-x="243" 
d="M180 344c0 -16 -5.66699 -29.667 -17 -41s-25 -17 -41 -17c-16.667 0 -30.667 5.66699 -42 17s-17 25 -17 41s5.66699 29.667 17 41s25.333 17 42 17c16 0 29.667 -5.66699 41 -17s17 -25 17 -41z" />
    <glyph glyph-name="periodcentered" unicode="&#x22c5;" horiz-adv-x="243" 
d="M180 344c0 -16 -5.66699 -29.667 -17 -41s-25 -17 -41 -17c-16.667 0 -30.667 5.66699 -42 17s-17 25 -17 41s5.66699 29.667 17 41s25.333 17 42 17c16 0 29.667 -5.66699 41 -17s17 -25 17 -41z" />
    <glyph glyph-name="periodcentered" unicode="&#x2227;" horiz-adv-x="243" 
d="M180 344c0 -16 -5.66699 -29.667 -17 -41s-25 -17 -41 -17c-16.667 0 -30.667 5.66699 -42 17s-17 25 -17 41s5.66699 29.667 17 41s25.333 17 42 17c16 0 29.667 -5.66699 41 -17s17 -25 17 -41z" />
    <glyph glyph-name="periodcentered" unicode="&#x2224;" horiz-adv-x="243" 
d="M180 344c0 -16 -5.66699 -29.667 -17 -41s-25 -17 -41 -17c-16.667 0 -30.667 5.66699 -42 17s-17 25 -17 41s5.66699 29.667 17 41s25.333 17 42 17c16 0 29.667 -5.66699 41 -17s17 -25 17 -41z" />
    <glyph glyph-name="periodcentered" unicode="&#x2219;" horiz-adv-x="243" 
d="M180 344c0 -16 -5.66699 -29.667 -17 -41s-25 -17 -41 -17c-16.667 0 -30.667 5.66699 -42 17s-17 25 -17 41s5.66699 29.667 17 41s25.333 17 42 17c16 0 29.667 -5.66699 41 -17s17 -25 17 -41z" />
    <glyph glyph-name="cedilla" unicode="&#xb8;" horiz-adv-x="196" 
d="M226 -124c0 -30.667 -22.667 -52.001 -68 -64.001s-108 -14.667 -188 -8l20 34c22 -2 43.167 -2.66699 63.5 -2s38.333 2.5 54 5.5s28.334 7.16699 38.001 12.5s14.5 12.333 14.5 21c0 15.333 -10.167 25.333 -30.5 30s-52.5 5.33398 -96.5 2.00098l20 31
c32.667 2.66699 60.167 3 82.5 1s40.166 -5.83301 53.499 -11.5s22.833 -13 28.5 -22s8.5 -18.833 8.5 -29.5z" />
    <glyph glyph-name="onesuperior" unicode="&#xb9;" horiz-adv-x="368" 
d="M186 271l0.000976562 336c-16 -5.33301 -32.667 -9.5 -50 -12.5s-36 -5.16699 -56 -6.5l-6 35c36 4.66699 64.667 13 86 25s36.666 25.333 45.999 40h44v-417h-64z" />
    <glyph glyph-name="ordmasculine" unicode="&#xba;" horiz-adv-x="353" 
d="M255 524c0 16.667 -1 33.167 -3 49.5s-5.83301 30.666 -11.5 42.999s-13.667 22.333 -24 30s-23.5 11.5 -39.5 11.5s-29.167 -3.83301 -39.5 -11.5s-18.5 -17.667 -24.5 -30s-10 -26.5 -12 -42.5s-3 -32.333 -3 -49c0 -17.333 1.16699 -33.833 3.5 -49.5
s6.33301 -29.5 12 -41.5s13.667 -21.5 24 -28.5s23.5 -10.5 39.5 -10.5s29.167 3.5 39.5 10.5s18.333 16.5 24 28.5s9.5 25.833 11.5 41.5s3 31.834 3 48.501zM318 524c0 -24 -2.83398 -46.667 -8.50098 -68s-14.167 -39.666 -25.5 -54.999s-25.833 -27.5 -43.5 -36.5
s-38.834 -13.5 -63.501 -13.5s-46 4.5 -64 13.5s-32.667 21.167 -44 36.5s-19.833 33.666 -25.5 54.999s-8.5 44 -8.5 68c0 24.667 2.66699 47.5 8 68.5s13.833 39.167 25.5 54.5s26.334 27.5 44.001 36.5s38.834 13.5 63.501 13.5s46 -4.5 64 -13.5
s32.833 -21.167 44.5 -36.5s20.167 -33.5 25.5 -54.5s8 -43.833 8 -68.5z" />
    <glyph glyph-name="guillemotright" unicode="&#xbb;" horiz-adv-x="514" 
d="M120 116l-48 31l128 187l-128 187l48 31l151 -218zM304 116l-47 31l127 187l-127 187l47 31l150 -218z" />
    <glyph glyph-name="onequarter" unicode="&#xbc;" horiz-adv-x="799" 
d="M628 349l-7.5 -16c-5 -10.667 -11.167 -22.667 -18.5 -36l-96 -163h123v163c0 13.333 0.166992 25.333 0.5 36l0.5 16h-2zM161 271v336c-15.333 -5.33301 -32 -9.5 -50 -12.5s-37 -5.16699 -57 -6.5l-6 35c33.333 4.66699 61.5 13 84.5 25s39.167 25.333 48.5 40h44v-417
h-64zM252 -15l-53 23l331 694l53 -22zM689 93v-93h-60v93h-169v41l170 284h59v-284h34v-41h-34z" />
    <glyph glyph-name="onehalf" unicode="&#xbd;" horiz-adv-x="799" 
d="M161 271v336c-15.333 -5.33301 -32 -9.5 -50 -12.5s-37 -5.16699 -57 -6.5l-6 35c33.333 4.66699 61.5 13 84.5 25s39.167 25.333 48.5 40h44v-417h-64zM236 -15l-53 23l331 694l53 -22zM465 0l151.998 206.998c16.667 22.667 27 41 31 55s6 27.333 6 40
c0 22.667 -6.5 40.334 -19.5 53.001s-33.833 19 -62.5 19c-14 0 -26.167 -1.66699 -36.5 -5s-20.166 -7.66602 -29.499 -12.999l-18 43c10.667 6 23.834 11.667 39.501 17s36.5 8 62.5 8c40.667 0 72.667 -11 96 -33s35 -50 35 -84c0 -16 -3.83301 -34 -11.5 -54
s-21.167 -42 -40.5 -66l-106 -133h160v-54h-258z" />
    <glyph glyph-name="threequarters" unicode="&#xbe;" horiz-adv-x="799" 
d="M635 349c-0.666992 0 -3.66797 -5.33301 -9.00098 -16s-11.666 -22.667 -18.999 -36l-96 -163h123v163c0 12.667 0.166992 24.5 0.5 35.5zM304.999 393c0 -39.333 -13.498 -70.6709 -40.498 -94.0039s-60.833 -35 -101.5 -35c-24.667 0 -45.667 2.16699 -63 6.5
s-33 10.5 -47 18.5l18 45c10.667 -5.33301 22.667 -9.83301 36 -13.5s28.666 -5.5 45.999 -5.5c27.333 0 48.333 6.83301 63 20.5s22 32.834 22 57.501c0 18 -3.66699 32.5 -11 43.5s-16.833 19.5 -28.5 25.5s-24.334 9.83301 -38.001 11.5s-26.5 2.16699 -38.5 1.5v40
c32 2.66699 57 10.667 75 24s27 30.333 27 51s-6.5 35.334 -19.5 44.001s-28.5 13 -46.5 13c-25.333 0 -49.333 -5.66699 -72 -17l-19 41c14.667 8 30 14 46 18s34.667 6 56 6c32.667 0 60.667 -8.33301 84 -25s35 -41 35 -73c0 -12.667 -2.16699 -24 -6.5 -34
s-9.83301 -18.667 -16.5 -26s-14 -13.666 -22 -18.999s-15.333 -9.66602 -22 -12.999c10 -3.33301 20 -8 30 -14s19 -13.5 27 -22.5s14.5 -19.667 19.5 -32s7.5 -26.833 7.5 -43.5zM283.001 -15.0049l-53 23l331 694l54 -22zM694.001 92.9951v-93h-60v93h-169v41l170 284h59
v-284h34v-41h-34z" />
    <glyph glyph-name="questiondown" unicode="&#xbf;" horiz-adv-x="394" 
d="M380 -185c-16.667 -10.667 -37.166 -19.499 -61.499 -26.499s-51.833 -10.5 -82.5 -10.5c-60 0 -107.333 14.5 -142 43.5s-52 68.167 -52 117.5c0 22.667 5 43.167 15 61.5s22.167 34.333 36.5 48s29.833 25 46.5 34s32 15.5 46 19.5l11 146h66l14 -174
c-15.333 -3.33301 -31.5 -8.5 -48.5 -15.5s-32.5 -15.667 -46.5 -26s-25.5 -22.833 -34.5 -37.5s-13.5 -31.334 -13.5 -50.001c0 -30 9.33301 -54.833 28 -74.5s48.334 -29.5 89.001 -29.5c23.333 0 43.666 2.83301 60.999 8.5s31.666 11.5 42.999 17.5zM287.001 420.001
c0 -15.333 -5.66699 -28.666 -17 -39.999s-24.666 -17 -39.999 -17c-16 0 -29.667 5.66699 -41 17s-17 24.666 -17 39.999c0 16 5.66699 29.667 17 41s25 17 41 17c15.333 0 28.666 -5.66699 39.999 -17s17 -25 17 -41z" />
    <glyph glyph-name="Agrave" unicode="&#xc0;" horiz-adv-x="585" 
d="M311 522c-8.66699 27.333 -14.166 47.666 -16.499 60.999l-3.5 20h-2l-4 -20c-2.66699 -13.333 -8.33398 -33.666 -17.001 -60.999l-82 -261h205zM471.001 0l-65 206h-236l-67 -206h-84l233 688h82l232 -688h-95zM271.001 740l-114.001 136c2 6 6.33301 10.5 13 13.5
s14.334 4.5 23.001 4.5c9.33301 0 19 -1.5 29 -4.5s19.333 -7.16699 28 -12.5l71 -137h-50z" />
    <glyph glyph-name="Aacute" unicode="&#xc1;" horiz-adv-x="585" 
d="M311 522c-8.66699 27.333 -14.166 47.666 -16.499 60.999l-3.5 20h-2l-4 -20c-2.66699 -13.333 -8.33398 -33.666 -17.001 -60.999l-82 -261h205zM471.001 0l-65 206h-236l-67 -206h-84l233 688h82l232 -688h-95zM305.001 740h-50l70 137c8.66699 5.33301 18 9.5 28 12.5
s19.333 4.5 28 4.5c9.33301 0 17.5 -1.5 24.5 -4.5s11.5 -7.5 13.5 -13.5z" />
    <glyph glyph-name="Acircumflex" unicode="&#xc2;" horiz-adv-x="585" 
d="M311 522c-8.66699 27.333 -14.166 47.666 -16.499 60.999l-3.5 20h-2l-4 -20c-2.66699 -13.333 -8.33398 -33.666 -17.001 -60.999l-82 -261h205zM471.001 0l-65 206h-236l-67 -206h-84l233 688h82l232 -688h-95zM400.001 739l-106 79l-108 -79l-25 21l99 101
c8.66699 10 19.667 15 33 15c12.667 0 24 -5 34 -15l99 -101z" />
    <glyph glyph-name="Atilde" unicode="&#xc3;" horiz-adv-x="585" 
d="M311 522c-8.66699 27.333 -14.166 47.666 -16.499 60.999l-3.5 20h-2l-4 -20c-2.66699 -13.333 -8.33398 -33.666 -17.001 -60.999l-82 -261h205zM471.001 0l-65 206h-236l-67 -206h-84l233 688h82l232 -688h-95zM433.001 806
c-4.66699 -13.333 -11.834 -24.499 -21.501 -33.499s-25.167 -15.167 -46.5 -18.5c-14 -2 -26.667 -1 -38 3s-22.166 8.83301 -32.499 14.5s-20.833 10.667 -31.5 15s-22 5.83301 -34 4.5c-15.333 -1.33301 -27 -6.83301 -35 -16.5s-13.667 -18.834 -17 -27.501l-26 40
c6 14 14 26.167 24 36.5s25.667 16.5 47 18.5c14 1.33301 26.5 -0.166992 37.5 -4.5s21.5 -9.33301 31.5 -15s19.833 -10.667 29.5 -15s20.5 -5.83301 32.5 -4.5c15.333 2 27 7.5 35 16.5s13.667 18.167 17 27.5z" />
    <glyph glyph-name="Adieresis" unicode="&#xc4;" horiz-adv-x="585" 
d="M311 522c-8.66699 27.333 -14.166 47.666 -16.499 60.999l-3.5 20h-2l-4 -20c-2.66699 -13.333 -8.33398 -33.666 -17.001 -60.999l-82 -261h205zM471.001 0l-65 206h-236l-67 -206h-84l233 688h82l232 -688h-95zM256.001 800c0 -12 -4.33301 -22.167 -13 -30.5
s-19.334 -12.5 -32.001 -12.5s-23.334 4.16699 -32.001 12.5s-13 18.5 -13 30.5s4.33301 22.167 13 30.5s19.334 12.5 32.001 12.5s23.334 -4.16699 32.001 -12.5s13 -18.5 13 -30.5zM421.001 800c0 -12 -4.5 -22.167 -13.5 -30.5s-19.833 -12.5 -32.5 -12.5
c-12 0 -22.5 4.16699 -31.5 12.5s-13.5 18.5 -13.5 30.5s4.5 22.167 13.5 30.5s19.5 12.5 31.5 12.5c12.667 0 23.5 -4.16699 32.5 -12.5s13.5 -18.5 13.5 -30.5z" />
    <glyph glyph-name="Aring" unicode="&#xc5;" horiz-adv-x="585" 
d="M311 522c-8.66699 27.333 -14.166 47.666 -16.499 60.999l-3.5 20h-2l-4 -20c-2.66699 -13.333 -8.33398 -33.666 -17.001 -60.999l-82 -261h205zM340.001 818c0 13.333 -4.5 24.5 -13.5 33.5s-20.167 13.5 -33.5 13.5s-24.5 -4.5 -33.5 -13.5s-13.5 -20.167 -13.5 -33.5
s4.5 -24.5 13.5 -33.5s20.167 -13.5 33.5 -13.5s24.5 4.5 33.5 13.5s13.5 20.167 13.5 33.5zM471.001 0l-65 206h-236l-67 -206h-84l233 688h82l232 -688h-95zM374.001 818c0 -22 -7.83301 -40.833 -23.5 -56.5s-34.834 -23.5 -57.501 -23.5
c-22 0 -40.833 7.83301 -56.5 23.5s-23.5 34.5 -23.5 56.5c0 22.667 7.83301 41.834 23.5 57.501s34.5 23.5 56.5 23.5c22.667 0 41.834 -7.83301 57.501 -23.5s23.5 -34.834 23.5 -57.501z" />
    <glyph glyph-name="AE" unicode="&#xc6;" horiz-adv-x="745" 
d="M338 547c-4 17.333 -6.66699 32.333 -8 45l-2 19h-2l-4.5 -19.5c-3 -13 -8.16699 -28.167 -15.5 -45.5l-112 -284h209zM460 0l-48 206h-240l-82 -206h-85l287 688h364v-62h-263l61 -240h202v-61h-188l67 -263h188v-62h-263z" />
    <glyph glyph-name="Ccedilla" unicode="&#xc7;" horiz-adv-x="478" 
d="M395 -124c0 -30.667 -22.499 -52.001 -67.499 -64.001s-107.833 -14.667 -188.5 -8l21 34c21.333 -2 42.166 -2.66699 62.499 -2s38.333 2.5 54 5.5s28.334 7.16699 38.001 12.5s14.5 12.333 14.5 21c0 15.333 -10.167 25.333 -30.5 30s-52.5 5.33398 -96.5 2.00098
l20 31c32.667 2.66699 60.167 3 82.5 1s40.166 -5.83301 53.499 -11.5s22.833 -13 28.5 -22s8.5 -18.833 8.5 -29.5zM447.001 27.999c-15.333 -11.333 -34.666 -20.502 -57.999 -27.502s-49 -10.5 -77 -10.5c-41.333 0 -78 9.33301 -110 28s-59 44 -81 76
s-38.667 69.5 -50 112.5s-17 88.833 -17 137.5c0 48 5.66699 93.333 17 136s28 80.167 50 112.5s49 58 81 77s68.667 28.5 110 28.5c30.667 0 56.834 -3.5 78.501 -10.5s40.167 -16.167 55.5 -27.5l-22 -54c-10.667 6.66699 -24 12.834 -40 18.501s-34.667 8.5 -56 8.5
c-33.333 0 -61.333 -8.16699 -84 -24.5s-41 -38 -55 -65s-24 -57.833 -30 -92.5s-9 -70.334 -9 -107.001c0 -37.333 3.33301 -73.166 10 -107.499s17.167 -64.666 31.5 -90.999s32.666 -47.333 54.999 -63s49.166 -23.5 80.499 -23.5c21.333 0 39.333 2.5 54 7.5
s28.667 11.5 42 19.5z" />
    <glyph glyph-name="Egrave" unicode="&#xc8;" horiz-adv-x="441" 
d="M77 0v688h319v-62h-227v-240h204v-61h-204v-263h227v-62h-319zM230 740l-114 136c2 6 6.5 10.5 13.5 13.5s14.833 4.5 23.5 4.5c9.33301 0 19 -1.5 29 -4.5s19.333 -7.16699 28 -12.5l70 -137h-50z" />
    <glyph glyph-name="Eacute" unicode="&#xc9;" horiz-adv-x="441" 
d="M77 0v688h319v-62h-227v-240h204v-61h-204v-263h227v-62h-319zM241 740h-50l70 137c8.66699 5.33301 18 9.5 28 12.5s19.333 4.5 28 4.5c9.33301 0 17.5 -1.5 24.5 -4.5s11.5 -7.5 13.5 -13.5z" />
    <glyph glyph-name="Ecircumflex" unicode="&#xca;" horiz-adv-x="441" 
d="M77 0v688h319v-62h-227v-240h204v-61h-204v-263h227v-62h-319zM338 739l-107 79l-107 -79l-25 21l98 101c10 10 21 15 33 15c13.333 0 25 -5 35 -15l98 -101z" />
    <glyph glyph-name="Edieresis" unicode="&#xcb;" horiz-adv-x="441" 
d="M77 0v688h319v-62h-227v-240h204v-61h-204v-263h227v-62h-319zM196 800c0 -12 -4.5 -22.167 -13.5 -30.5s-19.833 -12.5 -32.5 -12.5s-23.334 4.16699 -32.001 12.5s-13 18.5 -13 30.5s4.33301 22.167 13 30.5s19.334 12.5 32.001 12.5s23.5 -4.16699 32.5 -12.5
s13.5 -18.5 13.5 -30.5zM360 800c0 -12 -4.5 -22.167 -13.5 -30.5s-19.5 -12.5 -31.5 -12.5c-12.667 0 -23.5 4.16699 -32.5 12.5s-13.5 18.5 -13.5 30.5s4.5 22.167 13.5 30.5s19.833 12.5 32.5 12.5c12 0 22.5 -4.16699 31.5 -12.5s13.5 -18.5 13.5 -30.5z" />
    <glyph glyph-name="Igrave" unicode="&#xcc;" horiz-adv-x="253" 
d="M81 0v688h92v-688h-92zM129 740l-114 136c2 6 6.5 10.5 13.5 13.5s14.833 4.5 23.5 4.5c9.33301 0 19 -1.5 29 -4.5s19.333 -7.16699 28 -12.5l70 -137h-50z" />
    <glyph glyph-name="Iacute" unicode="&#xcd;" horiz-adv-x="253" 
d="M80 0v688h92v-688h-92zM123 740h-49l70 137c8.66699 5.33301 18 9.5 28 12.5s19.333 4.5 28 4.5c9.33301 0 17.5 -1.5 24.5 -4.5s11.5 -7.5 13.5 -13.5z" />
    <glyph glyph-name="Icircumflex" unicode="&#xce;" horiz-adv-x="253" 
d="M80 0v688h92v-688h-92zM233 739l-106 79l-108 -79l-25 21l99 101c8.66699 10 19.667 15 33 15c12.667 0 24 -5 34 -15l98 -101z" />
    <glyph glyph-name="Idieresis" unicode="&#xcf;" horiz-adv-x="253" 
d="M80 0v688h92v-688h-92zM89 800c0 -12 -4.33301 -22.167 -13 -30.5s-19.334 -12.5 -32.001 -12.5s-23.334 4.16699 -32.001 12.5s-13 18.5 -13 30.5s4.33301 22.167 13 30.5s19.334 12.5 32.001 12.5s23.334 -4.16699 32.001 -12.5s13 -18.5 13 -30.5zM254 800
c0 -12 -4.5 -22.167 -13.5 -30.5s-19.5 -12.5 -31.5 -12.5c-12.667 0 -23.5 4.16699 -32.5 12.5s-13.5 18.5 -13.5 30.5s4.5 22.167 13.5 30.5s19.833 12.5 32.5 12.5c12 0 22.5 -4.16699 31.5 -12.5s13.5 -18.5 13.5 -30.5z" />
    <glyph glyph-name="Eth" unicode="&#xd0;" horiz-adv-x="622" 
d="M473 352c0 95.333 -15.8311 167 -47.498 215s-80.834 72 -147.501 72c-34.667 0 -63 -4.33301 -85 -13v-229h115v-50h-115v-280c10 -3.33301 22.667 -6.33301 38 -9s31.666 -4 48.999 -4c69.333 0 118.833 25.333 148.5 76s44.5 124.667 44.5 222zM568.002 351
c0 -53.333 -5.49805 -102 -16.498 -146s-28.167 -82 -51.5 -114s-52.833 -56.833 -88.5 -74.5s-77.834 -26.5 -126.501 -26.5c-40.667 0 -76.834 3.5 -108.501 10.5s-56.167 16.167 -73.5 27.5v319h-61v50h61v263c20 11.333 45.167 20.5 75.5 27.5s64.5 10.5 102.5 10.5
c47.333 0 89 -8.16699 125 -24.5s66 -39.5 90 -69.5s42 -66.333 54 -109s18 -90.667 18 -144z" />
    <glyph glyph-name="Ntilde" unicode="&#xd1;" horiz-adv-x="647" 
d="M490 0l-293.001 502c-12.667 21.333 -23.167 40.5 -31.5 57.5l-12.5 25.5h-2c0 -1.33301 0.166992 -5.5 0.5 -12.5l1.5 -31c0.666992 -13.667 1 -27.5 1 -41.5v-500h-77v688h97l281 -483c12.667 -21.333 22.334 -38.833 29.001 -52.5l10 -20.5h2l-1.5 22
c-1 14.667 -1.5 32.667 -1.5 54v480h77v-688h-80zM463.999 806c-4.66699 -13.333 -11.835 -24.499 -21.502 -33.499s-25.167 -15.167 -46.5 -18.5c-14 -2 -26.667 -1 -38 3s-22.166 8.83301 -32.499 14.5s-20.666 10.667 -30.999 15s-21.5 5.83301 -33.5 4.5
c-16 -1.33301 -28 -6.83301 -36 -16.5s-13.667 -18.834 -17 -27.501l-26 40c6 14 14 26.167 24 36.5s25.667 16.5 47 18.5c14 1.33301 26.5 -0.166992 37.5 -4.5s21.5 -9.33301 31.5 -15s20 -10.667 30 -15s21 -5.83301 33 -4.5c15.333 2 27 7.5 35 16.5
s13.667 18.167 17 27.5z" />
    <glyph glyph-name="Ograve" unicode="&#xd2;" horiz-adv-x="605" 
d="M458 347c0 34.667 -2.16699 69.334 -6.5 104.001s-12.333 65.667 -24 93s-27.5 49.666 -47.5 66.999s-45.667 26 -77 26s-57.166 -8.66699 -77.499 -26s-36.333 -39.666 -48 -66.999s-19.667 -58.333 -24 -93s-6.5 -69.334 -6.5 -104.001s2 -69.167 6 -103.5
s11.667 -65.333 23 -93s27.166 -50 47.499 -67s46.833 -25.5 79.5 -25.5s59 8.5 79 25.5s35.667 39.333 47 67s19 58.667 23 93s6 68.833 6 103.5zM551 344c0 -49.333 -4.5 -95.5 -13.5 -138.5s-23.5 -80.5 -43.5 -112.5s-45.667 -57.167 -77 -75.5
s-69.333 -27.5 -114 -27.5s-82.834 9.16699 -114.501 27.5s-57.5 43.5 -77.5 75.5s-34.5 69.5 -43.5 112.5s-13.5 89.167 -13.5 138.5c0 48.667 4.5 94.5 13.5 137.5s23.5 80.5 43.5 112.5s45.833 57.333 77.5 76s69.834 28 114.501 28s82.667 -9.33301 114 -28
s57 -44 77 -76s34.5 -69.5 43.5 -112.5s13.5 -88.833 13.5 -137.5zM299 740l-114.001 136c2 6 6.33301 10.5 13 13.5s14.334 4.5 23.001 4.5c9.33301 0 19 -1.5 29 -4.5s19.667 -7.16699 29 -12.5l70 -137h-50z" />
    <glyph glyph-name="Oacute" unicode="&#xd3;" horiz-adv-x="605" 
d="M458 347c0 34.667 -2.16699 69.334 -6.5 104.001s-12.333 65.667 -24 93s-27.5 49.666 -47.5 66.999s-45.667 26 -77 26s-57.166 -8.66699 -77.499 -26s-36.333 -39.666 -48 -66.999s-19.667 -58.333 -24 -93s-6.5 -69.334 -6.5 -104.001s2 -69.167 6 -103.5
s11.667 -65.333 23 -93s27.166 -50 47.499 -67s46.833 -25.5 79.5 -25.5s59 8.5 79 25.5s35.667 39.333 47 67s19 58.667 23 93s6 68.833 6 103.5zM551 344c0 -49.333 -4.5 -95.5 -13.5 -138.5s-23.5 -80.5 -43.5 -112.5s-45.667 -57.167 -77 -75.5
s-69.333 -27.5 -114 -27.5s-82.834 9.16699 -114.501 27.5s-57.5 43.5 -77.5 75.5s-34.5 69.5 -43.5 112.5s-13.5 89.167 -13.5 138.5c0 48.667 4.5 94.5 13.5 137.5s23.5 80.5 43.5 112.5s45.833 57.333 77.5 76s69.834 28 114.501 28s82.667 -9.33301 114 -28
s57 -44 77 -76s34.5 -69.5 43.5 -112.5s13.5 -88.833 13.5 -137.5zM301 740h-50l70 137c8.66699 5.33301 18.167 9.5 28.5 12.5s19.833 4.5 28.5 4.5c9.33301 0 17.333 -1.5 24 -4.5s11 -7.5 13 -13.5z" />
    <glyph glyph-name="Ocircumflex" unicode="&#xd4;" horiz-adv-x="605" 
d="M458 347c0 34.667 -2.16699 69.334 -6.5 104.001s-12.333 65.667 -24 93s-27.5 49.666 -47.5 66.999s-45.667 26 -77 26s-57.166 -8.66699 -77.499 -26s-36.333 -39.666 -48 -66.999s-19.667 -58.333 -24 -93s-6.5 -69.334 -6.5 -104.001s2 -69.167 6 -103.5
s11.667 -65.333 23 -93s27.166 -50 47.499 -67s46.833 -25.5 79.5 -25.5s59 8.5 79 25.5s35.667 39.333 47 67s19 58.667 23 93s6 68.833 6 103.5zM551 344c0 -49.333 -4.5 -95.5 -13.5 -138.5s-23.5 -80.5 -43.5 -112.5s-45.667 -57.167 -77 -75.5
s-69.333 -27.5 -114 -27.5s-82.834 9.16699 -114.501 27.5s-57.5 43.5 -77.5 75.5s-34.5 69.5 -43.5 112.5s-13.5 89.167 -13.5 138.5c0 48.667 4.5 94.5 13.5 137.5s23.5 80.5 43.5 112.5s45.833 57.333 77.5 76s69.834 28 114.501 28s82.667 -9.33301 114 -28
s57 -44 77 -76s34.5 -69.5 43.5 -112.5s13.5 -88.833 13.5 -137.5zM410 739l-107 79l-107 -79l-25 21l98 101c10 10 21 15 33 15c13.333 0 25 -5 35 -15l98 -101z" />
    <glyph glyph-name="Otilde" unicode="&#xd5;" horiz-adv-x="605" 
d="M458 347c0 34.667 -2.16699 69.334 -6.5 104.001s-12.333 65.667 -24 93s-27.5 49.666 -47.5 66.999s-45.667 26 -77 26s-57.166 -8.66699 -77.499 -26s-36.333 -39.666 -48 -66.999s-19.667 -58.333 -24 -93s-6.5 -69.334 -6.5 -104.001s2 -69.167 6 -103.5
s11.667 -65.333 23 -93s27.166 -50 47.499 -67s46.833 -25.5 79.5 -25.5s59 8.5 79 25.5s35.667 39.333 47 67s19 58.667 23 93s6 68.833 6 103.5zM551 344c0 -49.333 -4.5 -95.5 -13.5 -138.5s-23.5 -80.5 -43.5 -112.5s-45.667 -57.167 -77 -75.5
s-69.333 -27.5 -114 -27.5s-82.834 9.16699 -114.501 27.5s-57.5 43.5 -77.5 75.5s-34.5 69.5 -43.5 112.5s-13.5 89.167 -13.5 138.5c0 48.667 4.5 94.5 13.5 137.5s23.5 80.5 43.5 112.5s45.833 57.333 77.5 76s69.834 28 114.501 28s82.667 -9.33301 114 -28
s57 -44 77 -76s34.5 -69.5 43.5 -112.5s13.5 -88.833 13.5 -137.5zM441 806c-5.33301 -13.333 -12.832 -24.499 -22.499 -33.499s-25.167 -15.167 -46.5 -18.5c-14 -2 -26.5 -1 -37.5 3s-21.667 8.83301 -32 14.5s-20.833 10.667 -31.5 15s-22 5.83301 -34 4.5
c-16 -1.33301 -27.833 -6.83301 -35.5 -16.5s-13.167 -18.834 -16.5 -27.501l-26 40c5.33301 14 13.166 26.167 23.499 36.5s25.833 16.5 46.5 18.5c14.667 1.33301 27.5 -0.166992 38.5 -4.5s21.5 -9.33301 31.5 -15s19.833 -10.667 29.5 -15s20.5 -5.83301 32.5 -4.5
c15.333 2 27 7.5 35 16.5s13.667 18.167 17 27.5z" />
    <glyph glyph-name="Odieresis" unicode="&#xd6;" horiz-adv-x="605" 
d="M458 347c0 34.667 -2.16699 69.334 -6.5 104.001s-12.333 65.667 -24 93s-27.5 49.666 -47.5 66.999s-45.667 26 -77 26s-57.166 -8.66699 -77.499 -26s-36.333 -39.666 -48 -66.999s-19.667 -58.333 -24 -93s-6.5 -69.334 -6.5 -104.001s2 -69.167 6 -103.5
s11.667 -65.333 23 -93s27.166 -50 47.499 -67s46.833 -25.5 79.5 -25.5s59 8.5 79 25.5s35.667 39.333 47 67s19 58.667 23 93s6 68.833 6 103.5zM551 344c0 -49.333 -4.5 -95.5 -13.5 -138.5s-23.5 -80.5 -43.5 -112.5s-45.667 -57.167 -77 -75.5
s-69.333 -27.5 -114 -27.5s-82.834 9.16699 -114.501 27.5s-57.5 43.5 -77.5 75.5s-34.5 69.5 -43.5 112.5s-13.5 89.167 -13.5 138.5c0 48.667 4.5 94.5 13.5 137.5s23.5 80.5 43.5 112.5s45.833 57.333 77.5 76s69.834 28 114.501 28s82.667 -9.33301 114 -28
s57 -44 77 -76s34.5 -69.5 43.5 -112.5s13.5 -88.833 13.5 -137.5zM266 800c0 -12 -4.5 -22.167 -13.5 -30.5s-19.833 -12.5 -32.5 -12.5s-23.334 4.16699 -32.001 12.5s-13 18.5 -13 30.5s4.33301 22.167 13 30.5s19.334 12.5 32.001 12.5s23.5 -4.16699 32.5 -12.5
s13.5 -18.5 13.5 -30.5zM430 800c0 -12 -4.33301 -22.167 -13 -30.5s-19.334 -12.5 -32.001 -12.5s-23.334 4.16699 -32.001 12.5s-13 18.5 -13 30.5s4.33301 22.167 13 30.5s19.334 12.5 32.001 12.5s23.334 -4.16699 32.001 -12.5s13 -18.5 13 -30.5z" />
    <glyph glyph-name="multiply" unicode="&#xd7;" 
d="M419 118l-155 172l-154 -171l-42 40l156 174l-157 175l42 40l155 -172l154 172l42 -40l-156 -175l157 -175z" />
    <glyph glyph-name="Oslash" unicode="&#xd8;" horiz-adv-x="610" 
d="M467 347c0 30.667 -2.16699 61.333 -6.5 92s-11.833 58.667 -22.5 84l-253 -396c12.667 -22.667 28.667 -40.667 48 -54s43.333 -20 72 -20c32.667 0 59.5 8.66699 80.5 26s37.5 39.833 49.5 67.5s20.333 59 25 94s7 70.5 7 106.5zM424 566.999
c-12.667 23.333 -28.667 41.667 -48 55s-43 20 -71 20c-32 0 -58.333 -8.66699 -79 -26s-37.167 -39.833 -49.5 -67.5s-21 -59.167 -26 -94.5s-7.5 -71 -7.5 -107c0 -31.333 2 -62.333 6 -93s11.333 -58.667 22 -84zM554 344c0 -49.333 -4.49805 -95.499 -13.498 -138.499
s-23.5 -80.5 -43.5 -112.5s-45.833 -57.167 -77.5 -75.5s-69.834 -27.5 -114.501 -27.5c-36 0 -67.333 6 -94 18s-49.667 28.667 -69 50l-53 -82l-30 19l59 92c-21.333 32 -37 70 -47 114s-15 91.667 -15 143c0 48.667 4.66699 94.5 14 137.5s24 80.5 44 112.5
s45.667 57.333 77 76s69.333 28 114 28c34.667 0 65.167 -5.83301 91.5 -17.5s49.166 -27.834 68.499 -48.501l53 84l30 -19l-59 -93c22.667 -32.667 39.167 -71.167 49.5 -115.5s15.5 -92.5 15.5 -144.5z" />
    <glyph glyph-name="Ugrave" unicode="&#xd9;" horiz-adv-x="583" 
d="M506 196c0 -29.333 -4.99512 -56.666 -14.9951 -81.999s-24.333 -47.166 -43 -65.499s-41.334 -32.833 -68.001 -43.5s-56.334 -16 -89.001 -16s-62.167 5.33301 -88.5 16s-48.833 25.167 -67.5 43.5s-33 40.166 -43 65.499s-15 52.666 -15 81.999v492h92v-491
c0 -22 3.5 -41.333 10.5 -58s16.167 -30.834 27.5 -42.501s24.666 -20.5 39.999 -26.5s31.666 -9 48.999 -9c16.667 0 32.667 3 48 9s28.666 14.833 39.999 26.5s20.5 25.834 27.5 42.501s10.5 36 10.5 58v491h84v-492zM303.005 740l-114 136c2 6 6.5 10.5 13.5 13.5
s14.833 4.5 23.5 4.5c9.33301 0 19 -1.5 29 -4.5s19.333 -7.16699 28 -12.5l70 -137h-50z" />
    <glyph glyph-name="Uacute" unicode="&#xda;" horiz-adv-x="583" 
d="M506 196c0 -29.333 -4.99512 -56.666 -14.9951 -81.999s-24.333 -47.166 -43 -65.499s-41.334 -32.833 -68.001 -43.5s-56.334 -16 -89.001 -16s-62.167 5.33301 -88.5 16s-48.833 25.167 -67.5 43.5s-33 40.166 -43 65.499s-15 52.666 -15 81.999v492h92v-491
c0 -22 3.5 -41.333 10.5 -58s16.167 -30.834 27.5 -42.501s24.666 -20.5 39.999 -26.5s31.666 -9 48.999 -9c16.667 0 32.667 3 48 9s28.666 14.833 39.999 26.5s20.5 25.834 27.5 42.501s10.5 36 10.5 58v491h84v-492zM293.005 740h-49l70 137
c8.66699 5.33301 18 9.5 28 12.5s19.333 4.5 28 4.5c9.33301 0 17.5 -1.5 24.5 -4.5s11.5 -7.5 13.5 -13.5z" />
    <glyph glyph-name="Ucircumflex" unicode="&#xdb;" horiz-adv-x="583" 
d="M506 196c0 -29.333 -4.99512 -56.666 -14.9951 -81.999s-24.333 -47.166 -43 -65.499s-41.334 -32.833 -68.001 -43.5s-56.334 -16 -89.001 -16s-62.167 5.33301 -88.5 16s-48.833 25.167 -67.5 43.5s-33 40.166 -43 65.499s-15 52.666 -15 81.999v492h92v-491
c0 -22 3.5 -41.333 10.5 -58s16.167 -30.834 27.5 -42.501s24.666 -20.5 39.999 -26.5s31.666 -9 48.999 -9c16.667 0 32.667 3 48 9s28.666 14.833 39.999 26.5s20.5 25.834 27.5 42.501s10.5 36 10.5 58v491h84v-492zM401.005 739l-107 79l-107 -79l-25 21l98 101
c10 10 21 15 33 15c13.333 0 25 -5 35 -15l98 -101z" />
    <glyph glyph-name="Udieresis" unicode="&#xdc;" horiz-adv-x="583" 
d="M506 196c0 -29.333 -4.99512 -56.666 -14.9951 -81.999s-24.333 -47.166 -43 -65.499s-41.334 -32.833 -68.001 -43.5s-56.334 -16 -89.001 -16s-62.167 5.33301 -88.5 16s-48.833 25.167 -67.5 43.5s-33 40.166 -43 65.499s-15 52.666 -15 81.999v492h92v-491
c0 -22 3.5 -41.333 10.5 -58s16.167 -30.834 27.5 -42.501s24.666 -20.5 39.999 -26.5s31.666 -9 48.999 -9c16.667 0 32.667 3 48 9s28.666 14.833 39.999 26.5s20.5 25.834 27.5 42.501s10.5 36 10.5 58v491h84v-492zM260.005 800c0 -12 -4.5 -22.167 -13.5 -30.5
s-19.833 -12.5 -32.5 -12.5c-12 0 -22.5 4.16699 -31.5 12.5s-13.5 18.5 -13.5 30.5s4.5 22.167 13.5 30.5s19.5 12.5 31.5 12.5c12.667 0 23.5 -4.16699 32.5 -12.5s13.5 -18.5 13.5 -30.5zM425.005 800c0 -12 -4.5 -22.167 -13.5 -30.5s-19.833 -12.5 -32.5 -12.5
s-23.334 4.16699 -32.001 12.5s-13 18.5 -13 30.5s4.33301 22.167 13 30.5s19.334 12.5 32.001 12.5s23.5 -4.16699 32.5 -12.5s13.5 -18.5 13.5 -30.5z" />
    <glyph glyph-name="Yacute" unicode="&#xdd;" horiz-adv-x="500" 
d="M296 305v-305h-92v305l-187 383h100l137 -311h2l142 311h87zM261 740h-50l70 137c8.66699 5.33301 18 9.5 28 12.5s19.333 4.5 28 4.5c9.33301 0 17.5 -1.5 24.5 -4.5s11.5 -7.5 13.5 -13.5z" />
    <glyph glyph-name="Thorn" unicode="&#xde;" 
d="M391 363c0 54 -13.833 94.667 -41.5 122s-63.5 41 -107.5 41c-14 0 -26.833 -1 -38.5 -3s-23.5 -4.66699 -35.5 -8v-293l28 -3c34 -4 63.333 -2.83301 88 3.5s45 16.333 61 30s27.667 30 35 49s11 39.5 11 61.5zM480 367c0 -30 -5.50098 -58.165 -16.501 -84.498
s-28 -48.833 -51 -67.5s-52.167 -32.834 -87.5 -42.501s-77.333 -12.834 -126 -9.50098l-31 2v-165h-91v688h91v-122c12.667 3.33301 25.834 6.33301 39.501 9s27.5 4 41.5 4c39.333 0 73.5 -5.33301 102.5 -16s53 -25.5 72 -44.5s33.167 -41.5 42.5 -67.5s14 -54 14 -84z
" />
    <glyph glyph-name="germandbls" unicode="&#xdf;" horiz-adv-x="550" 
d="M506 149c0 -22 -4.33301 -42.4971 -13 -61.4971s-20.667 -35.5 -36 -49.5s-33.5 -25 -54.5 -33s-43.5 -12 -67.5 -12c-23.333 0 -43.166 2.16699 -59.499 6.5s-29.833 10.166 -40.5 17.499l19 57c8 -4.66699 17.667 -8.5 29 -11.5s24.666 -4.5 39.999 -4.5
c28 0 50.833 8.33301 68.5 25s26.5 39 26.5 67c0 23.333 -5.66699 42.166 -17 56.499s-29.666 29.5 -54.999 45.5c-27.333 17.333 -47.833 36.166 -61.5 56.499s-20.5 44.5 -20.5 72.5c0 34 10 61.333 30 82s46 35.334 78 44.001c3.33301 11.333 5.5 22.166 6.5 32.499
s1.5 21.5 1.5 33.5c0 22.667 -1.66699 44 -5 64s-9 37.167 -17 51.5s-18.833 25.666 -32.5 33.999s-30.5 12.5 -50.5 12.5c-22 0 -40.333 -5.33301 -55 -16s-26.334 -25 -35.001 -43s-14.667 -39.167 -18 -63.5s-5 -50.166 -5 -77.499v-535h-88v531
c0 30.667 3.16699 61.5 9.5 92.5s17.166 59.167 32.499 84.5s35.833 46 61.5 62s58.167 24 97.5 24c32 0 60 -5.83301 84 -17.5s43.833 -27.667 59.5 -48s27.5 -43.833 35.5 -70.5s12 -55 12 -85c0 -15.333 -1.5 -32 -4.5 -50s-6.16699 -32.667 -9.5 -44
c-34 -4.66699 -60.333 -14.167 -79 -28.5s-28 -35.833 -28 -64.5c0 -17.333 4.83301 -32.833 14.5 -46.5s28.834 -29.5 57.501 -47.5c29.333 -18.667 51.5 -39 66.5 -61s22.5 -49.333 22.5 -82z" />
    <glyph glyph-name="agrave" unicode="&#xe0;" horiz-adv-x="499" 
d="M345 306c-34 -4 -64.498 -9.33301 -91.498 -16s-49.667 -15.667 -68 -27s-32.5 -26 -42.5 -44s-15 -40.667 -15 -68c0 -39.333 11.333 -67.5 34 -84.5s54 -25.5 94 -25.5c17.333 0 33.666 1.5 48.999 4.5s28.666 7.5 39.999 13.5v247zM428.002 28
c-20.667 -11.333 -46.166 -20.4971 -76.499 -27.4971s-64.5 -10.5 -102.5 -10.5c-70.667 0 -122.5 14.167 -155.5 42.5s-49.5 67.166 -49.5 116.499c0 36 7.83301 65.833 23.5 89.5s37.167 43.167 64.5 58.5s59.166 27.166 95.499 35.499s75.5 14.5 117.5 18.5v33
c0 41.333 -11.167 69.5 -33.5 84.5s-50.833 22.5 -85.5 22.5c-26 0 -50.333 -3.83301 -73 -11.5s-41.667 -15.167 -57 -22.5l-21 52c15.333 8.66699 37.333 17.5 66 26.5s61.667 13.5 99 13.5c24.667 0 48.5 -3 71.5 -9s43 -15.667 60 -29s30.667 -31.333 41 -54
s15.5 -50.334 15.5 -83.001v-346zM253.003 598.003l-114.001 136c2 6 6.33301 10.5 13 13.5s14.334 4.5 23.001 4.5c9.33301 0 19 -1.5 29 -4.5s19.667 -7.16699 29 -12.5l70 -137h-50z" />
    <glyph glyph-name="aacute" unicode="&#xe1;" horiz-adv-x="499" 
d="M345 306c-34 -4 -64.498 -9.33301 -91.498 -16s-49.667 -15.667 -68 -27s-32.5 -26 -42.5 -44s-15 -40.667 -15 -68c0 -39.333 11.333 -67.5 34 -84.5s54 -25.5 94 -25.5c17.333 0 33.666 1.5 48.999 4.5s28.666 7.5 39.999 13.5v247zM428.002 28
c-20.667 -11.333 -46.166 -20.4971 -76.499 -27.4971s-64.5 -10.5 -102.5 -10.5c-70.667 0 -122.5 14.167 -155.5 42.5s-49.5 67.166 -49.5 116.499c0 36 7.83301 65.833 23.5 89.5s37.167 43.167 64.5 58.5s59.166 27.166 95.499 35.499s75.5 14.5 117.5 18.5v33
c0 41.333 -11.167 69.5 -33.5 84.5s-50.833 22.5 -85.5 22.5c-26 0 -50.333 -3.83301 -73 -11.5s-41.667 -15.167 -57 -22.5l-21 52c15.333 8.66699 37.333 17.5 66 26.5s61.667 13.5 99 13.5c24.667 0 48.5 -3 71.5 -9s43 -15.667 60 -29s30.667 -31.333 41 -54
s15.5 -50.334 15.5 -83.001v-346zM267.003 598.003h-50l70 137c8.66699 5.33301 18.167 9.5 28.5 12.5s19.833 4.5 28.5 4.5c9.33301 0 17.333 -1.5 24 -4.5s11 -7.5 13 -13.5z" />
    <glyph glyph-name="acircumflex" unicode="&#xe2;" horiz-adv-x="499" 
d="M345 306c-34 -4 -64.498 -9.33301 -91.498 -16s-49.667 -15.667 -68 -27s-32.5 -26 -42.5 -44s-15 -40.667 -15 -68c0 -39.333 11.333 -67.5 34 -84.5s54 -25.5 94 -25.5c17.333 0 33.666 1.5 48.999 4.5s28.666 7.5 39.999 13.5v247zM428.002 28
c-20.667 -11.333 -46.166 -20.4971 -76.499 -27.4971s-64.5 -10.5 -102.5 -10.5c-70.667 0 -122.5 14.167 -155.5 42.5s-49.5 67.166 -49.5 116.499c0 36 7.83301 65.833 23.5 89.5s37.167 43.167 64.5 58.5s59.166 27.166 95.499 35.499s75.5 14.5 117.5 18.5v33
c0 41.333 -11.167 69.5 -33.5 84.5s-50.833 22.5 -85.5 22.5c-26 0 -50.333 -3.83301 -73 -11.5s-41.667 -15.167 -57 -22.5l-21 52c15.333 8.66699 37.333 17.5 66 26.5s61.667 13.5 99 13.5c24.667 0 48.5 -3 71.5 -9s43 -15.667 60 -29s30.667 -31.333 41 -54
s15.5 -50.334 15.5 -83.001v-346zM358.003 597.003l-106.999 79l-107 -79l-26 22l99 100c10 10 21 15 33 15c13.333 0 24.666 -5 33.999 -15l99 -100z" />
    <glyph glyph-name="atilde" unicode="&#xe3;" horiz-adv-x="499" 
d="M345 306c-34 -4 -64.498 -9.33301 -91.498 -16s-49.667 -15.667 -68 -27s-32.5 -26 -42.5 -44s-15 -40.667 -15 -68c0 -39.333 11.333 -67.5 34 -84.5s54 -25.5 94 -25.5c17.333 0 33.666 1.5 48.999 4.5s28.666 7.5 39.999 13.5v247zM428.002 28
c-20.667 -11.333 -46.166 -20.4971 -76.499 -27.4971s-64.5 -10.5 -102.5 -10.5c-70.667 0 -122.5 14.167 -155.5 42.5s-49.5 67.166 -49.5 116.499c0 36 7.83301 65.833 23.5 89.5s37.167 43.167 64.5 58.5s59.166 27.166 95.499 35.499s75.5 14.5 117.5 18.5v33
c0 41.333 -11.167 69.5 -33.5 84.5s-50.833 22.5 -85.5 22.5c-26 0 -50.333 -3.83301 -73 -11.5s-41.667 -15.167 -57 -22.5l-21 52c15.333 8.66699 37.333 17.5 66 26.5s61.667 13.5 99 13.5c24.667 0 48.5 -3 71.5 -9s43 -15.667 60 -29s30.667 -31.333 41 -54
s15.5 -50.334 15.5 -83.001v-346zM390.003 665.003c-5.33301 -13.333 -12.835 -24.667 -22.502 -34s-25.167 -15.666 -46.5 -18.999c-14 -2 -26.667 -0.833008 -38 3.5s-22.166 9.16602 -32.499 14.499s-20.666 10.333 -30.999 15s-21.5 6.33398 -33.5 5.00098
c-16 -2 -28 -7.83301 -36 -17.5s-13.667 -18.5 -17 -26.5l-25 40c5.33301 13.333 13 25.166 23 35.499s25.667 16.5 47 18.5c14.667 1.33301 27.5 -0.166992 38.5 -4.5s21.5 -9.16602 31.5 -14.499s19.833 -10.333 29.5 -15s20.5 -6.33398 32.5 -5.00098
c15.333 2 27 7.5 35 16.5s13.667 18.167 17 27.5z" />
    <glyph glyph-name="adieresis" unicode="&#xe4;" horiz-adv-x="499" 
d="M345 306c-34 -4 -64.498 -9.33301 -91.498 -16s-49.667 -15.667 -68 -27s-32.5 -26 -42.5 -44s-15 -40.667 -15 -68c0 -39.333 11.333 -67.5 34 -84.5s54 -25.5 94 -25.5c17.333 0 33.666 1.5 48.999 4.5s28.666 7.5 39.999 13.5v247zM428.002 28
c-20.667 -11.333 -46.166 -20.4971 -76.499 -27.4971s-64.5 -10.5 -102.5 -10.5c-70.667 0 -122.5 14.167 -155.5 42.5s-49.5 67.166 -49.5 116.499c0 36 7.83301 65.833 23.5 89.5s37.167 43.167 64.5 58.5s59.166 27.166 95.499 35.499s75.5 14.5 117.5 18.5v33
c0 41.333 -11.167 69.5 -33.5 84.5s-50.833 22.5 -85.5 22.5c-26 0 -50.333 -3.83301 -73 -11.5s-41.667 -15.167 -57 -22.5l-21 52c15.333 8.66699 37.333 17.5 66 26.5s61.667 13.5 99 13.5c24.667 0 48.5 -3 71.5 -9s43 -15.667 60 -29s30.667 -31.333 41 -54
s15.5 -50.334 15.5 -83.001v-346zM218.003 659.003c0 -12 -4.5 -21.999 -13.5 -29.999s-19.5 -12 -31.5 -12c-12.667 0 -23.5 4.16699 -32.5 12.5s-13.5 18.166 -13.5 29.499c0 12 4.5 22.167 13.5 30.5s19.833 12.5 32.5 12.5c12 0 22.5 -4.16699 31.5 -12.5
s13.5 -18.5 13.5 -30.5zM383.003 659.004c0 -12 -4.5 -21.999 -13.5 -29.999s-19.833 -12 -32.5 -12s-23.334 4.16699 -32.001 12.5s-13 18.166 -13 29.499c0 12 4.33301 22.167 13 30.5s19.334 12.5 32.001 12.5s23.5 -4.16699 32.5 -12.5s13.5 -18.5 13.5 -30.5z" />
    <glyph glyph-name="aring" unicode="&#xe5;" horiz-adv-x="499" 
d="M345 306c-34 -4 -64.498 -9.33301 -91.498 -16s-49.667 -15.667 -68 -27s-32.5 -26 -42.5 -44s-15 -40.667 -15 -68c0 -39.333 11.333 -67.5 34 -84.5s54 -25.5 94 -25.5c17.333 0 33.666 1.5 48.999 4.5s28.666 7.5 39.999 13.5v247zM301.002 677
c0 13.333 -4.5 24.5 -13.5 33.5s-20.167 13.5 -33.5 13.5s-24.5 -4.5 -33.5 -13.5s-13.5 -20.167 -13.5 -33.5s4.5 -24.5 13.5 -33.5s20.167 -13.5 33.5 -13.5s24.5 4.5 33.5 13.5s13.5 20.167 13.5 33.5zM428.002 28c-20.667 -11.333 -46.166 -20.4971 -76.499 -27.4971
s-64.5 -10.5 -102.5 -10.5c-70.667 0 -122.5 14.167 -155.5 42.5s-49.5 67.166 -49.5 116.499c0 36 7.83301 65.833 23.5 89.5s37.167 43.167 64.5 58.5s59.166 27.166 95.499 35.499s75.5 14.5 117.5 18.5v33c0 41.333 -11.167 69.5 -33.5 84.5s-50.833 22.5 -85.5 22.5
c-26 0 -50.333 -3.83301 -73 -11.5s-41.667 -15.167 -57 -22.5l-21 52c15.333 8.66699 37.333 17.5 66 26.5s61.667 13.5 99 13.5c24.667 0 48.5 -3 71.5 -9s43 -15.667 60 -29s30.667 -31.333 41 -54s15.5 -50.334 15.5 -83.001v-346zM335.003 677.003
c0 -22.667 -7.83301 -41.834 -23.5 -57.501s-34.834 -23.5 -57.501 -23.5c-22 0 -40.833 7.83301 -56.5 23.5s-23.5 34.834 -23.5 57.501c0 22 7.83301 40.833 23.5 56.5s34.5 23.5 56.5 23.5c22.667 0 41.834 -7.83301 57.501 -23.5s23.5 -34.5 23.5 -56.5z" />
    <glyph glyph-name="ae" unicode="&#xe6;" horiz-adv-x="804" 
d="M344 303c-34.667 -4 -65.5 -9.16699 -92.5 -15.5s-50 -15.333 -69 -27s-33.5 -26.334 -43.5 -44.001s-15 -40.167 -15 -67.5c0 -38 10.167 -65.333 30.5 -82s47.5 -25 81.5 -25c14.667 0 28.5 2.33301 41.5 7s24.5 11.5 34.5 20.5s17.833 19.833 23.5 32.5
s8.5 27.334 8.5 44.001v157zM670 322c-1.33301 62 -12.667 105.833 -34 131.5s-51.333 38.5 -90 38.5c-19.333 0 -37 -4 -53 -12s-30 -20.5 -42 -37.5s-21.333 -38.5 -28 -64.5s-10 -57.333 -10 -94zM416.999 235c1.33301 -32 6.49707 -59.502 15.4971 -82.502
s20.667 -41.833 35 -56.5s31.166 -25.5 50.499 -32.5s40 -10.5 62 -10.5c30.667 0 57 3 79 9s39.667 12.667 53 20l23 -55c-16.667 -10 -38.667 -18.667 -66 -26s-59.666 -11 -96.999 -11c-39.333 0 -74.166 8.5 -104.499 25.5s-55.166 41.5 -74.499 73.5
c-14.667 -32 -35.167 -56.5 -61.5 -73.5s-59.5 -25.5 -99.5 -25.5c-65.333 0 -113 14.333 -143 43s-45 67 -45 115c0 34 7.83301 63 23.5 87s37 43.833 64 59.5s58.667 27.834 95 36.501s75.5 15 117.5 19v34c0 20 -3.33301 37 -10 51s-15.667 25.167 -27 33.5
s-24.666 14.333 -39.999 18s-31.333 5.5 -48 5.5c-23.333 0 -46 -3.66699 -68 -11s-40 -14.666 -54 -21.999l-20 52c16 9.33301 37.5 18 64.5 26s58.5 12 94.5 12c34 0 65 -7.16699 93 -21.5s48.667 -39.5 62 -75.5c17.333 34.667 40.833 59.5 70.5 74.5
s59.167 22.5 88.5 22.5c64.667 0 115 -21.5 151 -64.5s53.667 -109.5 53 -199.5z" />
    <glyph glyph-name="ccedilla" unicode="&#xe7;" horiz-adv-x="411" 
d="M340 -124c0 -30.667 -22.667 -52.001 -68 -64.001s-108 -14.667 -188 -8l20 34c22 -2 43.167 -2.66699 63.5 -2s38.333 2.5 54 5.5s28.334 7.16699 38.001 12.5s14.5 12.333 14.5 21c0 15.333 -10.167 25.333 -30.5 30s-52.5 5.33398 -96.5 2.00098l20 31
c32.667 2.66699 60.167 3 82.5 1s40.166 -5.83301 53.499 -11.5s22.833 -13 28.5 -22s8.5 -18.833 8.5 -29.5zM376 25.999c-10.667 -9.33301 -25.999 -17.6689 -45.999 -25.002s-45 -11 -75 -11c-29.333 0 -56.5 6.5 -81.5 19.5s-46.667 31.5 -65 55.5
s-32.666 53.333 -42.999 88s-15.5 73.667 -15.5 117c0 44 5.16699 83.333 15.5 118s24.666 64 42.999 88s40.166 42.167 65.499 54.5s53 18.5 83 18.5c33.333 0 59.333 -4.16699 78 -12.5s32.334 -16.166 41.001 -23.499l-21 -51c-8 6 -18.333 11.833 -31 17.5
s-29 8.5 -49 8.5c-24.667 0 -45.5 -5.33301 -62.5 -16s-31 -25.5 -42 -44.5s-19 -41.667 -24 -68s-7.5 -55.166 -7.5 -86.499c0 -32 2.83301 -61.5 8.5 -88.5s14.167 -50 25.5 -69s25.166 -33.833 41.499 -44.5s35.5 -16 57.5 -16c18.667 0 34.5 2.5 47.5 7.5
s24.5 11.167 34.5 18.5z" />
    <glyph glyph-name="egrave" unicode="&#xe8;" horiz-adv-x="522" 
d="M388 322c0 61.333 -11 105 -33 131s-52.333 39 -91 39c-19.333 0 -37.333 -4 -54 -12s-31 -20.5 -43 -37.5s-21.333 -38.667 -28 -65s-9.66699 -57.833 -9 -94.5zM133 236c5.33301 -61.333 21.834 -107 49.501 -137s65.834 -45 114.501 -45c30.667 0 57 3.16699 79 9.5
s40 13.5 54 21.5l23 -58c-16.667 -10 -38.834 -18.667 -66.501 -26s-59.834 -11 -96.501 -11c-35.333 0 -67.666 5.66699 -96.999 17s-54.666 28.5 -75.999 51.5s-37.833 52.167 -49.5 87.5s-17.5 77 -17.5 125c0 46 5.33301 86.333 16 121s25.667 63.667 45 87
s42.166 40.833 68.499 52.5s55.5 17.5 87.5 17.5c64.667 0 115.167 -21.5 151.5 -64.5s54.166 -109.5 53.499 -199.5zM260.001 598l-114.001 136c2 6 6.33301 10.5 13 13.5s14.334 4.5 23.001 4.5c9.33301 0 19 -1.5 29 -4.5s19.667 -7.16699 29 -12.5l70 -137h-50z" />
    <glyph glyph-name="eacute" unicode="&#xe9;" horiz-adv-x="522" 
d="M388 322c0 61.333 -11 105 -33 131s-52.333 39 -91 39c-19.333 0 -37.333 -4 -54 -12s-31 -20.5 -43 -37.5s-21.333 -38.667 -28 -65s-9.66699 -57.833 -9 -94.5zM133 236c5.33301 -61.333 21.834 -107 49.501 -137s65.834 -45 114.501 -45c30.667 0 57 3.16699 79 9.5
s40 13.5 54 21.5l23 -58c-16.667 -10 -38.834 -18.667 -66.501 -26s-59.834 -11 -96.501 -11c-35.333 0 -67.666 5.66699 -96.999 17s-54.666 28.5 -75.999 51.5s-37.833 52.167 -49.5 87.5s-17.5 77 -17.5 125c0 46 5.33301 86.333 16 121s25.667 63.667 45 87
s42.166 40.833 68.499 52.5s55.5 17.5 87.5 17.5c64.667 0 115.167 -21.5 151.5 -64.5s54.166 -109.5 53.499 -199.5zM276.001 598h-50l70 137c8.66699 5.33301 18.167 9.5 28.5 12.5s19.833 4.5 28.5 4.5c9.33301 0 17.333 -1.5 24 -4.5s11 -7.5 13 -13.5z" />
    <glyph glyph-name="ecircumflex" unicode="&#xea;" horiz-adv-x="522" 
d="M388 322c0 61.333 -11 105 -33 131s-52.333 39 -91 39c-19.333 0 -37.333 -4 -54 -12s-31 -20.5 -43 -37.5s-21.333 -38.667 -28 -65s-9.66699 -57.833 -9 -94.5zM133 236c5.33301 -61.333 21.834 -107 49.501 -137s65.834 -45 114.501 -45c30.667 0 57 3.16699 79 9.5
s40 13.5 54 21.5l23 -58c-16.667 -10 -38.834 -18.667 -66.501 -26s-59.834 -11 -96.501 -11c-35.333 0 -67.666 5.66699 -96.999 17s-54.666 28.5 -75.999 51.5s-37.833 52.167 -49.5 87.5s-17.5 77 -17.5 125c0 46 5.33301 86.333 16 121s25.667 63.667 45 87
s42.166 40.833 68.499 52.5s55.5 17.5 87.5 17.5c64.667 0 115.167 -21.5 151.5 -64.5s54.166 -109.5 53.499 -199.5zM372.001 597l-106 79l-108 -79l-25 22l99 100c8.66699 10 19.667 15 33 15c12.667 0 24 -5 34 -15l99 -100z" />
    <glyph glyph-name="edieresis" unicode="&#xeb;" horiz-adv-x="522" 
d="M388 322c0 61.333 -11 105 -33 131s-52.333 39 -91 39c-19.333 0 -37.333 -4 -54 -12s-31 -20.5 -43 -37.5s-21.333 -38.667 -28 -65s-9.66699 -57.833 -9 -94.5zM133 236c5.33301 -61.333 21.834 -107 49.501 -137s65.834 -45 114.501 -45c30.667 0 57 3.16699 79 9.5
s40 13.5 54 21.5l23 -58c-16.667 -10 -38.834 -18.667 -66.501 -26s-59.834 -11 -96.501 -11c-35.333 0 -67.666 5.66699 -96.999 17s-54.666 28.5 -75.999 51.5s-37.833 52.167 -49.5 87.5s-17.5 77 -17.5 125c0 46 5.33301 86.333 16 121s25.667 63.667 45 87
s42.166 40.833 68.499 52.5s55.5 17.5 87.5 17.5c64.667 0 115.167 -21.5 151.5 -64.5s54.166 -109.5 53.499 -199.5zM231.001 659c0 -12 -4.5 -21.999 -13.5 -29.999s-19.833 -12 -32.5 -12s-23.334 4.16699 -32.001 12.5s-13 18.166 -13 29.499
c0 12 4.33301 22.167 13 30.5s19.334 12.5 32.001 12.5s23.5 -4.16699 32.5 -12.5s13.5 -18.5 13.5 -30.5zM395.001 659.001c0 -12 -4.33301 -21.999 -13 -29.999s-19.334 -12 -32.001 -12s-23.334 4.16699 -32.001 12.5s-13 18.166 -13 29.499c0 12 4.33301 22.167 13 30.5
s19.334 12.5 32.001 12.5s23.334 -4.16699 32.001 -12.5s13 -18.5 13 -30.5z" />
    <glyph glyph-name="igrave" unicode="&#xec;" horiz-adv-x="241" 
d="M77 0v539h88v-539h-88zM122 598l-114.001 136c2 6 6.33301 10.5 13 13.5s14.334 4.5 23.001 4.5c9.33301 0 19 -1.5 29 -4.5s19.667 -7.16699 29 -12.5l70 -137h-50z" />
    <glyph glyph-name="iacute" unicode="&#xed;" horiz-adv-x="241" 
d="M77 0v539h88v-539h-88zM119 598h-50l70 137c8.66699 5.33301 18.167 9.5 28.5 12.5s19.833 4.5 28.5 4.5c9.33301 0 17.333 -1.5 24 -4.5s11 -7.5 13 -13.5z" />
    <glyph glyph-name="icircumflex" unicode="&#xee;" horiz-adv-x="241" 
d="M77 0v539h88v-539h-88zM228 597l-107 79l-107 -79l-26 22l99 100c10 10 21 15 33 15c12.667 0 24 -5 34 -15l99 -100z" />
    <glyph glyph-name="idieresis" unicode="&#xef;" horiz-adv-x="241" 
d="M77 0v539h88v-539h-88zM84 659c0 -12 -4.5 -21.999 -13.5 -29.999s-19.5 -12 -31.5 -12c-12.667 0 -23.5 4.16699 -32.5 12.5s-13.5 18.166 -13.5 29.499c0 12 4.5 22.167 13.5 30.5s19.833 12.5 32.5 12.5c12 0 22.5 -4.16699 31.5 -12.5s13.5 -18.5 13.5 -30.5z
M248 659.001c0 -12 -4.5 -21.999 -13.5 -29.999s-19.833 -12 -32.5 -12c-12 0 -22.5 4.16699 -31.5 12.5s-13.5 18.166 -13.5 29.499c0 12 4.5 22.167 13.5 30.5s19.5 12.5 31.5 12.5c12.667 0 23.5 -4.16699 32.5 -12.5s13.5 -18.5 13.5 -30.5z" />
    <glyph glyph-name="eth" unicode="&#xf0;" horiz-adv-x="521" 
d="M380 269c0 36 -3.33301 73.499 -10 112.499s-15.334 72.167 -26.001 99.5c-22 6.66699 -45.333 10 -70 10c-27.333 0 -49.666 -6 -66.999 -18s-31.166 -28.167 -41.499 -48.5s-17.5 -44.166 -21.5 -71.499s-6 -56.333 -6 -87c0 -29.333 2 -57 6 -83s10.667 -49 20 -69
s22.166 -35.833 38.499 -47.5s36.5 -17.5 60.5 -17.5s43.667 6.16699 59 18.5s27.333 28.833 36 49.5s14.5 44.167 17.5 70.5s4.5 53.5 4.5 81.5zM468 265.999c0 -40 -4 -77.001 -12 -111.001s-20.333 -63.333 -37 -88s-38 -44 -64 -58s-57 -21 -93 -21
c-34 0 -64.167 6.5 -90.5 19.5s-48.5 31.5 -66.5 55.5s-31.667 53.167 -41 87.5s-14 72.5 -14 114.5c0 34 3.83301 67.667 11.5 101s19.667 63 36 89s37.833 47 64.5 63s59 24 97 24c15.333 0 28.333 -0.833008 39 -2.5s21.334 -4.16699 32.001 -7.5
c-12 29.333 -23.5 55 -34.5 77s-23.167 44 -36.5 66l-90 -27c-1.33301 2.66699 -4.83301 8.5 -10.5 17.5s-9.83398 14.833 -12.501 17.5l89 28c-5.33301 8 -10 14.667 -14 20l-11 14.5c-3.33301 4.33301 -6.83301 8.33301 -10.5 12s-7.5 7.83398 -11.5 12.501l73 23
l12 -13.5l10 -11.5l11 -13.5c4 -5 8.66699 -11.5 14 -19.5l78 24c2 -2.66699 6 -8.5 12 -17.5s10 -14.833 12 -17.5l-79 -25c40 -63.333 72.833 -131.833 98.5 -205.5s38.5 -149.5 38.5 -227.5z" />
    <glyph glyph-name="ntilde" unicode="&#xf1;" horiz-adv-x="533" 
d="M374 0l-0.00195312 391.999c0 35.333 -9.83301 60.833 -29.5 76.5s-47.5 23.5 -83.5 23.5c-25.333 0 -45.166 -1.66699 -59.499 -5s-28.5 -8 -42.5 -14v-473h-88v511c24 11.333 52.333 20.5 85 27.5s70.667 10.5 114 10.5c58.667 0 105.334 -12.167 140.001 -36.5
s52 -64.166 52 -119.499v-393h-88zM403.998 664.999c-5.33301 -13.333 -12.832 -24.667 -22.499 -34s-25.167 -15.666 -46.5 -18.999c-14 -2 -26.5 -0.833008 -37.5 3.5s-21.667 9.16602 -32 14.499s-20.833 10.333 -31.5 15s-22 6.33398 -34 5.00098
c-16 -2 -27.833 -7.83301 -35.5 -17.5s-13.167 -18.5 -16.5 -26.5l-26 40c5.33301 13.333 13.166 25.166 23.499 35.499s25.833 16.5 46.5 18.5c14.667 1.33301 27.5 -0.166992 38.5 -4.5s21.5 -9.16602 31.5 -14.499s19.833 -10.333 29.5 -15s20.5 -6.33398 32.5 -5.00098
c15.333 2 27 7.5 35 16.5s13.667 18.167 17 27.5z" />
    <glyph glyph-name="ograve" unicode="&#xf2;" horiz-adv-x="521" 
d="M383 269c0 26.667 -1.5 53.5 -4.5 80.5s-9 51 -18 72s-21.333 38.167 -37 51.5s-36.5 20 -62.5 20s-47 -6.5 -63 -19.5s-28.5 -30.167 -37.5 -51.5s-15 -45.333 -18 -72s-4.5 -53.667 -4.5 -81s1.66699 -54 5 -80s9.5 -49.333 18.5 -70s21.5 -37.167 37.5 -49.5
s36.667 -18.5 62 -18.5c26 0 46.833 6.33301 62.5 19s28 29.167 37 49.5s15 43.5 18 69.5s4.5 52.667 4.5 80zM471 269c0 -39.333 -4.16699 -76 -12.5 -110s-21 -63.5 -38 -88.5s-38.667 -44.667 -65 -59s-57.833 -21.5 -94.5 -21.5s-68.334 7.16699 -95.001 21.5
s-48.5 34 -65.5 59s-29.667 54.5 -38 88.5s-12.5 70.667 -12.5 110c0 40 4.16699 77.167 12.5 111.5s21 64 38 89s38.833 44.5 65.5 58.5s58 21 94 21c36.667 0 68.334 -7 95.001 -21s48.667 -33.5 66 -58.5s30 -54.667 38 -89s12 -71.5 12 -111.5zM252 598l-115 136
c2 6 6.5 10.5 13.5 13.5s14.833 4.5 23.5 4.5c9.33301 0 19 -1.5 29 -4.5s19.333 -7.16699 28 -12.5l70 -137h-49z" />
    <glyph glyph-name="oacute" unicode="&#xf3;" horiz-adv-x="521" 
d="M383 269c0 26.667 -1.5 53.5 -4.5 80.5s-9 51 -18 72s-21.333 38.167 -37 51.5s-36.5 20 -62.5 20s-47 -6.5 -63 -19.5s-28.5 -30.167 -37.5 -51.5s-15 -45.333 -18 -72s-4.5 -53.667 -4.5 -81s1.66699 -54 5 -80s9.5 -49.333 18.5 -70s21.5 -37.167 37.5 -49.5
s36.667 -18.5 62 -18.5c26 0 46.833 6.33301 62.5 19s28 29.167 37 49.5s15 43.5 18 69.5s4.5 52.667 4.5 80zM471 269c0 -39.333 -4.16699 -76 -12.5 -110s-21 -63.5 -38 -88.5s-38.667 -44.667 -65 -59s-57.833 -21.5 -94.5 -21.5s-68.334 7.16699 -95.001 21.5
s-48.5 34 -65.5 59s-29.667 54.5 -38 88.5s-12.5 70.667 -12.5 110c0 40 4.16699 77.167 12.5 111.5s21 64 38 89s38.833 44.5 65.5 58.5s58 21 94 21c36.667 0 68.334 -7 95.001 -21s48.667 -33.5 66 -58.5s30 -54.667 38 -89s12 -71.5 12 -111.5zM270 598h-50l70 137
c8.66699 5.33301 18.167 9.5 28.5 12.5s19.833 4.5 28.5 4.5c9.33301 0 17.333 -1.5 24 -4.5s11 -7.5 13 -13.5z" />
    <glyph glyph-name="ocircumflex" unicode="&#xf4;" horiz-adv-x="521" 
d="M383 269c0 26.667 -1.5 53.5 -4.5 80.5s-9 51 -18 72s-21.333 38.167 -37 51.5s-36.5 20 -62.5 20s-47 -6.5 -63 -19.5s-28.5 -30.167 -37.5 -51.5s-15 -45.333 -18 -72s-4.5 -53.667 -4.5 -81s1.66699 -54 5 -80s9.5 -49.333 18.5 -70s21.5 -37.167 37.5 -49.5
s36.667 -18.5 62 -18.5c26 0 46.833 6.33301 62.5 19s28 29.167 37 49.5s15 43.5 18 69.5s4.5 52.667 4.5 80zM471 269c0 -39.333 -4.16699 -76 -12.5 -110s-21 -63.5 -38 -88.5s-38.667 -44.667 -65 -59s-57.833 -21.5 -94.5 -21.5s-68.334 7.16699 -95.001 21.5
s-48.5 34 -65.5 59s-29.667 54.5 -38 88.5s-12.5 70.667 -12.5 110c0 40 4.16699 77.167 12.5 111.5s21 64 38 89s38.833 44.5 65.5 58.5s58 21 94 21c36.667 0 68.334 -7 95.001 -21s48.667 -33.5 66 -58.5s30 -54.667 38 -89s12 -71.5 12 -111.5zM367 597l-106 79
l-108 -79l-25 22l99 100c8.66699 10 19.667 15 33 15c12.667 0 24 -5 34 -15l99 -100z" />
    <glyph glyph-name="otilde" unicode="&#xf5;" horiz-adv-x="521" 
d="M383 269c0 26.667 -1.5 53.5 -4.5 80.5s-9 51 -18 72s-21.333 38.167 -37 51.5s-36.5 20 -62.5 20s-47 -6.5 -63 -19.5s-28.5 -30.167 -37.5 -51.5s-15 -45.333 -18 -72s-4.5 -53.667 -4.5 -81s1.66699 -54 5 -80s9.5 -49.333 18.5 -70s21.5 -37.167 37.5 -49.5
s36.667 -18.5 62 -18.5c26 0 46.833 6.33301 62.5 19s28 29.167 37 49.5s15 43.5 18 69.5s4.5 52.667 4.5 80zM471 269c0 -39.333 -4.16699 -76 -12.5 -110s-21 -63.5 -38 -88.5s-38.667 -44.667 -65 -59s-57.833 -21.5 -94.5 -21.5s-68.334 7.16699 -95.001 21.5
s-48.5 34 -65.5 59s-29.667 54.5 -38 88.5s-12.5 70.667 -12.5 110c0 40 4.16699 77.167 12.5 111.5s21 64 38 89s38.833 44.5 65.5 58.5s58 21 94 21c36.667 0 68.334 -7 95.001 -21s48.667 -33.5 66 -58.5s30 -54.667 38 -89s12 -71.5 12 -111.5zM399 665
c-4.66699 -13.333 -11.835 -24.667 -21.502 -34s-25.167 -15.666 -46.5 -18.999c-14 -2 -26.667 -0.833008 -38 3.5s-22.166 9.16602 -32.499 14.499s-20.666 10.333 -30.999 15s-21.5 6.33398 -33.5 5.00098c-16 -2 -28 -7.83301 -36 -17.5s-13.667 -18.5 -17 -26.5l-26 40
c6 13.333 14 25.166 24 35.499s25.667 16.5 47 18.5c14 1.33301 26.5 -0.166992 37.5 -4.5s21.5 -9.16602 31.5 -14.499s20 -10.333 30 -15s21 -6.33398 33 -5.00098c15.333 2 27 7.5 35 16.5s13.667 18.167 17 27.5z" />
    <glyph glyph-name="odieresis" unicode="&#xf6;" horiz-adv-x="521" 
d="M383 269c0 26.667 -1.5 53.5 -4.5 80.5s-9 51 -18 72s-21.333 38.167 -37 51.5s-36.5 20 -62.5 20s-47 -6.5 -63 -19.5s-28.5 -30.167 -37.5 -51.5s-15 -45.333 -18 -72s-4.5 -53.667 -4.5 -81s1.66699 -54 5 -80s9.5 -49.333 18.5 -70s21.5 -37.167 37.5 -49.5
s36.667 -18.5 62 -18.5c26 0 46.833 6.33301 62.5 19s28 29.167 37 49.5s15 43.5 18 69.5s4.5 52.667 4.5 80zM471 269c0 -39.333 -4.16699 -76 -12.5 -110s-21 -63.5 -38 -88.5s-38.667 -44.667 -65 -59s-57.833 -21.5 -94.5 -21.5s-68.334 7.16699 -95.001 21.5
s-48.5 34 -65.5 59s-29.667 54.5 -38 88.5s-12.5 70.667 -12.5 110c0 40 4.16699 77.167 12.5 111.5s21 64 38 89s38.833 44.5 65.5 58.5s58 21 94 21c36.667 0 68.334 -7 95.001 -21s48.667 -33.5 66 -58.5s30 -54.667 38 -89s12 -71.5 12 -111.5zM223 659
c0 -12 -4.5 -21.999 -13.5 -29.999s-19.5 -12 -31.5 -12c-12.667 0 -23.5 4.16699 -32.5 12.5s-13.5 18.166 -13.5 29.499c0 12 4.5 22.167 13.5 30.5s19.833 12.5 32.5 12.5c12 0 22.5 -4.16699 31.5 -12.5s13.5 -18.5 13.5 -30.5zM388 659.001
c0 -12 -4.5 -21.999 -13.5 -29.999s-19.833 -12 -32.5 -12c-12 0 -22.5 4.16699 -31.5 12.5s-13.5 18.166 -13.5 29.499c0 12 4.5 22.167 13.5 30.5s19.5 12.5 31.5 12.5c12.667 0 23.5 -4.16699 32.5 -12.5s13.5 -18.5 13.5 -30.5z" />
    <glyph glyph-name="divide" unicode="&#xf7;" 
d="M313 174c0 -14 -4.83301 -25.833 -14.5 -35.5s-21.167 -14.5 -34.5 -14.5c-14 0 -25.833 4.83301 -35.5 14.5s-14.5 21.5 -14.5 35.5c0 13.333 4.83301 24.833 14.5 34.5s21.5 14.5 35.5 14.5c13.333 0 24.833 -4.83301 34.5 -14.5s14.5 -21.167 14.5 -34.5zM72 307v52
h384v-52h-384zM313 492c0 -14 -4.83301 -25.833 -14.5 -35.5s-21.167 -14.5 -34.5 -14.5c-14 0 -25.833 4.83301 -35.5 14.5s-14.5 21.5 -14.5 35.5c0 13.333 4.83301 24.833 14.5 34.5s21.5 14.5 35.5 14.5c13.333 0 24.833 -4.83301 34.5 -14.5s14.5 -21.167 14.5 -34.5z
" />
    <glyph glyph-name="oslash" unicode="&#xf8;" horiz-adv-x="523" 
d="M391 270c0 26 -1.83301 52.5 -5.5 79.5s-10.167 51.167 -19.5 72.5l-192 -332c9.33301 -13.333 21.333 -24 36 -32s32 -12 52 -12c26 0 47.5 6.5 64.5 19.5s30.167 30.167 39.5 51.5s15.833 45.333 19.5 72s5.5 53.667 5.5 81zM350 455
c-10 14 -22.166 25.166 -36.499 33.499s-31.5 12.5 -51.5 12.5c-26 0 -47.5 -7 -64.5 -21s-30.333 -32 -40 -54s-16.334 -46.667 -20.001 -74s-5.5 -54.666 -5.5 -81.999c0 -25.333 1.83301 -51 5.5 -77s10.167 -49.333 19.5 -70zM473.001 268.999
c0 -39.333 -4.16699 -75.998 -12.5 -109.998s-21.166 -63.5 -38.499 -88.5s-39.166 -44.667 -65.499 -59s-57.833 -21.5 -94.5 -21.5c-25.333 0 -48.166 3.5 -68.499 10.5s-38.5 17.167 -54.5 30.5l-45 -78l-26 16l48 83c-22.667 25.333 -39.334 56.666 -50.001 93.999
s-16 78.333 -16 123c0 40 4.16699 77.167 12.5 111.5s21.166 64 38.499 89s39.166 44.5 65.499 58.5s57.833 21 94.5 21c25.333 0 47.833 -3.33301 67.5 -10s37.167 -16.334 52.5 -29.001l44 76l26 -16l-46 -80c23.333 -25.333 40.5 -57 51.5 -95s16.5 -80 16.5 -126z" />
    <glyph glyph-name="ugrave" unicode="&#xf9;" horiz-adv-x="523" 
d="M452 32c-20 -11.333 -45.665 -21.333 -76.998 -30s-69 -13 -113 -13c-67.333 0 -116 15.833 -146 47.5s-45 74.5 -45 128.5v374h88v-377c0 -32 8.66699 -58.5 26 -79.5s44.666 -31.5 81.999 -31.5c21.333 0 39.666 1.83301 54.999 5.5s29.333 9.16699 42 16.5v466h88
v-507zM265.002 598l-115 136c2 6 6.5 10.5 13.5 13.5s14.833 4.5 23.5 4.5c9.33301 0 19 -1.5 29 -4.5s19.333 -7.16699 28 -12.5l70 -137h-49z" />
    <glyph glyph-name="uacute" unicode="&#xfa;" horiz-adv-x="523" 
d="M452 32c-20 -11.333 -45.665 -21.333 -76.998 -30s-69 -13 -113 -13c-67.333 0 -116 15.833 -146 47.5s-45 74.5 -45 128.5v374h88v-377c0 -32 8.66699 -58.5 26 -79.5s44.666 -31.5 81.999 -31.5c21.333 0 39.666 1.83301 54.999 5.5s29.333 9.16699 42 16.5v466h88
v-507zM272.002 598h-49l70 137c8.66699 5.33301 18 9.5 28 12.5s19.333 4.5 28 4.5c9.33301 0 17.5 -1.5 24.5 -4.5s11.5 -7.5 13.5 -13.5z" />
    <glyph glyph-name="ucircumflex" unicode="&#xfb;" horiz-adv-x="523" 
d="M452 32c-20 -11.333 -45.665 -21.333 -76.998 -30s-69 -13 -113 -13c-67.333 0 -116 15.833 -146 47.5s-45 74.5 -45 128.5v374h88v-377c0 -32 8.66699 -58.5 26 -79.5s44.666 -31.5 81.999 -31.5c21.333 0 39.666 1.83301 54.999 5.5s29.333 9.16699 42 16.5v466h88
v-507zM369.002 597l-107 79l-107 -79l-25 22l98 100c10 10 21.333 15 34 15s24 -5 34 -15l98 -100z" />
    <glyph glyph-name="udieresis" unicode="&#xfc;" horiz-adv-x="523" 
d="M452 32c-20 -11.333 -45.665 -21.333 -76.998 -30s-69 -13 -113 -13c-67.333 0 -116 15.833 -146 47.5s-45 74.5 -45 128.5v374h88v-377c0 -32 8.66699 -58.5 26 -79.5s44.666 -31.5 81.999 -31.5c21.333 0 39.666 1.83301 54.999 5.5s29.333 9.16699 42 16.5v466h88
v-507zM224.002 659c0 -12 -4.33301 -21.999 -13 -29.999s-19.334 -12 -32.001 -12s-23.334 4.16699 -32.001 12.5s-13 18.166 -13 29.499c0 12 4.33301 22.167 13 30.5s19.334 12.5 32.001 12.5s23.334 -4.16699 32.001 -12.5s13 -18.5 13 -30.5zM389.002 659.001
c0 -12 -4.5 -21.999 -13.5 -29.999s-19.5 -12 -31.5 -12c-12.667 0 -23.5 4.16699 -32.5 12.5s-13.5 18.166 -13.5 29.499c0 12 4.5 22.167 13.5 30.5s19.833 12.5 32.5 12.5c12 0 22.5 -4.16699 31.5 -12.5s13.5 -18.5 13.5 -30.5z" />
    <glyph glyph-name="yacute" unicode="&#xfd;" horiz-adv-x="488" 
d="M213 -215h-93l89 215l-180 539h94l126 -436h1l130 436h82zM257 598h-49l70 137c8.66699 5.33301 18 9.5 28 12.5s19.333 4.5 28 4.5c9.33301 0 17.5 -1.5 24.5 -4.5s11.5 -7.5 13.5 -13.5z" />
    <glyph glyph-name="thorn" unicode="&#xfe;" 
d="M391 272c0 32.667 -2.83105 62.833 -8.49805 90.5s-14.667 51.167 -27 70.5s-28.166 34.5 -47.499 45.5s-43 16.5 -71 16.5c-13.333 0 -26.833 -1.5 -40.5 -4.5s-26.167 -7.83301 -37.5 -14.5v-420c9.33301 -2.66699 19.666 -5 30.999 -7s22.666 -3 33.999 -3
c31.333 0 57.666 6.33301 78.999 19s38.5 29.5 51.5 50.5s22.333 45 28 72s8.5 55.167 8.5 84.5zM478.002 279.999c0 -45.333 -5.99902 -85.8311 -17.999 -121.498s-28.667 -65.834 -50 -90.501s-46.5 -43.334 -75.5 -56.001s-60.167 -19 -93.5 -19
c-14.667 0 -28.5 1 -41.5 3s-26.5 5 -40.5 9v-220h-88v1000h87v-262c13.333 7.33301 28.666 13.166 45.999 17.499s34 6.5 50 6.5c36 0 67.833 -6.16699 95.5 -18.5s51 -30.166 70 -53.499s33.5 -51.5 43.5 -84.5s15 -69.833 15 -110.5z" />
    <glyph glyph-name="ydieresis" unicode="&#xff;" horiz-adv-x="488" 
d="M213 -215h-93l89 215l-180 539h94l126 -436h1l130 436h82zM213 659c0 -12 -4.5 -21.999 -13.5 -29.999s-19.833 -12 -32.5 -12s-23.334 4.16699 -32.001 12.5s-13 18.166 -13 29.499c0 12 4.33301 22.167 13 30.5s19.334 12.5 32.001 12.5s23.5 -4.16699 32.5 -12.5
s13.5 -18.5 13.5 -30.5zM377 659.001c0 -12 -4.33301 -21.999 -13 -29.999s-19.334 -12 -32.001 -12s-23.334 4.16699 -32.001 12.5s-13 18.166 -13 29.499c0 12 4.33301 22.167 13 30.5s19.334 12.5 32.001 12.5s23.334 -4.16699 32.001 -12.5s13 -18.5 13 -30.5z" />
    <glyph glyph-name="dotlessi" unicode="&#x131;" horiz-adv-x="229" 
d="M71 0v539h87v-539h-87z" />
    <glyph glyph-name="Lslash" unicode="&#x141;" horiz-adv-x="419" 
d="M92 0v412l-63 -32v50l63 32v226h92v-192l73 37v-49l-73 -37v-385h206v-62h-298z" />
    <glyph glyph-name="lslash" unicode="&#x142;" horiz-adv-x="293" 
d="M190 447v-447h-88v415l-69 -38v53l69 36v319h88v-287l73 37v-50z" />
    <glyph glyph-name="OE" unicode="&#x152;" horiz-adv-x="761" 
d="M403 632c-8.66699 2.66699 -19.501 4.83301 -32.501 6.5s-26.167 2.5 -39.5 2.5c-38 0 -69 -9.66699 -93 -29s-42.667 -43.5 -56 -72.5s-22.333 -61 -27 -96s-7 -67.833 -7 -98.5c0 -31.333 2.33301 -64.333 7 -99s13.834 -66.5 27.501 -95.5
s32.334 -52.833 56.001 -71.5s54.5 -28 92.5 -28c16 0 30.167 0.666992 42.5 2s22.166 3 29.499 5v574zM410.999 -0.000976562c-8 -2.66699 -19.333 -5 -34 -7s-30.667 -3 -48 -3c-47.333 0 -88.333 9 -123 27s-63.167 42.833 -85.5 74.5s-39 69.167 -50 112.5
s-16.5 90 -16.5 140c0 50.667 5.33301 97.5 16 140.5s27.334 80.333 50.001 112s51.167 56.5 85.5 74.5s75.166 27 122.499 27c16.667 0 32.167 -1 46.5 -3s26.5 -4.33301 36.5 -7h305v-62h-227v-240h205v-61h-205v-262h227v-63h-305z" />
    <glyph glyph-name="oe" unicode="&#x153;" horiz-adv-x="842" 
d="M382 270c0 23.333 -1.16406 48 -3.49707 74s-7.5 50 -15.5 72s-20.167 40.333 -36.5 55s-38.5 22 -66.5 22c-27.333 0 -49.166 -7.33301 -65.499 -22s-28.833 -33 -37.5 -55s-14.334 -46.167 -17.001 -72.5s-4 -50.833 -4 -73.5s1.5 -46.834 4.5 -72.501
s9 -49.5 18 -71.5s21.5 -40.167 37.5 -54.5s37.333 -21.5 64 -21.5c27.333 0 49.166 7.16699 65.499 21.5s28.666 32.5 36.999 54.5s13.666 45.833 15.999 71.5s3.5 49.834 3.5 72.501zM707.003 319c0 62 -11 107 -33 135s-51.667 42 -89 42
c-19.333 0 -37.166 -4 -53.499 -12s-30.333 -20.5 -42 -37.5s-20.834 -38.5 -27.501 -64.5s-9.66699 -56.667 -9 -92zM457.003 243c4 -42.667 11.8369 -76.501 23.5039 -101.501s25.5 -44.167 41.5 -57.5s32.833 -22 50.5 -26s34.167 -6 49.5 -6c32 0 57.667 3 77 9
s36.666 13.333 51.999 22l23 -56c-8.66699 -5.33301 -17.834 -10.166 -27.501 -14.499s-21 -8.16602 -34 -11.499s-27.667 -6 -44 -8s-35.166 -3 -56.499 -3c-40 0 -76.5 9.5 -109.5 28.5s-59.5 50.5 -79.5 94.5c-15.333 -40 -36.5 -70.5 -63.5 -91.5
s-60.167 -31.5 -99.5 -31.5c-36 0 -67.333 7.16699 -94 21.5s-48.5 34 -65.5 59s-29.667 54.5 -38 88.5s-12.5 70.667 -12.5 110c0 40 4.16699 77.167 12.5 111.5s21.166 64 38.499 89s39.166 44.5 65.499 58.5s57.5 21 93.5 21c38 0 69.5 -8.83301 94.5 -26.5
s47.167 -45.834 66.5 -84.501c19.333 40 43.666 68.5 72.999 85.5s60.666 25.5 93.999 25.5c64.667 0 114.834 -21.333 150.501 -64s53.5 -110.667 53.5 -204z" />
    <glyph glyph-name="Scaron" unicode="&#x160;" horiz-adv-x="465" 
d="M411 194c0 -30 -5.16699 -57.498 -15.5 -82.498s-24.666 -46.5 -42.999 -64.5s-40.333 -32 -66 -42s-53.5 -15 -83.5 -15c-39.333 0 -71.333 3.5 -96 10.5s-46 16.167 -64 27.5l24 64c13.333 -8 29.666 -15.333 48.999 -22s43 -10 71 -10c40 0 71.5 11.667 94.5 35
s34.5 54.666 34.5 93.999c0 30.667 -9.16699 56 -27.5 76s-49.166 38.667 -92.499 56c-28.667 11.333 -52.5 24.166 -71.5 38.499s-34 29.5 -45 45.5s-18.667 32.5 -23 49.5s-6.5 33.833 -6.5 50.5c0 26 4.5 50.667 13.5 74s21.833 43.833 38.5 61.5s37 31.667 61 42
s51 15.5 81 15.5c32 0 59.667 -3.5 83 -10.5s42.666 -15.833 57.999 -26.5l-22 -58c-12 7.33301 -27.333 14.5 -46 21.5s-39.667 10.5 -63 10.5c-36.667 0 -64.834 -11 -84.501 -33s-29.5 -51.333 -29.5 -88c0 -18 3 -33.5 9 -46.5s14.333 -24.333 25 -34
s22.834 -18.167 36.501 -25.5s28.5 -14 44.5 -20c34 -13.333 61.167 -28 81.5 -44s36 -32.667 47 -50s18.333 -34.5 22 -51.5s5.5 -33.167 5.5 -48.5zM266 755.002c-10 -10 -21.667 -15 -35 -15s-24.333 5 -33 15l-99 100l25 21l108 -79l108 79l25 -21z" />
    <glyph glyph-name="scaron" unicode="&#x161;" horiz-adv-x="404" 
d="M357 150c0 -20.667 -4.33398 -40.499 -13.001 -59.499s-20.834 -35.833 -36.501 -50.5s-34.667 -26.334 -57 -35.001s-47.166 -13 -74.499 -13c-29.333 0 -56 3.33301 -80 10s-43.333 15.667 -58 27l24 58c9.33301 -8 23.166 -15.333 41.499 -22s39.5 -10 63.5 -10
c30 0 54.167 9 72.5 27s27.5 40 27.5 66c0 28 -7.33301 49.333 -22 64s-37 27.667 -67 39c-26 10 -47.333 20.833 -64 32.5s-29.5 24 -38.5 37s-15.167 26.333 -18.5 40s-5 27.5 -5 41.5c0 20 3.83301 39 11.5 57s18.5 33.667 32.5 47s30.833 24 50.5 32
s41.834 12 66.501 12c28 0 52.5 -3.83301 73.5 -11.5s38.5 -16.167 52.5 -25.5l-23 -53c-8 6 -19.667 12.5 -35 19.5s-33.666 10.5 -54.999 10.5c-30 0 -52.5 -8.33301 -67.5 -25s-22.5 -36.667 -22.5 -60c0 -26 8.5 -46.167 25.5 -60.5s38.5 -26.5 64.5 -36.5
s47.5 -21 64.5 -33s30.5 -24.667 40.5 -38s16.833 -27.333 20.5 -42s5.5 -29.667 5.5 -45zM235.999 613.001c-10 -10 -21.667 -15 -35 -15c-12 0 -23 5 -33 15l-99 101l25 21l108 -80l108 80l25 -21z" />
    <glyph glyph-name="Ydieresis" unicode="&#x178;" horiz-adv-x="500" 
d="M296 305v-305h-92v305l-187 383h100l137 -311h2l142 311h87zM217 800c0 -12 -4.5 -22.167 -13.5 -30.5s-19.5 -12.5 -31.5 -12.5c-12.667 0 -23.5 4.16699 -32.5 12.5s-13.5 18.5 -13.5 30.5s4.5 22.167 13.5 30.5s19.833 12.5 32.5 12.5c12 0 22.5 -4.16699 31.5 -12.5
s13.5 -18.5 13.5 -30.5zM382 800c0 -12 -4.5 -22.167 -13.5 -30.5s-19.833 -12.5 -32.5 -12.5s-23.334 4.16699 -32.001 12.5s-13 18.5 -13 30.5s4.33301 22.167 13 30.5s19.334 12.5 32.001 12.5s23.5 -4.16699 32.5 -12.5s13.5 -18.5 13.5 -30.5z" />
    <glyph glyph-name="florin" unicode="&#x192;" horiz-adv-x="563" 
d="M506 628c-16 5.33301 -32.666 8.00293 -49.999 8.00293c-18.667 0 -33.834 -5 -45.501 -15s-21.334 -22.667 -29.001 -38s-13.5 -31.833 -17.5 -49.5l-11 -49.5l-15 -73h111v-53h-122l-67 -357c-4.66699 -25.333 -11.334 -51.166 -20.001 -77.499
s-20.334 -50.333 -35.001 -72s-32.5 -39.334 -53.5 -53.001s-46.5 -20.5 -76.5 -20.5c-12.667 0 -24.667 1.16699 -36 3.5s-20.666 5.16602 -27.999 8.49902l11 62c6.66699 -2.66699 13.167 -4.66699 19.5 -6s13.166 -2 20.499 -2c16.667 0 31 3.66699 43 11
s22.333 18.5 31 33.5s16.334 33.5 23.001 55.5s12.667 48 18 78l63 336h-109v53h120c0 1.33301 0.833008 6.16602 2.5 14.499l5.5 26.5c2 9.33301 3.66699 17.666 5 24.999l2 11c6 30 12.833 57.833 20.5 83.5s18 47.667 31 66s29.5 32.833 49.5 43.5s45 16 75 16
c16.667 0 31.334 -1.33301 44.001 -4s23.334 -5.66699 32.001 -9z" />
    <glyph glyph-name="circumflex" unicode="&#x2c6;" horiz-adv-x="196" 
d="M205 597l-107 79l-107 -79l-25 22l98 100c10 10 21.333 15 34 15s24 -5 34 -15l98 -100z" />
    <glyph glyph-name="caron" unicode="&#x2c7;" horiz-adv-x="196" 
d="M132 613c-10 -10 -21.333 -15 -34 -15s-24 5 -34 15l-99 101l25 21l108 -80l108 80l25 -21z" />
    <glyph glyph-name="breve" unicode="&#x2d8;" horiz-adv-x="196" 
d="M227 717c0 -12 -2.33496 -24.833 -7.00195 -38.5s-12.167 -26.5 -22.5 -38.5s-23.666 -22 -39.999 -30s-36.166 -12 -59.499 -12c-24 0 -44.167 4 -60.5 12s-29.5 18 -39.5 30s-17.333 24.833 -22 38.5s-7 26.5 -7 38.5l31 11c5.33301 -25.333 16.333 -44.833 33 -58.5
s38 -20.5 64 -20.5s47.5 6.83301 64.5 20.5s28.833 33.167 35.5 58.5z" />
    <glyph glyph-name="dotaccent" unicode="&#x2d9;" horiz-adv-x="196" 
d="M146 691c0 -13.333 -4.66699 -24.833 -14 -34.5s-20.666 -14.5 -33.999 -14.5s-24.666 4.83301 -33.999 14.5s-14 21.167 -14 34.5s4.66699 24.666 14 33.999s20.666 14 33.999 14s24.666 -4.66699 33.999 -14s14 -20.666 14 -33.999z" />
    <glyph glyph-name="ring" unicode="&#x2da;" horiz-adv-x="196" 
d="M144 677c0 13.333 -4.33301 24.5 -13 33.5s-19.667 13.5 -33 13.5s-24.5 -4.5 -33.5 -13.5s-13.5 -20.167 -13.5 -33.5s4.5 -24.5 13.5 -33.5s20.167 -13.5 33.5 -13.5s24.333 4.5 33 13.5s13 20.167 13 33.5zM178 677c0 -22.667 -7.83301 -41.834 -23.5 -57.501
s-34.5 -23.5 -56.5 -23.5c-22.667 0 -41.834 7.83301 -57.501 23.5s-23.5 34.834 -23.5 57.501c0 22 7.83301 40.833 23.5 56.5s34.834 23.5 57.501 23.5c22 0 40.833 -7.83301 56.5 -23.5s23.5 -34.5 23.5 -56.5z" />
    <glyph glyph-name="ogonek" unicode="&#x2db;" horiz-adv-x="196" 
d="M243 -151c-23.333 -10 -46.335 -16.667 -69.002 -20s-43.167 -3.66602 -61.5 -0.999023s-33.166 8.33398 -44.499 17.001s-17 20.334 -17 35.001c0 11.333 1.5 22 4.5 32s8.33301 20 16 30s18.5 20 32.5 30s32 21 54 33h62c-21.333 -12 -38.833 -22.833 -52.5 -32.5
s-24.167 -18.834 -31.5 -27.501s-12.333 -16.834 -15 -24.501s-4 -15.834 -4 -24.501c0 -14 10.833 -23 32.5 -27s49.834 0.333008 84.501 13z" />
    <glyph glyph-name="tilde" unicode="&#x2dc;" horiz-adv-x="196" 
d="M239 665c-5.33301 -13.333 -12.833 -24.667 -22.5 -34s-24.834 -15.666 -45.501 -18.999c-14 -2 -26.667 -0.833008 -38 3.5s-22.166 9.33301 -32.499 15s-20.833 10.667 -31.5 15s-22 5.83301 -34 4.5c-15.333 -1.33301 -27 -7 -35 -17s-13.667 -19 -17 -27l-26 40
c6 13.333 14 25.166 24 35.499s25.333 16.5 46 18.5c14.667 1.33301 27.5 -0.166992 38.5 -4.5s21.5 -9.16602 31.5 -14.499s19.833 -10.333 29.5 -15s20.5 -6.33398 32.5 -5.00098c15.333 2 27 7.5 35 16.5s13.667 18.167 17 27.5z" />
    <glyph glyph-name="hungarumlaut" unicode="&#x2dd;" horiz-adv-x="196" 
d="M6 597h-39.998l85 127c5.33301 4.66699 12.166 8.66699 20.499 12s18.166 5 29.499 5c10 0 16.833 -1.33301 20.5 -4s5.5 -6.66699 5.5 -12zM137.002 597h-39.998l85 127c5.33301 4.66699 12.166 8.66699 20.499 12s18.166 5 29.499 5c10 0 16.833 -1.33301 20.5 -4
s5.5 -6.66699 5.5 -12z" />
    <glyph glyph-name="endash" unicode="&#x2013;" horiz-adv-x="400" 
d="M0 305v61h400v-61h-400z" />
    <glyph glyph-name="emdash" unicode="&#x2014;" horiz-adv-x="800" 
d="M0 309v52h800v-52h-800z" />
    <glyph glyph-name="quoteleft" unicode="&#x2018;" horiz-adv-x="264" 
d="M144 538c-5.33301 -6.66699 -12.333 -12.5 -21 -17.5s-20 -7.5 -34 -7.5c-11.333 0 -19.5 2.83301 -24.5 8.5s-8.16699 11.167 -9.5 16.5l123 247h46z" />
    <glyph glyph-name="quoteright" unicode="&#x2019;" horiz-adv-x="264" 
d="M86 517h-46l80 247c5.33301 7.33301 12.333 13.333 21 18s20 7 34 7c11.333 0 19.5 -2.66699 24.5 -8s8.16699 -11 9.5 -17z" />
    <glyph glyph-name="quotesinglbase" unicode="&#x201a;" horiz-adv-x="264" 
d="M86 -169h-46l80 247c5.33301 6.66699 12.333 12.5 21 17.5s20 7.5 34 7.5c11.333 0 19.5 -2.83301 24.5 -8.5s8.16699 -11.167 9.5 -16.5z" />
    <glyph glyph-name="quotedblleft" unicode="&#x201c;" horiz-adv-x="439" 
d="M144 538c-5.33301 -6.66699 -12.333 -12.5 -21 -17.5s-20 -7.5 -34 -7.5c-11.333 0 -19.5 2.83301 -24.5 8.5s-8.16699 11.167 -9.5 16.5l123 247h46zM319 538c-5.33301 -6.66699 -12.5 -12.5 -21.5 -17.5s-20.167 -7.5 -33.5 -7.5c-11.333 0 -19.5 2.83301 -24.5 8.5
s-8.16699 11.167 -9.5 16.5l123 247h46z" />
    <glyph glyph-name="quotedblright" unicode="&#x201d;" horiz-adv-x="439" 
d="M86 517h-46l80 247c5.33301 7.33301 12.333 13.333 21 18s20 7 34 7c11.333 0 19.5 -2.66699 24.5 -8s8.16699 -11 9.5 -17zM260 517h-45l80 247c5.33301 7.33301 12.333 13.333 21 18s20 7 34 7c11.333 0 19.5 -2.66699 24.5 -8s8.16699 -11 9.5 -17z" />
    <glyph glyph-name="quotedblbase" unicode="&#x201e;" horiz-adv-x="439" 
d="M86 -169h-46l80 247c5.33301 6.66699 12.333 12.5 21 17.5s20 7.5 34 7.5c11.333 0 19.5 -2.83301 24.5 -8.5s8.16699 -11.167 9.5 -16.5zM260 -169h-45l80 247c5.33301 6.66699 12.333 12.5 21 17.5s20 7.5 34 7.5c11.333 0 19.5 -2.83301 24.5 -8.5
s8.16699 -11.167 9.5 -16.5z" />
    <glyph glyph-name="dagger" unicode="&#x2020;" horiz-adv-x="553" 
d="M312 465l9 -680h-90l9 680l-190 -8v86l190 -8l-10 250h91l-9 -250l191 8v-86z" />
    <glyph glyph-name="daggerdbl" unicode="&#x2021;" horiz-adv-x="553" 
d="M311 60l9 -275h-87l8 275l-191 -6v76l191 -7l-2 172l2 179l-191 -7v76l191 -7l-8 249h87l-9 -249l192 7v-76l-191 7l1 -178l-1 -173l191 7v-76z" />
    <glyph glyph-name="bullet" unicode="&#x2022;" horiz-adv-x="324" 
d="M256 356c0 -13.333 -2.5 -25.666 -7.5 -36.999s-11.667 -21.166 -20 -29.499s-18.333 -15 -30 -20s-23.834 -7.5 -36.501 -7.5c-13.333 0 -25.666 2.5 -36.999 7.5s-21.166 11.667 -29.499 20s-15 18.166 -20 29.499s-7.5 23.666 -7.5 36.999
c0 12.667 2.5 24.834 7.5 36.501s11.667 21.667 20 30s18.166 15 29.499 20s23.666 7.5 36.999 7.5c12.667 0 24.834 -2.5 36.501 -7.5s21.667 -11.667 30 -20s15 -18.333 20 -30s7.5 -23.834 7.5 -36.501z" />
    <glyph glyph-name="ellipsis" unicode="&#x2026;" horiz-adv-x="838" 
d="M197 53c0 -16 -5.66699 -29.5 -17 -40.5s-24.666 -16.5 -39.999 -16.5c-16 0 -29.667 5.5 -41 16.5s-17 24.5 -17 40.5s5.66699 29.667 17 41s25 17 41 17c15.333 0 28.666 -5.66699 39.999 -17s17 -25 17 -41zM476 53c0 -16 -5.5 -29.5 -16.5 -40.5
s-24.5 -16.5 -40.5 -16.5s-29.667 5.5 -41 16.5s-17 24.5 -17 40.5s5.66699 29.667 17 41s25 17 41 17s29.5 -5.66699 40.5 -17s16.5 -25 16.5 -41zM756 53c0 -16 -5.66699 -29.5 -17 -40.5s-25 -16.5 -41 -16.5s-29.667 5.5 -41 16.5s-17 24.5 -17 40.5
s5.66699 29.667 17 41s25 17 41 17s29.667 -5.66699 41 -17s17 -25 17 -41z" />
    <glyph glyph-name="perthousand" unicode="&#x2030;" horiz-adv-x="1196" 
d="M278 465c0 20.667 -0.666992 42.335 -2 65.002s-4.5 43.667 -9.5 63s-12.5 35.333 -22.5 48s-23.333 19 -40 19c-17.333 0 -31 -6.33301 -41 -19s-17.5 -28.667 -22.5 -48s-8.16699 -40.333 -9.5 -63s-2 -44.334 -2 -65.001c0 -20 0.666992 -41.333 2 -64
s4.5 -43.334 9.5 -62.001s12.5 -34.167 22.5 -46.5s23.667 -18.5 41 -18.5c16.667 0 30 6.16699 40 18.5s17.5 28 22.5 47s8.16699 39.667 9.5 62s2 43.5 2 63.5zM725 226.001c0 20 -0.666992 41.5 -2 64.5s-4.5 44 -9.5 63s-12.5 34.833 -22.5 47.5s-23.333 19 -40 19
c-17.333 0 -31 -6.33301 -41 -19s-17.5 -28.5 -22.5 -47.5s-8.16699 -40 -9.5 -63s-2 -44.5 -2 -64.5s0.666992 -41.167 2 -63.5s4.5 -43 9.5 -62s12.5 -34.667 22.5 -47s23.667 -18.5 41 -18.5c16.667 0 30 6.16699 40 18.5s17.5 28 22.5 47s8.16699 39.667 9.5 62
s2 43.5 2 63.5zM1066 226.001c0 20 -0.666992 41.5 -2 64.5s-4.5 44 -9.5 63s-12.5 34.833 -22.5 47.5s-23.333 19 -40 19c-17.333 0 -31 -6.33301 -41 -19s-17.5 -28.5 -22.5 -47.5s-8.16699 -40 -9.5 -63s-2 -44.5 -2 -64.5s0.666992 -41.333 2 -64s4.5 -43.5 9.5 -62.5
s12.5 -34.667 22.5 -47s23.667 -18.5 41 -18.5c16.667 0 30 6.16699 40 18.5s17.5 28 22.5 47s8.16699 39.833 9.5 62.5s2 44 2 64zM338 464.001c0 -26.667 -1.83301 -53.834 -5.5 -81.501s-10.334 -52.834 -20.001 -75.501s-23.167 -41.334 -40.5 -56.001s-40 -22 -68 -22
s-50.833 7.33301 -68.5 22s-31.5 33.334 -41.5 56.001s-16.667 47.834 -20 75.501s-5 54.834 -5 81.501s1.66699 53.834 5 81.501s10 52.834 20 75.501s23.833 41.334 41.5 56.001s40.5 22 68.5 22s50.667 -7.33301 68 -22s30.833 -33.334 40.5 -56.001
s16.334 -47.834 20.001 -75.501s5.5 -54.834 5.5 -81.501zM332 -7.99902l-46 14l234 689l46 -13zM785 225.001c0 -26.667 -1.66797 -54 -5.00098 -82s-10 -53.333 -20 -76s-23.667 -41.334 -41 -56.001s-40 -22 -68 -22s-50.833 7.33301 -68.5 22s-31.5 33.334 -41.5 56.001
s-16.667 48 -20 76s-5 55.333 -5 82s1.66699 53.834 5 81.501s10 52.834 20 75.501s23.833 41.167 41.5 55.5s40.5 21.5 68.5 21.5s50.667 -7.16699 68 -21.5s30.833 -32.833 40.5 -55.5s16.334 -47.834 20.001 -75.501s5.5 -54.834 5.5 -81.501zM1127 225.001
c0 -26.667 -1.83496 -54 -5.50195 -82s-10.5 -53.333 -20.5 -76s-23.667 -41.334 -41 -56.001s-40 -22 -68 -22s-50.833 7.33301 -68.5 22s-31.5 33.334 -41.5 56.001s-16.667 48 -20 76s-5 55.333 -5 82s1.66699 53.834 5 81.501s10 52.834 20 75.501
s23.833 41.167 41.5 55.5s40.5 21.5 68.5 21.5s50.833 -7.16699 68.5 -21.5s31.334 -32.833 41.001 -55.5s16.334 -47.834 20.001 -75.501s5.5 -54.834 5.5 -81.501z" />
    <glyph glyph-name="guilsinglleft" unicode="&#x2039;" horiz-adv-x="330" 
d="M211 116l-151 218l151 218l47 -31l-128 -187l128 -187z" />
    <glyph glyph-name="guilsinglright" unicode="&#x203a;" horiz-adv-x="330" 
d="M119 116l-47 31l127 187l-127 187l47 31l151 -218z" />
    <glyph glyph-name="Euro" unicode="&#x20ac;" 
d="M495 28c-11.333 -9.33301 -27.3311 -18.001 -47.998 -26.001s-46 -12 -76 -12c-36 0 -67.5 6.83301 -94.5 20.5s-50.333 32.5 -70 56.5s-35.334 52.5 -47.001 85.5s-19.834 69.167 -24.501 108.5l-85 -6v48l82 -5c-0.666992 7.33301 -1.16699 14.833 -1.5 22.5
s-0.5 15.5 -0.5 23.5c0 23.333 1 46 3 68l-83 -8v50l88 -9c6 36 15.167 69.5 27.5 100.5s28 57.667 47 80s41.5 40 67.5 53s56 19.5 90 19.5c32 0 58 -4 78 -12s35.667 -16.333 47 -25l-22 -54c-8 5.33301 -19.667 11.333 -35 18s-33.666 10 -54.999 10
c-25.333 0 -47 -5 -65 -15s-33.167 -23.5 -45.5 -40.5s-22 -37.167 -29 -60.5s-12.5 -48 -16.5 -74l185 9v-50l-190 9c-2 -22 -3 -45 -3 -69v-24c0 -8 0.333008 -15.667 1 -23l192 6v-48l-187 6c3.33301 -28.667 8.5 -55.5 15.5 -80.5s16.667 -46.667 29 -65
s27.666 -32.666 45.999 -42.999s40.5 -15.5 66.5 -15.5c20.667 0 38 2.83301 52 8.5s26.667 12.167 38 19.5z" />
    <glyph glyph-name="trademark" unicode="&#x2122;" horiz-adv-x="782" 
d="M193 650v-309h-50v309h-97v38h243v-38h-96zM664 341l-36 303l-92 -303h-47l-93 303l-34 -303h-49l45 347h70l85 -297l84 297h71l44 -347h-48z" />
    <glyph glyph-name="minus" unicode="&#x2212;" 
d="M72 303v60h384v-60h-384z" />
    <glyph glyph-name="fraction" unicode="&#x2215;" horiz-adv-x="160" 
d="M-60 -15l-52 23l331 694l53 -22z" />
    <glyph glyph-name="fi" unicode="&#xfb01;" horiz-adv-x="527" 
d="M189 484v-484.001h-88v484h-61v55h61v76c0 26.667 4 50.667 12 72s19.667 39.5 35 54.5s34.333 26.333 57 34s48.667 10.834 78 9.50098v-56c-26 -1.33301 -48.167 -9.5 -66.5 -24.5s-27.5 -41.5 -27.5 -79.5v-86h94v-55h-94zM362 -0.000976562v539h88v-539h-88z
M456 690.999c0 -13.333 -4.83301 -24.5 -14.5 -33.5s-21.5 -13.5 -35.5 -13.5s-26 4.5 -36 13.5s-15 20.167 -15 33.5s5 24.5 15 33.5s22 13.5 36 13.5s25.833 -4.5 35.5 -13.5s14.5 -20.167 14.5 -33.5z" />
    <glyph glyph-name="fl" unicode="&#xfb02;" horiz-adv-x="533" 
d="M189 484v-484.001h-88v484h-61v55h61v76c0 26.667 4 50.667 12 72s19.667 39.5 35 54.5s34.333 26.333 57 34s48.667 10.834 78 9.50098v-56c-26 -1.33301 -48.167 -9.5 -66.5 -24.5s-27.5 -41.5 -27.5 -79.5v-86h94v-55h-94zM368 -0.000976562v785h88v-785h-88z" />
    <glyph glyph-name=".null" horiz-adv-x="0" 
 />
    <glyph glyph-name="nonmarkingreturn" horiz-adv-x="276" 
 />
    <glyph glyph-name="uni00A0" horiz-adv-x="276" 
 />
    </font>
</defs>
</svg>
