<?xml version="1.0" standalone="no"?>
<!DOCTYPE svg PUBLIC "-//W3C//DTD SVG 1.1//EN" "http://www.w3.org/Graphics/SVG/1.1/DTD/svg11.dtd" >
<svg xmlns="http://www.w3.org/2000/svg">
<metadata></metadata>
<defs>
<font id="arno_prolight_display" horiz-adv-x="901" >
<font-face units-per-em="2048" ascent="1409" descent="-639" />
<missing-glyph horiz-adv-x="327" />
<glyph horiz-adv-x="2048" />
<glyph horiz-adv-x="2048" />
<glyph unicode="&#xd;" horiz-adv-x="327" />
<glyph unicode=" "  horiz-adv-x="327" />
<glyph unicode="&#x09;" horiz-adv-x="327" />
<glyph unicode="&#xa0;" horiz-adv-x="327" />
<glyph unicode="!" horiz-adv-x="522" d="M219 59q0 33 25 62q26 22 57 22q35 0 55 -20q16 -16 21.5 -33.5t5.5 -34.5q0 -10 -5 -26.5t-18 -28.5q-23 -25 -63 -25q-12 0 -27.5 5.5t-27.5 15.5q-23 25 -23 63zM221 1198q0 10 6 23.5t17 17.5q18 6 47 11t37 5q6 0 22.5 -3t16.5 -11q0 -16 -4.5 -86t-10.5 -183.5 t-15 -267t-20 -339.5q-4 -4 -19 -1t-19 7q-10 143 -20.5 282.5t-19 252t-13.5 190.5t-5 102z" />
<glyph unicode="&#x22;" horiz-adv-x="497" d="M90 1284q2 4 12.5 13.5t22.5 20.5t24.5 20.5t18.5 11.5q6 6 12 -4q4 -8 4 -26.5v-41.5q0 -29 -3 -75t-8 -93t-10 -85t-9 -50q-10 -29 -16.5 -43t-14.5 -25q-2 -4 -9.5 -5t-9.5 3v111.5t-2 114t-4 95.5t-8 58zM315 1284q6 8 17.5 21.5t24 25.5t22.5 21.5t14 9.5h13 q4 -8 4 -28.5v-43.5q0 -27 -3.5 -73t-8.5 -92t-10 -82.5t-9 -49.5q-10 -29 -15.5 -46t-15.5 -27q-4 -4 -10 -4.5t-8 2.5v109t-2 109.5t-4 91.5t-9 56z" />
<glyph unicode="#" horiz-adv-x="804" d="M41 535q-2 2 1 18t9 33.5t12.5 32t10.5 16.5q31 -4 71.5 -7t83.5 -3l43 211h-37.5t-48 1t-45 2t-28.5 1q0 4 3 18t9 29.5t12 29t10 15.5q31 -2 70 -3t76 -1l49 235q0 2 8 5t17.5 7.5t18.5 7.5t11 3t6 -4l-51 -244q0 -10 6 -10l166 -2l54 256q6 4 26.5 12t26.5 10 q8 0 8 -6l-59 -266q0 -6 6 -6q49 0 96 2t80 8q2 -4 -4 -23.5t-10 -25.5q-29 -29 -70 -40t-113 -11q-8 0 -8 -9l-43 -194q0 -8 6 -8h90t82 8q2 -4 0 -18.5t-6 -20.5q-35 -39 -78 -52.5t-106 -13.5q-4 0 -8 -10l-56 -272q0 -4 -4 -4h-8t-18.5 14t-16.5 18q4 18 11.5 52 t14.5 72t14 73t11 57h-172q-8 0 -8 -8l-61 -276q-2 -4 -6.5 -4h-6.5q-8 4 -20 17t-14 17q10 59 26.5 128t26.5 126q-145 0 -166 7zM287 633q0 -8 4 -8h168l45 211h-168q-6 0 -8 -7z" />
<glyph unicode="$" d="M70 301q4 4 17 9t17 1q16 -78 40 -126t56.5 -76.5t75.5 -42t97 -21.5q8 0 8 6l49 514q0 8 -6 13q-55 33 -106.5 67.5t-90.5 75.5t-62.5 89t-23.5 110q0 76 27 134t74 96t111.5 57.5t140.5 19.5q8 0 8 8l14 145q6 4 23.5 7.5t25.5 3.5l-16 -158q0 -2 2 -4q0 -2 4 -2 q47 -4 73.5 -8.5t49.5 -8.5l104 -14q-10 -39 -19 -99.5t-15 -125.5q-4 -6 -17.5 -7t-17.5 5q-2 59 -11.5 98t-30 63.5t-50 37t-70.5 18.5q-6 0 -6 -6l-51 -484q2 -14 3 -14t5 -2q51 -27 104 -58.5t97.5 -71.5t73 -90t28.5 -116q0 -137 -92 -232.5t-287 -107.5q-6 0 -6 -8 l-17 -168l-47 -6l17 170q0 10 -6 10q-41 2 -82 9t-77 17.5t-63.5 20.5t-42.5 17q-6 6 -11 36.5t-9 69.5t-7 76t-5 53zM252 971q0 -53 17.5 -92t45 -70t61.5 -54.5t64 -41.5q4 -2 5 -4t6 8l45 463q0 8 -7 8q-123 -4 -180 -65.5t-57 -151.5zM426 51q0 -6 4 -6q47 0 91 14.5 t78 41t55.5 68.5t23.5 97q4 86 -37 151.5t-154 129.5q-10 4 -10 -4z" />
<glyph unicode="%" horiz-adv-x="1253" d="M82 831q0 96 23.5 159t64.5 108q37 37 91.5 66.5t113.5 29.5q47 0 84 -24.5t61.5 -63.5t36.5 -89t12 -99q0 -117 -33.5 -186.5t-64.5 -98.5q-47 -47 -91 -64.5t-97 -17.5q-47 0 -84 23.5t-62.5 61.5t-40 89t-14.5 106zM178 903q0 -84 15.5 -138t40 -88t54 -47.5 t58.5 -13.5q41 0 68.5 17.5t43 48.5t21.5 73t6 91t-11 101t-33.5 95t-55.5 70t-76 27q-39 0 -63.5 -22.5t-40 -57.5t-21.5 -77t-6 -79zM233 84q193 293 373 574.5t373 574.5q12 8 30.5 12t28.5 4q6 0 6 -8q-18 -23 -74.5 -108.5t-133 -204.5t-164.5 -256t-170 -263 t-147.5 -227.5t-98.5 -148.5q-8 -4 -12 0q-4 8 -8.5 23.5t-2.5 27.5zM684 356q0 98 23.5 160t64.5 109q37 35 91.5 65.5t113.5 30.5q47 0 84 -23.5t61.5 -61.5t36.5 -88t12 -104q0 -123 -32.5 -188.5t-63.5 -93.5q-88 -86 -190 -86q-47 0 -84 23.5t-62.5 62.5t-40 89 t-14.5 105zM780 430q0 -84 14.5 -139t38 -88t53 -47.5t58.5 -14.5q82 0 112.5 66.5t30.5 163.5q0 51 -9 102t-29.5 93t-54.5 69t-81 27q-39 0 -64.5 -23t-40.5 -56.5t-21.5 -74.5t-6.5 -78z" />
<glyph unicode="&#x26;" horiz-adv-x="1404" d="M123 317q0 43 14.5 80t47 76t86 83t130.5 99q6 4 2 9q-53 59 -86.5 125.5t-33.5 158.5q0 63 23.5 116.5t63.5 93.5t91 62.5t108 22.5q100 0 168 -63.5t68 -167.5q0 -39 -11.5 -74t-41 -69.5t-77.5 -75.5t-122 -93q-8 -4 -2 -10q18 -20 64.5 -62t104.5 -92.5t120.5 -101.5 t113.5 -90q4 -6 11 0q29 39 65.5 112.5t59.5 145.5q10 27 7 46.5t-26 29.5q-14 6 -38.5 11t-59.5 9q-6 2 -4 15.5t6 17.5q18 0 63 -3t111 -3q72 0 117 3t59 3q4 -2 5 -15.5t-3 -17.5q-16 -4 -37.5 -7t-32.5 -7q-35 -10 -53 -28.5t-35 -45.5q-53 -92 -90 -165.5t-75 -125.5 q-2 0 -1 -4t3 -4q43 -33 91 -69.5t92 -71.5t77.5 -63.5t48.5 -45.5q0 -14 -9.5 -31.5t-21.5 -35t-24.5 -32.5t-18.5 -21q-4 -2 -10 -3t-10 3q-8 16 -25.5 31.5t-28.5 27.5q-53 47 -115.5 96t-125.5 103q-4 4 -8 0q-92 -123 -202 -175.5t-220 -52.5q-86 0 -155 27t-117 73 t-74.5 109.5t-26.5 136.5zM252 354q0 -68 24.5 -122t65.5 -91t97.5 -56t117.5 -19q88 0 172 36.5t148 118.5q6 8 2 12q-55 45 -119 98.5t-123 105.5t-111.5 100.5t-89.5 87.5h-4h-6q-33 -27 -64.5 -53.5t-56 -58.5t-39 -71t-14.5 -88zM377 1004q0 -72 36 -146t99 -131 q2 -2 4 -2q4 0 6 2q182 131 183 281q0 31 -9.5 64.5t-30 62t-51 47t-75.5 18.5q-61 0 -111.5 -49t-50.5 -147z" />
<glyph unicode="'" horiz-adv-x="280" d="M90 1284q2 4 13.5 14.5t24.5 21.5t26.5 20.5t19.5 11.5q2 2 7 1t7 -3q5 -11 5 -58q0 -31 -3.5 -80t-8.5 -98t-11 -89t-10 -52q-4 -16 -13.5 -35.5t-19.5 -30.5q-8 -8 -18 -2q0 51 -1.5 111.5t-3.5 114t-6 95.5t-8 58z" />
<glyph unicode="(" horiz-adv-x="751" d="M164 545q0 176 37 326.5t102.5 276.5t154.5 225.5t193 172.5q6 -2 14.5 -12t6.5 -14q-178 -143 -288 -380t-110 -558q0 -141 24 -281.5t71 -268.5t117.5 -237.5t164.5 -187.5q2 -4 -7 -15.5t-15 -11.5q-51 23 -130 98.5t-154 199.5t-128 292t-53 375z" />
<glyph unicode=")" horiz-adv-x="751" d="M80 -391q88 72 161.5 163t126 205.5t81 255t28.5 312.5q0 131 -18.5 264t-61.5 260t-115.5 241.5t-181.5 209.5q-2 4 8.5 14t14.5 12q51 -25 130 -100.5t153.5 -198.5t128 -290.5t53.5 -374.5q0 -178 -37 -330t-102.5 -277t-154.5 -223t-194 -172q-4 2 -13 13.5t-7 15.5z " />
<glyph unicode="*" horiz-adv-x="649" d="M51 948q6 12 27.5 30.5t32.5 22.5q27 12 45 19.5t35.5 13.5t38 13.5t51.5 19.5q-10 8 -33 29.5t-49.5 46t-51 48t-36.5 36.5q-8 8 -2 14q18 12 36.5 16.5t24.5 4.5q10 -14 28.5 -34t40 -40.5t44 -41t41.5 -36.5q16 78 30.5 142.5t18.5 78.5q0 2 9 6t19.5 7.5l19.5 6.5 t11 3q10 0 10 -8q-8 -20 -17 -55.5t-18.5 -72t-16.5 -68.5t-9 -46q16 6 47 16t64.5 23.5t66.5 27t55 23.5l4 -4q6 -6 3 -10q-10 -16 -22.5 -27.5t-23.5 -17.5q-39 -20 -95 -41t-93 -35q10 -12 38 -36t60.5 -48.5t63.5 -46t47 -27.5q4 -8 -10 -16q-14 -4 -37 -4t-37 8 q-53 31 -92 61.5t-64 48.5q-6 -23 -14 -62.5t-15.5 -79.5t-13.5 -72.5t-6 -41.5q-4 -4 -10 0l-21.5 21.5t-13.5 40.5q2 16 6 44t10.5 59.5t12.5 63.5t10 54l-246 -86q-4 0 -4 8z" />
<glyph unicode="+" horiz-adv-x="942" d="M74 412v16l20 68q12 -4 69.5 -3t135.5 1h125v124v70t-1 65.5t-2 53t-1 33.5q14 4 40.5 12t35.5 8q4 0 6 -8t2 -51v-51v-73v-84v-83q0 -4 3 -10t7 -6h354v-21q-2 -6 -9 -30.5t-17 -26.5q-6 -2 -42 -2h-85h-102.5t-96.5 -2q-4 0 -8 -6.5t-4 -8.5q0 -41 -1 -96t-1 -107.5 v-90v-42.5q-2 -8 -25.5 -19t-38.5 -15l-14 2v46v91v117.5v128.5h-350z" />
<glyph unicode="," horiz-adv-x="290" d="M-23 -293q61 57 104.5 131t39.5 154q-4 33 -16.5 70.5t-28.5 66.5q2 6 12 21.5t23.5 33t27 30.5t21.5 17q2 2 10 3.5t12 -3.5q8 -8 20.5 -38.5t16.5 -86.5q2 -68 -17.5 -131t-52 -118.5t-71.5 -99.5t-74 -68q-10 2 -18.5 6t-8.5 6q-4 2 0 6z" />
<glyph unicode="-" horiz-adv-x="512" d="M66 375q0 4 1 15t3 23.5t5 21.5t7 9q20 0 70.5 1t107.5 3.5t109.5 4.5t74.5 2l2 -11q-2 -16 -7 -41.5t-13 -27.5q-6 -2 -57.5 -4t-112.5 -4t-116.5 -3.5t-71.5 -1.5z" />
<glyph unicode="." horiz-adv-x="290" d="M66 70q0 35 26 61q24 25 55 25q16 0 29.5 -6.5t24.5 -14.5q16 -16 21 -33.5t5 -33.5q0 -10 -6 -29t-18 -29q-23 -25 -62 -24q-29 0 -51 22q-25 25 -24 62z" />
<glyph unicode="/" horiz-adv-x="878" d="M84 -233q41 88 101.5 230t127 308t134 338t126 322.5t100.5 263t58 155.5q2 4 24.5 12.5t37.5 8.5l4 -4q-4 -10 -29 -77t-64.5 -170t-91 -233t-105.5 -269.5t-109.5 -275.5t-103.5 -253t-85 -202t-57 -122q-4 -6 -26 -20.5t-34 -18.5q-8 0 -8 7z" />
<glyph unicode="0" d="M66 580q0 162 30.5 287.5t106.5 224.5q59 74 133.5 109.5t148.5 35.5q45 0 82 -11.5t62.5 -26.5t43 -31.5t27.5 -26.5q20 -27 45 -67t44.5 -99.5t33 -140t13.5 -189.5q0 -219 -49.5 -357t-131.5 -218q-31 -31 -63.5 -49.5t-61 -27.5t-53 -12.5t-41.5 -3.5q-70 0 -121 23 t-90 61q-29 27 -56.5 71t-51 107.5t-37.5 147.5t-14 193zM197 672q0 -301 65.5 -471t210.5 -170q43 0 71.5 15t49.5 40q45 59 75.5 178t30.5 320q0 299 -70.5 451.5t-191.5 152.5q-53 0 -88 -25.5t-53 -50.5q-23 -31 -41 -79t-31.5 -106.5t-20.5 -124t-7 -130.5z" />
<glyph unicode="1" d="M236 9q0 11 4 16q27 4 42 5t42 5q18 2 31.5 8t22.5 19.5t13 36t4 57.5q2 35 3 87t1 113.5v130v136.5v149.5t-1 128.5t-2 97t-3 53q-4 20 -11 39.5t-32 21.5q-20 2 -45.5 2h-60.5q-4 4 -2 14.5t4 14.5q68 8 142.5 34.5t121.5 59.5h8q8 0 8 -4q-2 -18 -4 -44t-3 -84 t-1 -163.5v-288.5v-66.5t1 -91t1 -102.5t1 -99t2 -81t1 -49q4 -68 14.5 -90.5t41.5 -32.5q25 -8 45 -10t67 -8q2 -4 0 -15.5t-6 -13.5q-27 0 -76 3t-145 3q-92 0 -150.5 -3t-74.5 -3q-4 4 -4 15z" />
<glyph unicode="2" d="M59 20q61 61 101.5 102.5t73 79.5t65.5 80t82 105q92 117 140 235.5t48 227.5q0 51 -12 100t-41 88t-73.5 63.5t-110.5 24.5q-63 0 -125 -33.5t-125 -113.5q-4 0 -13.5 10t-9.5 15q14 23 44 61.5t74 77.5t100.5 66.5t121.5 27.5q63 0 118.5 -25.5t95.5 -71.5t62.5 -110.5 t22.5 -144.5q0 -111 -66.5 -232t-164.5 -237q-41 -49 -70.5 -85t-57.5 -69t-55.5 -64.5t-64.5 -74.5q-2 -2 0 -5t4 -3q29 -4 94.5 -7.5t138 -5.5t135 -1t87.5 3q12 0 25.5 5.5t31 21.5t37 49t41.5 88q4 2 16.5 -2t12.5 -8q-6 -25 -18.5 -61.5t-27 -75.5t-28.5 -71t-27 -44 q-6 -6 -25.5 -9t-43.5 -3q-57 0 -123 1t-133.5 3t-134 3t-127.5 1q-23 0 -46.5 -2t-39.5 -4q-4 4 -6.5 12t-2.5 12z" />
<glyph unicode="3" d="M76 158q2 4 11 8t13 4q18 -55 39 -89t51 -61q33 -27 80 -41t129 -14q45 0 93.5 17.5t87 54.5t63.5 92t25 131q0 63 -17.5 119.5t-54.5 98.5t-93.5 66.5t-131.5 24.5q-10 0 -31 -1t-45 -5q-2 2 0 11.5t6 18.5t8 17t8 11q141 31 202 110.5t61 171.5q0 43 -11.5 85t-37 76 t-65.5 54.5t-95 20.5q-123 0 -228 -117q-4 -2 -12 12.5t-6 18.5q27 31 61.5 63.5t75.5 59t87 44t97 17.5q49 0 94.5 -20.5t80 -56.5t55 -84t20.5 -105q0 -55 -17 -100.5t-45 -82t-59.5 -65.5t-60.5 -49q-4 -4 0 -8q51 -14 102.5 -39t92.5 -64t66.5 -92t25.5 -125 q0 -111 -46 -190.5t-122 -137.5q-63 -47 -139 -75.5t-166 -28.5q-66 0 -105 10t-71 29q-18 10 -30.5 24.5t-23.5 47.5q-12 35 -17 76.5t-5 56.5z" />
<glyph unicode="4" d="M18 352q0 8 2.5 23.5t4.5 21.5q31 45 82 116t109 154t119.5 169t115 162.5t92.5 134t53 81.5q4 4 24.5 6.5t24.5 0.5v-766q0 -6 4 -6h238q-4 -20 -10.5 -47t-6.5 -52q-53 0 -108 1t-109 1q-8 0 -8 -10q0 -98 1 -198.5t3 -196.5q-23 0 -62.5 -7.5t-66.5 -15.5q2 98 4 205 t2 211q0 10 -8 10l-285 2h-215zM130 449.5q1 -3.5 3 -3.5q20 -2 45 -2h84h254q10 0 10 11l6 575q0 4 -3 4t-5 -2q-14 -18 -46 -64t-72.5 -106.5t-86 -127t-84 -124t-67.5 -100.5t-37 -55q-2 -2 -1 -5.5z" />
<glyph unicode="5" d="M80 63q0 14 7 35t17 39q2 2 8.5 4t8.5 0q18 -29 43.5 -57.5t60.5 -53t83 -40t114 -15.5q115 0 189.5 75t74.5 198q0 55 -10 97t-32.5 79t-57.5 69.5t-84 67.5q-41 31 -85 57.5t-84 50t-75 43t-59 36.5q-8 16 -4 36q12 37 34.5 98.5t47 124t49 115t39.5 72.5q4 6 15 17.5 t17 11.5q12 0 40 -2t60.5 -4.5t64.5 -4.5t54 0q29 0 49 5.5t40 25.5q4 0 11 -6t5 -10q-10 -23 -30.5 -57.5t-49.5 -57.5q-27 -18 -57 -18q-70 0 -125.5 5t-75.5 5q-10 0 -16.5 -7t-10.5 -12q-6 -12 -18 -40.5t-24.5 -59.5t-23.5 -60.5t-16 -45.5q-2 -6 1.5 -14.5t7.5 -10.5 q98 -53 191 -108.5t169 -112.5q84 -63 121 -131t37 -162q0 -92 -40 -170t-104.5 -134t-145.5 -89t-161 -33q-88 0 -143 23.5t-92 58.5q-14 14 -24.5 34.5t-10.5 32.5z" />
<glyph unicode="6" d="M72 410q0 147 57 287.5t160.5 260t247 215t315.5 154.5q4 -2 9 -14.5t3 -16.5q-139 -63 -242.5 -140t-177 -159t-121 -165.5t-71.5 -159.5q-2 -4 -1 -5t1 -3t2 -5q68 35 145.5 68t149.5 33q59 0 111.5 -26.5t92.5 -74t63.5 -112t23.5 -137.5q0 -133 -50.5 -220.5 t-138.5 -150.5q-20 -14 -46.5 -26.5t-55.5 -20.5t-57.5 -13.5t-49.5 -5.5q-96 0 -165.5 35t-115.5 95.5t-67.5 139.5t-21.5 167zM209 446q0 -111 23.5 -189.5t63.5 -128.5t93 -74.5t111 -24.5q102 0 158.5 80.5t56.5 228.5q0 80 -22.5 143.5t-61.5 107.5t-88.5 66.5 t-100.5 22.5q-47 0 -87 -13.5t-79 -35.5q-45 -27 -57 -78q-6 -31 -8 -53.5t-2 -51.5z" />
<glyph unicode="7" d="M61 958q18 63 35 133t27 138q23 -10 66.5 -13.5t93.5 -3.5h366q53 0 109.5 1.5t83.5 3.5q4 -8 4 -17q-14 -49 -55 -149.5t-94.5 -226.5t-114 -264t-114.5 -261t-95 -217t-56 -133q-2 -4 -10 -4q-10 2 -25.5 12t-19.5 14q-2 2 -3 8.5t1 10.5q27 59 71 151t94 198.5 t103.5 220.5t98.5 215.5t78.5 182t46.5 121.5q0 8 -2 11h-69t-94 1t-107.5 1h-105.5t-91 -2.5t-64 -4.5t-39 -9t-29.5 -22.5t-27.5 -41t-31 -64.5q-4 -4 -17.5 1t-13.5 9z" />
<glyph unicode="8" d="M94 279q0 33 10.5 65.5t39 70.5t78.5 84t128 105q10 6 4 12q-117 82 -162 153t-45 153q0 61 28 121.5t77 101.5q45 41 106.5 66.5t124.5 25.5q61 0 112.5 -21.5t90.5 -60.5t60.5 -92t21.5 -115q0 -74 -47 -140.5t-170 -152.5q-6 -6 -2 -10q68 -45 117 -83t79.5 -75.5 t46 -79.5t15.5 -96q0 -66 -29.5 -125t-79 -106t-116 -75t-140.5 -28q-94 0 -160.5 29t-107.5 73t-60.5 97t-19.5 103zM207 303q0 -53 18.5 -103t54 -89t86.5 -62.5t119 -23.5q39 0 76 12t65.5 37.5t46 64.5t17.5 92q0 59 -16.5 104.5t-52 85.5t-90 78t-128.5 85q-4 2 -12 3 t-12 -3q-88 -70 -130 -135.5t-42 -145.5zM250 983q0 -53 18.5 -95t52 -78t79.5 -68.5t102 -65.5q10 -8 18 0q86 66 116 131t30 125q0 57 -18.5 105t-49.5 82t-72 52.5t-86 18.5q-88 0 -139 -54.5t-51 -152.5z" />
<glyph unicode="9" d="M66 823q0 98 40.5 185.5t122.5 146.5q49 35 113 58.5t129 23.5q82 0 148.5 -36t112.5 -99.5t70.5 -148.5t24.5 -183q0 -158 -58 -297t-156.5 -254t-230 -203t-278.5 -141q-4 0 -10 13.5t-4 17.5q127 57 223.5 133t167 163t117.5 182t72 191q4 14 -8 7q-29 -20 -67 -41 t-80 -38.5t-84 -27.5t-79 -10q-49 0 -100 24.5t-93 70.5t-67.5 112.5t-25.5 150.5zM184 899q0 -90 26 -154.5t67.5 -105.5t95 -60.5t106.5 -19.5q41 0 91.5 15.5t82.5 41.5q20 16 27 39q8 29 10 61t2 54q0 82 -20.5 158t-58.5 132t-91 90t-116 34q-98 0 -160 -79t-62 -206z " />
<glyph unicode=":" horiz-adv-x="448" d="M143 70q0 35 27 61q24 25 55 25q16 0 29.5 -6.5t24.5 -14.5q16 -16 21 -33.5t5 -33.5q0 -10 -6 -29t-18 -29q-23 -25 -62 -24q-29 0 -51 22q-25 25 -25 62zM143 582q0 35 27 61q24 25 55 25q16 0 29.5 -6.5t24.5 -14.5q16 -16 21 -33.5t5 -33.5q0 -10 -6 -29t-18 -29 q-23 -25 -62 -24q-29 0 -51 22q-25 25 -25 62z" />
<glyph unicode=";" horiz-adv-x="448" d="M41 -293q63 57 111.5 131t46.5 154q-4 33 -19.5 72.5t-27.5 64.5q2 6 12 21.5t23.5 33t26.5 30.5t22 17q2 2 10 2t12 -2q6 -4 19.5 -36.5t17.5 -88.5q2 -66 -19.5 -129t-55.5 -118.5t-75 -100.5t-77 -69q-10 2 -18.5 6t-8.5 6q-4 2 0 6zM143 582q0 35 27 61q24 25 55 25 q16 0 29.5 -6.5t24.5 -14.5q16 -16 21 -33.5t5 -33.5q0 -10 -6 -29t-18 -29q-23 -25 -62 -24q-29 0 -51 22q-25 25 -25 62z" />
<glyph unicode="&#x3c;" horiz-adv-x="942" d="M106 422q0 6 9.5 26.5t13.5 24.5q39 16 100.5 48t132 69t145.5 77t137.5 75.5t108.5 62t60 39.5q2 0 6 -4q0 -4 -2 -17.5t-6 -28t-8 -27.5t-6 -15q-10 -8 -45 -30t-85.5 -50.5t-108.5 -60t-114.5 -61.5t-102.5 -55.5t-73 -37.5q-4 -2 -4 -6q0 -2 2 -5q14 -8 58.5 -30.5 t101.5 -53t120.5 -64.5t120 -65.5t98.5 -56t54 -35.5q2 -2 -1 -11t-7 -21.5t-10 -22.5t-10 -16q-2 -2 -5.5 -4.5t-5.5 0.5q-18 14 -63 41.5t-106.5 61.5t-133 72t-140.5 72.5t-130.5 63.5t-100.5 45z" />
<glyph unicode="=" horiz-adv-x="942" d="M74 270q2 10 9 36t11 36q12 -4 66.5 -5t132.5 -1h571q4 -2 4 -14q-2 -12 -14 -39t-16 -29h-758q-6 2 -6 16zM74 574.5q-2 5.5 0 9.5q2 10 9 34.5t11 34.5q12 -4 66.5 -4h132.5h573q4 -4 4 -8v-6q-2 -10 -12 -37t-16 -31h-762q-4 2 -6 7.5z" />
<glyph unicode="&#x3e;" horiz-adv-x="942" d="M117 68q0 4 2 17t6 27.5t7 27t7 16.5q8 8 44 29.5t86 50t108.5 60.5t115 61.5t102.5 54t73 39.5q4 0 4 6q0 2 -2 4q-16 8 -59.5 30.5t-100.5 53t-121.5 64.5t-120 66t-97.5 56.5t-54 34.5q-2 2 1 11t7 21.5t10 22.5t10 17q6 6 11 4q16 -14 62 -42t107.5 -61.5t133 -71.5 t140.5 -73t130.5 -63.5t99.5 -45.5q0 -6 -9 -26.5t-13 -24.5q-39 -18 -100.5 -49t-132 -67.5t-145.5 -76.5t-137.5 -76t-108.5 -62.5t-60 -39.5q-2 0 -6 5z" />
<glyph unicode="?" horiz-adv-x="681" d="M150 1165q0 12 10 34t22 38q6 10 20.5 15t24.5 5q57 0 110.5 -21.5t100.5 -55.5q63 -47 103.5 -118t40.5 -138q0 -55 -13.5 -93t-29.5 -57q-18 -18 -49 -46t-66 -56.5t-67.5 -55t-51.5 -47.5q-20 -20 -20 -51q0 -12 19.5 -49t68.5 -72q6 -6 -2 -18q-4 -6 -21.5 -19.5 t-30.5 -17.5q-25 -8 -47 0q-37 16 -63.5 51t-26.5 76q0 23 6.5 41t10.5 22q12 12 43.5 40t67.5 59t70 60.5t50 45.5q29 29 44 56.5t15 62.5q0 27 -9 66t-35.5 77.5t-72.5 73.5t-120 53q-16 4 -36.5 7.5t-33.5 7.5q-33 6 -32 24zM242 59q0 33 24 62q27 22 58 22q35 0 55 -20 q16 -16 21.5 -33.5t5.5 -34.5q0 -10 -5.5 -26.5t-17.5 -28.5q-12 -14 -29.5 -19.5t-36.5 -5.5q-12 0 -26.5 5.5t-26.5 15.5q-23 25 -22 63z" />
<glyph unicode="@" horiz-adv-x="1529" d="M102 268q0 186 58.5 336t158.5 266q119 135 265.5 209t316.5 74q127 0 225.5 -50t165 -130t101 -180.5t34.5 -200.5q0 -154 -54 -267.5t-132 -190.5t-165 -113.5t-154 -36.5q-33 0 -54.5 29.5t-13.5 115.5q4 35 11 82t18 94q2 4 -1 5t-5 -3q-45 -70 -97.5 -129 t-102.5 -103t-94 -68.5t-71 -24.5q-29 0 -45 19t-25.5 49t-12.5 62.5t-3 57.5q0 57 12.5 121.5t36 127t57 120t78.5 104.5q18 20 55 49t84.5 55.5t102.5 45t109 18.5q47 0 76.5 -5t64.5 -11q-27 -57 -34 -85t-11 -38q-12 -45 -27.5 -121t-30 -156t-23.5 -150.5t-9 -103.5 q0 -35 12 -53t43 -18q45 0 100.5 25.5t104.5 80.5t81.5 140t32.5 206q0 147 -44 254t-116.5 176.5t-164.5 103.5t-187 34q-51 0 -116.5 -14.5t-134 -49.5t-135 -93.5t-119 -148.5t-84 -212.5t-31.5 -288.5q0 -133 29.5 -235.5t78 -176.5t110.5 -119t128 -63 q33 -10 61.5 -12.5t53.5 -2.5q4 -2 4 -12t-6 -14q-39 -16 -86 -17q-27 0 -73 14.5t-99.5 45t-107.5 81t-99 121t-73 164t-28 211.5zM539 238q0 -59 15 -97.5t50 -38.5q43 0 109.5 58.5t146.5 187.5q23 39 37 79t25 85q6 20 13 51t15 61.5t16.5 57.5t16.5 41q-16 8 -39.5 12 t-71.5 4q-88 0 -149 -49t-96 -112q-41 -72 -64.5 -162t-23.5 -178z" />
<glyph unicode="A" horiz-adv-x="1142" d="M-72 8.5q0 12.5 4 16.5q53 6 87 15t56.5 27.5t41 52.5t43.5 91q31 74 66.5 164t70.5 184t69.5 188.5t63.5 174t50.5 141t33.5 92.5q23 66 29 102q2 0 13 -1t34 -1t34 1t13 1q4 -14 9 -37.5t16 -52.5q8 -27 32.5 -99.5t57 -170.5t68.5 -211t71 -215t63.5 -183t42.5 -120 q20 -45 35 -70.5t34 -40t49 -20.5t81 -12q3 -3 3 -9q0 -2 -1 -6q-2 -12 -6 -16q-18 0 -48 1t-60.5 2t-59.5 2t-47 1h-50t-66 -1t-64.5 -2t-46.5 -3q-2 4 -3.5 15t3.5 16q31 4 55 8t47 12q25 10 28 22.5t-3 34.5q-8 33 -25.5 87.5t-38 113.5t-41 117.5t-35.5 101.5q-2 2 -6 4 q-2 0 -6 4l-2 2q-16 2 -55 2.5t-136 0.5h-80.5h-47t-24.5 -1.5t-15 -1.5q-12 0 -17 -14q-16 -41 -37.5 -98.5t-41 -114.5t-36 -106t-18.5 -72q-4 -29 2 -51.5t57 -34.5l36 -8t50 -8q4 -4 3 -15.5t-5 -15.5q-14 0 -39.5 1t-57.5 2t-67.5 2t-68.5 1q-76 0 -123 -3t-70 -3 q-4 2 -4 14.5zM383 614q0 -12 8 -14q14 -2 55 -2h125h39h42.5t34.5 1t20 1t5 6q0 3 -1 8q-18 57 -40 128t-43.5 138.5t-40 125t-30.5 92.5q-8 0 -8 -2q-12 -33 -36 -99.5t-48.5 -140.5t-47 -141.5t-34.5 -100.5z" />
<glyph unicode="B" horiz-adv-x="1050" d="M33 10.5q0 12.5 4 14.5q29 4 60.5 6t60.5 10q31 8 42 31.5t15 85.5q2 25 3 63.5t2 96t1 135v182.5v201v137t-1 91t-3 62q-4 41 -15.5 59.5t-33.5 26.5q-23 8 -57.5 12.5t-59.5 6.5q-4 2 -4 15.5t4 15.5q31 0 57.5 -1t51 -2t51.5 -2.5t59 -1.5q37 0 62.5 1t54.5 1 t65.5 1.5t96.5 1.5q43 0 101.5 -8.5t110.5 -37t89 -84t37 -147.5q0 -90 -55.5 -161.5t-149.5 -112.5q-4 -4 0 -7q61 -14 113.5 -40.5t91.5 -65.5t61.5 -91t22.5 -120q0 -123 -66.5 -214t-183.5 -138q-70 -29 -144.5 -36t-144.5 -7q-35 0 -82 1t-100 3t-108.5 2t-104.5 -2 q-4 4 -4 16.5zM344 527.5q0 -76.5 1 -156.5t2 -147.5t5 -96.5q2 -16 11.5 -29.5t21.5 -23.5q29 -18 78 -25.5t82 -7.5q154 0 219 73.5t65 221.5q0 164 -106.5 246t-278.5 82q-45 0 -66.5 -1t-25.5 -4q-8 -4 -8 -8v-123.5zM344 723q0 -4 2 -8t6 -4q12 -2 34 -3t69 -1 q51 0 85.5 2t58.5 6t37 10t23 12q49 35 71 88.5t22 114.5q0 135 -75 204.5t-235 69.5q-55 0 -75 -8q-8 -4 -12.5 -14t-4.5 -21q0 -10 -1 -59t-2 -115.5t-2 -140.5t-1 -133z" />
<glyph unicode="C" horiz-adv-x="1314" d="M102 639q0 168 76 317.5t244 239.5q82 45 183.5 70.5t234.5 25.5q121 0 213 -17.5t161 -23.5q-6 -23 -12 -59.5t-11 -77.5t-9 -81t-4 -70q-4 -4 -20.5 -7.5t-16.5 2.5q-8 63 -17.5 104.5t-24 68t-31.5 41t-42 26.5q-96 47 -260 47q-121 0 -217 -41t-161.5 -117.5 t-100.5 -185t-35 -244.5q0 -147 41 -265t116.5 -199.5t183 -125.5t243.5 -44q23 0 52.5 2t62 10t66.5 25.5t64 45.5q41 41 70 82t63 103q4 2 16.5 -4t12.5 -13q-10 -41 -29.5 -85t-42 -81.5t-44 -66.5t-37.5 -35q-43 -14 -122 -28.5t-171 -14.5q-164 0 -293 45t-218 131 t-136.5 212t-47.5 288z" />
<glyph unicode="D" horiz-adv-x="1392" d="M35 10.5q0 14.5 4 14.5q31 4 58.5 8t49.5 10q12 4 23.5 8t21 15.5t15.5 30t8 50.5q4 104 5 240.5t1 265.5v102.5v129t-1 124t-3 85.5q-4 63 -13 86.5t-50 33.5q-18 4 -41 8.5t-58 8.5q-4 4 -2 16.5t6 14.5q18 0 48 -1t62 -2.5t61.5 -2.5t50.5 -1q51 0 94 1t88 3.5t93 3.5 t108 1q135 0 246.5 -36t193.5 -108q98 -86 142 -203.5t44 -259.5q0 -115 -27.5 -205t-70.5 -157.5t-95.5 -115.5t-103.5 -79q-94 -57 -198.5 -85.5t-233.5 -28.5q-43 0 -79 1t-73.5 2t-83.5 3t-112 2h-29.5h-48h-52.5h-44q-4 2 -4 16.5zM348 356.5q0 -67.5 1 -119.5t3 -77 q2 -23 11.5 -43.5t33.5 -34.5q29 -16 94.5 -26.5t159.5 -10.5q84 0 169 22.5t157 90.5q76 70 121 178t45 287q0 156 -52.5 281.5t-179.5 215.5q-72 51 -176 72.5t-239 21.5q-33 0 -67 -3t-50 -7q-8 -4 -16.5 -12t-10.5 -33q-2 -18 -3 -76.5t-1 -133.5v-156.5v-149.5v-144.5 v-142z" />
<glyph unicode="E" horiz-adv-x="1019" d="M12 9q0 11 4 16q39 4 70 6t59 10q37 10 52.5 32.5t19.5 86.5q0 12 1 59t2 118t1 159v178v148.5t-1 131t-2 98.5t-1 52q-4 61 -14 81.5t-49 31.5q-18 4 -41 8t-54 8q-4 4 -3 14t5 15q35 0 83.5 -3.5t134.5 -3.5h395h60.5t60 1t51 2.5t35.5 3.5q6 0 6 -7 q-6 -25 -12.5 -59.5t-11.5 -70t-8 -70.5t-5 -60q-4 -4 -16.5 -5t-16.5 3q-4 43 -8 72t-8 49q-10 37 -30.5 59.5t-86.5 26.5q-20 0 -67.5 1t-97.5 1h-93t-55 -2q-10 -2 -15.5 -11t-5.5 -18q-2 -18 -2 -60t-1 -93t-1 -107.5v-103.5v-80v-37q0 -16 6 -16q18 -2 64.5 -2h96.5 t97 1t70 3q49 4 64.5 24.5t23.5 42.5q6 16 11 36t9 40q4 4 18.5 3t16.5 -5q-4 -25 -9 -79t-5 -103q0 -66 2 -103.5t2 -60.5q-4 -6 -17.5 -7t-17.5 5q-4 23 -6 38t-6 32q-4 18 -18.5 42.5t-65.5 28.5q-23 2 -69 3t-97 1h-96t-66 -2q-4 0 -6 -7t-2 -9v-69.5v-129t1 -144.5 t3 -118q2 -41 17.5 -55t31.5 -19q31 -6 90.5 -9t169.5 -3q47 0 77 4t48.5 12.5t29.5 17.5t22 19q23 20 54.5 72.5t55.5 112.5q4 2 13.5 -4.5t13.5 -10.5q-4 -25 -14.5 -62.5t-22.5 -75.5t-25.5 -70.5t-21.5 -47.5q-4 -8 -9.5 -12t-17.5 -6t-34.5 -3t-61.5 -1t-75 1t-87 2 t-128 2t-195 1q-51 0 -88 -1t-67 -2t-55.5 -2t-54.5 -1q-4 4 -4 15z" />
<glyph unicode="F" horiz-adv-x="970" d="M53 25q68 6 99 14q41 10 52 34.5t13 86.5q2 57 3 169.5t1 309.5v155.5v134t-1 103.5t-3 66q-4 47 -7 72.5t-38 41.5q-18 8 -44 11.5t-69 9.5q-4 0 -4 13.5t4 15.5q27 0 83.5 -3.5t133.5 -3.5h449q66 0 105.5 3.5t68.5 11.5q2 0 6 -8q-14 -37 -21 -115t-12 -156 q-2 -4 -16 -5t-18 3q-4 53 -12.5 90t-12.5 51q-18 63 -88 68q-25 2 -78 2h-109.5h-102.5t-58 -2t-18.5 -13t-6.5 -24q-2 -31 -3 -95.5t-1 -138v-146v-122.5q0 -6 10 -6h61.5h97.5t99.5 1t69.5 1q57 2 76.5 19.5t28.5 36.5q10 23 16 47t10 45q4 4 17.5 2t15.5 -6 q-4 -29 -9 -80t-5 -111q0 -53 2 -93t2 -69q-2 -4 -15.5 -6t-17.5 0q-4 35 -9 52.5t-12 33.5q-20 55 -65 60q-29 2 -85 4t-114.5 2h-105.5t-60 -2q-4 0 -6 -4t-2 -6v-106.5v-119t1 -112t3 -82.5q4 -47 12.5 -78t53.5 -41q23 -4 48.5 -8t68.5 -8q2 -4 3 -14.5t-3 -16.5 q-41 0 -107 3t-143 3q-76 0 -131.5 -3t-100.5 -3q-3 3 -3 11q0 12 3 20z" />
<glyph unicode="G" horiz-adv-x="1357" d="M102 639q0 195 93.5 346.5t259.5 226.5q86 39 177 59.5t214 20.5q111 0 200 -17.5t168 -25.5q-4 -20 -9 -54t-9 -75t-7 -84t-5 -80q-4 -6 -16.5 -7t-20.5 3q-6 59 -14.5 99.5t-20.5 67t-28.5 43t-41.5 28.5q-49 25 -116.5 38t-159.5 13q-135 0 -231.5 -44t-159 -124 t-92 -188.5t-29.5 -237.5q0 -133 37 -248.5t109.5 -201.5t181 -136.5t254.5 -50.5q47 0 94 6.5t69 16.5q29 12 42.5 34.5t17.5 67.5q4 49 6 113q1 22 1 42q0 40 -3 75q-4 55 -19.5 76.5t-64.5 29.5q-25 4 -42 6t-58 6q-4 4 -4.5 15.5t4.5 15.5q57 0 119.5 -3t125.5 -3 t103.5 1t79.5 5q3 -3 3 -11q0 -15 -5 -20q-49 -8 -70 -16q-29 -8 -37 -32.5t-12 -69.5q-2 -25 -3 -58t-2 -67q-1 -18 -1 -34.5t1 -32.5q1 -32 3 -50q4 -29 10 -38t35 -19q2 -4 1 -14.5t-5 -14.5q-18 -4 -61.5 -15.5t-100.5 -24.5t-123 -23.5t-129 -10.5q-348 0 -528.5 169 t-180.5 507z" />
<glyph unicode="H" horiz-adv-x="1431" d="M47 9q0 11 4 16q33 4 59.5 9t45.5 11q45 14 52 51t11 107q0 29 1 79t1 111.5v131v134.5v152t-1 144.5t-2 112.5t-1 56q-4 47 -17.5 64.5t-35.5 23.5q-23 6 -48.5 9.5t-64.5 9.5q-4 4 -4 15t4 16q25 0 55.5 -1t63.5 -2.5t62.5 -2.5t54.5 -1q82 0 126 2.5t85 4.5 q4 -4 3 -15.5t-5 -15.5q-18 -2 -43 -6t-41 -8q-31 -10 -44.5 -24.5t-15.5 -66.5q-4 -61 -4 -167.5v-266.5q0 -12 8 -16q2 0 12.5 -1t49.5 -2t113.5 -1h205.5h240t100 2q4 0 6 4t2 6v106.5v137t-1 129t-3 84.5q-2 57 -41 71q-29 8 -52 11.5t-52 7.5q-4 4 -4 15t4 16 q29 0 88 -3.5t131 -3.5q63 0 128 3.5t89 3.5q4 -4 4 -15.5t-4 -15.5q-29 -4 -52.5 -8t-39.5 -11q-33 -10 -46 -30.5t-15 -85.5q-2 -43 -4.5 -166t-2.5 -299v-144.5t1 -146.5t2.5 -125t3.5 -78q4 -41 14 -61.5t39 -30.5q20 -8 43.5 -12t68.5 -8q3 -3 3 -11q0 -15 -7 -20 q-61 0 -108 3t-117 3q-72 0 -132 -2t-97 -4q-4 6 -4 16t4 15q27 4 50 6t52 10q33 10 43 28.5t12 73.5q0 18 1 73.5t1 123.5v136.5v115.5q0 14 -8 14q-10 0 -50 1t-92 1h-106.5h-95.5h-115.5h-118t-95 -1t-48.5 -1q-4 0 -6 -5t-2 -7v-105.5t1 -133t2 -119t1 -64.5 q4 -53 9.5 -84t41.5 -41q23 -6 42.5 -11t70.5 -11q4 -4 1 -16.5t-7 -14.5q-47 2 -103.5 4t-115.5 2q-29 0 -63.5 -1t-67.5 -2t-61.5 -2t-47.5 -1q-4 4 -4 15z" />
<glyph unicode="I" horiz-adv-x="567" d="M57 1262q29 0 97.5 -3.5t140.5 -3.5q66 0 113 3.5t84 3.5q4 -4 5 -15.5t-3 -15.5q-23 -4 -46.5 -6t-37.5 -6q-35 -10 -44.5 -35t-13.5 -72q-2 -33 -3 -85t-2 -114.5t-1 -132v-137.5v-147.5t1 -143t2 -120t1 -76.5q4 -47 13.5 -75t48.5 -38q41 -12 104 -18q3 -3 3 -11v-4 q-1 -12 -5 -16q-33 0 -86 3t-121 3q-37 0 -65.5 -1t-56 -2t-57.5 -2t-69 -1q-4 4 -4 15t4 16q23 2 48.5 6t44.5 8q39 8 49 30.5t14 57.5q2 18 3 86t2 155t1 178v154v226.5t-4 181.5q-4 37 -10 65.5t-41 38.5q-16 4 -45 9.5t-66 9.5q-3 3 -3 11q0 14 5 20z" />
<glyph unicode="J" horiz-adv-x="563" d="M-172 -379q4 20 12 52t17 44q55 -41 103 -58t77 -17q43 0 67.5 11t53.5 40q37 39 59.5 132t22.5 234q0 59 1 152.5t1 200t-1 216t-2 204t-2 162t-4 87.5q0 20 -2 41t-8 38.5t-18 31.5t-35 20q-23 8 -46.5 10.5t-68.5 8.5q-4 4 -4 15t4 16q47 0 108.5 -3.5t131.5 -3.5 q78 0 130 3.5t97 3.5q4 -4 4 -15.5t-6 -15.5q-51 -6 -75.5 -11.5t-41.5 -15.5q-23 -12 -24.5 -34.5t-5.5 -39.5q0 -12 -1 -74.5t-1 -152.5t-1 -195.5t-2 -203.5t-2 -179t-1 -120q-4 -106 -14.5 -198.5t-45.5 -168.5q-66 -145 -163 -223t-189 -78q-47 0 -81 18.5t-44 43.5v22 z" />
<glyph unicode="K" horiz-adv-x="1198" d="M43 9q0 11 4 15q35 4 57.5 7.5t42.5 7.5q47 10 56.5 40t13.5 85q2 49 3 109.5t1 125v131v127.5v236t-4 217q-2 33 -6 53.5t-12.5 31.5t-21.5 16.5t-32 9.5q-18 4 -43.5 6t-42.5 4q-4 4 -4 15t4 16q37 0 93.5 -3.5t130.5 -3.5q53 0 111.5 3.5t92.5 3.5q4 -4 4.5 -15.5 t-4.5 -15.5q-23 -4 -52 -8t-40 -9q-33 -10 -38 -34.5t-9 -89.5q0 -31 -1 -92.5t-1 -126v-121.5v-80q0 -133 1 -254t3 -238q2 -78 16.5 -104.5t57.5 -34.5q27 -6 48.5 -8t49.5 -7q4 -4 2 -15t-6 -15q-49 0 -115.5 3t-136.5 3q-31 0 -64.5 -1t-65.5 -2t-56.5 -2t-32.5 -1 q-4 4 -4 15zM373 627q0 4 1 9t5 9q37 12 91 56t114.5 106.5t122 133.5t112.5 136q29 35 39 58.5t10 42.5q0 23 -45 34q-18 4 -38.5 9.5t-55.5 9.5q-4 4 -3 15t5 16q47 0 94 -3.5t105 -3.5q80 0 126 1t89 6q4 -4 5 -15.5t-5 -15.5q-41 -6 -71 -13.5t-54.5 -21.5t-50 -37.5 t-58.5 -60.5q-98 -109 -202.5 -222.5t-188.5 -197.5v-6q6 -14 40 -56.5t83 -99.5t108.5 -122.5t117 -126t106.5 -108.5t80 -71q33 -25 61 -39q27 -12 62.5 -17t107.5 -8q3 -2 3 -10q0 -18 -7 -20q-29 -2 -73 -3q-22 0 -44.5 -0.5t-45.5 0.5q-46 1 -84 3t-54 8 q-16 4 -37.5 16.5t-58.5 42.5q-23 18 -58.5 56.5t-80 86.5t-92.5 102t-94 107.5t-86 102.5t-68 84q-6 8 -15.5 15.5t-17.5 11.5z" />
<glyph unicode="L" horiz-adv-x="1034" d="M33 9q0 11 4 16q35 4 60.5 7t47.5 7q33 8 49.5 24.5t20.5 67.5q2 20 3 46t2 83t1 160.5v281.5v252.5t-2 124.5q-2 39 -4 62.5t-9 39t-20.5 22.5t-38.5 14q-18 4 -51 8t-49 6q-4 2 -2 15.5t6 15.5q33 0 87.5 -3.5t140.5 -3.5q76 0 131 3.5t82 3.5q4 -2 5 -15.5t-5 -15.5 q-31 -4 -48.5 -7t-37.5 -7q-37 -10 -44.5 -31t-9.5 -60q0 -25 -1 -79t-1 -120.5t-1 -139t-1 -136.5v-142.5v-146t1 -134t3 -103.5q2 -25 12.5 -40t20.5 -19q14 -8 62.5 -12.5t106.5 -5.5h57.5h56.5q56 1 88 3q61 2 112 66q23 27 55.5 83t61.5 128q4 4 16.5 0t14.5 -11 q-6 -31 -17.5 -73.5t-24.5 -85.5t-26.5 -82t-23.5 -60q-8 -10 -22.5 -17t-41.5 -7q-39 0 -123 1t-176 3t-173 3t-114 1q-31 0 -67.5 -1t-70.5 -2t-60.5 -2t-38.5 -1q-4 4 -4 15z" />
<glyph unicode="M" horiz-adv-x="1665" d="M14 9q0 11 4 16l80 12q49 8 67.5 42t31.5 126q4 31 10 98.5t13 154.5t13.5 183t12.5 186.5t11 166t7 118.5q0 23 -8 50.5t-49 41.5q-23 8 -51.5 14.5t-77.5 12.5q-4 4 -3 16.5t5 14.5q23 0 94.5 -3.5t218.5 -3.5q4 -33 14.5 -56t26.5 -58q39 -88 83 -186.5t89 -194.5 t86 -185.5t75 -160t56.5 -116.5t28.5 -56q4 -4 8 2q6 12 35 69.5t69 139.5t87 180t92 193.5t84 178t63 134.5q14 31 23.5 56.5t13.5 59.5q70 0 116 1t77.5 2.5t55 2.5t48.5 1q4 -4 4 -15.5t-4 -15.5q-47 -6 -71.5 -10t-47.5 -11q-45 -10 -54 -34.5t-9 -45.5q-1 -21 -1 -60 v-44q1 -72 3 -168t4 -202.5t5 -205t6 -177t5 -117.5q4 -53 17.5 -80t58.5 -37q37 -8 102 -14q5 -5 5 -16q0 -9 -5 -15q-12 0 -37.5 1t-57 2t-66.5 2t-68 1q-84 0 -143.5 -2t-93.5 -4q-4 2 -4.5 14t4.5 17q37 6 57 10t37 8q35 10 47 31.5t12 66.5v98.5t-1 154.5t-3 184.5 t-3 188.5t-3 168t-2 120q-4 4 -8 0q-12 -27 -49 -104t-86.5 -179t-104.5 -220t-105.5 -228.5t-90 -200.5t-56.5 -139q-4 -2 -14 -2t-15 2q-10 33 -35.5 98t-59.5 149t-74.5 179.5t-81.5 189.5q-98 221 -213 479q-6 6 -7 -2q-4 -47 -8 -120.5t-9 -160.5t-9 -180.5t-7 -175.5 t-5.5 -146.5t-2.5 -96.5q0 -66 10.5 -105t55.5 -49q23 -6 43.5 -9t60.5 -9q4 -4 3.5 -16.5t-5.5 -14.5q-25 0 -77 3t-123 3q-80 0 -143.5 -3t-82.5 -3q-4 4 -4 15z" />
<glyph unicode="N" horiz-adv-x="1427" d="M15 1246q1 11 5 16q10 0 32 -1t48.5 -2.5t54 -2.5t52.5 -1h51.5t34.5 2q4 -10 21.5 -34.5t58.5 -75.5q59 -74 136 -167t160 -193.5t163.5 -199t149.5 -181t119 -142t68 -80.5l7 4v154v173v178t-1 168t-3.5 140.5t-4.5 98.5q-4 41 -15 68.5t-54 41.5q-27 8 -58.5 12.5 t-66.5 8.5q-4 4 -3 15t5 16q39 0 100.5 -3.5t132.5 -3.5q20 0 49 1t56.5 2.5t50 2.5t31.5 1q4 -4 4 -15.5t-4 -15.5q-29 -4 -44.5 -7t-35.5 -10q-39 -10 -51.5 -39.5t-14.5 -64.5q-4 -57 -6 -158.5t-3 -220.5t-1 -244t-2 -227q0 -70 1 -146.5t3 -123.5q-14 2 -50 2t-52 -2 q-27 39 -92.5 124t-151.5 193.5t-182.5 226t-181.5 223t-149.5 183.5t-86.5 107q-2 2 -5 1t-3 -4q0 -51 -1 -125.5t-1 -161.5v-176t1 -168t1 -141.5t2 -91.5q4 -78 24.5 -102.5t53.5 -34.5q23 -8 51 -11t57 -7q4 -2 3 -15.5t-5 -15.5q-29 0 -91.5 3t-139.5 3q-70 0 -119 -3 t-80 -3q-4 4 -4 16.5t4 14.5q29 4 46 6t38 8q35 8 57.5 34.5t26.5 106.5q2 35 4 120t4 205t4 267.5t4 308.5q0 14 -8 39t-29 47q-33 37 -72 46.5t-102 17.5q-1 3 -1 8v7z" />
<glyph unicode="O" horiz-adv-x="1466" d="M102 641q0 111 30 205t83 174q43 61 104.5 112.5t133 86t150.5 54t153 19.5q152 0 265.5 -53t190 -142t114.5 -205t38 -241q0 -129 -30.5 -228t-90.5 -187q-43 -68 -102.5 -118t-128 -85t-143 -52.5t-150.5 -17.5q-133 0 -249 53.5t-194 139.5q-90 100 -132 226t-42 259z M250 682q0 -78 15.5 -160t48 -158.5t84 -143t122.5 -114.5q55 -37 124 -57t155 -20q72 0 134 20.5t107 56.5q104 86 146.5 209t42.5 271q0 80 -14.5 159.5t-45 152.5t-78 135.5t-112.5 107.5q-59 43 -131 67.5t-162 24.5q-59 0 -110.5 -13.5t-94.5 -35.5q-61 -35 -104 -87.5 t-72 -118t-42 -141t-13 -155.5z" />
<glyph unicode="P" horiz-adv-x="1003" d="M42 13q0 8 3 12q29 4 53.5 7t42.5 7q16 4 28.5 8t22 15.5t14.5 35t7 66.5q2 23 3 57.5t2 90t2 135t1 194.5v116.5v138.5v125t-2 79q-4 53 -14 78.5t-49 35.5q-20 4 -45 8.5t-58 8.5q-2 4 0 16.5t6 14.5q27 0 88.5 -3.5t133.5 -3.5q74 0 134 2.5t144 2.5q27 0 60.5 -3.5 t69.5 -12.5t70 -23.5t62 -36.5q47 -39 83 -100.5t38 -159.5q0 -72 -17.5 -129.5t-47 -101.5t-68.5 -74.5t-80 -51.5q-47 -23 -93 -33t-101 -10q-23 0 -49 2.5t-42 8.5q-6 6 -12 16t-6 14q0 2 2 6t4 4q16 -4 36.5 -6t55.5 -2q51 0 85 8.5t67 26.5q78 45 102.5 117t24.5 158 q0 70 -17.5 132t-59.5 108t-109.5 73t-167.5 27q-16 0 -44 -2.5t-38 -6.5q-12 -4 -15 -26q-2 -37 -4 -154t-2 -328q0 -49 -1 -115.5t-1 -138v-142.5t2 -132q0 -43 5 -66.5t14.5 -37t25 -19.5t39.5 -10q23 -4 47.5 -7t46.5 -7q6 -4 6 -16.5t-4 -14.5q-18 0 -49 1t-64.5 2 t-68.5 2t-61 1q-35 0 -71 -1t-67.5 -2t-58.5 -2t-39 -1q-5 5 -5 19z" />
<glyph unicode="Q" horiz-adv-x="1466" d="M102 635q0 111 29 207t82 174q86 127 233.5 201.5t315.5 74.5q137 0 248.5 -49t189.5 -135t121 -205t43 -256q0 -160 -49 -280.5t-133 -208.5q-59 -61 -133 -106.5t-146 -67.5q18 -4 45 -14.5t53.5 -21.5t49 -21.5t34.5 -16.5q94 -45 168 -75t132.5 -48t106.5 -26.5 t93 -8.5q78 0 149.5 14.5t118.5 47.5q4 -2 9 -14q4 -8 4 -13q0 -3 -2 -6q-92 -76 -195.5 -107.5t-189.5 -31.5q-66 0 -127.5 16t-137.5 53q-51 25 -91 45.5t-74.5 40t-66.5 39t-64 37.5q-61 35 -118 60.5t-130 35.5q-195 25 -326 123q-68 51 -114 116.5t-74.5 138.5 t-41 146.5t-12.5 141.5zM250 678q0 -123 34.5 -242t105.5 -212t177.5 -150.5t249.5 -57.5q61 0 134 31t134.5 99.5t102.5 177t41 264.5q0 127 -34 244.5t-101.5 206.5t-170 142.5t-239.5 53.5q-113 0 -194.5 -46t-135 -123t-79 -177.5t-25.5 -210.5z" />
<glyph unicode="R" horiz-adv-x="1159" d="M47 9.5q0 13.5 6 15.5q31 4 57.5 8t43.5 8q37 10 49 34.5t14 82.5q0 20 1 78.5t2 129t1 139v109.5v120v154t-1 145.5t-3 94.5q-2 39 -14.5 60.5t-50.5 30.5q-20 4 -46 7t-53 5q-4 4 -3 16.5t5 14.5q18 0 44 -1t53.5 -2.5t54 -2.5t47.5 -1q102 0 175 2.5t126 2.5 q86 0 150.5 -25t107.5 -68t64.5 -99t21.5 -118q0 -68 -21.5 -120t-55.5 -92t-75.5 -68.5t-84.5 -46.5q-6 -6 -3 -11q31 -49 75 -114.5t92 -133t95.5 -128t82.5 -95.5q37 -37 64.5 -58.5t52 -33.5t51 -17t61.5 -7q1 -3 1 -9v-8q-1 -12 -5 -14q-18 -1 -41 -1h-24 q-38 1 -77.5 5t-75.5 11t-59 18q-23 10 -44 26.5t-50 48.5q-29 31 -68.5 88.5t-80.5 121t-81 125t-71 102.5q-23 33 -47 32h-33.5h-44t-44 -1t-34.5 -1q-4 0 -6 -5t-2 -9v-97.5v-113.5t1 -107.5t3 -78.5q2 -66 14.5 -85.5t41.5 -27.5q23 -6 50 -11t56 -9q4 -4 3 -15.5 t-5 -15.5q-10 0 -34.5 1t-56.5 2t-68 2t-68 1q-96 0 -151.5 -3t-78.5 -3q-6 2 -6 15.5zM346 643q0 -10 8 -10q25 -4 61 -6t70.5 -2t67.5 3t51 9q27 8 55.5 27.5t53 51.5t40 80t15.5 113q0 147 -83 226t-255 79q-16 0 -35.5 -2t-32.5 -6q-4 -2 -7 -10t-3 -14q-2 -27 -3 -95.5 t-2 -149.5t-1 -162v-132z" />
<glyph unicode="S" horiz-adv-x="907" d="M74 301q4 6 16 9t16 -1q25 -94 58 -154.5t80 -91.5q39 -29 88 -40t117 -11q47 0 90 14.5t74.5 45t51 76t19.5 106.5q0 55 -18.5 98t-53 81t-87 75t-119.5 78q-57 35 -108.5 73.5t-89.5 83.5t-60.5 97.5t-22.5 117.5q0 76 29.5 138.5t80 105.5t120 66.5t149.5 23.5 q90 0 153.5 -12t124.5 -18q-10 -49 -19 -118t-15 -140q-4 -4 -17.5 -5.5t-17.5 2.5q-4 53 -9.5 89t-15.5 61t-23.5 40t-31.5 26q-59 34 -153 34h-5q-57 0 -100 -18.5t-73 -50t-45 -73.5t-15 -87v-8q0 -84 39 -140q41 -58 100 -102q59 -41 123.5 -78t109.5 -65 q33 -23 68 -50.5t64.5 -63.5t48 -82t18.5 -105q0 -74 -28.5 -140.5t-84 -117t-134.5 -79t-177 -28.5q-84 0 -160.5 19.5t-109.5 42.5q-8 10 -15.5 47t-13.5 80t-10 85t-6 64z" />
<glyph unicode="T" horiz-adv-x="1224" d="M35 975q6 31 11 71.5t10 84t9.5 83t6.5 70.5q2 2 4 2h6q23 -12 69 -21.5t85 -9.5h759q53 0 90 4.5t84 20.5q8 0 9 -4q-6 -23 -12.5 -57.5t-11.5 -75.5t-10 -84t-7 -82q-2 -6 -17.5 -5t-17.5 5q-4 37 -10.5 84t-18.5 78q-20 55 -78 57q-31 2 -77 3t-94 1t-89 -1t-59 -1 q-10 -4 -10 -18q0 -111 1 -264.5t2 -303t2 -266.5t3 -153q2 -49 8 -77t15.5 -43.5t22.5 -21.5t30 -10q23 -6 45 -9t55 -7q4 -4 2 -16.5t-6 -14.5q-23 0 -54.5 1t-65.5 2t-66.5 2t-59.5 1q-86 0 -159.5 -3t-118.5 -3q-4 6 -4.5 16t4.5 15q98 8 135 18q47 8 58 43t15 104 q0 14 1 70.5t1 139.5t1.5 185.5t1.5 208v207v185.5q0 6 -4.5 10t-8.5 4q-14 0 -58 1t-93 1t-93.5 -1t-60.5 -3q-45 0 -74 -49q-20 -29 -39.5 -80t-35.5 -100q-4 -4 -17.5 -1t-15.5 7z" />
<glyph unicode="U" horiz-adv-x="1357" d="M43 1246q0 11 4 16q10 0 32.5 -1t53.5 -2.5t65.5 -2.5t69.5 -1q66 0 116 3.5t83 3.5q4 -4 4 -15.5t-4 -15.5q-31 -6 -49.5 -9t-36.5 -10q-27 -10 -36 -29.5t-13 -84.5q-2 -63 -3 -157.5t-1 -191t1 -179.5t3 -124q4 -57 10 -99t16.5 -74.5t23.5 -57.5t32 -45 q53 -66 142 -97.5t181 -31.5q74 0 139.5 17.5t114.5 61.5t80 123t35 201q2 57 4 130t3 154q0 40 0.5 82t-0.5 84q-1 85 -3 169q0 49 -7 77.5t-19.5 44t-28 21.5t-33.5 11q-23 4 -39 6t-47 6q-4 4 -3 15t5 16q23 0 74 -2.5t141 -2.5q59 0 107.5 2.5t70.5 2.5q4 -4 4 -15.5 t-4 -15.5q-23 -4 -41 -7t-35 -8q-39 -10 -52 -42.5t-15 -122.5q-4 -203 -6 -326t-5 -198.5t-8.5 -122t-15.5 -95.5q-20 -102 -67.5 -167.5t-112 -105.5t-139 -55.5t-150.5 -15.5q-432 0 -475 373q-4 31 -6 92t-3 137t-1 160v158.5v133t-2 85.5q-2 41 -7.5 69.5t-39.5 40.5 q-16 6 -49.5 10.5t-53.5 8.5q-4 4 -4 15z" />
<glyph unicode="V" horiz-adv-x="1200" d="M-49 1248q2 12 6 14q29 0 92.5 -3.5t126.5 -3.5q90 0 136 2.5t79 4.5q4 -4 4 -15.5t-4 -15.5l-90 -19q-35 -7 -35 -34q0 -9 4 -21q16 -49 48 -133t70 -183.5t77 -205t73.5 -195.5t60.5 -156.5t36 -86.5q4 2 4 0t4 0q6 14 30.5 73.5t59.5 145.5t75 186t78 196.5 t68.5 176.5t46.5 125q12 38 12 63q-1 7 -1 13q-4 28 -51 38q-25 4 -44.5 8.5t-52.5 8.5q-2 4 -1 15t5 16q37 0 88.5 -3.5t116.5 -3.5q66 0 115 3.5t78 3.5q2 -4 2 -15.5t-2 -15.5q-18 -2 -41 -6t-41 -8q-23 -6 -38.5 -16.5t-30.5 -32t-31.5 -56.5t-39.5 -90 q-23 -53 -62.5 -150.5t-87.5 -212t-96 -232.5t-85 -212q-27 -68 -45.5 -124t-32.5 -105q-16 4 -41 4t-37 -4q-16 59 -38.5 129.5t-53.5 150.5l-84 224t-89 236t-82 214t-63 158q-29 68 -50 91t-58 30l-86 12q-3 3 -3 9q0 4 1 8z" />
<glyph unicode="W" horiz-adv-x="1744" d="M-49 1264q61 0 117.5 -4.5t121.5 -4.5q76 2 120 3.5t77 3.5q4 -4 4 -15.5t-4 -15.5q-37 -8 -50 -10t-30 -9q-23 -8 -29 -30q-2 -7 -2 -16q0 -20 9 -52q16 -72 46.5 -185.5t65.5 -239.5t71 -251t64 -219q0 -2 7 4q16 47 44.5 128t62.5 179.5t70 203t67.5 199.5t55 170 t31.5 111q10 -2 38 -2t36 2q8 -39 31.5 -114.5t54.5 -170.5t68 -201.5t71.5 -205t64.5 -179.5t46 -126q2 0 3 1t3 1q12 37 32.5 102.5t45.5 145.5t50.5 168t49 170t42 152.5t26.5 115.5q8 41 8 72q0 9 -1 18q-3 37 -42 47q-23 6 -45 11.5t-63 9.5q-4 4 -4.5 15t4.5 16 q31 0 93 -3.5t120 -3.5q90 0 134 2.5t72 4.5q4 -4 4 -15.5t-4 -15.5q-74 -12 -102 -25q-33 -16 -52.5 -44.5t-41.5 -90.5q-20 -57 -49 -145t-61 -192.5t-66.5 -216t-64.5 -213t-53.5 -185.5t-35.5 -131h-14.5h-22.5h-22.5t-14.5 -2q-12 45 -33.5 116.5t-50 158.5 t-61.5 185.5t-66.5 195.5t-65.5 189.5t-59 165.5l-8 -4q-16 -51 -44.5 -135t-62.5 -182t-70 -203.5t-67.5 -200t-56 -169t-35.5 -113.5q-4 0 -14 1t-23.5 1t-24.5 -1t-15 -3q-14 57 -37 145t-50.5 191.5t-57.5 213t-57.5 209t-52 182.5t-40.5 130q-14 45 -26.5 73.5t-26 45 t-30 23.5t-36.5 13q-23 6 -43 9.5t-47 7.5q-3 3 -3 12q0 16 7 21z" />
<glyph unicode="X" horiz-adv-x="1202" d="M-27 8q0 12 4 17q29 4 60 8t57 10q47 12 81 45t71 84q33 47 72.5 104.5t80.5 118t79 117.5t69 104q4 6 0 17q-27 47 -58.5 104.5t-65.5 116.5t-66.5 115.5t-59.5 101.5q-14 25 -25.5 45.5t-27 37.5t-35 30.5t-47.5 23.5q-25 8 -62 13.5t-71 9.5q-4 4 -4 15t4 16 q33 0 59.5 -1t55 -2.5t62.5 -2.5t81 -1q78 0 118.5 2.5t57.5 4.5q4 -4 5 -15.5t-3 -15.5q-23 -4 -38 -7t-28 -7q-20 -8 -10 -33q8 -20 39 -75.5t70 -123t77.5 -133.5t61.5 -109q0 -2 3 -2t5 2q37 59 78 125t74.5 124.5t59.5 102.5t32 60q8 20 7 34.5t-30 22.5 q-33 10 -55.5 12.5t-44.5 6.5q-2 4 -1 15t5 16q31 0 78 -3.5t113 -3.5q80 0 140 3.5t83 3.5q2 -6 3 -16.5t-3 -14.5q-25 -4 -55.5 -9t-53.5 -12q-23 -6 -40 -13t-36.5 -25.5t-46 -51.5t-63.5 -90q-51 -78 -106.5 -166t-106.5 -172q-4 -4 0 -16q25 -43 58.5 -102.5t69.5 -122 t69.5 -121t58.5 -101.5q35 -59 59.5 -93t46 -53.5t43 -27.5t45.5 -14q29 -6 54.5 -7t56.5 -5q4 -4 4 -17.5t-6 -17.5q-29 0 -110 5q-45 3 -98 3q-42 0 -89 -2q-20 0 -49 -2t-55.5 -3t-47 -2t-26.5 -1q-4 4 -5 16t3 17q16 4 38.5 7t45.5 9q31 8 16 41q-10 23 -42 81 t-71.5 130t-83 144.5t-73.5 125.5q-4 8 -8 0q-49 -72 -95.5 -142.5t-84.5 -132t-66.5 -109.5t-42.5 -75q-8 -14 -7 -33.5t31 -27.5q20 -4 44 -8t47 -8q2 -4 1 -16.5t-6 -16.5q-37 0 -96 3t-110 3q-78 0 -130.5 -3l-87.5 -5q-4 4 -4 16z" />
<glyph unicode="Y" horiz-adv-x="1095" d="M-25 1262q45 0 105.5 -3.5t138.5 -3.5q20 0 48 1t52.5 2.5t45 2.5t30.5 1q6 -4 6 -15.5t-4 -15.5q-16 -2 -34.5 -5t-30.5 -7q-23 -6 -29 -21.5t12 -52.5q20 -45 60.5 -123t83.5 -159t79.5 -150.5t53.5 -98.5h8q27 47 66 115t77.5 140.5t73.5 139t53 111.5q11 27 11 46 q0 10 -3 18q-8 22 -55 33q-20 4 -37.5 7t-48.5 7q-4 4 -3 16.5t7 14.5q47 -2 101.5 -4.5t101.5 -2.5q59 0 102.5 1t104.5 6q3 -3 3 -11v-5q-1 -11 -3 -15l-88 -17q-53 -10 -77.5 -43.5t-49.5 -74.5q-33 -55 -79 -134t-91 -159t-81 -146.5t-48 -95.5q-4 -10 -8 -30.5 t-4 -30.5l4 -320q2 -66 14 -100.5t59 -44.5q25 -4 40.5 -7t56.5 -8q2 -4 1 -14t-5 -12q-29 0 -100.5 3t-143.5 3q-78 0 -137.5 -3t-106.5 -3q-4 4 -4 13t4 13q35 4 64.5 8.5t52.5 8.5q45 10 56.5 41t13.5 80l4 288q0 23 -3 53.5t-10 45.5q-16 39 -45.5 99.5t-65.5 128 t-72 136t-66 123.5q-33 59 -55.5 93t-39 52.5t-33 25.5t-36.5 14q-20 6 -42 8t-57 6q-3 3 -3 11q0 14 5 20z" />
<glyph unicode="Z" horiz-adv-x="1126" d="M47 967q12 55 27.5 136t25.5 169q0 4 4 6q2 1 4.5 1t4.5 -1q25 -16 71.5 -19.5t108.5 -3.5h405q86 0 168 1t140 8q4 0 6 -4.5t2 -8.5q-25 -43 -79 -132t-125 -201.5t-151.5 -238.5t-155.5 -243t-138.5 -214t-100.5 -152q-6 -10 2 -11q27 -4 96.5 -6t154.5 -4t171 -2 t146 2q18 0 44.5 7t55.5 34q35 29 69.5 91.5t71.5 148.5q4 0 15.5 -3.5t15.5 -7.5q-4 -20 -14.5 -66t-23.5 -96.5t-27.5 -93.5t-26.5 -57q-4 -4 -17.5 -9t-60.5 -5q-264 0 -440.5 3t-233.5 3q-47 0 -101.5 -1t-90.5 -5q-4 2 -4 9t2 11q53 74 125.5 177.5t150.5 220 t157 236.5t146.5 226.5t117.5 189.5t73 128q8 12 0 12h-113h-161t-163.5 -1t-121.5 -3q-35 -2 -59.5 -13t-47.5 -42q-20 -29 -44 -79t-46 -110q-4 -4 -19.5 2.5t-15.5 10.5z" />
<glyph unicode="[" horiz-adv-x="663" d="M201 -358l4 1859q0 4 3 8t7 4h352q2 0 2 -9t-1 -20t-3 -19.5t-4 -8.5h-60.5t-77.5 -1t-75 -1h-51q-4 0 -8 -5t-4 -9q-2 -12 -4 -57.5t-3.5 -142.5t-2.5 -257t-1 -399q0 -242 1 -392.5t2.5 -241.5t2.5 -138.5t1 -81.5q0 -10 5 -21.5t15 -15.5q16 -4 48 -7t71 -4t80 -1h78 q2 -2 3 -10.5t0 -18.5t-4.5 -19.5t-7.5 -9.5q-47 -4 -127 -4t-163 4q-39 2 -56.5 8.5t-21.5 10.5z" />
<glyph unicode="\" horiz-adv-x="833" d="M72 1376q4 6 22.5 20.5t26.5 18.5q2 0 2 -1t2 -1q29 -80 77 -210t106.5 -285.5t123 -323.5t124.5 -322.5t113.5 -284.5t90.5 -208q-4 -8 -10 -8q-16 2 -34 6t-22 12q-18 37 -63 146.5t-103.5 260t-126 325.5t-130 339t-116 301t-83.5 215z" />
<glyph unicode="]" horiz-adv-x="669" d="M84 1448q-4 10 0 33.5t14 23.5q29 2 78 3t100.5 1h95.5h60h18.5t18.5 -6l-2 -1874q0 -4 -3 -8t-7 -4h-357q-2 0 -2 9t2 20.5t6.5 20.5t10.5 9h59.5t75.5 1t72.5 2.5t50.5 3.5q4 0 8 6t4 10q2 14 4 64.5t3 121t1 157.5t1 176t1 174v155v295t-1 254.5t-3 193.5t-4 113 q-2 10 -6 24.5t-14 16.5q-16 2 -49 3t-73 1h-83h-80z" />
<glyph unicode="^" horiz-adv-x="778" d="M70 639q8 12 31.5 53t52 96.5t61.5 120t62.5 123t51 104.5t29.5 66q0 2 7.5 5t16.5 6.5t17.5 5.5t10.5 2q12 -29 36.5 -78t53 -106.5t61.5 -118t61.5 -113.5t52 -93t34.5 -57v-2q0 -2 -1 -3t-1 -3q-4 -4 -16.5 -10t-25 -10t-22.5 -7.5t-12 -1.5q-10 8 -29.5 42t-45.5 80 t-53.5 98.5t-52 99.5t-43 82t-24.5 47q-4 2 -6 2q-6 0 -6 -2q-16 -31 -48 -95.5t-66 -132t-63.5 -122t-39.5 -66.5q-10 -14 -32 -18t-36 -4q-16 0 -16 10z" />
<glyph unicode="_" horiz-adv-x="1157" d="M-4 -373h1165v-104h-1165v104z" />
<glyph unicode="`" horiz-adv-x="819" d="M227 1190v4q0 4 2 6q4 2 17.5 4t31 4t34 2t24.5 -2q6 -16 20.5 -52t32 -81t34.5 -92t32 -86q-2 -4 -12.5 -8t-14.5 -2q-16 23 -45 65.5t-59.5 90t-57 88t-39.5 59.5z" />
<glyph unicode="a" horiz-adv-x="753" d="M74 188q0 6 2 18.5t5 28t6 28.5t7 22q20 12 74.5 31.5t115 39t115 39t78.5 31.5q4 2 7 8t3 8q2 20 1 46t-1 49q0 29 -10 62.5t-26 55.5q-57 80 -166 80q-23 0 -37.5 -4t-26.5 -12q-16 -10 -40.5 -49t-47.5 -109q-4 -4 -21.5 9.5t-17.5 29.5q0 20 14.5 53t22.5 41 q31 25 65.5 45.5t69.5 36t64.5 24.5t50.5 9q111 0 174 -98q25 -39 33 -94.5t8 -104.5q0 -43 -1 -92t-2 -96.5t-2 -90.5t-1 -69q0 -29 14 -60.5t62 -31.5q29 0 43 3t30 9q0 -6 -2 -20.5t-6 -18.5q-35 -41 -76 -55.5t-69 -14.5q-59 0 -88 45q-6 10 -10.5 29t-6.5 29q0 4 -3 6 t-5 0q-33 -20 -66.5 -39.5t-65.5 -35t-58.5 -25t-42.5 -9.5q-55 0 -101 45q-29 31 -47 74t-18 94zM190 219q0 -61 39 -104t107 -43q23 0 57.5 9t67.5 30q8 4 14 15t6 26q0 25 1 59.5t2 68t1 62.5v41q0 4 -6 4q-39 -12 -83 -27.5t-83 -31t-68.5 -28.5t-39.5 -24 q-4 -4 -9.5 -25.5t-5.5 -31.5z" />
<glyph unicode="b" horiz-adv-x="915" d="M-8 1346q2 10 6 12q74 4 145.5 23.5t118.5 35.5q2 0 4 -4t2 -8q-6 -8 -9 -25.5t-6 -59.5t-4 -116t-1 -192v-203t4 -109q0 -10 10 -4q82 53 160 83t117 30q78 0 131 -29.5t92 -77.5q49 -59 64.5 -128.5t15.5 -114.5q0 -135 -53.5 -231.5t-135.5 -151.5q-27 -20 -61.5 -39 t-71.5 -32t-72.5 -21.5t-66.5 -8.5q-37 0 -82 9.5t-84 21.5q-20 6 -37.5 7t-38.5 -7q-4 -2 -7 2t-3 8q2 20 3 56.5t2 92.5t2 137t1 190v202.5t-2 229t-4 203t-4 122.5q-4 35 -7 45.5t-18 18.5q-16 10 -45.5 13t-62.5 5q-3 3 -3 8q0 3 1 7zM248 478.5q0 -56.5 1 -115t3 -97.5 q0 -53 4 -82.5t9 -45t12.5 -22.5t13.5 -14q66 -53 166 -53q57 0 100 15.5t82 56.5t60.5 109.5t21.5 150.5q0 78 -18.5 136t-49.5 99q-43 55 -92 79t-115 24q-53 0 -103 -20.5t-75 -36.5q-6 -4 -10 -9.5t-6 -15.5q-2 -12 -3 -57t-1 -101.5z" />
<glyph unicode="c" horiz-adv-x="759" d="M74 373q0 111 48 203t150 153q27 14 58.5 29.5t64.5 26t65 17.5t58 7q53 0 86 -7t62 -20q12 -6 32.5 -19t24.5 -30q0 -10 -4 -22q-10 -16 -26.5 -35t-26.5 -23t-19 0q-29 29 -81 59.5t-132 30.5q-61 0 -106 -26.5t-75 -67.5t-45 -94t-15 -104q0 -86 19 -155t58 -112 q49 -59 105.5 -83.5t128.5 -24.5q51 0 113.5 23.5t111.5 76.5q6 0 6 -6t-1 -18.5t-5 -18.5q-82 -94 -166 -126t-143 -32q-94 0 -157.5 35t-110.5 101q-39 53 -58.5 121.5t-19.5 140.5z" />
<glyph unicode="d" horiz-adv-x="931" d="M74 358q0 92 36.5 177.5t102.5 142.5t162 94t188 37q33 0 62.5 -5t44.5 -9q6 0 6 6v205.5v130t-1 76t-3 47.5q-4 35 -13.5 48t-31.5 19q-23 6 -48.5 10t-48.5 6q-2 4 0 15.5t5 13.5q100 0 166.5 14.5t107.5 30.5q4 -2 5 -7t1 -9q-12 -23 -14 -54.5t-6 -107.5 q-2 -41 -3 -111.5t-2.5 -155.5t-2.5 -179.5t-1 -184.5v-209t1 -132t3 -76.5t1 -45.5q2 -53 12 -63t26 -12q16 -1 30 -1q30 0 56 5q1 -3 1 -8v-6q-1 -10 -5 -15q-10 -6 -40.5 -19.5t-66.5 -27.5t-70 -24.5t-48 -12.5q-10 0 -14 27q-2 12 -2 45v59q0 8 -8 4q-31 -23 -68 -44 t-75 -37.5t-75.5 -28t-68.5 -11.5q-53 0 -111.5 26t-99.5 77q-90 109 -90 280zM190 416q0 -86 23 -150.5t61.5 -108.5t90 -65.5t106.5 -21.5q51 0 96 12t84 47q16 14 21 41q2 18 3 76.5t2 127t1 132t-2 92.5q-2 33 -7 51.5t-38 42.5q-65 49 -180 49q-45 0 -91.5 -15 t-80.5 -50q-51 -51 -70 -116.5t-19 -143.5z" />
<glyph unicode="e" horiz-adv-x="774" d="M74 383q0 127 45 217t127 143q18 12 45.5 24.5t56.5 22t55.5 14.5t45.5 5q70 0 116.5 -30.5t77.5 -73.5t45 -91.5t21 -83.5q2 -4 6 -8t20 -6q1 -2 1 -4q0 -4 -2 -10q-3 -10 -7 -13q-33 -10 -97.5 -18t-140 -14t-154.5 -9.5t-140 -5.5q-6 0 -9.5 -7t-3.5 -15 q0 -66 20.5 -130.5t55.5 -105.5q47 -59 106.5 -83.5t124.5 -24.5q59 0 113 17.5t113 70.5q6 0 6 -4q2 -8 0 -19.5t-4 -15.5q-76 -78 -158 -114t-149 -36q-76 0 -134.5 26t-99.5 73q-57 66 -79.5 148.5t-22.5 160.5zM188 504q0 -12 7 -12q15 -1 45 -1h34q56 1 117.5 3 t113.5 5t70 7q4 2 8.5 6t4.5 10q-4 37 -18.5 78t-40 76t-61.5 57.5t-85 22.5q-74 0 -129 -63.5t-66 -188.5z" />
<glyph unicode="f" horiz-adv-x="448" d="M27 8.5q0 12.5 4 16.5q49 6 73 12q27 8 36.5 25.5t9.5 52.5t1 94t2 135t2 164t1 182q0 4 -2 10.5t-7 6.5l-104 4q0 8 5 20t9 19q25 4 53.5 13t39.5 15q6 6 6 13q0 98 10 179t34.5 147.5t66.5 121.5t108 102q47 35 98 55.5t82 20.5q55 0 96 -23.5t51 -50.5v-12 q-2 -6 -9 -20.5t-16 -27.5t-18.5 -25.5t-15.5 -16.5q-6 -6 -12 -2q-12 10 -29.5 24.5t-41 28t-50.5 22.5t-57 9q-55 0 -97 -39q-31 -29 -48 -81t-25.5 -115.5t-11.5 -131t-3 -127.5v-36q0 -2 2 -7.5t6 -5.5q80 0 133.5 2t67.5 4q-4 -16 -9 -41.5t-7 -39.5q-14 0 -41 1 t-55.5 1h-54h-36.5q-2 0 -5 -7.5t-3 -11.5v-153.5v-163.5t1 -148.5t3 -109.5q4 -61 60 -74q20 -4 36.5 -7t55.5 -7q2 -4 1 -15.5t-5 -15.5q-35 0 -90.5 3t-116.5 3q-35 0 -90 -3t-90 -3q-4 2 -4 14.5z" />
<glyph unicode="g" horiz-adv-x="808" d="M41 -326q0 10 4 36t10 34q8 12 29.5 32.5t50.5 45t62.5 51.5t66.5 51v2l-2 4q-63 16 -99 57.5t-36 71.5q0 6 4 23q12 6 29.5 16.5t36 22.5t36 23.5t27.5 19.5q8 8 -2 12q-35 12 -66.5 37t-57 60.5t-41 86t-15.5 115.5q0 66 25.5 129.5t82.5 110.5q23 18 54.5 35.5 t64.5 31t63.5 20.5t55.5 7q37 0 75 -9t72 -24q25 -10 59 -15t62 -5q59 0 81 9t40 28q2 2 8 -1.5t6 -7.5q0 -6 -4 -19t-12 -28.5t-17.5 -30t-17.5 -20.5q-10 -6 -22.5 -10t-40.5 -4h-17.5t-33.5 2q-10 0 -5 -10q8 -16 18.5 -54.5t10.5 -89.5q0 -104 -35 -163.5t-82 -96.5 q-68 -53 -125 -69.5t-92 -20.5l-20 -4q-18 -4 -44 -19.5t-26 -44.5q0 -33 27.5 -47t48.5 -18q27 -4 73 -8t95 -8.5t94 -10.5t70 -14q55 -18 99 -63.5t44 -133.5q0 -104 -64.5 -191t-166.5 -143q-61 -35 -115.5 -46t-106.5 -11q-133 0 -221 70q-49 39 -73.5 90t-24.5 106z M156 -287q0 -43 18.5 -83t58.5 -74q47 -37 97.5 -50.5t109.5 -13.5q76 0 128.5 19.5t85 51t46 72.5t13.5 86q0 72 -36 110t-77 54q-25 8 -58.5 15.5t-67.5 10.5t-63.5 5t-45.5 2q-43 0 -76 -20q-66 -45 -99.5 -89.5t-33.5 -95.5zM188 518q0 -49 14.5 -99t42 -91t70.5 -68 t101 -27q27 0 54.5 8.5t49.5 30.5q59 59 60 195q0 45 -11.5 95t-38 92t-71.5 70t-111 28q-41 0 -70.5 -18.5t-50 -51.5t-30 -75t-9.5 -89z" />
<glyph unicode="h" horiz-adv-x="927" d="M12 1352q86 8 146.5 25.5t107.5 39.5q4 -2 6 -7t2 -9q-4 -8 -7 -18.5t-5 -29t-3 -48t-3 -78.5q-2 -55 -2 -137v-165t1 -151.5t1 -93.5q0 -6 8 -2q88 70 158 100.5t129 30.5q111 0 172 -84t61 -233v-95.5v-110t1 -107.5t1 -85q0 -4 2.5 -15t12.5 -22q27 -20 51.5 -23 t58.5 -9q1 -2 1 -6q0 -5 -1 -11q-2 -12 -6 -14q-16 0 -71.5 3t-114.5 3q-66 0 -112 -2t-62 -4q-4 4 -4 15t4 16q29 4 53.5 8t34.5 10q8 4 14 9t10.5 16.5t7.5 33t3 58.5q0 35 1 88t1 111.5t-3 113.5t-10 94q-4 20 -15 48t-33.5 50.5t-59.5 39t-90 16.5q-47 0 -92 -16.5 t-82 -51.5q-14 -12 -21.5 -27.5t-7.5 -25.5v-124v-143.5t1 -126.5t3 -77q4 -49 16.5 -66.5t40.5 -25.5q18 -4 33 -6t39 -6q4 -4 4 -14.5t-4 -14.5q-14 0 -64.5 2t-136.5 2q-61 0 -100 -3t-63 -3q-2 4 -2 15t4 16q23 4 39 6t30 6q27 8 35 28.5t10 65.5q0 14 1 65.5t2 108.5 t1 106.5v61.5v350.5t-2 227.5t-4 136t-4 77q-4 23 -12 36t-31 17q-16 4 -34.5 4t-45.5 4q-3 3 -3 11q0 13 3 16z" />
<glyph unicode="i" horiz-adv-x="413" d="M27 9q0 11 4 16q23 4 45 7t39 11q16 8 24 22.5t13 61.5q2 18 3 57t1 86v98.5v94.5q0 61 -1 108t-1 74q0 10 -1 17.5t-10 19.5q-16 16 -37.5 24.5t-50.5 14.5q-4 4 -3 15.5t3 15.5q47 4 105.5 17t111.5 40q0 -23 -1 -61.5t-2 -86t-1 -99.5v-99v-182.5t2 -171.5 q0 -53 43 -68q18 -6 32.5 -9t49.5 -7q0 -4 -1 -16.5t-5 -14.5q-29 0 -83 3t-97 3q-59 0 -107.5 -3t-70.5 -3q-4 4 -4 15zM131 1094q0 27 10 39q10 10 29.5 19t38.5 9q16 0 29.5 -6t17.5 -10q10 -8 13 -20.5t3 -20.5q0 -29 -11 -49.5t-28 -26.5q-5 -4 -29 -6q-8 -1 -15 -1 q-13 0 -19 3q-16 8 -27.5 26.5t-11.5 43.5z" />
<glyph unicode="j" horiz-adv-x="409" d="M-41 -555q53 41 91 89t61.5 112.5t35 148.5t11.5 197q0 297 1 454v42q0 120 -5 155q-4 20 -10.5 31.5t-26.5 21.5q-16 8 -35 12.5t-51 8.5q-4 4 -4 15t4 16q55 4 128 20t122 41q-2 -31 -3.5 -89t-2.5 -130t-2 -152t-2 -150.5t-1 -127v-80.5q0 -29 -2 -76t-6 -94 q-8 -86 -36.5 -164t-67.5 -141.5t-83 -110.5t-83 -72q-18 0 -31 13q-2 2 -2 10zM137 1104q0 10 2 21.5t6 15.5q10 10 30 19t42 9q12 0 26.5 -3t20.5 -11q10 -10 10 -33q0 -14 -5 -38.5t-19 -39.5q-2 -2 -11.5 -5t-20.5 -6t-22 -4h-6q-5 0 -8 1q-16 6 -30.5 25.5t-14.5 48.5z " />
<glyph unicode="k" horiz-adv-x="833" d="M12 1347.5q0 10.5 4 14.5q53 6 91 11t67 11.5t50.5 14.5t43.5 18q8 0 8 -10q-16 -27 -18 -188q-4 -135 -4 -343v-458q23 4 47.5 14t52.5 35q27 23 63 59.5t68.5 73.5t55 67.5t22.5 41.5q0 8 -6 15t-25 11q-10 4 -33 7.5t-50 5.5q-2 4 -2.5 16t4.5 16q88 0 175 3t158 16 q4 -4 5.5 -17.5t-3.5 -17.5q-47 -10 -85.5 -26.5t-71.5 -49.5l-226 -227q-6 -6 0 -12q27 -39 70 -94.5t91 -112t93 -103.5t76 -71q41 -33 71 -38t75 -5q3 -3 3 -11q0 -15 -5 -20q-4 -2 -26 -2h-48.5h-50h-33.5q-41 0 -66.5 11t-38.5 22q-27 23 -61.5 63.5t-73.5 89.5 t-78 100.5t-73 92.5q-8 10 -23.5 15t-50.5 5v-142.5t4 -125.5q2 -47 13.5 -62.5t41.5 -23.5q29 -6 76 -12q4 -4 3 -15.5t-5 -15.5q-27 0 -78 3t-106 3q-63 0 -112.5 -3t-65.5 -3q-4 4 -4.5 15t4.5 16q20 4 37.5 6t35.5 8q23 10 32 25.5t11 41.5q2 25 3 61t1 77v83v79 q0 358 -1 581t-5 279q-2 23 -8 36t-31 21q-16 4 -37.5 6t-46.5 4q-4 4 -4 14.5z" />
<glyph unicode="l" horiz-adv-x="399" d="M14 10q0 10 2 15q25 4 48.5 7t41.5 13q31 18 33 51q2 31 3 70t2 101.5t1 154.5v229v81t-1 113.5t-1 127t-1 121t-2 96.5t-3 53q-4 25 -8 38t-23 19q-23 8 -86 15q-4 4 -4 14t4 12q59 6 122 27t122 49q8 -4 8 -10q-10 -29 -14 -80t-4 -151v-100.5v-132.5v-143.5v-135.5 q0 -244 1 -366t5 -157q4 -47 11.5 -67.5t29.5 -30.5q33 -14 88 -18q1 -3 1 -9v-6q-1 -12 -5 -16q-20 0 -69.5 3t-106.5 3q-27 0 -56.5 -1t-56 -2t-48.5 -2t-30 -1q-4 6 -4 16z" />
<glyph unicode="m" horiz-adv-x="1441" d="M27 10.5q0 12.5 4 14.5q57 8 80 16q27 8 33 33.5t8 58.5q2 43 3 99.5t2 118t1 123v116.5q0 10 -3 33.5t-16 40.5q-16 18 -42.5 26t-47.5 12q-2 4 1 15.5t7 13.5q53 4 113.5 29.5t95.5 48.5q6 0 6 -6v-21.5t-1 -36t-1 -39v-30.5q0 -4 3 -6t6 0q84 66 155.5 102.5 t118.5 36.5q72 0 125 -40t80 -99q2 -4 7 -4t7 2q78 59 153.5 100t137.5 41q117 0 172 -82t59 -229q0 -41 1 -96.5t1 -113v-107.5v-81q0 -16 3.5 -28.5t13.5 -20.5q16 -12 39.5 -17t68.5 -9q1 -2 1 -6q0 -3 -1 -9q-2 -12 -6 -16q-33 0 -83 3t-99 3q-72 0 -112 -2t-62 -4 q-4 4 -4 15t4 16q35 6 53 9t41 13q20 8 23.5 42t3.5 106v106v103.5t-2 87t-7 61.5q-6 31 -18 61.5t-35.5 53t-58.5 37t-84 14.5q-45 0 -93 -19.5t-100 -66.5q-4 -2 -5 -8.5t-1 -10.5q4 -29 6 -60.5t2 -78.5v-94v-107.5t1 -103.5t3 -80q2 -39 31 -49q18 -6 35.5 -9t52.5 -7 q4 -4 2 -15.5t-6 -15.5q-39 0 -80 3t-100 3q-51 0 -99.5 -3t-70.5 -3q-4 4 -4 15t4 16q29 4 43 7t35 9q18 6 24.5 22.5t10.5 61.5q2 35 3 99q0 32 0.5 66t-0.5 68q-1 70 -3 128.5t-7 80.5q-4 20 -15 47t-32.5 49.5t-54.5 39t-82 16.5q-29 0 -74 -13.5t-86 -46.5 q-16 -14 -30.5 -29.5t-14.5 -37.5v-116.5v-138.5t1 -132.5t1 -98.5q0 -23 6.5 -40t30.5 -25q16 -4 37 -8t49 -8q4 -4 2 -16.5t-6 -14.5q-29 0 -75 3t-99 3q-74 0 -112.5 -3t-73.5 -3q-4 4 -4 16.5z" />
<glyph unicode="n" horiz-adv-x="937" d="M33 9.5q0 11.5 4 15.5q23 4 41 7t35 9q23 10 30 32.5t9 47.5q4 57 4 148v196q0 88 -2 131t-4 53q-4 20 -21.5 30.5t-77.5 27.5q-2 4 0 14t6 12q51 8 113.5 30.5t99.5 45.5q6 0 6 -8q-4 -33 -5 -63.5t-3 -57.5q0 -4 2 -8t6 0q100 78 171 107.5t118 29.5q59 0 103.5 -27.5 t74.5 -74.5q29 -43 39.5 -101.5t10.5 -134.5v-92t1 -102.5t1 -99.5v-81q0 -23 6 -35t24 -18q23 -8 43.5 -11t44.5 -7q3 -3 3 -9q0 -2 -1 -6q-2 -12 -6 -16q-23 0 -61.5 3t-110.5 3t-118 -2t-72 -4q-4 4 -4 15t4 16q63 6 86 14q25 8 33 23.5t10 35.5q2 35 2 97.5v127t-2 122 t-4 81.5q-4 25 -15.5 68t-42.5 72q-23 23 -53.5 38t-83.5 15q-106 0 -186 -80q-12 -12 -17.5 -29.5t-5.5 -58.5v-121.5v-116t1 -103.5t3 -81q2 -43 9.5 -59.5t23.5 -24.5q14 -6 42 -10t52 -8q2 -4 2 -16.5t-4 -16.5q-16 0 -58 3t-126 3t-120 -3t-56 -3q-4 4 -4 15.5z" />
<glyph unicode="o" horiz-adv-x="931" d="M76 399q0 117 47 197t125 133q53 35 118.5 57.5t133.5 22.5q86 0 153.5 -30.5t112.5 -85t68.5 -126t23.5 -153.5q0 -106 -46 -205.5t-140 -159.5q-39 -27 -97.5 -50.5t-119.5 -23.5q-109 0 -180.5 39t-116.5 100.5t-63.5 136.5t-18.5 148zM201 446q0 -86 22.5 -160.5 t63.5 -130t97 -87t126 -31.5q33 0 73 11t68 40q49 49 65.5 111.5t16.5 148.5t-20.5 160t-59.5 128t-96 85t-131 31q-25 0 -58.5 -8.5t-54.5 -24.5q-39 -25 -75.5 -88.5t-36.5 -184.5z" />
<glyph unicode="p" horiz-adv-x="915" d="M6 -548q0 13 4 18q16 4 41 10t41 12q27 10 36 28.5t11 59.5q2 29 3 72t2 106.5t1 149.5v198v216.5t-1 143.5t-2 90t-3 56q-2 23 -5 40.5t-17 27.5q-24 17 -94 27q-4 4 -2 14t6 14q23 4 52.5 14.5t60 23.5t59 27.5t49.5 30.5q1 1 2 1q3 0 7 -4q5 -5 3 -9q-2 -8 -3 -25.5 t-2 -38t-1 -41v-36.5q0 -2 4 -2h4q102 72 173 102.5t124 30.5q59 0 108.5 -26.5t84.5 -65.5q47 -53 68.5 -124t21.5 -130q0 -225 -178 -369q-35 -29 -76 -50t-83 -36.5t-82 -24t-73 -8.5q-16 0 -41.5 5.5t-48.5 11.5q-2 0 -4 -2q-4 -4 -4 -6q0 -88 1 -150.5t2 -109t2 -79 t1 -61.5q4 -51 17.5 -63.5t50.5 -18.5q20 -4 42.5 -5t57.5 -5q4 -4 2 -17.5t-6 -15.5h-109q-133 -2 -200.5 -12t-102.5 -12q-4 4 -4 17zM250 403.5q0 -65.5 1 -123t1 -73.5q2 -51 14.5 -74.5t36.5 -40.5q27 -18 65 -28.5t91 -10.5q47 0 90 16.5t76 45.5q100 86 100 276 q0 78 -20.5 140.5t-53.5 101.5q-74 86 -180 86q-55 0 -102 -19.5t-90 -54.5q-8 -6 -16.5 -19.5t-8.5 -27.5q-2 -16 -3 -72.5t-1 -122z" />
<glyph unicode="q" horiz-adv-x="917" d="M74 379q0 104 47 186t117 135q72 51 168 80t184 29q53 0 111.5 -10.5t105.5 -24.5q-10 -20 -14.5 -41.5t-6.5 -50.5q-4 -43 -6 -116.5t-2 -178.5v-116.5v-149.5t1 -163t2 -155.5t2 -129t3 -81.5q4 -41 14.5 -60t43.5 -26q33 -6 92 -12q1 -3 1 -9v-7q-1 -11 -5 -15h-77 t-73 -2q-111 -4 -174 -13t-98 -11q-2 4 -3 15t3 16q27 4 51.5 11t40.5 11q27 10 40 30.5t15 69.5q4 59 6.5 176t2.5 300q0 2 -3.5 4t-5.5 0q-27 -18 -61.5 -35t-70.5 -30t-69.5 -21.5t-58.5 -8.5q-68 0 -126 30t-102 83t-69.5 127t-25.5 164zM193 430q0 -86 25.5 -153.5 t70.5 -113.5t103.5 -70.5t123.5 -24.5q76 0 137 34q6 4 9.5 12.5t3.5 12.5v172t-1 157.5t-3.5 123t-4.5 69.5q0 6 -6 24.5t-10 22.5q-23 16 -68 30.5t-129 14.5q-113 0 -182 -86t-69 -225z" />
<glyph unicode="r" horiz-adv-x="579" d="M35 9q0 11 4 16q16 2 38.5 7t37.5 9q14 4 22 14.5t13 34.5q2 12 4 50t3 91.5t1 115v120.5v106t-4 66q0 6 -3.5 16.5t-14.5 20.5t-31.5 20.5t-55.5 18.5q0 4 1 13t5 11q18 2 46 9.5t57.5 16.5t57.5 21.5t44 22.5q8 0 8 -6q0 -14 -1 -37t-1 -47.5v-48v-37.5q0 -2 3 -3t5 1 q27 35 57.5 71.5t67.5 65.5q25 18 48.5 29.5t52.5 11.5q25 0 47 -10.5t33 -28.5q2 -4 2 -13t-2 -16q-4 -16 -22.5 -46.5t-33.5 -45.5l-14 -6q-23 23 -53.5 35t-55.5 12q-35 0 -63.5 -30.5t-50.5 -71.5q-8 -16 -14.5 -43t-6.5 -53v-104.5t1 -116t2 -101.5t3 -61q2 -55 39 -66 q29 -10 55.5 -13t55.5 -5q4 -4 2 -15.5t-6 -15.5q-8 0 -28.5 1t-48.5 2t-57.5 2t-54.5 1q-20 0 -47.5 -1t-55.5 -2t-51.5 -2t-35.5 -1q-4 4 -4 15z" />
<glyph unicode="s" horiz-adv-x="634" d="M63 217q2 4 15.5 8t17.5 0q20 -90 54 -131t71 -59q23 -10 44.5 -14.5t43.5 -4.5q61 0 103.5 36t42.5 95q0 61 -33 100.5t-119 86.5q-61 33 -102 63.5t-64.5 61t-33 62.5t-9.5 69q0 43 17.5 83t51.5 69.5t84 48t115 18.5q33 0 61 -3t50 -7q16 -4 39 -6t31 -2 q-12 -53 -15.5 -94.5t-7.5 -96.5q-2 -4 -15 -5t-18 3q-8 72 -23 105.5t-44 48.5q-23 10 -45.5 14t-46.5 4q-49 0 -90 -34t-41 -99q0 -27 6 -50.5t24.5 -46t51 -46t86.5 -50.5q61 -31 101 -59.5t62.5 -56t30.5 -57t8 -62.5q0 -49 -20.5 -92t-58 -74t-90 -49.5t-113.5 -18.5 q-45 0 -98.5 10.5t-92.5 26.5q-6 14 -11 43t-10 59.5t-7.5 59.5t-2.5 43z" />
<glyph unicode="t" horiz-adv-x="522" d="M31 713q0 6 7 24.5t9 22.5q18 4 50 9t42 9q6 2 6 10v158q8 6 23.5 18.5t31 28t29 30.5t17.5 24q2 1 4 1q3 0 8 -2q8 -2 10 -4q-4 -23 -8 -85t-4 -166q0 -10 8 -11q34 -1 64 -1q46 0 84 2q64 3 82 7q-4 -16 -9.5 -41.5t-7.5 -41.5q-47 0 -105.5 1t-105.5 1q-4 0 -7 -4.5 t-3 -8.5q0 -47 -1 -110.5t-1 -127t1 -120.5t1 -90q2 -51 6 -77t8 -38q16 -35 46 -52.5t69 -17.5q41 0 66.5 9.5t48.5 25.5q1 -1 1 -5t-1 -11q-2 -14 -4 -19q-35 -43 -82 -63.5t-95 -20.5q-45 0 -87 18.5t-64 67.5q-16 35 -20.5 83.5t-4.5 146.5v98t1 112.5t1 108v80.5 q0 10 -8 13q-6 2 -19.5 3t-28.5 2t-31.5 2t-26.5 1z" />
<glyph unicode="u" horiz-adv-x="913" d="M16 737q-1 2 -1 6q0 5 1 11q2 12 7 14q29 0 64.5 3t70.5 8t63.5 10.5t42.5 11.5q-2 -12 -4 -28.5t-3 -56.5t-2 -114t-1 -199q0 -53 2 -113.5t10 -90.5q12 -51 51 -92t127 -41q63 0 103.5 19t75.5 48q25 18 28 64q0 13 1 75v65v71q-1 74 -2 145.5t-3 105.5q-2 16 -8 34 t-33 26q-20 6 -55 9t-80 7q-4 4 -2 17.5t6 15.5q35 0 79 3t87 8t78 10.5t53 11.5q-4 -29 -6 -86.5t-2 -126.5l2 -412q0 -74 13.5 -90t49.5 -16q23 0 33 1t27 5q2 -4 2 -17.5t-4 -17.5q-27 -6 -59.5 -16.5t-63.5 -20.5t-58.5 -21.5t-46.5 -19.5q-1 -1 -2 -1l-6 4q-4 5 -4 14 q0 20 1 56t1 60q0 4 -4 7t-8 -1q-90 -76 -155.5 -101.5t-108.5 -25.5q-76 0 -122 25t-70.5 64.5t-33 89t-8.5 100.5v90v109.5v108.5t-2 87q-2 25 -6 43.5t-20 26.5q-12 6 -39 10t-56 8z" />
<glyph unicode="v" horiz-adv-x="772" d="M-25 786q8 0 29 -1t46.5 -2l51 -2t43.5 -1q57 0 101.5 2t70.5 4q4 -4 4.5 -15t-2.5 -15q-59 -10 -79 -19q-10 -4 -11.5 -14t0.5 -14q6 -23 22.5 -70t37 -104.5t44 -119t44 -113.5t34 -87t15.5 -39q0 -2 4 -2q2 0 4 2q16 41 41 106.5t49.5 133t45 128t30.5 91.5 q14 48 14 68q0 5 -1 9q-5 16 -21 23q-23 10 -47.5 13.5t-46.5 7.5q-2 4 0 15t6 15q18 0 67.5 -3t102.5 -3q41 0 86 2t59 4q4 -2 4 -14t-4 -16q-16 -4 -34.5 -6t-34.5 -9q-27 -10 -42.5 -27.5t-25.5 -41.5q-18 -41 -44 -101.5t-53.5 -130t-55 -143.5t-52.5 -137t-37 -102.5 t-22 -69.5h-29.5t-23.5 -4q-10 39 -21.5 72.5t-28.5 82.5q-18 53 -40.5 114.5t-45 122t-43 113t-34.5 86.5q-18 47 -29.5 77t-22 47.5t-21.5 26.5t-32 15q-18 6 -36 8.5t-38 6.5q-3 3 -3 11q0 14 5 19z" />
<glyph unicode="w" horiz-adv-x="1198" d="M-26 771q1 11 6 15q10 0 21 -1t30.5 -2t48.5 -2t74 -1t95 2t77 4q4 -4 4 -15t-4 -15q-16 -4 -35 -6t-29 -7q-35 -8 -29 -41q4 -16 16.5 -56t29 -94t35 -113.5t36 -113t30.5 -94.5t17 -55l6 2q16 41 48 120t65 164t60.5 162.5t37.5 114.5q8 -2 29 -1t31 3 q4 -23 17.5 -59.5t33.5 -91.5q20 -57 46 -127t48.5 -132.5t40 -107.5t21.5 -51q2 0 4 -2t4 2q10 25 33.5 91.5t49 144t48 151.5t33.5 115q4 27 -2.5 43t-32.5 22q-18 4 -42 8.5t-44 8.5q-2 4 0 15t6 15q20 0 61 -3t113 -3q51 0 81 2l60 4q4 -4 4 -15t-4 -15q-8 -2 -14 -2 t-16 -4q-25 -6 -40.5 -12.5t-26.5 -16.5t-19.5 -25.5t-18.5 -40.5q-18 -43 -52 -136t-72 -196.5t-70.5 -196.5t-46.5 -138q-10 2 -28 2t-28 -4q-10 31 -26.5 79t-38 105t-44 116.5t-43 114t-37 96.5t-24.5 62q-4 4 -8 0q-8 -23 -24.5 -65.5t-38 -96t-45 -114t-45 -115.5 t-39 -103.5t-25.5 -76.5q-10 2 -27.5 2t-27.5 -2q-16 66 -42 154.5t-54.5 179t-55 170t-45.5 129.5q-14 39 -24.5 62.5t-20.5 35.5t-22.5 18t-30.5 11q-16 4 -32 5t-26 3q-1 3 -1 8v7z" />
<glyph unicode="x" horiz-adv-x="729" d="M-37 9.5q0 11.5 4 15.5q47 8 76 16t48.5 20.5t34.5 31t38 48.5q20 27 41.5 59.5t43 64.5t40 60.5t30.5 47.5q4 4 0 12l-135 242q-27 43 -45 67.5t-37.5 36.5t-45 16.5t-66.5 8.5q-2 4 -1 16t5 14q20 0 38.5 -1t39 -2t47 -2t63.5 -1q59 0 99.5 2t58.5 4q2 -2 3 -14t-1 -16 q-20 -4 -35.5 -6t-25.5 -7q-25 -10 -15 -32q8 -18 22.5 -47t32 -61t37 -64.5t35.5 -59.5q2 -8 8 0q39 57 74 115.5t51 91.5q7 14 7 25q0 20 -25 28q-10 4 -27.5 7.5t-48.5 7.5q-4 4 -4 16t4 16q10 0 30.5 -1t43 -2t44 -2t34.5 -1q68 0 102.5 2t56.5 4q4 -2 5.5 -14t-0.5 -16 q-39 -8 -65 -14.5t-46.5 -18.5t-38.5 -33.5t-45 -60.5l-123 -189q-6 -6 -2 -14q29 -53 69 -123t66 -117q33 -55 56.5 -85.5t46 -46t48 -20.5t64.5 -9q3 -3 3 -11q0 -15 -5 -20q-16 0 -70.5 3t-117.5 3q-55 0 -100.5 -3t-73.5 -3q-4 4 -4 15t2 16q23 4 37 6t28 6 q16 6 18.5 17.5t-1.5 19.5q-4 12 -20.5 41.5t-38 67.5t-44 77t-39.5 68q-4 8 -8 0q-55 -86 -89 -140.5t-50 -87.5q-10 -18 -5 -34.5t19 -20.5t39 -10t53 -10q2 -4 1 -15.5t-5 -15.5q-8 0 -29.5 1t-47 3t-53 2h-48.5l-162 -6q-4 4 -4 15.5z" />
<glyph unicode="y" horiz-adv-x="786" d="M-25 772q2 12 7 14q27 0 59.5 -3t108.5 -3q55 0 106 3t61 3q4 -4 5.5 -15t-3.5 -15q-23 -4 -39 -8.5t-30 -8.5q-20 -8 -14 -28q4 -18 20 -65.5t38.5 -109t47.5 -127t46.5 -121t35.5 -93t16 -39.5h4q27 59 56.5 130.5t56.5 143.5t46.5 137.5t27.5 112.5q4 16 -1 33.5 t-40 27.5q-12 4 -31.5 7.5t-44.5 7.5q-4 4 -2 15t6 15q14 0 64.5 -3t97.5 -3q51 0 81 2t70 4q5 -5 5 -17q0 -9 -5 -13q-41 -6 -57 -13q-25 -6 -42 -21t-32 -52q-55 -154 -110 -294t-115.5 -275.5t-127 -268.5t-144.5 -274q-16 -29 -38 -62t-32 -53l-10 -4q-18 4 -40 19.5 t-32 27.5q0 4 -2 9t0 9q27 35 68 91.5t87 124t90 142.5t77 146q2 -2 -4.5 12.5t-8.5 18.5q-14 41 -38.5 107.5t-52 141t-56.5 149.5t-53 134q-35 88 -54.5 123t-52.5 45q-14 4 -29.5 8.5t-44.5 8.5q-3 3 -3 9q0 3 1 7z" />
<glyph unicode="z" horiz-adv-x="698" d="M35 580q16 59 28.5 117.5t20.5 101.5q27 -10 58.5 -14.5t72.5 -4.5h279q41 0 77.5 1t61.5 5q2 0 4 -7t2 -11q-41 -72 -95.5 -164t-111.5 -189.5t-112.5 -188.5t-96.5 -158q-4 -6 -2 -10.5t6 -4.5q25 -4 66 -7t86 -4t83 -1h56q8 0 22.5 6t33 25.5t39 54.5t44.5 90 q4 4 16.5 5t16.5 1l4 -4q-18 -76 -38.5 -123t-30.5 -73q-10 -23 -22.5 -29t-18.5 -6q-51 0 -128 2t-154 5t-141.5 4t-90.5 1q-4 2 -6.5 10t-2.5 13q39 59 95.5 149t118 189.5t118 195.5t94.5 168q4 10 -2 10h-65.5t-86.5 -1t-82 -2t-52 -3t-27.5 -6t-29 -19.5t-33 -47 t-39.5 -87.5q-4 -2 -17.5 1t-17.5 10z" />
<glyph unicode="{" horiz-adv-x="757" d="M74 543q-2 4 3 20.5t9 18.5q86 2 130 27.5t62.5 69.5t18.5 103.5t-4 128.5q0 14 -3 43t-5 59.5t-4 56.5t-2 36q0 106 24.5 181t72.5 124t116.5 75.5t154.5 37.5q4 -2 6 -15.5t0 -17.5q-84 -12 -137 -40t-84 -68t-43 -91t-12 -112q0 -37 4 -80t8 -87t8 -89t4 -84 q0 -33 -5 -74t-25.5 -81t-63.5 -72.5t-119 -47.5v-6q86 -8 132.5 -39t68 -70.5t25.5 -83.5t4 -79q0 -92 -12.5 -186.5t-12.5 -168.5q0 -72 20.5 -122t57.5 -82.5t88 -50t115 -23.5q2 -4 0 -18.5t-6 -16.5q-80 2 -148.5 22.5t-118 59.5t-78 98.5t-28.5 141.5q0 37 3 81t9 121 q6 82 10.5 148.5t-14 118t-71 84t-158.5 49.5z" />
<glyph unicode="|" horiz-adv-x="514" d="M209 -635v2089h96v-2089h-96z" />
<glyph unicode="}" horiz-adv-x="759" d="M84 1493q-2 4 1 15.5t7 15.5q78 -4 145.5 -24.5t118 -59.5t79 -98.5t28.5 -141.5q0 -37 -2 -79t-10 -124t-12.5 -153.5t14 -126.5t72 -91t159.5 -48q0 -8 -3 -20.5t-9 -16.5q-86 -2 -132 -29t-65.5 -71t-18.5 -103t9 -129q2 -14 4 -38t4 -49.5t4 -47t2 -31.5 q0 -211 -94 -309.5t-270 -116.5q-6 4 -10.5 16.5t-2.5 16.5q82 12 136.5 38.5t86 65.5t44 89.5t12.5 111.5q0 72 -12.5 160t-12.5 166q0 33 2 72.5t21.5 77.5t62.5 72t123 54v6q-84 10 -129 40t-66.5 70t-25.5 83t-4 78q0 45 4 97t8 102t8.5 97.5t4.5 83.5q0 72 -20.5 122 t-58.5 83t-89.5 50.5t-112.5 23.5z" />
<glyph unicode="~" horiz-adv-x="942" d="M76 356q0 10 7 28.5t11 23.5q16 23 47 47t67 45.5t72.5 36t65.5 14.5q35 0 73 -12.5t97 -40.5q39 -18 72 -30.5t65 -12.5q41 0 96.5 22.5t110.5 85.5q0 2 4 1t6 -5q0 -8 -4 -22.5t-8 -22.5q-12 -23 -36.5 -48.5t-58.5 -48t-75 -37.5t-84 -15q-35 0 -77 16t-95 45 q-41 18 -72.5 27.5t-66.5 9.5q-25 0 -55.5 -13.5t-61.5 -32t-55.5 -38t-36.5 -31.5q-2 -2 -5 1t-3 7z" />
<glyph unicode="&#xa1;" horiz-adv-x="485" d="M143 743q0 10 5.5 26.5t17.5 29.5q23 25 63 24q12 0 26.5 -5t27.5 -15q25 -29 24 -64q0 -35 -24 -61q-27 -23 -58 -23q-35 0 -55 21q-16 16 -21.5 33.5t-5.5 33.5zM160 -442q0 16 4 85.5t10 183.5t15.5 267.5t19.5 339.5q4 4 18.5 1t18.5 -7q10 -145 21.5 -283.5 t19.5 -251t13 -190.5t5 -102q0 -10 -6 -23.5t-16 -17.5q-18 -6 -47 -11.5t-37 -5.5q-6 0 -22.5 3t-16.5 12z" />
<glyph unicode="&#xa2;" d="M119 524q0 106 50 199.5t157 153.5q39 23 90 39t104 24l15 141q10 4 22 7.5t27 5.5l-17 -148q53 0 91 -5t71 -19q12 -4 33.5 -17.5t30.5 -32.5q2 -4 0 -13t-5 -13q-12 -16 -23 -27.5t-22 -17.5q-8 -4 -12 0q-23 20 -64.5 48t-99.5 34q-8 0 -8 -9l-65 -638q20 -4 53 -5 q63 0 127.5 26t116.5 79q4 -4 6 -14.5t2 -20.5q-39 -41 -81 -70.5t-83 -49t-78 -30t-68 -12.5h-3t-5 -8l-14 -143q-4 -2 -23.5 -5t-21.5 -1l16 151q-2 10 -8 10q-70 10 -127 40t-106 91q-37 47 -57.5 112.5t-20.5 137.5zM238 594q0 -133 49 -217t159 -129l66 633q-4 8 -8 8 q-63 0 -112.5 -23.5t-83.5 -64.5t-52 -94.5t-18 -112.5z" />
<glyph unicode="&#xa3;" d="M53 -25q0 2 2 13.5t5 25t6.5 23.5t7.5 14q18 18 41.5 34.5t40.5 27.5q16 8 30.5 33.5t24.5 76.5t14 130t-2 196h-26.5h-47t-46 1t-25.5 1q-4 2 -3 5t1 7q2 6 12 24.5t16 22.5q16 -2 41 -3t78 -1q0 51 3 110.5t12.5 119t29 117t54.5 104.5q41 55 86 90t82.5 55.5 t65.5 27.5t36 7q78 0 118 -25.5t40 -40.5q-2 -14 -13.5 -45.5t-19.5 -42.5q-2 -2 -7 -3t-8 1q-31 29 -75.5 53.5t-102.5 24.5q-45 0 -75.5 -25.5t-40.5 -46.5q-18 -35 -28.5 -76.5t-16 -97t-7.5 -128t-2 -169.5q0 -10 8 -10h100.5t72 1t57 2t57.5 3q2 -2 1 -9t-3 -9 q-12 -14 -34.5 -24.5t-37.5 -14.5q-12 -2 -39.5 -4t-60.5 -3t-64.5 -1h-52.5q-8 0 -8 -10q-4 -49 -10 -101.5t-19.5 -104.5t-38 -103.5t-65.5 -98.5q41 8 97.5 0t115.5 -23q18 -4 43 -10t51.5 -12t51 -10t42.5 -4q39 0 68 5t52.5 24.5t46 59.5t49.5 107q4 4 10 0q2 -2 6 -14 t6 -23q-27 -82 -67.5 -136t-82.5 -86t-78.5 -45t-54.5 -13q-47 0 -92 14t-123 43q-106 41 -155 41q-25 0 -55.5 -15.5t-77.5 -64.5q-12 0 -17 8z" />
<glyph unicode="&#xa4;" d="M115 231.5q-2 28.5 4 38.5q16 25 40.5 51.5t43.5 47.5v6v6q-18 31 -31.5 73t-13.5 95t16 111.5t49 99.5q-20 23 -49 54.5t-45 53.5q-6 6 -6 21q0 2 3 12t7 21.5t10.5 22.5t10.5 16q6 6 12 0q25 -31 56.5 -68t56.5 -66q6 -2 16 0q45 33 101.5 50.5t95.5 17.5 q49 0 90 -17.5t71 -35.5q6 -6 13 0q33 35 56 60.5t40 35.5q2 2 13 5t23.5 5t22.5 4t13 2q8 0 4 -10q-39 -43 -78 -88t-55 -68q25 -35 43 -85t18 -107q0 -59 -22.5 -115.5t-53.5 -99.5q-6 -10 0 -19q14 -16 32.5 -36.5t37 -40t35 -36t28.5 -24.5q2 -2 1 -7t-5 -7 q-8 -2 -20.5 -3t-24.5 -2t-23.5 0t-17.5 5q-10 8 -25.5 22.5t-32 30t-30.5 29.5t-22 24q-41 -35 -89.5 -53t-101.5 -18t-102 20.5t-82 48.5l-29.5 -29.5t-34 -35t-30 -32.5t-21.5 -25q-6 -6 -12 0q-4 10 -6 38.5zM250 592q0 -72 19.5 -123t51 -84t73.5 -49.5t89 -16.5 q37 0 71 9.5t59.5 36t42 71.5t16.5 117q0 57 -16.5 107.5t-47 89t-73 61.5t-93.5 23q-49 0 -86 -19.5t-60.5 -53.5t-34.5 -77t-11 -92z" />
<glyph unicode="&#xa5;" d="M-4 1201q0 11 4 16q18 0 61 -3.5t121 -3.5q20 0 46 1t49.5 2t43 2.5t27.5 1.5q4 -4 4 -15.5t-2 -15.5q-14 -2 -30.5 -5t-28.5 -7q-23 -8 -22 -22.5t18 -53.5q18 -41 45.5 -104.5t56.5 -128t55.5 -121t42.5 -85.5h9q20 45 45.5 99.5t50 112t49.5 111.5t43 101 q16 41 8 61.5t-47 31.5q-12 4 -29.5 5t-33.5 5q-2 4 -2 16t4 15q47 -2 76.5 -4.5t76.5 -2.5h48.5t33 1t32.5 2t48 4q4 -4 3 -15.5t-3 -15.5q-12 -2 -26.5 -3t-36.5 -7q-37 -10 -61.5 -42t-45.5 -75q-27 -53 -58.5 -121t-62 -133.5t-55.5 -119.5t-37 -81q-4 -12 6 -12 q31 0 60.5 1t55.5 2t43 1h21q0 -4 -2 -21.5t-6 -25.5h-176q-8 0 -8 -8v-119q0 -8 6 -8h30.5t56.5 1t56.5 1h30.5q0 -4 -2 -21.5t-6 -27.5h-164q-8 0 -8 -9q0 -47 1 -106t1 -88q2 -66 11 -91.5t57 -35.5q25 -4 38 -6t54 -6q2 -4 1 -16.5t-5 -14.5q-29 0 -90.5 3t-133.5 3 q-39 0 -66.5 -1t-51 -2t-44 -2t-44.5 -1q-4 4 -4.5 15t4.5 16q33 4 53 6t43 6q41 8 48 42t9 83q2 29 2 84v108q0 12 -10 13q-51 0 -92 -1t-84 -1q2 14 5 29.5t7 19.5h168q6 0 6 8v117q0 2 -2 6t-6 4q-39 0 -86 -1t-80 -1q2 12 5 27.5t7 19.5h148q4 0 6 4t0 8q-33 74 -76 166 t-104 221q-29 61 -46.5 94t-29.5 50.5t-25.5 23.5t-33.5 13q-23 6 -37.5 7t-32.5 5q-4 4 -4 15z" />
<glyph unicode="&#xa6;" horiz-adv-x="514" d="M207 260h98v-727h-98v727zM207 580v712h98v-712h-98z" />
<glyph unicode="&#xa7;" horiz-adv-x="835" d="M92 625q0 111 38 196.5t91 149.5q20 25 49 49t62 43.5t66.5 32t62.5 12.5q74 0 118 -30.5t64 -53.5q12 -16 16.5 -26.5t4.5 -22.5q0 -10 -11.5 -27.5t-23.5 -32.5l-8 -2q-10 10 -36 31t-55.5 40.5t-58.5 34.5t-43 15q-23 0 -30 -14t-9 -37q0 -29 14.5 -72t28.5 -71 q29 -57 70 -132t110 -190q70 -109 90.5 -186.5t20.5 -128.5q0 -27 -1 -50.5t-7 -50t-18.5 -58.5t-32.5 -73q-29 -49 -67 -92t-81 -74.5t-85 -50t-75 -18.5q-76 0 -126 26.5t-85 61.5q-25 27 -24 51q0 10 11 40t18 42q2 2 10 2q31 -39 67.5 -65.5t70.5 -44t59.5 -24.5 t37.5 -7q16 0 22.5 17.5t6.5 33.5q0 27 -16.5 66.5t-28.5 60.5q-23 37 -58.5 96.5t-76.5 124.5q-82 131 -117 231.5t-35 176.5zM176 731q0 -109 37 -204t90 -185q23 -37 54.5 -88t61.5 -104.5t51.5 -106.5t21.5 -96q2 -20 -3.5 -58t-17.5 -65q39 16 69.5 47t52 66.5t33 75.5 t11.5 75q0 115 -39 207t-96 186q-25 41 -54.5 91.5t-56 103.5t-45 107.5t-20.5 105.5q-4 29 4 68.5t18 66.5q-31 -12 -61.5 -40t-55 -66.5t-40 -87t-15.5 -99.5z" />
<glyph unicode="&#xa8;" horiz-adv-x="819" d="M195 1094q0 23 8 36q10 10 28.5 18.5t36.5 8.5q16 0 28.5 -5t16.5 -9q8 -8 11.5 -20.5t3.5 -18.5q0 -27 -10.5 -47.5t-26.5 -24.5q-6 -4 -28.5 -6t-31.5 2q-37 14 -36 66zM489 1094q0 23 9 36q10 10 28.5 18.5t36.5 8.5q16 0 28.5 -5t16.5 -9q8 -8 11.5 -20.5t3.5 -18.5 q0 -27 -10.5 -47.5t-26.5 -24.5q-6 -4 -28.5 -6t-31.5 2q-37 14 -37 66z" />
<glyph unicode="&#xa9;" horiz-adv-x="1476" d="M102 635q0 131 50.5 246.5t136.5 201.5t201.5 135.5t248.5 49.5q135 0 252 -49.5t202 -135.5t133 -201.5t48 -246.5q0 -133 -50 -250t-136 -203t-202 -135t-247 -49q-133 0 -248.5 48t-201.5 133t-136.5 202t-50.5 254zM156 635q0 -121 46 -227.5t125 -188.5t185 -129 t227 -47q119 0 224.5 44t185.5 123t126 187.5t46 237.5q0 123 -46 231.5t-126 188.5t-185.5 126t-224.5 46q-121 0 -227 -46t-185 -126t-125 -188.5t-46 -231.5zM379 641q0 68 24.5 134.5t75.5 120.5t131 87t191 33q35 0 64.5 -3t68.5 -7q23 -4 47.5 -7.5t52.5 -1.5 q-6 -39 -11 -92t-7 -96q-4 -2 -17.5 -3t-13.5 3q-8 59 -20.5 87t-40.5 48q-29 20 -71 28.5t-79 8.5q-70 0 -121 -26.5t-83.5 -70.5t-49 -104.5t-16.5 -128.5q0 -57 16.5 -118.5t52 -111.5t93 -83t137.5 -33q47 0 108.5 34t112.5 105q4 0 11 -6t9 -10q-6 -20 -20 -44 t-29.5 -45.5t-30 -37.5t-20.5 -20q-29 -8 -62.5 -14.5t-80.5 -6.5q-199 0 -310.5 104.5t-111.5 276.5z" />
<glyph unicode="&#xaa;" horiz-adv-x="487" d="M45 602q0 8 4 29.5t10 32.5q14 8 48 20t73 24.5t74 24.5t51 21q6 6 6 10q2 14 2 31.5v31.5q0 20 -6 41t-18 37q-33 47 -96 47q-14 0 -26.5 -3t-21.5 -7q-8 -4 -27.5 -29.5t-35.5 -60.5q-2 -4 -12.5 4t-10.5 12q0 8 9.5 33t13.5 27q41 35 88 56.5t74 21.5q80 0 123 -66 q16 -27 21 -56.5t5 -70.5q0 -25 -1 -55.5t-3 -61t-3 -59.5t-1 -47t9 -39t38 -21q33 1 51 9q0 -4 -2 -17.5t-4 -17.5q-18 -23 -48 -31t-50 -8q-41 0 -62 31q-4 6 -7 17t-5 17q0 10 -6 5q-41 -27 -83 -48.5t-62 -21.5q-37 0 -66 29q-18 20 -30.5 47.5t-12.5 60.5zM127 618 q0 -41 25.5 -63.5t68.5 -22.5q33 0 68 25q4 4 9 11t7 18q2 16 3 36.5t1 40v37v25.5l-2 2q-55 -20 -104 -38.5t-66 -33.5q-4 -4 -7 -16t-3 -21z" />
<glyph unicode="&#xab;" horiz-adv-x="1140" d="M133 373q0 4 2 11t6 11q74 33 153 75t146.5 83t115.5 72.5t62 44.5q6 -4 7 -8q0 -6 -6.5 -19.5t-10.5 -17.5q-18 -18 -60 -50t-91 -66t-98.5 -66.5t-84.5 -53.5q-4 -4 0 -8q23 -12 67 -43t93 -65.5t93 -70.5t69 -59q4 -4 5 -17t1 -22q0 -6 -8 -6q-18 18 -75.5 56.5 t-128.5 81.5t-141.5 80.5t-115.5 56.5zM487 373q0 4 3.5 11t7.5 11q82 35 166 80t154.5 88t119.5 76t63 45q2 0 7 -8q-2 -4 -8.5 -18.5t-10.5 -18.5q-23 -20 -67.5 -53t-99 -70t-106.5 -70.5t-89 -56.5q-2 -2 0 -8q25 -14 73 -46t101 -70t101 -74.5t73 -61.5q4 -4 5 -17.5 t-1 -23.5q-4 -4 -6 -4q-18 18 -80 59t-137.5 85t-149.5 85t-119 60z" />
<glyph unicode="&#xac;" horiz-adv-x="942" d="M88 555q4 12 14.5 41t16.5 39q6 -2 18.5 -3t45 -2t94 -1h169.5h168t114 1t65.5 1h25.5t7 -4t3 -9v-52t-1 -85t-1 -98v-92q0 -59 1 -100t3 -58q-20 -6 -43.5 -12t-33.5 -6q-2 0 -7.5 4t-5.5 8v377q0 10 -4 26.5t-18 16.5h-569q-41 0 -51.5 2t-10.5 6z" />
<glyph unicode="&#xad;" horiz-adv-x="512" d="M66 375q0 4 1 15t3 23.5t5 21.5t7 9q20 0 70.5 1t107.5 3.5t109.5 4.5t74.5 2l2 -11q-2 -16 -7 -41.5t-13 -27.5q-6 -2 -57.5 -4t-112.5 -4t-116.5 -3.5t-71.5 -1.5z" />
<glyph unicode="&#xae;" horiz-adv-x="499" d="M49 1022q0 41 15.5 78t43 64.5t64.5 44t78 16.5q86 0 143.5 -56.5t57.5 -146.5q0 -43 -15.5 -80t-43 -64.5t-63.5 -43t-79 -15.5q-84 0 -142.5 57.5t-58.5 145.5zM78 1022q0 -37 13 -69.5t37 -57.5t55.5 -39t66.5 -14q72 0 121 47t49 133q0 37 -13.5 69.5t-36 57.5 t-53 39t-67.5 14q-35 0 -66.5 -14t-55.5 -39t-37 -57.5t-13 -69.5zM156 926q-2 8 0 12q23 4 27.5 7t4.5 13v138q0 10 -4 12t-26 6q-2 2 -1 8t3 6q10 0 20 -1t23 -1h63q33 0 46.5 -13t13.5 -36t-12.5 -34t-32.5 -19q10 -16 24 -36.5t25 -33.5q10 -8 17 -12t24 -6v-6t-4 -6 q-6 -2 -24.5 -1t-31.5 5q-6 2 -9 4t-11 12l-39 62q-10 12 -27 12v-57q0 -12 5.5 -14.5t27.5 -6.5q4 -4 0 -14q-8 0 -23.5 1t-29.5 1t-28.5 -1t-20.5 -1zM225 1030q12 0 24.5 1t22.5 5q14 6 15 31q0 18 -12.5 31.5t-36.5 13.5q-10 0 -11.5 -3t-1.5 -7v-72z" />
<glyph unicode="&#xaf;" horiz-adv-x="819" d="M217 1026q2 14 11.5 40t11.5 30q4 0 21.5 -1t55.5 -1h283q0 -16 -9 -40t-13 -26q-8 -2 -44 -3t-82 -1h-96.5h-87.5q-43 0 -51 2z" />
<glyph unicode="&#xb0;" horiz-adv-x="526" d="M51 975q0 109 64.5 164t152.5 55q102 0 154.5 -61.5t52.5 -153.5q0 -45 -17.5 -83t-47 -65.5t-67.5 -43t-81 -15.5q-88 0 -149.5 55.5t-61.5 147.5zM117 989q0 -41 13 -69.5t34.5 -46t48.5 -25.5t53 -8q57 0 101.5 29.5t44.5 107.5q0 57 -40 104t-114 47 q-59 0 -100 -40.5t-41 -98.5z" />
<glyph unicode="&#xb1;" horiz-adv-x="942" d="M74 72q2 8 9 35.5t11 35.5q12 -4 66.5 -3t132.5 1l573 -2q4 -4 4 -10q0 -4 -3 -14.5t-7 -21.5t-9 -20.5t-9 -9.5l-762 -6q-6 0 -6 15zM74 596q2 10 9 34.5t11 35.5q12 -4 66.5 -4h132.5h131v135q0 70 -1 121t-3 69q14 6 40.5 14.5t35.5 8.5q4 0 6 -9.5t2 -52.5v-50 t-1 -71t-1 -78.5v-74.5q0 -12 6 -12h354q6 -7 6 -15q-2 -8 -9 -34.5t-17 -28.5q-6 0 -43 -1t-87 -1h-104.5h-97.5q-8 0 -8 -11v-92t-1 -102t-2 -85t-1 -40q-2 -10 -23.5 -20.5t-36.5 -14.5l-14 2v47v92.5v112.5v111q-47 0 -89 -1t-83 -1h-83h-91q-2 2 -3 7t-1 9z" />
<glyph unicode="&#xb2;" horiz-adv-x="616" d="M35 809q43 37 69.5 61.5t49 46t45 47t57.5 64.5q61 72 88 136.5t27 123.5q0 31 -8.5 61.5t-27 55.5t-47 40t-67.5 15q-43 0 -85 -19.5t-85 -68.5q-4 0 -11 8.5t-5 12.5q14 20 36.5 45.5t52.5 49t66.5 39t77.5 15.5q88 0 144.5 -59.5t56.5 -157.5q0 -131 -139 -276 q-29 -31 -47.5 -50.5t-36 -37t-34.5 -35t-44 -43.5q-6 -6 2 -6q20 -2 59 -4.5t82 -3.5t82 -1t56 2q16 2 41.5 21.5t54.5 91.5q6 4 15 0t11 -8q-2 -14 -9 -40t-16 -52.5t-18.5 -50t-17.5 -31.5q-4 -8 -18.5 -12.5t-36.5 -4.5q-80 0 -166 3.5t-172 3.5h-41t-35 -3q-10 6 -6 21 z" />
<glyph unicode="&#xb3;" horiz-adv-x="616" d="M49 899q2 4 10.5 6t10.5 2q14 -35 25 -55.5t34 -36.5t52.5 -27.5t84.5 -11.5q31 0 62.5 10.5t56.5 32t40 54t15 79.5q0 35 -10 68t-31.5 59.5t-58.5 42t-88 15.5q-10 0 -19.5 -1t-31.5 -6q-4 4 2 18.5t10 18.5q98 18 132 67.5t34 106.5q0 53 -36 91t-97 38q-45 0 -79 -16 t-71 -53q-4 0 -10 8t-4 12q35 45 93 85t126 40q70 0 119 -46t51 -116q0 -68 -38 -112.5t-79 -69.5q-4 -4 0 -6q37 -8 71 -23.5t60.5 -39t43 -57.5t16.5 -77q0 -68 -34 -116.5t-87 -85.5q-41 -31 -101.5 -46.5t-101.5 -15.5q-45 0 -69.5 5t-47.5 16q-12 6 -22 16t-19 31 q-8 23 -11 54.5t-3 41.5z" />
<glyph unicode="&#xb4;" horiz-adv-x="819" d="M367 899q18 39 37.5 83t38 84t34 72t25.5 48q8 2 24.5 5t34 4t31.5 2t18 -1t5 -7t-1 -7q-12 -18 -41.5 -59.5t-65.5 -87.5t-68.5 -89t-49.5 -63q-4 0 -12 6t-10 10z" />
<glyph unicode="&#xb5;" horiz-adv-x="870" d="M139 764q8 10 44 25.5t65 19.5h9t9 -4q0 -16 -1 -58t-3 -98.5t-4 -119t-3 -119t-2 -101.5t-1 -63q0 -16 3 -39t7 -33q10 -29 31.5 -51.5t75.5 -22.5q29 0 58.5 8.5t59 33t59 70.5t60.5 122q4 8 9.5 31.5t5.5 48.5v145q0 59 -1.5 117.5t-1.5 91.5q12 14 48 26.5t59 14.5 q4 -4 11 -3t12 -3q-4 -31 -8.5 -90.5t-8.5 -125t-7 -123.5t-3 -87v-94q0 -100 13.5 -138.5t39.5 -38.5q27 0 48.5 7.5t56.5 36.5q4 -2 5 -10.5t-1 -18.5q-12 -33 -33 -59.5t-46.5 -46t-52 -30t-49.5 -10.5q-18 0 -33.5 11.5t-26.5 42t-16 86t-5 143.5h-7q-39 -72 -79.5 -125 t-79.5 -88t-72 -52.5t-53 -17.5q-47 0 -75 24t-40 52q-2 -25 -3 -69.5t-2 -92t-1 -89.5t2 -62q10 -115 59 -164t148 -66q4 -10 -6 -24q-8 -8 -25.5 -17.5t-40 -17.5t-47.5 -14t-45 -6t-36.5 10t-29 39.5t-20.5 81t-10 131.5q-2 37 -3 98t-3 135t-3.5 153t-1.5 150 q0 66 -1 147t-2 158.5t-3 140t-2 91.5z" />
<glyph unicode="&#xb6;" horiz-adv-x="1091" d="M94 756q0 111 42 191.5t108.5 135t146.5 85t158 40.5q129 16 250 21.5t192 13.5q12 -16 2 -39q-29 -4 -63.5 -7t-61.5 -11q-23 -6 -37 -14.5t-22 -44t-11 -111.5t-1 -217l4 -658q0 -193 -39 -305t-92.5 -171.5t-107.5 -77t-87 -17.5q-47 0 -84 20.5t-51 51.5 q-10 23 -14 50t-4 44l12 16q37 -37 86 -60.5t119 -23.5q61 0 100 35t59.5 110.5t26.5 194.5t4 287q-33 -14 -80 -27.5t-88 -15.5q-113 14 -200 57t-146 109.5t-90 152.5t-31 185zM512 743q0 -72 11.5 -142.5t37 -126.5t66.5 -95t100 -47q-2 31 -4 113.5t-3 179t-2 189.5 t-1 147v45.5t2 56.5t6 55.5t12 42.5q-53 -6 -95 -29.5t-70.5 -71.5t-44 -126t-15.5 -191z" />
<glyph unicode="&#xb7;" horiz-adv-x="325" d="M82 383q0 35 27 61q24 25 55 25q16 0 29.5 -6t23.5 -14q16 -16 21.5 -34t5.5 -34q0 -10 -6.5 -28.5t-18.5 -28.5q-12 -14 -27.5 -19.5t-29.5 -5.5q-12 0 -27.5 5t-28.5 18q-25 25 -24 61z" />
<glyph unicode="&#xb8;" horiz-adv-x="813" d="M268 -328q-4 16 6 27q29 -16 60 -22.5t57 -6.5q35 0 56.5 18.5t21.5 45.5t-27.5 58.5t-101.5 64.5v6v8q0 2 13.5 19.5t29.5 40t33.5 44t25.5 31.5h37l-55 -76q29 -16 48.5 -29.5t35.5 -29.5q41 -37 41 -86q0 -37 -21.5 -67.5t-51.5 -52t-61.5 -34t-52.5 -12.5 q-33 0 -56 15.5t-38 37.5z" />
<glyph unicode="&#xb9;" horiz-adv-x="616" d="M128 796.5q-1 12.5 3 14.5q18 2 34.5 4t35.5 6q27 6 36 22.5t11 51.5q2 53 3 120.5t1 153.5v164t-4 84q-2 12 -6 22.5t-21 14.5q-20 4 -76 8q-4 4 -2 13.5t4 11.5q47 4 102.5 19.5t88.5 35.5h6q2 -2 4 -2h2q-2 -16 -3 -41.5t-2 -66.5t-1 -100.5v-143.5v-66t1 -87t2 -83 t1 -51q2 -41 10.5 -54t30.5 -22q16 -4 36.5 -6t47.5 -6q2 -2 1 -14.5t-5 -14.5q-31 0 -72 2t-100 2q-55 0 -94 -3t-72 -3q-2 2 -3 14.5z" />
<glyph unicode="&#xba;" horiz-adv-x="616" d="M47 737q0 76 29.5 129.5t79.5 87.5q35 23 78 37.5t96 14.5q57 0 101 -20.5t75 -55.5t47 -82t16 -100q0 -70 -29.5 -133.5t-88.5 -102.5q-25 -16 -67 -31.5t-83 -15.5q-70 0 -118 24.5t-78.5 62.5t-44 87t-13.5 98zM137 770q0 -55 14.5 -103.5t40 -83t62.5 -55t82 -20.5 q82 0 113.5 53t31.5 146q0 111 -52 186.5t-148 75.5q-27 0 -52.5 -10.5t-46 -33t-33 -61.5t-12.5 -94z" />
<glyph unicode="&#xbb;" horiz-adv-x="1136" d="M129 92q2 4 8 18.5t10 18.5q23 20 69 53t100.5 70t106.5 70.5t89 56.5q6 6 0 8q-25 14 -73 46t-102 70t-102.5 74.5t-72.5 61.5q-4 8 -5 22.5t1 18.5q0 4 6 4q18 -18 79.5 -59t137.5 -85t149.5 -85t118.5 -60q2 -4 -2 -12t-8 -10q-80 -35 -163 -79t-153.5 -87t-121.5 -77 t-66 -46q-6 0 -6 8zM514 104q2 8 6 21.5t8 17.5q20 18 63.5 50t92.5 66t97 66.5t83 53.5q6 6 0 8q-23 12 -67.5 43t-94 65.5t-93.5 70.5t-68 59q0 2 -2 17t-2 24q0 4 6 4q18 -18 77.5 -56.5t130 -81.5t140.5 -80.5t113 -56.5q0 -4 -2.5 -11t-6.5 -11q-74 -31 -152.5 -73 t-146 -83t-116 -73.5t-62.5 -45.5q-4 0 -4 6z" />
<glyph unicode="&#xbc;" horiz-adv-x="1413" d="M107.5 493.5q-1.5 12.5 3.5 14.5q18 2 34.5 4t34.5 6q27 6 36 22.5t11 51.5q2 53 3 120.5t1 153.5v164t-4 84q-2 12 -6 22.5t-20 14.5q-20 4 -76 8q-4 4 -2 13.5t4 11.5q47 4 102.5 19.5t87.5 35.5h7q2 -2 4 -2h2q-2 -16 -3 -42t-2 -67t-1 -100v-143v-66t1 -87t2 -83 t1 -51q2 -41 10 -54.5t31 -21.5q16 -4 36.5 -6t47.5 -6q2 -2 1 -14.5t-5 -14.5q-31 0 -72 2t-101 2q-55 0 -94 -3t-71 -3q-2 2 -3.5 14.5zM256 -94q2 4 37 65.5t92 158.5t129 221t145.5 252t145.5 252t129 220t92 155.5t37 61.5t18.5 1t24.5 -5v-4q-6 -8 -42 -69.5 t-91 -156.5t-125 -215t-142.5 -246t-144.5 -248t-129 -221t-97 -166.5t-50 -84.5l-9 -2q-8 10 -15 18.5t-5 12.5zM739 188q0 4 3 19.5t6 19.5q20 25 53 67t70.5 92t77.5 103.5t75 100.5t60.5 82t33.5 49q2 2 18.5 3t20.5 1v-467q0 -4 2 -4h44t48.5 1t41 2t24.5 1 q-4 -12 -8 -36t-4 -32q-23 0 -65 1.5t-79 1.5q-4 0 -4 -7l2 -241q-14 0 -44 -5.5t-48 -9.5l4 254q0 6 -6 6h-147q-76 0 -119 -1t-60 -1zM825 254h42t62 -1t68.5 -1h65.5q8 0 8 6l2 334l-2 2h-2q-14 -16 -51 -66.5t-78 -105.5t-75 -103.5t-40 -58.5v-6z" />
<glyph unicode="&#xbd;" horiz-adv-x="1413" d="M101 493.5q-1 12.5 3 14.5q18 2 35 4t35 6q27 6 36 22.5t11 51.5q2 53 3 120.5t1 153.5v164t-4 84q-2 12 -6 22.5t-20 14.5q-20 4 -76 8q-4 4 -2 13.5t4 11.5q47 4 102.5 19.5t87.5 35.5h6q2 -2 5 -2h2q-2 -16 -3.5 -42t-2.5 -67t-1 -100v-143v-66t1 -87t2.5 -83t1.5 -51 q2 -41 10 -54.5t30 -21.5q16 -4 36.5 -6t47.5 -6q2 -2 1 -14.5t-5 -14.5q-31 0 -71.5 2t-100.5 2q-55 0 -94 -3t-72 -3q-2 2 -3 14.5zM236 -94q2 4 36.5 65.5t92 158.5t129 221t145.5 252t145.5 252t129 220t92 155.5t36.5 61.5t18.5 1t24.5 -5v-4q-6 -8 -41.5 -69.5 t-91 -156.5t-125 -215t-142.5 -246t-144.5 -248t-129 -221t-97.5 -166.5t-50 -84.5l-8 -2q-8 10 -15.5 18.5t-4.5 12.5zM805 -2q43 37 69.5 61.5t49 46t45 47t57.5 64.5q61 72 88 136.5t27 123.5q0 31 -8.5 61.5t-27 55t-47 40t-67.5 15.5q-43 0 -85 -19.5t-85 -68.5 q-4 0 -11 8.5t-5 12.5q14 20 36.5 45.5t52.5 49t66.5 39t77.5 15.5q88 0 144.5 -59.5t56.5 -157.5q0 -131 -139 -276q-29 -31 -47.5 -50.5t-36 -37t-34.5 -35t-44 -43.5q-6 -6 2 -6q20 -2 59 -4.5t82 -3.5t82 -1t56 2q16 2 41.5 21.5t54.5 91.5q6 4 15 0t11 -8 q-2 -14 -9 -40t-16 -52.5t-18.5 -50t-17.5 -31.5q-4 -8 -18.5 -12.5t-36.5 -4.5q-80 0 -166 3.5t-172 3.5h-41t-35 -3q-10 6 -6 21z" />
<glyph unicode="&#xbe;" horiz-adv-x="1413" d="M90 596q2 4 10.5 6t10.5 2q14 -35 25 -55.5t34 -36.5t52.5 -27.5t84.5 -11.5q31 0 62.5 10.5t56.5 32t40 54t15 79.5q0 35 -10 68t-31.5 59.5t-58.5 42t-88 15.5q-10 0 -19.5 -1.5t-31.5 -5.5q-4 4 2 18.5t10 18.5q98 18 132 67.5t34 106.5q0 53 -36 91t-97 38 q-45 0 -79 -16t-71 -53q-4 0 -10 8t-4 12q35 45 93 85t126 40q70 0 119 -46t51 -116q0 -68 -38 -112.5t-79 -69.5q-4 -4 0 -6q37 -8 71 -23.5t60.5 -39t43 -57.5t16.5 -77q0 -68 -34 -117t-87 -85q-41 -31 -101.5 -46.5t-101.5 -15.5q-45 0 -69.5 5t-47.5 16q-12 6 -22 16 t-19 31q-8 23 -11 54.5t-3 41.5zM303 -94q2 4 37 65.5t92 158.5t129 221t145.5 252t145.5 252t129 220t92 155.5t37 61.5t18.5 1t24.5 -5v-4q-6 -8 -42 -69.5t-91 -156.5t-125 -215t-142.5 -246t-144 -248t-129 -221t-97.5 -166.5t-50 -84.5l-8 -2q-8 10 -15.5 18.5 t-5.5 12.5zM762 188q0 4 3 19.5t5 19.5q20 25 53 67t71 92t78 103.5t74.5 100.5t60.5 82t34 49q2 2 18.5 3t20.5 1v-467q0 -4 2 -4h43.5t48 1t41 2t24.5 1q-4 -12 -8 -36t-4 -32q-23 0 -64.5 1.5t-78.5 1.5q-4 0 -4 -7l2 -241q-14 0 -44 -5.5t-48 -9.5l4 254q0 6 -7 6h-147 q-76 0 -119 -1t-59 -1zM848 254h42t61.5 -1t68.5 -1h65q8 0 9 6l2 334l-2 2h-2q-14 -16 -51 -66.5t-78 -105.5t-75 -103.5t-40 -58.5v-6z" />
<glyph unicode="&#xbf;" horiz-adv-x="641" d="M84 -137q0 55 13.5 93t29.5 56q18 18 49 46t65.5 56.5t67.5 55.5t51 47q12 12 16.5 23.5t4.5 27.5q0 12 -19.5 49t-68.5 72q-6 6 4 21q18 25 49 34q25 8 47 0q37 -16 63.5 -51t26.5 -76q0 -23 -6 -40t-10 -21q-12 -12 -45 -40t-71 -59.5t-73.5 -61t-52.5 -46.5 q-29 -29 -44 -57.5t-15 -63.5q0 -31 11 -68.5t39 -76.5t76 -72t122 -51q16 -4 36.5 -7t32.5 -7q33 -6 33 -25q0 -12 -10 -33.5t-23 -38.5q-6 -10 -20 -15t-25 -5q-57 0 -110.5 21.5t-100.5 56.5q-63 47 -103 117.5t-40 138.5zM260 731q0 10 5 26.5t18 28.5q12 14 29.5 19.5 t35.5 5.5q12 0 26.5 -5t26.5 -15q23 -25 23 -64q0 -35 -25 -61q-26 -23 -57 -23q-35 0 -55 21q-16 16 -21.5 33.5t-5.5 33.5z" />
<glyph unicode="&#xc0;" horiz-adv-x="1142" d="M-72 8.5q0 12.5 4 16.5q53 6 87 15t56.5 27.5t41 52.5t43.5 91q31 74 66.5 164t70.5 184t69.5 188.5t63.5 174t50.5 141t33.5 92.5q23 66 29 102q2 0 13 -1t34 -1t34 1t13 1q4 -14 9 -37.5t16 -52.5q8 -27 32.5 -99.5t57 -170.5t68.5 -211t71 -215t63.5 -183t42.5 -120 q20 -45 35 -70.5t34 -40t49 -20.5t81 -12q4 -4 2 -15.5t-6 -15.5q-18 0 -48 1t-60.5 2t-59.5 2t-47 1h-50t-66 -1t-64.5 -2t-46.5 -3q-2 4 -3.5 15t3.5 16q31 4 55 8t47 12q25 10 28 22.5t-3 34.5q-8 33 -25.5 87.5t-38 113.5t-41 117.5t-35.5 101.5q-2 2 -6 4q-2 0 -6 4 l-2 2q-16 2 -55 2.5t-136 0.5h-80.5h-47t-24.5 -1.5t-15 -1.5q-12 0 -17 -14q-16 -41 -37.5 -98.5t-41 -114.5t-36 -106t-18.5 -72q-4 -29 2 -51.5t57 -34.5l36 -8t50 -8q4 -4 3 -15.5t-5 -15.5q-14 0 -39.5 1t-57.5 2t-67.5 2t-68.5 1q-76 0 -123 -3t-70 -3q-4 2 -4 14.5z M331 1503q1 6 3 8q6 6 18.5 14.5t27.5 16.5t30.5 15.5t23.5 7.5q10 -8 40 -39t63.5 -68t64.5 -71.5t45 -51.5q2 -2 -6 -12t-16 -10q-2 0 -23.5 12t-53.5 31.5t-68 41t-67.5 42t-54 36t-26.5 19.5q-2 2 -1 8zM383 614q0 -12 8 -14q14 -2 55 -2h125h39h42.5t34.5 1t20 1 q8 0 4 14q-18 57 -40 128t-43.5 138.5t-40 125t-30.5 92.5q-8 0 -8 -2q-12 -33 -36 -99.5t-48.5 -140.5t-47 -141.5t-34.5 -100.5z" />
<glyph unicode="&#xc1;" horiz-adv-x="1142" d="M-72 8.5q0 12.5 4 16.5q53 6 87 15t56.5 27.5t41 52.5t43.5 91q31 74 66.5 164t70.5 184t69.5 188.5t63.5 174t50.5 141t33.5 92.5q23 66 29 102q2 0 13 -1t34 -1t34 1t13 1q4 -14 9 -37.5t16 -52.5q8 -27 32.5 -99.5t57 -170.5t68.5 -211t71 -215t63.5 -183t42.5 -120 q20 -45 35 -70.5t34 -40t49 -20.5t81 -12q4 -4 2 -15.5t-6 -15.5q-18 0 -48 1t-60.5 2t-59.5 2t-47 1h-50t-66 -1t-64.5 -2t-46.5 -3q-2 4 -3.5 15t3.5 16q31 4 55 8t47 12q25 10 28 22.5t-3 34.5q-8 33 -25.5 87.5t-38 113.5t-41 117.5t-35.5 101.5q-2 2 -6 4q-2 0 -6 4 l-2 2q-16 2 -55 2.5t-136 0.5h-80.5h-47t-24.5 -1.5t-15 -1.5q-12 0 -17 -14q-16 -41 -37.5 -98.5t-41 -114.5t-36 -106t-18.5 -72q-4 -29 2 -51.5t57 -34.5l36 -8t50 -8q4 -4 3 -15.5t-5 -15.5q-14 0 -39.5 1t-57.5 2t-67.5 2t-68.5 1q-76 0 -123 -3t-70 -3q-4 2 -4 14.5z M383 614q0 -12 8 -14q14 -2 55 -2h125h39h42.5t34.5 1t20 1q8 0 4 14q-18 57 -40 128t-43.5 138.5t-40 125t-30.5 92.5q-8 0 -8 -2q-12 -33 -36 -99.5t-48.5 -140.5t-47 -141.5t-34.5 -100.5zM530 1337q6 8 35 41t64 71t66.5 71t43.5 41q16 -2 49 -14.5t46 -24.5 q2 -2 2 -7.5t-2 -7.5q-8 -10 -52.5 -40.5t-94.5 -64.5t-92 -60.5t-48 -26.5t-12.5 10t-4.5 12z" />
<glyph unicode="&#xc2;" horiz-adv-x="1142" d="M-72 8.5q0 12.5 4 16.5q53 6 87 15t56.5 27.5t41 52.5t43.5 91q31 74 66.5 164t70.5 184t69.5 188.5t63.5 174t50.5 141t33.5 92.5q23 66 29 102q2 0 13 -1t34 -1t34 1t13 1q4 -14 9 -37.5t16 -52.5q8 -27 32.5 -99.5t57 -170.5t68.5 -211t71 -215t63.5 -183t42.5 -120 q20 -45 35 -70.5t34 -40t49 -20.5t81 -12q4 -4 2 -15.5t-6 -15.5q-18 0 -48 1t-60.5 2t-59.5 2t-47 1h-50t-66 -1t-64.5 -2t-46.5 -3q-2 4 -3.5 15t3.5 16q31 4 55 8t47 12q25 10 28 22.5t-3 34.5q-8 33 -25.5 87.5t-38 113.5t-41 117.5t-35.5 101.5q-2 2 -6 4q-2 0 -6 4 l-2 2q-16 2 -55 2.5t-136 0.5h-80.5h-47t-24.5 -1.5t-15 -1.5q-12 0 -17 -14q-16 -41 -37.5 -98.5t-41 -114.5t-36 -106t-18.5 -72q-4 -29 2 -51.5t57 -34.5l36 -8t50 -8q4 -4 3 -15.5t-5 -15.5q-14 0 -39.5 1t-57.5 2t-67.5 2t-68.5 1q-76 0 -123 -3t-70 -3q-4 2 -4 14.5z M338 1329q18 12 50 38t66.5 54.5t65.5 54.5t47 42q8 8 25 8q8 -10 41 -37l71.5 -58.5t76.5 -60.5t57 -41q0 -6 -6.5 -16t-10.5 -10t-36.5 13t-72.5 29.5t-76 34t-48 23.5q-14 4 -21 0q-14 -8 -48 -24.5t-69.5 -34t-65.5 -29.5t-34 -12t-9 8t-3 18zM383 614q0 -12 8 -14 q14 -2 55 -2h125h39h42.5t34.5 1t20 1q8 0 4 14q-18 57 -40 128t-43.5 138.5t-40 125t-30.5 92.5q-8 0 -8 -2q-12 -33 -36 -99.5t-48.5 -140.5t-47 -141.5t-34.5 -100.5z" />
<glyph unicode="&#xc3;" horiz-adv-x="1142" d="M-72 8.5q0 12.5 4 16.5q53 6 87 15t56.5 27.5t41 52.5t43.5 91q31 74 66.5 164t70.5 184t69.5 188.5t63.5 174t50.5 141t33.5 92.5q23 66 29 102q2 0 13 -1t34 -1t34 1t13 1q4 -14 9 -37.5t16 -52.5q8 -27 32.5 -99.5t57 -170.5t68.5 -211t71 -215t63.5 -183t42.5 -120 q20 -45 35 -70.5t34 -40t49 -20.5t81 -12q4 -4 2 -15.5t-6 -15.5q-18 0 -48 1t-60.5 2t-59.5 2t-47 1h-50t-66 -1t-64.5 -2t-46.5 -3q-2 4 -3.5 15t3.5 16q31 4 55 8t47 12q25 10 28 22.5t-3 34.5q-8 33 -25.5 87.5t-38 113.5t-41 117.5t-35.5 101.5q-2 2 -6 4q-2 0 -6 4 l-2 2q-16 2 -55 2.5t-136 0.5h-80.5h-47t-24.5 -1.5t-15 -1.5q-12 0 -17 -14q-16 -41 -37.5 -98.5t-41 -114.5t-36 -106t-18.5 -72q-4 -29 2 -51.5t57 -34.5l36 -8t50 -8q4 -4 3 -15.5t-5 -15.5q-14 0 -39.5 1t-57.5 2t-67.5 2t-68.5 1q-76 0 -123 -3t-70 -3q-4 2 -4 14.5z M338 1362q8 10 27.5 26.5t44 33t51 27.5t45.5 11q43 0 108 -18q27 -8 51.5 -13.5t34.5 -5.5q18 0 51 8.5t80 49.5q2 2 6.5 -11.5t2.5 -17.5q-10 -18 -32 -36.5t-47.5 -34t-53 -25.5t-52.5 -10q-20 0 -46.5 6t-73.5 18q-16 4 -33 8t-35 4q-25 0 -53.5 -10t-63.5 -39 q-4 -4 -10 10.5t-2 18.5zM383 614q0 -12 8 -14q14 -2 55 -2h125h39h42.5t34.5 1t20 1q8 0 4 14q-18 57 -40 128t-43.5 138.5t-40 125t-30.5 92.5q-8 0 -8 -2q-12 -33 -36 -99.5t-48.5 -140.5t-47 -141.5t-34.5 -100.5z" />
<glyph unicode="&#xc4;" horiz-adv-x="1142" d="M-72 8.5q0 12.5 4 16.5q53 6 87 15t56.5 27.5t41 52.5t43.5 91q31 74 66.5 164t70.5 184t69.5 188.5t63.5 174t50.5 141t33.5 92.5q23 66 29 102q2 0 13 -1t34 -1t34 1t13 1q4 -14 9 -37.5t16 -52.5q8 -27 32.5 -99.5t57 -170.5t68.5 -211t71 -215t63.5 -183t42.5 -120 q20 -45 35 -70.5t34 -40t49 -20.5t81 -12q4 -4 2 -15.5t-6 -15.5q-18 0 -48 1t-60.5 2t-59.5 2t-47 1h-50t-66 -1t-64.5 -2t-46.5 -3q-2 4 -3.5 15t3.5 16q31 4 55 8t47 12q25 10 28 22.5t-3 34.5q-8 33 -25.5 87.5t-38 113.5t-41 117.5t-35.5 101.5q-2 2 -6 4q-2 0 -6 4 l-2 2q-16 2 -55 2.5t-136 0.5h-80.5h-47t-24.5 -1.5t-15 -1.5q-12 0 -17 -14q-16 -41 -37.5 -98.5t-41 -114.5t-36 -106t-18.5 -72q-4 -29 2 -51.5t57 -34.5l36 -8t50 -8q4 -4 3 -15.5t-5 -15.5q-14 0 -39.5 1t-57.5 2t-67.5 2t-68.5 1q-76 0 -123 -3t-70 -3q-4 2 -4 14.5z M373 1395q0 23 8 37q10 10 28.5 18t36.5 8q16 0 28.5 -5t17.5 -9q8 -8 11 -20.5t3 -18.5q0 -27 -10.5 -47.5t-26.5 -24.5q-6 -4 -28.5 -6t-30.5 2q-37 14 -37 66zM383 614q0 -12 8 -14q14 -2 55 -2h125h39h42.5t34.5 1t20 1q8 0 4 14q-18 57 -40 128t-43.5 138.5t-40 125 t-30.5 92.5q-8 0 -8 -2q-12 -33 -36 -99.5t-48.5 -140.5t-47 -141.5t-34.5 -100.5zM676 1395q0 23 8 37q10 10 28.5 18t37.5 8q16 0 28.5 -5t16.5 -9q8 -8 11 -20.5t3 -18.5q0 -27 -10.5 -47.5t-26.5 -24.5q-6 -4 -28.5 -6t-30.5 2q-37 14 -37 66z" />
<glyph unicode="&#xc5;" horiz-adv-x="1142" d="M-72 8.5q0 12.5 4 16.5q53 6 87 15t56.5 27.5t41 52.5t43.5 91q31 74 66.5 164t70.5 184t69.5 188.5t63.5 174t50.5 141t33.5 92.5q23 66 29 102q2 0 13 -1t34 -1t34 1t13 1q4 -14 9 -37.5t16 -52.5q8 -27 32.5 -99.5t57 -170.5t68.5 -211t71 -215t63.5 -183t42.5 -120 q20 -45 35 -70.5t34 -40t49 -20.5t81 -12q4 -4 2 -15.5t-6 -15.5q-18 0 -48 1t-60.5 2t-59.5 2t-47 1h-50t-66 -1t-64.5 -2t-46.5 -3q-2 4 -3.5 15t3.5 16q31 4 55 8t47 12q25 10 28 22.5t-3 34.5q-8 33 -25.5 87.5t-38 113.5t-41 117.5t-35.5 101.5q-2 2 -6 4q-2 0 -6 4 l-2 2q-16 2 -55 2.5t-136 0.5h-80.5h-47t-24.5 -1.5t-15 -1.5q-12 0 -17 -14q-16 -41 -37.5 -98.5t-41 -114.5t-36 -106t-18.5 -72q-4 -29 2 -51.5t57 -34.5l36 -8t50 -8q4 -4 3 -15.5t-5 -15.5q-14 0 -39.5 1t-57.5 2t-67.5 2t-68.5 1q-76 0 -123 -3t-70 -3q-4 2 -4 14.5z M383 614q0 -12 8 -14q14 -2 55 -2h125h39h42.5t34.5 1t20 1q8 0 4 14q-18 57 -40 128t-43.5 138.5t-40 125t-30.5 92.5q-8 0 -8 -2q-12 -33 -36 -99.5t-48.5 -140.5t-47 -141.5t-34.5 -100.5zM461 1407q0 57 32.5 94t102.5 37q59 0 93 -37t34 -86q0 -59 -38 -94t-97 -35 q-16 0 -39 6t-42.5 20.5t-32.5 37t-13 57.5zM500 1409q0 -33 29.5 -50.5t66.5 -17.5q35 0 61.5 18.5t26.5 47.5q0 35 -21.5 55.5t-74.5 20.5q-41 0 -64.5 -20.5t-23.5 -53.5z" />
<glyph unicode="&#xc6;" horiz-adv-x="1585" d="M-59 10.5q0 12.5 2 14.5q53 6 85.5 15t57.5 27.5t45.5 52.5t48.5 91q72 139 141.5 281.5t132 270.5t113.5 235.5t84 179.5q4 6 3 14t-11 12q-16 2 -38.5 6t-44 8.5t-41.5 7.5t-32 5q-4 4 -1 15t8 16q35 0 113.5 -3.5t164.5 -3.5h416h61.5t62 1t53.5 2.5t36 3.5l2 -2l4 -5 q-6 -27 -12 -61.5t-11.5 -70.5t-8.5 -70.5t-5 -59.5q-4 -4 -16.5 -5t-16.5 3q-4 29 -7 64t-13 63q-12 41 -31.5 59.5t-87.5 22.5q-20 0 -66.5 1t-97.5 1t-97 -1t-67 -1q-6 0 -8 -6t-2 -12q6 -53 13.5 -139.5t14.5 -171.5t12 -150.5t7 -79.5q0 -6 5.5 -11t9.5 -5h161.5 t124.5 4q53 4 68.5 18.5t28.5 46.5q8 23 12 46.5t6 37.5q4 4 19.5 3t17.5 -5q-2 -23 -5 -73t-3 -121q0 -53 4 -102.5t4 -69.5q-4 -2 -18.5 -3t-18.5 3l-16 71q-8 23 -21.5 47.5t-66.5 28.5q-25 2 -62 3t-78 1h-82h-75q-4 0 -5.5 -5t-1.5 -9q0 -12 4.5 -58.5t10.5 -105.5 t14 -122.5t14 -108.5q8 -59 24.5 -72.5t45.5 -18.5q35 -4 99.5 -5t175.5 -1q39 0 67.5 7.5t61.5 41.5q27 29 49 72t47 117q4 2 16 -2t17 -8q0 -10 -6.5 -45t-16.5 -76t-23.5 -83t-27.5 -67q-4 -10 -20.5 -14t-51.5 -4q-39 0 -79 1t-96 2t-137 2t-200 1q-51 0 -88 -1 t-66.5 -2t-56 -2t-55.5 -1q-4 2 -5 14t3 17q84 6 135 20q35 10 44 34.5t7 88.5q0 6 -2 41t-7 88t-11 118.5t-13 133.5l-10 8q-8 0 -16 1t-23.5 1h-44h-76.5h-82.5h-51t-30 -1t-18.5 -1t-14 -7t-8 -9q-18 -41 -48 -101.5t-58.5 -123t-52.5 -114.5t-32 -75q-10 -29 -4 -54.5 t53 -33.5l88 -14q2 -4 2 -15.5t-4 -15.5q-29 0 -95 3t-132 3q-74 0 -120 -3t-68 -3q-2 4 -2 16.5zM463 641q0 -12 8 -14q14 -2 55 -2h125q29 0 61.5 -1t55.5 3q12 0 12 10q-6 70 -13 162t-14.5 176t-12.5 145.5t-7 73.5q-2 4 -6 5t-6 -1q-10 -23 -30.5 -67t-46.5 -98 t-54.5 -114.5t-54 -114.5t-45 -97t-27.5 -66z" />
<glyph unicode="&#xc7;" horiz-adv-x="1314" d="M102 639q0 168 76 317.5t244 239.5q82 45 183.5 70.5t234.5 25.5q61 0 111 -4t112 -12q43 -6 84 -11t61 -8q-12 -57 -20 -138t-6 -150q-4 -4 -18.5 -6t-18.5 2q-8 63 -19.5 104t-26 67.5t-32.5 42t-43 25.5q-51 23 -109.5 32t-148.5 9q-121 0 -217 -41t-161.5 -117.5 t-100.5 -185t-35 -244.5q0 -147 41 -265t116.5 -199.5t183 -125.5t243.5 -44q23 0 52.5 2t62 10t66.5 25.5t64 45.5q41 41 70 82t63 103q4 2 16.5 -4t12.5 -13q-10 -41 -29.5 -85t-42 -81.5t-44 -66.5t-37.5 -35q-41 -12 -112 -25.5t-157 -17.5l-37 -51q23 -10 48.5 -25.5 t41.5 -31.5q23 -18 31 -44t8 -49q0 -41 -22.5 -72.5t-54 -54t-64.5 -35t-53 -12.5q-35 0 -59.5 16.5t-34.5 37.5q-2 4 -2 16t4 16q31 -16 64.5 -22t62.5 -6q35 0 55 15t20 44q0 25 -30.5 61.5t-112.5 63.5v6q0 2 4 10q14 20 29 41q12 16 25.5 37t27.5 39 q-317 8 -493.5 183.5t-176.5 492.5z" />
<glyph unicode="&#xc8;" horiz-adv-x="1019" d="M12 9q0 11 4 16q39 4 70 6t59 10q37 10 52.5 32.5t19.5 86.5q0 12 1 59t2 118t1 159v178v148.5t-1 131t-2 98.5t-1 52q-4 61 -14 81.5t-49 31.5q-18 4 -41 8t-54 8q-4 4 -3 14t5 15q35 0 83.5 -3.5t134.5 -3.5h395h60.5t60 1t51 2.5t35.5 3.5q6 0 6 -7 q-6 -25 -12.5 -59.5t-11.5 -70t-8 -70.5t-5 -60q-4 -4 -16.5 -5t-16.5 3q-4 43 -8 72t-8 49q-10 37 -30.5 59.5t-86.5 26.5q-20 0 -67.5 1t-97.5 1h-93t-55 -2q-10 -2 -15.5 -11t-5.5 -18q-2 -18 -2 -60t-1 -93t-1 -107.5v-103.5v-80v-37q0 -16 6 -16q18 -2 64.5 -2h96.5 t97 1t70 3q49 4 64.5 24.5t23.5 42.5q6 16 11 36t9 40q4 4 18.5 3t16.5 -5q-4 -25 -9 -79t-5 -103q0 -66 2 -103.5t2 -60.5q-4 -6 -17.5 -7t-17.5 5q-4 23 -6 38t-6 32q-4 18 -18.5 42.5t-65.5 28.5q-23 2 -69 3t-97 1h-96t-66 -2q-4 0 -6 -7t-2 -9v-69.5v-129t1 -144.5 t3 -118q2 -41 17.5 -55t31.5 -19q31 -6 90.5 -9t169.5 -3q47 0 77 4t48.5 12.5t29.5 17.5t22 19q23 20 54.5 72.5t55.5 112.5q4 2 13.5 -4.5t13.5 -10.5q-4 -25 -14.5 -62.5t-22.5 -75.5t-25.5 -70.5t-21.5 -47.5q-4 -8 -9.5 -12t-17.5 -6t-34.5 -3t-61.5 -1t-75 1t-87 2 t-128 2t-195 1q-51 0 -88 -1t-67 -2t-55.5 -2t-54.5 -1q-4 4 -4 15zM298 1515.5q1 6.5 3 8.5q6 6 18.5 14t27.5 16.5t30.5 15.5t23.5 7q10 -8 40 -39t64 -67.5t64.5 -71.5t44.5 -51q2 -2 -6 -12.5t-16 -10.5q-2 0 -23.5 12.5t-53.5 32t-67.5 41t-67.5 42t-54.5 35.5 t-26.5 19q-2 2 -1 8.5z" />
<glyph unicode="&#xc9;" horiz-adv-x="1019" d="M12 9q0 11 4 16q39 4 70 6t59 10q37 10 52.5 32.5t19.5 86.5q0 12 1 59t2 118t1 159v178v148.5t-1 131t-2 98.5t-1 52q-4 61 -14 81.5t-49 31.5q-18 4 -41 8t-54 8q-4 4 -3 14t5 15q35 0 83.5 -3.5t134.5 -3.5h395h60.5t60 1t51 2.5t35.5 3.5q6 0 6 -7 q-6 -25 -12.5 -59.5t-11.5 -70t-8 -70.5t-5 -60q-4 -4 -16.5 -5t-16.5 3q-4 43 -8 72t-8 49q-10 37 -30.5 59.5t-86.5 26.5q-20 0 -67.5 1t-97.5 1h-93t-55 -2q-10 -2 -15.5 -11t-5.5 -18q-2 -18 -2 -60t-1 -93t-1 -107.5v-103.5v-80v-37q0 -16 6 -16q18 -2 64.5 -2h96.5 t97 1t70 3q49 4 64.5 24.5t23.5 42.5q6 16 11 36t9 40q4 4 18.5 3t16.5 -5q-4 -25 -9 -79t-5 -103q0 -66 2 -103.5t2 -60.5q-4 -6 -17.5 -7t-17.5 5q-4 23 -6 38t-6 32q-4 18 -18.5 42.5t-65.5 28.5q-23 2 -69 3t-97 1h-96t-66 -2q-4 0 -6 -7t-2 -9v-69.5v-129t1 -144.5 t3 -118q2 -41 17.5 -55t31.5 -19q31 -6 90.5 -9t169.5 -3q47 0 77 4t48.5 12.5t29.5 17.5t22 19q23 20 54.5 72.5t55.5 112.5q4 2 13.5 -4.5t13.5 -10.5q-4 -25 -14.5 -62.5t-22.5 -75.5t-25.5 -70.5t-21.5 -47.5q-4 -8 -9.5 -12t-17.5 -6t-34.5 -3t-61.5 -1t-75 1t-87 2 t-128 2t-195 1q-51 0 -88 -1t-67 -2t-55.5 -2t-54.5 -1q-4 4 -4 15zM440 1350q6 8 35 40.5t63.5 70.5t66.5 71t44 41q16 -2 49 -14.5t45 -24.5q2 -2 2 -7t-2 -7q-8 -10 -52 -41t-94 -65t-92 -60.5t-48 -26.5t-12.5 10.5t-4.5 12.5z" />
<glyph unicode="&#xca;" horiz-adv-x="1019" d="M12 9q0 11 4 16q39 4 70 6t59 10q37 10 52.5 32.5t19.5 86.5q0 12 1 59t2 118t1 159v178v148.5t-1 131t-2 98.5t-1 52q-4 61 -14 81.5t-49 31.5q-18 4 -41 8t-54 8q-4 4 -3 14t5 15q35 0 83.5 -3.5t134.5 -3.5h395h60.5t60 1t51 2.5t35.5 3.5q6 0 6 -7 q-6 -25 -12.5 -59.5t-11.5 -70t-8 -70.5t-5 -60q-4 -4 -16.5 -5t-16.5 3q-4 43 -8 72t-8 49q-10 37 -30.5 59.5t-86.5 26.5q-20 0 -67.5 1t-97.5 1h-93t-55 -2q-10 -2 -15.5 -11t-5.5 -18q-2 -18 -2 -60t-1 -93t-1 -107.5v-103.5v-80v-37q0 -16 6 -16q18 -2 64.5 -2h96.5 t97 1t70 3q49 4 64.5 24.5t23.5 42.5q6 16 11 36t9 40q4 4 18.5 3t16.5 -5q-4 -25 -9 -79t-5 -103q0 -66 2 -103.5t2 -60.5q-4 -6 -17.5 -7t-17.5 5q-4 23 -6 38t-6 32q-4 18 -18.5 42.5t-65.5 28.5q-23 2 -69 3t-97 1h-96t-66 -2q-4 0 -6 -7t-2 -9v-69.5v-129t1 -144.5 t3 -118q2 -41 17.5 -55t31.5 -19q31 -6 90.5 -9t169.5 -3q47 0 77 4t48.5 12.5t29.5 17.5t22 19q23 20 54.5 72.5t55.5 112.5q4 2 13.5 -4.5t13.5 -10.5q-4 -25 -14.5 -62.5t-22.5 -75.5t-25.5 -70.5t-21.5 -47.5q-4 -8 -9.5 -12t-17.5 -6t-34.5 -3t-61.5 -1t-75 1t-87 2 t-128 2t-195 1q-51 0 -88 -1t-67 -2t-55.5 -2t-54.5 -1q-4 4 -4 15zM270 1350q18 12 50 37.5t67 54t66 54.5t47 42q8 8 24 8q8 -10 41 -36.5t72 -58.5t77 -60.5t56 -40.5q0 -6 -6 -16.5t-10 -10.5t-37 13.5t-73 29.5t-76 33.5t-48 23.5q-14 4 -20 0q-14 -8 -48 -24.5 t-70 -33.5t-65.5 -29.5t-33.5 -12.5t-9.5 8t-3.5 19z" />
<glyph unicode="&#xcb;" horiz-adv-x="1019" d="M12 9q0 11 4 16q39 4 70 6t59 10q37 10 52.5 32.5t19.5 86.5q0 12 1 59t2 118t1 159v178v148.5t-1 131t-2 98.5t-1 52q-4 61 -14 81.5t-49 31.5q-18 4 -41 8t-54 8q-4 4 -3 14t5 15q35 0 83.5 -3.5t134.5 -3.5h395h60.5t60 1t51 2.5t35.5 3.5q6 0 6 -7 q-6 -25 -12.5 -59.5t-11.5 -70t-8 -70.5t-5 -60q-4 -4 -16.5 -5t-16.5 3q-4 43 -8 72t-8 49q-10 37 -30.5 59.5t-86.5 26.5q-20 0 -67.5 1t-97.5 1h-93t-55 -2q-10 -2 -15.5 -11t-5.5 -18q-2 -18 -2 -60t-1 -93t-1 -107.5v-103.5v-80v-37q0 -16 6 -16q18 -2 64.5 -2h96.5 t97 1t70 3q49 4 64.5 24.5t23.5 42.5q6 16 11 36t9 40q4 4 18.5 3t16.5 -5q-4 -25 -9 -79t-5 -103q0 -66 2 -103.5t2 -60.5q-4 -6 -17.5 -7t-17.5 5q-4 23 -6 38t-6 32q-4 18 -18.5 42.5t-65.5 28.5q-23 2 -69 3t-97 1h-96t-66 -2q-4 0 -6 -7t-2 -9v-69.5v-129t1 -144.5 t3 -118q2 -41 17.5 -55t31.5 -19q31 -6 90.5 -9t169.5 -3q47 0 77 4t48.5 12.5t29.5 17.5t22 19q23 20 54.5 72.5t55.5 112.5q4 2 13.5 -4.5t13.5 -10.5q-4 -25 -14.5 -62.5t-22.5 -75.5t-25.5 -70.5t-21.5 -47.5q-4 -8 -9.5 -12t-17.5 -6t-34.5 -3t-61.5 -1t-75 1t-87 2 t-128 2t-195 1q-51 0 -88 -1t-67 -2t-55.5 -2t-54.5 -1q-4 4 -4 15zM307 1417q0 23 8 37q10 10 28.5 18.5t37.5 8.5q16 0 28.5 -5.5t16.5 -9.5q8 -8 11 -20.5t3 -18.5q0 -27 -10 -47t-27 -24q-6 -4 -28.5 -6t-30.5 2q-37 14 -37 65zM610 1417q0 23 8 37q10 10 29 18.5 t37 8.5q16 0 28.5 -5.5t16.5 -9.5q8 -8 11 -20.5t3 -18.5q0 -27 -10 -47t-26 -24q-6 -4 -29 -6t-31 2q-37 14 -37 65z" />
<glyph unicode="&#xcc;" horiz-adv-x="567" d="M40 1507q1 6 3 9q6 6 18.5 14t27.5 16t30.5 15.5t23.5 7.5q10 -8 40 -39t64 -68t64.5 -71.5t44.5 -51.5q2 -2 -6 -12t-16 -10q-2 0 -23.5 12t-53.5 31.5t-67.5 41t-67.5 42t-54.5 36t-26.5 19.5q-2 2 -1 8zM52 1246q1 11 5 16q29 0 97.5 -3.5t140.5 -3.5q66 0 113 3.5 t84 3.5q4 -4 5 -15.5t-3 -15.5q-23 -4 -46.5 -6t-37.5 -6q-35 -10 -44.5 -35t-13.5 -72q-2 -33 -3 -85t-2 -114.5t-1 -132v-137.5v-147.5t1 -143t2 -120t1 -76.5q4 -47 13.5 -75t48.5 -38q41 -12 104 -18q4 -4 3 -15.5t-5 -15.5q-33 0 -86 3t-121 3q-37 0 -65.5 -1t-56 -2 t-57.5 -2t-69 -1q-4 4 -4 15t4 16q23 2 48.5 6t44.5 8q39 8 49 30.5t14 57.5q2 18 3 86t2 155t1 178v154v226.5t-4 181.5q-4 37 -10 65.5t-41 38.5q-16 4 -45 9.5t-66 9.5q-4 4 -3 15z" />
<glyph unicode="&#xcd;" horiz-adv-x="567" d="M52 1246q1 11 5 16q29 0 97.5 -3.5t140.5 -3.5q66 0 113 3.5t84 3.5q4 -4 5 -15.5t-3 -15.5q-23 -4 -46.5 -6t-37.5 -6q-35 -10 -44.5 -35t-13.5 -72q-2 -33 -3 -85t-2 -114.5t-1 -132v-137.5v-147.5t1 -143t2 -120t1 -76.5q4 -47 13.5 -75t48.5 -38q41 -12 104 -18 q4 -4 3 -15.5t-5 -15.5q-33 0 -86 3t-121 3q-37 0 -65.5 -1t-56 -2t-57.5 -2t-69 -1q-4 4 -4 15t4 16q23 2 48.5 6t44.5 8q39 8 49 30.5t14 57.5q2 18 3 86t2 155t1 178v154v226.5t-4 181.5q-4 37 -10 65.5t-41 38.5q-16 4 -45 9.5t-66 9.5q-4 4 -3 15zM215 1348 q6 8 35 40.5t63.5 70.5t66.5 71t44 41q16 -2 49 -14.5t45 -24.5q2 -2 2 -7t-2 -7q-8 -10 -52 -41t-94 -65t-92 -60.5t-49 -26.5q-6 0 -12 10.5t-4 12.5z" />
<glyph unicode="&#xce;" horiz-adv-x="567" d="M41 1364q18 12 50 37.5t67 54.5t65.5 54.5t46.5 41.5q8 8 25 9q8 -10 41 -37l71.5 -58.5t76.5 -60.5t57 -41q0 -6 -6.5 -16.5t-10.5 -10.5t-36.5 13.5t-72.5 30t-76 34t-48 23.5q-14 4 -21 0q-14 -8 -48 -24.5t-69.5 -34t-65.5 -30t-34 -12.5t-9 8.5t-3 18.5zM52 1246 q1 11 5 16q29 0 97.5 -3.5t140.5 -3.5q66 0 113 3.5t84 3.5q4 -4 5 -15.5t-3 -15.5q-23 -4 -46.5 -6t-37.5 -6q-35 -10 -44.5 -35t-13.5 -72q-2 -33 -3 -85t-2 -114.5t-1 -132v-137.5v-147.5t1 -143t2 -120t1 -76.5q4 -47 13.5 -75t48.5 -38q41 -12 104 -18q4 -4 3 -15.5 t-5 -15.5q-33 0 -86 3t-121 3q-37 0 -65.5 -1t-56 -2t-57.5 -2t-69 -1q-4 4 -4 15t4 16q23 2 48.5 6t44.5 8q39 8 49 30.5t14 57.5q2 18 3 86t2 155t1 178v154v226.5t-4 181.5q-4 37 -10 65.5t-41 38.5q-16 4 -45 9.5t-66 9.5q-4 4 -3 15z" />
<glyph unicode="&#xcf;" horiz-adv-x="567" d="M52 1246q1 11 5 16q29 0 97.5 -3.5t140.5 -3.5q66 0 113 3.5t84 3.5q4 -4 5 -15.5t-3 -15.5q-23 -4 -46.5 -6t-37.5 -6q-35 -10 -44.5 -35t-13.5 -72q-2 -33 -3 -85t-2 -114.5t-1 -132v-137.5v-147.5t1 -143t2 -120t1 -76.5q4 -47 13.5 -75t48.5 -38q41 -12 104 -18 q4 -4 3 -15.5t-5 -15.5q-33 0 -86 3t-121 3q-37 0 -65.5 -1t-56 -2t-57.5 -2t-69 -1q-4 4 -4 15t4 16q23 2 48.5 6t44.5 8q39 8 49 30.5t14 57.5q2 18 3 86t2 155t1 178v154v226.5t-4 181.5q-4 37 -10 65.5t-41 38.5q-16 4 -45 9.5t-66 9.5q-4 4 -3 15zM66 1421q0 23 8 37 q10 10 28.5 18.5t36.5 8.5q16 0 28.5 -5t16.5 -10q8 -8 11.5 -20t3.5 -18q0 -27 -10.5 -47.5t-26.5 -24.5q-6 -4 -28.5 -6t-31.5 2q-37 14 -36 65zM369 1421q0 23 8 37q10 10 28.5 18.5t36.5 8.5q16 0 28.5 -5t16.5 -10q8 -8 11.5 -20t3.5 -18q0 -27 -10.5 -47.5 t-26.5 -24.5q-6 -4 -28.5 -6t-30.5 2q-37 14 -37 65z" />
<glyph unicode="&#xd0;" horiz-adv-x="1392" d="M35 10.5q0 14.5 4 14.5q31 4 58.5 8t49.5 10q12 4 23.5 8t21 15.5t15.5 30t8 50.5q4 98 5 225.5t1 250.5q-55 0 -100 -1t-80 -1q2 14 4 30.5t6 20.5h170v102.5v124t-1 115.5t-3 80q-4 63 -13 86.5t-50 33.5q-18 4 -41 8.5t-58 8.5q-4 4 -2 16.5t6 14.5q18 0 48 -1 t62 -2.5t61.5 -2.5t50.5 -1q51 0 94 1t88 3.5t93 3.5t108 1q135 0 246.5 -36t193.5 -108q98 -86 142 -203.5t44 -259.5q0 -115 -27.5 -205t-70.5 -157.5t-95.5 -115.5t-103.5 -79q-94 -57 -198.5 -85.5t-233.5 -28.5q-43 0 -79 1t-73.5 2t-83.5 3t-112 2h-29.5h-48h-52.5 h-44q-4 2 -4 16.5zM348 346.5q0 -63.5 1 -112.5t3 -74q2 -23 11.5 -43.5t33.5 -34.5q29 -16 94.5 -26.5t159.5 -10.5q84 0 169 22.5t157 90.5q76 70 121 178t45 287q0 156 -52.5 281.5t-179.5 215.5q-72 51 -176 72.5t-239 21.5q-33 0 -67 -3t-50 -7q-8 -4 -16.5 -12 t-10.5 -33q-2 -18 -3 -71.5t-1 -123v-147.5v-145h138.5t128 1t96.5 1h43q0 -4 -2 -22.5t-7 -28.5h-397v-140.5v-136z" />
<glyph unicode="&#xd1;" horiz-adv-x="1427" d="M15 1246q1 11 5 16q10 0 32 -1t48.5 -2.5t54 -2.5t52.5 -1h51.5t34.5 2q4 -10 21.5 -34.5t58.5 -75.5q59 -74 136 -167t160 -193.5t163.5 -199t149.5 -181t119 -142t68 -80.5l7 4v154v173v178t-1 168t-3.5 140.5t-4.5 98.5q-4 41 -15 68.5t-54 41.5q-27 8 -58.5 12.5 t-66.5 8.5q-4 4 -3 15t5 16q39 0 100.5 -3.5t132.5 -3.5q20 0 49 1t56.5 2.5t50 2.5t31.5 1q4 -4 4 -15.5t-4 -15.5q-29 -4 -44.5 -7t-35.5 -10q-39 -10 -51.5 -39.5t-14.5 -64.5q-4 -57 -6 -158.5t-3 -220.5t-1 -244t-2 -227q0 -70 1 -146.5t3 -123.5q-14 2 -50 2t-52 -2 q-27 39 -92.5 124t-151.5 193.5t-182.5 226t-181.5 223t-149.5 183.5t-86.5 107q-2 2 -5 1t-3 -4q0 -51 -1 -125.5t-1 -161.5v-176t1 -168t1 -141.5t2 -91.5q4 -78 24.5 -102.5t53.5 -34.5q23 -8 51 -11t57 -7q4 -2 3 -15.5t-5 -15.5q-29 0 -91.5 3t-139.5 3q-70 0 -119 -3 t-80 -3q-4 4 -4 16.5t4 14.5q29 4 46 6t38 8q35 8 57.5 34.5t26.5 106.5q2 35 4 120t4 205t4 267.5t4 308.5q0 14 -8 39t-29 47q-33 37 -72 46.5t-102 17.5q-2 4 -1 15zM473 1384q8 10 27.5 26.5t44 33t51.5 28t45 11.5q43 0 109 -19q27 -8 51.5 -13t34.5 -5q18 0 51 8 t80 49q2 2 6 -11t2 -17q-10 -18 -31.5 -37t-47.5 -34t-53.5 -25.5t-51.5 -10.5q-20 0 -47 6t-74 19q-16 4 -32.5 8t-35.5 4q-25 0 -53.5 -10.5t-63.5 -38.5q-4 -4 -10 10t-2 18z" />
<glyph unicode="&#xd2;" horiz-adv-x="1466" d="M102 641q0 111 30 205t83 174q43 61 104.5 112.5t133 86t150.5 54t153 19.5q152 0 265.5 -53t190 -142t114.5 -205t38 -241q0 -129 -30.5 -228t-90.5 -187q-43 -68 -102.5 -118t-128 -85t-143 -52.5t-150.5 -17.5q-133 0 -249 53.5t-194 139.5q-90 100 -132 226t-42 259z M250 682q0 -78 15.5 -160t48 -158.5t84 -143t122.5 -114.5q55 -37 124 -57t155 -20q72 0 134 20.5t107 56.5q104 86 146.5 209t42.5 271q0 80 -14.5 159.5t-45 152.5t-78 135.5t-112.5 107.5q-59 43 -131 67.5t-162 24.5q-59 0 -110.5 -13.5t-94.5 -35.5q-61 -35 -104 -87.5 t-72 -118t-42 -141t-13 -155.5zM497 1548q1 6 3 8q6 6 18 14.5t27.5 16.5t31 15.5t23.5 7.5q10 -8 40 -39t63.5 -68t64.5 -71.5t45 -51.5q2 -2 -6 -12t-16 -10q-2 0 -24 12t-53.5 31.5t-67.5 41t-67.5 42t-54 36t-26.5 19.5q-2 2 -1 8z" />
<glyph unicode="&#xd3;" horiz-adv-x="1466" d="M102 641q0 111 30 205t83 174q43 61 104.5 112.5t133 86t150.5 54t153 19.5q152 0 265.5 -53t190 -142t114.5 -205t38 -241q0 -129 -30.5 -228t-90.5 -187q-43 -68 -102.5 -118t-128 -85t-143 -52.5t-150.5 -17.5q-133 0 -249 53.5t-194 139.5q-90 100 -132 226t-42 259z M250 682q0 -78 15.5 -160t48 -158.5t84 -143t122.5 -114.5q55 -37 124 -57t155 -20q72 0 134 20.5t107 56.5q104 86 146.5 209t42.5 271q0 80 -14.5 159.5t-45 152.5t-78 135.5t-112.5 107.5q-59 43 -131 67.5t-162 24.5q-59 0 -110.5 -13.5t-94.5 -35.5q-61 -35 -104 -87.5 t-72 -118t-42 -141t-13 -155.5zM647 1380q6 8 35 41t63.5 71t66.5 71t44 41q16 -2 49 -14.5t45 -24.5q2 -2 2 -7.5t-2 -7.5q-8 -10 -52 -40.5t-94 -64.5t-92 -60.5t-48 -26.5t-12.5 10t-4.5 12z" />
<glyph unicode="&#xd4;" horiz-adv-x="1466" d="M102 641q0 111 30 205t83 174q43 61 104.5 112.5t133 86t150.5 54t153 19.5q152 0 265.5 -53t190 -142t114.5 -205t38 -241q0 -129 -30.5 -228t-90.5 -187q-43 -68 -102.5 -118t-128 -85t-143 -52.5t-150.5 -17.5q-133 0 -249 53.5t-194 139.5q-90 100 -132 226t-42 259z M250 682q0 -78 15.5 -160t48 -158.5t84 -143t122.5 -114.5q55 -37 124 -57t155 -20q72 0 134 20.5t107 56.5q104 86 146.5 209t42.5 271q0 80 -14.5 159.5t-45 152.5t-78 135.5t-112.5 107.5q-59 43 -131 67.5t-162 24.5q-59 0 -110.5 -13.5t-94.5 -35.5q-61 -35 -104 -87.5 t-72 -118t-42 -141t-13 -155.5zM489 1380q18 12 50 38t67 54.5t66 54.5t47 42q8 8 24 8q8 -10 41 -37t72 -58.5t77 -60t56 -41.5q0 -6 -6 -16t-10 -10t-37 13t-73 29.5t-75.5 34t-48.5 23.5q-14 4 -20 0q-14 -8 -48 -24.5t-70 -34t-65.5 -29.5t-33.5 -12t-9.5 8t-3.5 18z " />
<glyph unicode="&#xd5;" horiz-adv-x="1466" d="M102 641q0 111 30 205t83 174q43 61 104.5 112.5t133 86t150.5 54t153 19.5q152 0 265.5 -53t190 -142t114.5 -205t38 -241q0 -129 -30.5 -228t-90.5 -187q-43 -68 -102.5 -118t-128 -85t-143 -52.5t-150.5 -17.5q-133 0 -249 53.5t-194 139.5q-90 100 -132 226t-42 259z M250 682q0 -78 15.5 -160t48 -158.5t84 -143t122.5 -114.5q55 -37 124 -57t155 -20q72 0 134 20.5t107 56.5q104 86 146.5 209t42.5 271q0 80 -14.5 159.5t-45 152.5t-78 135.5t-112.5 107.5q-59 43 -131 67.5t-162 24.5q-59 0 -110.5 -13.5t-94.5 -35.5q-61 -35 -104 -87.5 t-72 -118t-42 -141t-13 -155.5zM477 1411q8 10 27.5 26.5t44 33t51.5 27.5t45 11q43 0 109 -18q27 -8 51.5 -13t34.5 -5q18 0 51 8t80 49q2 2 6 -11.5t2 -17.5q-10 -18 -31.5 -36.5t-47.5 -34t-53.5 -25.5t-51.5 -10q-20 0 -47 6t-74 18q-16 4 -32.5 8.5t-35.5 4.5 q-25 0 -53.5 -10.5t-63.5 -39.5q-4 -4 -10 10.5t-2 18.5z" />
<glyph unicode="&#xd6;" horiz-adv-x="1466" d="M102 641q0 111 30 205t83 174q43 61 104.5 112.5t133 86t150.5 54t153 19.5q152 0 265.5 -53t190 -142t114.5 -205t38 -241q0 -129 -30.5 -228t-90.5 -187q-43 -68 -102.5 -118t-128 -85t-143 -52.5t-150.5 -17.5q-133 0 -249 53.5t-194 139.5q-90 100 -132 226t-42 259z M250 682q0 -78 15.5 -160t48 -158.5t84 -143t122.5 -114.5q55 -37 124 -57t155 -20q72 0 134 20.5t107 56.5q104 86 146.5 209t42.5 271q0 80 -14.5 159.5t-45 152.5t-78 135.5t-112.5 107.5q-59 43 -131 67.5t-162 24.5q-59 0 -110.5 -13.5t-94.5 -35.5q-61 -35 -104 -87.5 t-72 -118t-42 -141t-13 -155.5zM514 1452q0 23 8 37q10 10 28.5 18.5t37.5 8.5q16 0 28.5 -5.5t16.5 -9.5q8 -8 11 -20.5t3 -18.5q0 -27 -10 -47t-27 -24q-6 -4 -28.5 -6.5t-30.5 1.5q-37 14 -37 66zM817 1452q0 23 8 37q10 10 28.5 18.5t37.5 8.5q16 0 28.5 -5.5t16.5 -9.5 q8 -8 11 -20.5t3 -18.5q0 -27 -10 -47t-27 -24q-6 -4 -28.5 -6.5t-30.5 1.5q-37 14 -37 66z" />
<glyph unicode="&#xd7;" horiz-adv-x="942" d="M83 72q-1 4 1 6q12 10 56 56t96.5 100.5t98.5 105.5t62 70q6 10 0 16q-41 45 -90 101.5t-93 107.5t-78 89t-42 50q0 6 5 16.5t13.5 20.5t14.5 19.5t10 13.5q6 6 13 2q4 -8 43.5 -55.5t92 -105.5t103.5 -115.5t80 -86.5q39 43 86 96.5t90 102.5t75 85t38 46q2 2 12 6 t25.5 6l31 4t27.5 2q2 -2 4 -5t0 -5q-37 -49 -81 -100t-89 -101.5t-87 -97.5t-79 -86v-6v-6q25 -29 71 -77t95 -99t94 -96.5t68 -63.5v-9t-4 -7q-6 -2 -22.5 -1t-36 2t-37 5t-23.5 8q-12 8 -45 40t-73 73t-81 84t-71 75q-4 4 -8 0q-41 -47 -83 -92t-78 -83t-61.5 -63.5 t-31.5 -29.5q-16 -10 -54.5 -17t-54.5 -7q-2 2 -3 6z" />
<glyph unicode="&#xd8;" horiz-adv-x="1466" d="M102 641q0 111 30 205t83 174q43 61 104.5 112.5t133 86t150.5 54t153 19.5q98 0 182 -23.5t186 -82.5l84 112q4 4 23.5 0t25.5 -8l-2 -8l-98 -131q104 -88 155.5 -222t51.5 -278q0 -129 -30.5 -228t-90.5 -187q-43 -68 -102.5 -118t-128 -85t-143 -52.5t-150.5 -17.5 q-92 0 -187.5 30t-173.5 89l-98 -133q-4 -4 -21.5 3t-25.5 11v8l106 142q-59 55 -101 118.5t-67.5 131t-37 138t-11.5 140.5zM254 682q0 -88 11 -157.5t29.5 -126t44.5 -101.5t54 -84l658 881q-25 23 -56.5 47t-74.5 44.5t-98.5 34t-127.5 13.5q-59 0 -110.5 -13.5 t-94.5 -35.5q-123 -70 -179 -206t-56 -296zM428 172q135 -147 365 -147q72 0 134 20.5t107 56.5q104 86 149.5 211t45.5 273q0 115 -29 236.5t-115 230.5z" />
<glyph unicode="&#xd9;" horiz-adv-x="1357" d="M43 1246q0 11 4 16q10 0 32.5 -1t53.5 -2.5t65.5 -2.5t69.5 -1q66 0 116 3.5t83 3.5q4 -4 4 -15.5t-4 -15.5q-31 -6 -49.5 -9t-36.5 -10q-27 -10 -36 -29.5t-13 -84.5q-2 -63 -3 -157.5t-1 -191t1 -179.5t3 -124q4 -57 10 -99t16.5 -74.5t23.5 -57.5t32 -45 q53 -66 142 -97.5t181 -31.5q74 0 139.5 17.5t114.5 61.5t80 123t35 201q2 57 4 130t3 154t0 166t-3 169q0 49 -7 77.5t-19.5 44t-28 21.5t-33.5 11q-23 4 -39 6t-47 6q-4 4 -3 15t5 16q23 0 74 -2.5t141 -2.5q59 0 107.5 2.5t70.5 2.5q4 -4 4 -15.5t-4 -15.5q-23 -4 -41 -7 t-35 -8q-39 -10 -52 -42.5t-15 -122.5q-4 -203 -6 -326t-5 -198.5t-8.5 -122t-15.5 -95.5q-20 -102 -67.5 -167.5t-112 -105.5t-139 -55.5t-150.5 -15.5q-432 0 -475 373q-4 31 -6 92t-3 137t-1 160v158.5v133t-2 85.5q-2 41 -7.5 69.5t-39.5 40.5q-16 6 -49.5 10.5 t-53.5 8.5q-4 4 -4 15zM458 1513.5q1 6.5 3 8.5q6 6 18.5 14t27.5 16.5t30.5 15.5t23.5 7q10 -8 40 -39t63.5 -67.5t64.5 -71.5t45 -51q2 -2 -6 -12.5t-16 -10.5q-2 0 -23.5 12.5t-53.5 31.5t-68 41t-67.5 42t-54 35.5t-26.5 19.5q-2 2 -1 8.5z" />
<glyph unicode="&#xda;" horiz-adv-x="1357" d="M43 1246q0 11 4 16q10 0 32.5 -1t53.5 -2.5t65.5 -2.5t69.5 -1q66 0 116 3.5t83 3.5q4 -4 4 -15.5t-4 -15.5q-31 -6 -49.5 -9t-36.5 -10q-27 -10 -36 -29.5t-13 -84.5q-2 -63 -3 -157.5t-1 -191t1 -179.5t3 -124q4 -57 10 -99t16.5 -74.5t23.5 -57.5t32 -45 q53 -66 142 -97.5t181 -31.5q74 0 139.5 17.5t114.5 61.5t80 123t35 201q2 57 4 130t3 154t0 166t-3 169q0 49 -7 77.5t-19.5 44t-28 21.5t-33.5 11q-23 4 -39 6t-47 6q-4 4 -3 15t5 16q23 0 74 -2.5t141 -2.5q59 0 107.5 2.5t70.5 2.5q4 -4 4 -15.5t-4 -15.5q-23 -4 -41 -7 t-35 -8q-39 -10 -52 -42.5t-15 -122.5q-4 -203 -6 -326t-5 -198.5t-8.5 -122t-15.5 -95.5q-20 -102 -67.5 -167.5t-112 -105.5t-139 -55.5t-150.5 -15.5q-432 0 -475 373q-4 31 -6 92t-3 137t-1 160v158.5v133t-2 85.5q-2 41 -7.5 69.5t-39.5 40.5q-16 6 -49.5 10.5 t-53.5 8.5q-4 4 -4 15zM637 1343q6 8 34.5 41t63.5 71t67 71t44 41q16 -2 49 -14.5t45 -24.5q2 -2 2 -7t-2 -8q-8 -10 -52 -40.5t-94.5 -64.5t-92.5 -60.5t-48 -26.5t-12 10t-4 12z" />
<glyph unicode="&#xdb;" horiz-adv-x="1357" d="M43 1246q0 11 4 16q10 0 32.5 -1t53.5 -2.5t65.5 -2.5t69.5 -1q66 0 116 3.5t83 3.5q4 -4 4 -15.5t-4 -15.5q-31 -6 -49.5 -9t-36.5 -10q-27 -10 -36 -29.5t-13 -84.5q-2 -63 -3 -157.5t-1 -191t1 -179.5t3 -124q4 -57 10 -99t16.5 -74.5t23.5 -57.5t32 -45 q53 -66 142 -97.5t181 -31.5q74 0 139.5 17.5t114.5 61.5t80 123t35 201q2 57 4 130t3 154t0 166t-3 169q0 49 -7 77.5t-19.5 44t-28 21.5t-33.5 11q-23 4 -39 6t-47 6q-4 4 -3 15t5 16q23 0 74 -2.5t141 -2.5q59 0 107.5 2.5t70.5 2.5q4 -4 4 -15.5t-4 -15.5q-23 -4 -41 -7 t-35 -8q-39 -10 -52 -42.5t-15 -122.5q-4 -203 -6 -326t-5 -198.5t-8.5 -122t-15.5 -95.5q-20 -102 -67.5 -167.5t-112 -105.5t-139 -55.5t-150.5 -15.5q-432 0 -475 373q-4 31 -6 92t-3 137t-1 160v158.5v133t-2 85.5q-2 41 -7.5 69.5t-39.5 40.5q-16 6 -49.5 10.5 t-53.5 8.5q-4 4 -4 15zM459 1364q18 12 50 37.5t66.5 54.5t65.5 54.5t47 41.5q8 8 25 9q8 -10 40.5 -37t71.5 -58.5t77 -60.5t56 -41q0 -6 -6 -16.5t-10 -10.5t-37 13.5t-72.5 30t-75.5 34t-48 23.5q-14 4 -21 0q-14 -8 -48 -24.5t-69.5 -34t-65.5 -30t-34 -12.5t-9 8.5 t-3 18.5z" />
<glyph unicode="&#xdc;" horiz-adv-x="1357" d="M43 1246q0 11 4 16q10 0 32.5 -1t53.5 -2.5t65.5 -2.5t69.5 -1q66 0 116 3.5t83 3.5q4 -4 4 -15.5t-4 -15.5q-31 -6 -49.5 -9t-36.5 -10q-27 -10 -36 -29.5t-13 -84.5q-2 -63 -3 -157.5t-1 -191t1 -179.5t3 -124q4 -57 10 -99t16.5 -74.5t23.5 -57.5t32 -45 q53 -66 142 -97.5t181 -31.5q74 0 139.5 17.5t114.5 61.5t80 123t35 201q2 57 4 130t3 154t0 166t-3 169q0 49 -7 77.5t-19.5 44t-28 21.5t-33.5 11q-23 4 -39 6t-47 6q-4 4 -3 15t5 16q23 0 74 -2.5t141 -2.5q59 0 107.5 2.5t70.5 2.5q4 -4 4 -15.5t-4 -15.5q-23 -4 -41 -7 t-35 -8q-39 -10 -52 -42.5t-15 -122.5q-4 -203 -6 -326t-5 -198.5t-8.5 -122t-15.5 -95.5q-20 -102 -67.5 -167.5t-112 -105.5t-139 -55.5t-150.5 -15.5q-432 0 -475 373q-4 31 -6 92t-3 137t-1 160v158.5v133t-2 85.5q-2 41 -7.5 69.5t-39.5 40.5q-16 6 -49.5 10.5 t-53.5 8.5q-4 4 -4 15zM492 1432q0 23 8 36q10 10 28.5 18.5t36.5 8.5q16 0 28.5 -5t16.5 -9q8 -8 11.5 -20.5t3.5 -18.5q0 -27 -10.5 -47.5t-26.5 -24.5q-6 -4 -28.5 -6t-31.5 2q-37 14 -36 66zM795 1432q0 23 8 36q10 10 28.5 18.5t36.5 8.5q16 0 28.5 -5t16.5 -9 q8 -8 11.5 -20.5t3.5 -18.5q0 -27 -10.5 -47.5t-26.5 -24.5q-6 -4 -28.5 -6t-31.5 2q-37 14 -36 66z" />
<glyph unicode="&#xdd;" horiz-adv-x="1095" d="M-30 1246q1 11 5 16q45 0 105.5 -3.5t138.5 -3.5q20 0 48 1t52.5 2.5t45 2.5t30.5 1q6 -4 6 -15.5t-4 -15.5q-16 -2 -34.5 -5t-30.5 -7q-23 -6 -29 -21.5t12 -52.5q20 -45 60.5 -123t83.5 -159t79.5 -150.5t53.5 -98.5h8q27 47 66 115t77.5 140.5t73.5 139t53 111.5 q16 41 8 63.5t-55 33.5q-20 4 -37.5 7t-48.5 7q-4 4 -3 16.5t7 14.5q47 -2 101.5 -4.5t101.5 -2.5q59 0 102.5 1t104.5 6q4 -4 3 -15.5t-3 -15.5l-88 -17q-53 -10 -77.5 -43.5t-49.5 -74.5q-33 -55 -79 -134t-91 -159t-81 -146.5t-48 -95.5q-4 -10 -8 -30.5t-4 -30.5l4 -320 q2 -66 14 -100.5t59 -44.5q25 -4 40.5 -7t56.5 -8q2 -4 1 -14t-5 -12q-29 0 -100.5 3t-143.5 3q-78 0 -137.5 -3t-106.5 -3q-4 4 -4 13t4 13q35 4 64.5 8.5t52.5 8.5q45 10 56.5 41t13.5 80l4 288q0 23 -3 53.5t-10 45.5q-16 39 -45.5 99.5t-65.5 128t-72 136t-66 123.5 q-33 59 -55.5 93t-39 52.5t-33 25.5t-36.5 14q-20 6 -42 8t-57 6q-4 4 -3 15zM526 1339q6 8 35 41t63.5 71t66.5 71t44 41q16 -2 49 -14.5t45 -24.5q2 -2 2 -7.5t-2 -7.5q-8 -10 -52 -40.5t-94 -64.5t-92 -60.5t-48 -26.5t-12.5 10t-4.5 12z" />
<glyph unicode="&#xde;" horiz-adv-x="1011" d="M47 10.5q0 12.5 4 14.5q29 4 49.5 6t38.5 6q16 4 29.5 8t24 16.5t17.5 38t9 74.5q0 23 1 58.5t1 92v136.5v194v115v134.5t-1 119.5t-1 72q-2 53 -14 81.5t-51 39.5q-20 4 -41 7t-52 7q-4 4 -2 16.5t7 14.5q51 0 104 -3.5t113 -3.5q66 0 114.5 3.5t85.5 3.5q4 -4 4 -15.5 t-4 -15.5l-86 -14q-33 -10 -39 -30t-10 -67l-2 -139q0 -10 8 -10q41 2 102.5 4t108.5 2q31 0 66 -3t71.5 -12.5t70.5 -23.5t63 -35q47 -41 76.5 -100.5t29.5 -149.5q0 -127 -58.5 -201.5t-133.5 -113.5q-47 -25 -108.5 -37t-117.5 -12q-53 0 -74.5 4t-37.5 10 q-6 6 -9.5 15.5t-3.5 13.5q0 6 4 6q16 -4 37 -6t56 -2q53 0 104 12t84 31q74 47 96.5 110.5t22.5 137.5q0 164 -88 238.5t-275 74.5q-16 0 -42.5 -3t-37.5 -7q-12 -4 -14 -27v-432v-129t4 -197q2 -59 21.5 -75.5t66.5 -26.5q23 -4 45.5 -6t44.5 -6q4 -4 2 -15.5t-4 -15.5 q-18 0 -46.5 1t-61.5 2t-67 2t-62 1q-35 0 -71 -1t-69.5 -2t-59.5 -2t-38 -1q-4 4 -4 16.5z" />
<glyph unicode="&#xdf;" horiz-adv-x="944" d="M26 8q-1 12 3 17q20 2 35.5 4t27.5 6q35 10 46.5 27.5t11.5 50.5l4 598l-109 4q-4 8 2 21.5t10 17.5q29 2 56.5 12t40.5 18q0 125 13 210t37.5 146.5t61.5 104.5t84 84t108.5 64.5t102.5 23.5q49 0 94 -19.5t78 -56t52.5 -90t19.5 -118.5q0 -43 -17.5 -84t-27.5 -60 q-37 -55 -73 -102t-66 -84q-18 -23 -28.5 -36t-10.5 -30q0 -12 10 -26.5t31.5 -35t57.5 -52t87 -76.5q41 -39 72.5 -90t31.5 -117q0 -61 -19 -113.5t-49 -93.5t-66 -70.5t-68 -48.5q-41 -23 -77 -32t-71 -9q-31 0 -70.5 12.5t-52.5 39.5q0 16 4.5 44.5t8.5 49.5q2 10 8 12 q33 -31 81 -53.5t97 -22.5q72 0 122 41t50 152q0 41 -12.5 76.5t-29.5 66.5t-38.5 55.5t-40.5 42.5q-27 25 -56.5 49.5t-55 45t-45 36t-25.5 21.5t-7 33.5t9 34.5q29 23 56.5 49t74.5 82q45 51 72.5 111.5t27.5 146.5q0 47 -15 91t-42 79t-64.5 55t-82.5 20q-49 0 -91.5 -19 t-73 -80.5t-48 -177.5t-17.5 -306q-2 -129 -2 -226.5v-173t1 -133t3 -102.5q2 -41 12.5 -59.5t32.5 -28.5q12 -4 27.5 -6t36.5 -6q4 -4 3 -15.5t-5 -15.5q-10 0 -29.5 1t-42 2t-46.5 2t-42 1q-16 0 -40.5 -1t-50.5 -2t-50.5 -2t-42.5 -1q-4 2 -5 14z" />
<glyph unicode="&#xe0;" horiz-adv-x="753" d="M74 188q0 6 2 18.5t5 28t6 28.5t7 22q20 12 74.5 31.5t115 39t115 39t78.5 31.5q4 2 7 8t3 8q2 20 1 46t-1 49q0 29 -10 62.5t-26 55.5q-57 80 -166 80q-23 0 -37.5 -4t-26.5 -12q-16 -10 -40.5 -49t-47.5 -109q-4 -4 -21.5 9.5t-17.5 29.5q0 20 14.5 53t22.5 41 q31 25 65.5 45.5t69.5 36t64.5 24.5t50.5 9q111 0 174 -98q25 -39 33 -94.5t8 -104.5q0 -43 -1 -92t-2 -96.5t-2 -90.5t-1 -69q0 -29 14 -60.5t62 -31.5q29 0 43 3t30 9q0 -6 -2 -20.5t-6 -18.5q-35 -41 -76 -55.5t-69 -14.5q-59 0 -88 45q-6 10 -10.5 29t-6.5 29q0 4 -3 6 t-5 0q-33 -20 -66.5 -39.5t-65.5 -35t-58.5 -25t-42.5 -9.5q-55 0 -101 45q-29 31 -47 74t-18 94zM190 219q0 -61 39 -104t107 -43q23 0 57.5 9t67.5 30q8 4 14 15t6 26q0 25 1 59.5t2 68t1 62.5v41q0 4 -6 4q-39 -12 -83 -27.5t-83 -31t-68.5 -28.5t-39.5 -24 q-4 -4 -9.5 -25.5t-5.5 -31.5zM195 1206v4q0 4 2 7q4 2 17 4t30.5 4t34 2t24.5 -2q6 -16 20.5 -52t32 -81t35 -92.5t31.5 -86.5q-2 -4 -12.5 -8t-14.5 -2q-16 23 -44.5 66t-59.5 90t-57.5 88t-38.5 59z" />
<glyph unicode="&#xe1;" horiz-adv-x="753" d="M74 188q0 6 2 18.5t5 28t6 28.5t7 22q20 12 74.5 31.5t115 39t115 39t78.5 31.5q4 2 7 8t3 8q2 20 1 46t-1 49q0 29 -10 62.5t-26 55.5q-57 80 -166 80q-23 0 -37.5 -4t-26.5 -12q-16 -10 -40.5 -49t-47.5 -109q-4 -4 -21.5 9.5t-17.5 29.5q0 20 14.5 53t22.5 41 q31 25 65.5 45.5t69.5 36t64.5 24.5t50.5 9q111 0 174 -98q25 -39 33 -94.5t8 -104.5q0 -43 -1 -92t-2 -96.5t-2 -90.5t-1 -69q0 -29 14 -60.5t62 -31.5q29 0 43 3t30 9q0 -6 -2 -20.5t-6 -18.5q-35 -41 -76 -55.5t-69 -14.5q-59 0 -88 45q-6 10 -10.5 29t-6.5 29q0 4 -3 6 t-5 0q-33 -20 -66.5 -39.5t-65.5 -35t-58.5 -25t-42.5 -9.5q-55 0 -101 45q-29 31 -47 74t-18 94zM190 219q0 -61 39 -104t107 -43q23 0 57.5 9t67.5 30q8 4 14 15t6 26q0 25 1 59.5t2 68t1 62.5v41q0 4 -6 4q-39 -12 -83 -27.5t-83 -31t-68.5 -28.5t-39.5 -24 q-4 -4 -9.5 -25.5t-5.5 -31.5zM313 897q18 39 38 83t38.5 84t34 72t25.5 48q8 2 24 5t33.5 4t32 2t18.5 -1t5 -7t-1 -7q-12 -18 -42 -59.5t-65.5 -87.5t-68.5 -89t-49 -63q-4 0 -12.5 6t-10.5 10z" />
<glyph unicode="&#xe2;" horiz-adv-x="753" d="M74 188q0 6 2 18.5t5 28t6 28.5t7 22q20 12 74.5 31.5t115 39t115 39t78.5 31.5q4 2 7 8t3 8q2 20 1 46t-1 49q0 29 -10 62.5t-26 55.5q-57 80 -166 80q-23 0 -37.5 -4t-26.5 -12q-16 -10 -40.5 -49t-47.5 -109q-4 -4 -21.5 9.5t-17.5 29.5q0 20 14.5 53t22.5 41 q31 25 65.5 45.5t69.5 36t64.5 24.5t50.5 9q111 0 174 -98q25 -39 33 -94.5t8 -104.5q0 -43 -1 -92t-2 -96.5t-2 -90.5t-1 -69q0 -29 14 -60.5t62 -31.5q29 0 43 3t30 9q0 -6 -2 -20.5t-6 -18.5q-35 -41 -76 -55.5t-69 -14.5q-59 0 -88 45q-6 10 -10.5 29t-6.5 29q0 4 -3 6 t-5 0q-33 -20 -66.5 -39.5t-65.5 -35t-58.5 -25t-42.5 -9.5q-55 0 -101 45q-29 31 -47 74t-18 94zM186 907q12 20 36 59.5t49.5 84.5t49 88t33.5 69q2 4 14.5 9.5t18.5 5.5q8 -27 30.5 -72t47 -92t48.5 -87t34 -54q-4 -8 -26.5 -11.5t-28.5 -1.5q-4 2 -20.5 25.5t-36 54.5 t-39 63.5t-31.5 55.5q-5 4 -9 0q-12 -23 -29.5 -51.5t-36 -56t-33.5 -49t-24 -27.5q-8 -8 -23 -13.5t-17 -5.5q-6 0 -7 6zM190 219q0 -61 39 -104t107 -43q23 0 57.5 9t67.5 30q8 4 14 15t6 26q0 25 1 59.5t2 68t1 62.5v41q0 4 -6 4q-39 -12 -83 -27.5t-83 -31t-68.5 -28.5 t-39.5 -24q-4 -4 -9.5 -25.5t-5.5 -31.5z" />
<glyph unicode="&#xe3;" horiz-adv-x="753" d="M74 188q0 6 2 18.5t5 28t6 28.5t7 22q20 12 74.5 31.5t115 39t115 39t78.5 31.5q4 2 7 8t3 8q2 20 1 46t-1 49q0 29 -10 62.5t-26 55.5q-57 80 -166 80q-23 0 -37.5 -4t-26.5 -12q-16 -10 -40.5 -49t-47.5 -109q-4 -4 -21.5 9.5t-17.5 29.5q0 20 14.5 53t22.5 41 q31 25 65.5 45.5t69.5 36t64.5 24.5t50.5 9q111 0 174 -98q25 -39 33 -94.5t8 -104.5q0 -43 -1 -92t-2 -96.5t-2 -90.5t-1 -69q0 -29 14 -60.5t62 -31.5q29 0 43 3t30 9q0 -6 -2 -20.5t-6 -18.5q-35 -41 -76 -55.5t-69 -14.5q-59 0 -88 45q-6 10 -10.5 29t-6.5 29q0 4 -3 6 t-5 0q-33 -20 -66.5 -39.5t-65.5 -35t-58.5 -25t-42.5 -9.5q-55 0 -101 45q-29 31 -47 74t-18 94zM131 993q-2 6 0 16.5t4 12.5q6 10 23.5 25.5t39 31t44 26.5t41.5 11q23 0 44 -4t50 -12q25 -6 50.5 -13.5t41.5 -7.5t45 9.5t70 48.5q4 -4 4 -7q0 -6 -1 -15t-3 -11 q-8 -14 -26.5 -30.5t-41 -32t-46.5 -25.5t-42 -10q-25 0 -50.5 6t-66.5 18q-16 4 -33.5 8t-33.5 4q-23 0 -49.5 -11t-57.5 -40q-2 -2 -6 2zM190 219q0 -61 39 -104t107 -43q23 0 57.5 9t67.5 30q8 4 14 15t6 26q0 25 1 59.5t2 68t1 62.5v41q0 4 -6 4q-39 -12 -83 -27.5 t-83 -31t-68.5 -28.5t-39.5 -24q-4 -4 -9.5 -25.5t-5.5 -31.5z" />
<glyph unicode="&#xe4;" horiz-adv-x="753" d="M74 188q0 6 2 18.5t5 28t6 28.5t7 22q20 12 74.5 31.5t115 39t115 39t78.5 31.5q4 2 7 8t3 8q2 20 1 46t-1 49q0 29 -10 62.5t-26 55.5q-57 80 -166 80q-23 0 -37.5 -4t-26.5 -12q-16 -10 -40.5 -49t-47.5 -109q-4 -4 -21.5 9.5t-17.5 29.5q0 20 14.5 53t22.5 41 q31 25 65.5 45.5t69.5 36t64.5 24.5t50.5 9q111 0 174 -98q25 -39 33 -94.5t8 -104.5q0 -43 -1 -92t-2 -96.5t-2 -90.5t-1 -69q0 -29 14 -60.5t62 -31.5q29 0 43 3t30 9q0 -6 -2 -20.5t-6 -18.5q-35 -41 -76 -55.5t-69 -14.5q-59 0 -88 45q-6 10 -10.5 29t-6.5 29q0 4 -3 6 t-5 0q-33 -20 -66.5 -39.5t-65.5 -35t-58.5 -25t-42.5 -9.5q-55 0 -101 45q-29 31 -47 74t-18 94zM162 1094q0 23 8 36q10 10 28.5 18.5t37.5 8.5q16 0 28 -5t17 -9q8 -8 11 -20.5t3 -18.5q0 -27 -10.5 -47.5t-26.5 -24.5q-6 -4 -28.5 -6t-30.5 2q-37 14 -37 66zM190 219 q0 -61 39 -104t107 -43q23 0 57.5 9t67.5 30q8 4 14 15t6 26q0 25 1 59.5t2 68t1 62.5v41q0 4 -6 4q-39 -12 -83 -27.5t-83 -31t-68.5 -28.5t-39.5 -24q-4 -4 -9.5 -25.5t-5.5 -31.5zM457 1094q0 23 8 36q10 10 28.5 18.5t36.5 8.5q16 0 28.5 -5t16.5 -9q8 -8 11.5 -20.5 t3.5 -18.5q0 -27 -10.5 -47.5t-26.5 -24.5q-6 -4 -28.5 -6t-30.5 2q-37 14 -37 66z" />
<glyph unicode="&#xe5;" horiz-adv-x="753" d="M74 188q0 6 2 18.5t5 28t6 28.5t7 22q20 12 74.5 31.5t115 39t115 39t78.5 31.5q4 2 7 8t3 8q2 20 1 46t-1 49q0 29 -10 62.5t-26 55.5q-57 80 -166 80q-23 0 -37.5 -4t-26.5 -12q-16 -10 -40.5 -49t-47.5 -109q-4 -4 -21.5 9.5t-17.5 29.5q0 20 14.5 53t22.5 41 q31 25 65.5 45.5t69.5 36t64.5 24.5t50.5 9q111 0 174 -98q25 -39 33 -94.5t8 -104.5q0 -43 -1 -92t-2 -96.5t-2 -90.5t-1 -69q0 -29 14 -60.5t62 -31.5q29 0 43 3t30 9q0 -6 -2 -20.5t-6 -18.5q-35 -41 -76 -55.5t-69 -14.5q-59 0 -88 45q-6 10 -10.5 29t-6.5 29q0 4 -3 6 t-5 0q-33 -20 -66.5 -39.5t-65.5 -35t-58.5 -25t-42.5 -9.5q-55 0 -101 45q-29 31 -47 74t-18 94zM190 219q0 -61 39 -104t107 -43q23 0 57.5 9t67.5 30q8 4 14 15t6 26q0 25 1 59.5t2 68t1 62.5v41q0 4 -6 4q-39 -12 -83 -27.5t-83 -31t-68.5 -28.5t-39.5 -24 q-4 -4 -9.5 -25.5t-5.5 -31.5zM229 1051q0 59 37 97t94 38t89 -38t32 -91q0 -63 -35.5 -99t-93.5 -36q-16 0 -37.5 7t-40 22.5t-32 40t-13.5 59.5zM268 1051q0 -35 29 -53.5t63 -18.5q35 0 59.5 19.5t24.5 50.5q0 37 -21.5 58t-70.5 21q-41 0 -62.5 -21.5t-21.5 -55.5z" />
<glyph unicode="&#xe6;" horiz-adv-x="1169" d="M74 190q0 6 2 18.5t5 28t6 29t7 21.5q20 12 73.5 30.5t114 37t114 33.5t77.5 26q4 2 7 7t3 7q2 20 2 53v56q0 29 -10 66.5t-26 60.5q-29 39 -68 56t-86 17q-23 0 -40 -5t-30 -11q-12 -6 -38.5 -48t-49.5 -104q-2 -2 -8 1t-13 9.5t-13.5 11.5t-6.5 9q0 6 4 19.5t8.5 29 t9.5 26.5t7 13q31 27 68.5 48.5t73.5 38t67 25.5t51 9q121 0 186 -125q6 -6 13 -2q37 39 74.5 63.5t72.5 39t63.5 19.5t45.5 5q66 0 108.5 -25.5t70.5 -61.5t41 -75t19 -65q-2 0 7.5 -5.5t25.5 -7.5l-12 -24q-8 -4 -40 -13.5t-78 -22.5t-101.5 -28.5t-108.5 -30t-99 -27.5 t-75 -22q-8 0 -8 -10q2 -47 18.5 -106.5t55.5 -108.5q39 -47 91 -76.5t119 -29.5q72 0 127.5 21.5t114.5 74.5q4 -4 4 -20.5t-2 -20.5q-74 -82 -157.5 -115t-151.5 -33q-72 0 -137.5 30t-124.5 108q-6 6 -10 2q-31 -25 -67 -49.5t-74 -45t-73.5 -33t-64.5 -12.5t-62.5 13.5 t-56.5 36.5q-29 31 -47 71.5t-18 91.5zM190 219q0 -61 39 -103t107 -42q117 0 180 73q6 8 4 15q-18 47 -28.5 97.5t-10.5 109.5q0 4 -6 4q-33 -10 -74 -22.5t-78.5 -25t-69.5 -22.5t-46 -18q-4 -2 -6 -10.5t-5 -18.5t-4.5 -20.5t-1.5 -16.5zM590 457q0 -14 8 -13 q35 8 89 23.5t109.5 30t99.5 28t60 19.5q4 2 8.5 5t4.5 9q-4 27 -17.5 60.5t-37 63.5t-58.5 49.5t-82 19.5q-41 0 -74.5 -21.5t-58.5 -60.5t-39 -93.5t-12 -119.5z" />
<glyph unicode="&#xe7;" horiz-adv-x="759" d="M74 373q0 111 48 203t150 153q27 14 58.5 29.5t64.5 26t65 17.5t58 7q53 0 86 -7t62 -20q12 -6 32.5 -19t24.5 -30q0 -10 -4 -22q-10 -16 -26.5 -35t-26.5 -23t-19 0q-29 29 -81 59.5t-132 30.5q-61 0 -106 -26.5t-75 -67.5t-45 -94t-15 -104q0 -86 19 -155t58 -112 q49 -59 105.5 -83.5t128.5 -24.5q51 0 113.5 23.5t111.5 76.5q6 0 6 -6t-1 -18.5t-5 -18.5q-66 -76 -134.5 -109.5t-125.5 -43.5l-35 -50q29 -16 48.5 -29.5t35.5 -29.5q41 -37 41 -86q0 -37 -21.5 -67.5t-51 -52t-61.5 -34t-52 -12.5q-33 0 -56.5 15.5t-37.5 37.5 q-4 20 6 31q29 -16 59.5 -23.5t56.5 -7.5q35 0 56.5 17.5t21.5 44.5t-27.5 58.5t-101.5 64.5v6v8q14 18 27 37q10 16 23.5 33.5t25.5 33.5h-6q-94 0 -157.5 35t-110.5 101q-39 53 -58.5 121.5t-19.5 140.5z" />
<glyph unicode="&#xe8;" horiz-adv-x="774" d="M74 383q0 127 45 217t127 143q18 12 45.5 24.5t56.5 22t55.5 14.5t45.5 5q70 0 116.5 -30.5t77.5 -73.5t45 -91.5t21 -83.5q2 -4 6 -8t20 -6q2 -4 -1 -14t-7 -13q-33 -10 -97.5 -18t-140 -14t-154.5 -9.5t-140 -5.5q-6 0 -9.5 -7t-3.5 -15q0 -66 20.5 -130.5t55.5 -105.5 q47 -59 106.5 -83.5t124.5 -24.5q59 0 113 17.5t113 70.5q6 0 6 -4q2 -8 0 -19.5t-4 -15.5q-76 -78 -158 -114t-149 -36q-76 0 -134.5 26t-99.5 73q-57 66 -79.5 148.5t-22.5 160.5zM188 504q0 -12 7 -12q23 -2 79 -1t117.5 3t113.5 5t70 7q4 2 8.5 6t4.5 10q-4 37 -18.5 78 t-40 76t-61.5 57.5t-85 22.5q-74 0 -129 -63.5t-66 -188.5zM256 1190v4q0 4 2 6q4 2 17.5 4t31 4t34 2t24.5 -2q6 -16 20 -52l31.5 -81t35 -92t31.5 -86q-2 -4 -12 -8t-14 -2q-16 23 -45 65.5t-59.5 90t-57.5 88t-39 59.5z" />
<glyph unicode="&#xe9;" horiz-adv-x="774" d="M74 383q0 127 45 217t127 143q18 12 45.5 24.5t56.5 22t55.5 14.5t45.5 5q70 0 116.5 -30.5t77.5 -73.5t45 -91.5t21 -83.5q2 -4 6 -8t20 -6q2 -4 -1 -14t-7 -13q-33 -10 -97.5 -18t-140 -14t-154.5 -9.5t-140 -5.5q-6 0 -9.5 -7t-3.5 -15q0 -66 20.5 -130.5t55.5 -105.5 q47 -59 106.5 -83.5t124.5 -24.5q59 0 113 17.5t113 70.5q6 0 6 -4q2 -8 0 -19.5t-4 -15.5q-76 -78 -158 -114t-149 -36q-76 0 -134.5 26t-99.5 73q-57 66 -79.5 148.5t-22.5 160.5zM188 504q0 -12 7 -12q23 -2 79 -1t117.5 3t113.5 5t70 7q4 2 8.5 6t4.5 10q-4 37 -18.5 78 t-40 76t-61.5 57.5t-85 22.5q-74 0 -129 -63.5t-66 -188.5zM356 915q18 39 38 83t38.5 84t34 72t25.5 48q8 2 24 5t33.5 4t32 2t18.5 -1t5 -7t-1 -7q-12 -18 -42 -59t-65.5 -87t-68.5 -89t-49 -64q-4 0 -12.5 6t-10.5 10z" />
<glyph unicode="&#xea;" horiz-adv-x="774" d="M74 383q0 127 45 217t127 143q18 12 45.5 24.5t56.5 22t55.5 14.5t45.5 5q70 0 116.5 -30.5t77.5 -73.5t45 -91.5t21 -83.5q2 -4 6 -8t20 -6q2 -4 -1 -14t-7 -13q-33 -10 -97.5 -18t-140 -14t-154.5 -9.5t-140 -5.5q-6 0 -9.5 -7t-3.5 -15q0 -66 20.5 -130.5t55.5 -105.5 q47 -59 106.5 -83.5t124.5 -24.5q59 0 113 17.5t113 70.5q6 0 6 -4q2 -8 0 -19.5t-4 -15.5q-76 -78 -158 -114t-149 -36q-76 0 -134.5 26t-99.5 73q-57 66 -79.5 148.5t-22.5 160.5zM188 504q0 -12 7 -12q23 -2 79 -1t117.5 3t113.5 5t70 7q4 2 8.5 6t4.5 10q-4 37 -18.5 78 t-40 76t-61.5 57.5t-85 22.5q-74 0 -129 -63.5t-66 -188.5zM248 907q12 20 35.5 59.5t49 84.5t49.5 88t34 69q2 4 14 9.5t19 5.5q8 -27 30.5 -72t47 -92t48 -87t33.5 -54q-4 -8 -26.5 -11.5t-28.5 -1.5q-4 2 -20.5 25.5t-36 54.5t-39 63.5t-31.5 55.5q-4 4 -8 0 q-12 -23 -29.5 -51.5t-36 -56t-34 -49t-23.5 -27.5q-8 -8 -23.5 -13.5t-17.5 -5.5q-6 0 -6 6z" />
<glyph unicode="&#xeb;" horiz-adv-x="774" d="M74 383q0 127 45 217t127 143q18 12 45.5 24.5t56.5 22t55.5 14.5t45.5 5q70 0 116.5 -30.5t77.5 -73.5t45 -91.5t21 -83.5q2 -4 6 -8t20 -6q2 -4 -1 -14t-7 -13q-33 -10 -97.5 -18t-140 -14t-154.5 -9.5t-140 -5.5q-6 0 -9.5 -7t-3.5 -15q0 -66 20.5 -130.5t55.5 -105.5 q47 -59 106.5 -83.5t124.5 -24.5q59 0 113 17.5t113 70.5q6 0 6 -4q2 -8 0 -19.5t-4 -15.5q-76 -78 -158 -114t-149 -36q-76 0 -134.5 26t-99.5 73q-57 66 -79.5 148.5t-22.5 160.5zM188 504q0 -12 7 -12q23 -2 79 -1t117.5 3t113.5 5t70 7q4 2 8.5 6t4.5 10q-4 37 -18.5 78 t-40 76t-61.5 57.5t-85 22.5q-74 0 -129 -63.5t-66 -188.5zM223 1094q0 23 8 36q10 10 29 18.5t37 8.5q16 0 28.5 -5t16.5 -9q8 -8 11 -20.5t3 -18.5q0 -27 -10 -47.5t-27 -24.5q-6 -4 -28.5 -6t-30.5 2q-37 14 -37 66zM518 1094q0 23 8 36q10 10 28.5 18.5t37.5 8.5 q16 0 28.5 -5t16.5 -9q8 -8 11 -20.5t3 -18.5q0 -27 -10 -47.5t-27 -24.5q-6 -4 -28.5 -6t-30.5 2q-37 14 -37 66z" />
<glyph unicode="&#xec;" horiz-adv-x="413" d="M25 1190v4q0 4 2 6q4 2 17 4t30.5 4t34 2t24.5 -2q6 -16 20.5 -52t32 -81t35 -92t31.5 -86q-2 -4 -12.5 -8t-14.5 -2q-16 23 -44.5 65.5t-59.5 90t-57.5 88t-38.5 59.5zM27 9q0 11 4 16q23 4 45 7t39 11q16 8 24 22.5t13 61.5q2 18 3 57t1 86v98.5v94.5q0 61 -1 108 t-1 74q0 10 -1 17.5t-10 19.5q-16 16 -37.5 24.5t-50.5 14.5q-4 4 -3 15.5t3 15.5q47 4 105.5 17t111.5 40q0 -23 -1 -61.5t-2 -86t-1 -99.5v-99v-182.5t2 -171.5q0 -53 43 -68q18 -6 30.5 -9t47.5 -7q0 -4 -1 -16.5t-5 -14.5q-29 0 -81 3t-95 3q-59 0 -107.5 -3t-70.5 -3 q-4 4 -4 15z" />
<glyph unicode="&#xed;" horiz-adv-x="413" d="M27 9q0 11 4 16q23 4 45 7t39 11q16 8 24 22.5t13 61.5q2 18 3 57t1 86v98.5v94.5q0 61 -1 108t-1 74q0 10 -1 17.5t-10 19.5q-16 16 -37.5 24.5t-50.5 14.5q-4 4 -3 15.5t3 15.5q47 4 105.5 17t111.5 40q0 -23 -1 -61.5t-2 -86t-1 -99.5v-99v-182.5t2 -171.5 q0 -53 43 -68q18 -6 30.5 -9t47.5 -7q0 -4 -1 -16.5t-5 -14.5q-29 0 -81 3t-95 3q-59 0 -107.5 -3t-70.5 -3q-4 4 -4 15zM164 899q18 39 37.5 83t38 84t34 72t25.5 48q8 2 24.5 5t34 4t31.5 2t19 -1q4 -2 5 -7t-1 -7q-12 -18 -42 -59.5t-66 -87.5t-68.5 -89t-49.5 -63 q-4 0 -12 6t-10 10z" />
<glyph unicode="&#xee;" horiz-adv-x="413" d="M16 907q12 20 36 59.5t49.5 84.5t49 88t33.5 69q2 4 14.5 9.5t18.5 5.5q8 -27 30.5 -72t47 -92t48.5 -87t34 -54q-4 -8 -26.5 -11.5t-28.5 -1.5q-4 2 -20.5 25.5t-36 54.5t-39 63.5t-31.5 55.5q-5 4 -9 0q-12 -23 -29.5 -51.5t-36 -56t-33.5 -49t-24 -27.5 q-8 -8 -23 -13.5t-17 -5.5q-6 0 -7 6zM27 9q0 11 4 16q23 4 45 7t39 11q16 8 24 22.5t13 61.5q2 18 3 57t1 86v98.5v94.5q0 61 -1 108t-1 74q0 10 -1 17.5t-10 19.5q-16 16 -37.5 24.5t-50.5 14.5q-4 4 -3 15.5t3 15.5q47 4 105.5 17t111.5 40q0 -23 -1 -61.5t-2 -86 t-1 -99.5v-99v-182.5t2 -171.5q0 -53 43 -68q18 -6 30.5 -9t47.5 -7q0 -4 -1 -16.5t-5 -14.5q-29 0 -81 3t-95 3q-59 0 -107.5 -3t-70.5 -3q-4 4 -4 15z" />
<glyph unicode="&#xef;" horiz-adv-x="413" d="M-8 1094q0 23 8 36q10 10 28.5 18.5t37.5 8.5q16 0 28 -5t17 -9q8 -8 11 -20.5t3 -18.5q0 -27 -10.5 -47.5t-26.5 -24.5q-6 -4 -28.5 -6t-30.5 2q-37 14 -37 66zM27 9q0 11 4 16q23 4 45 7t39 11q16 8 24 22.5t13 61.5q2 18 3 57t1 86v98.5v94.5q0 61 -1 108t-1 74 q0 10 -1 17.5t-10 19.5q-16 16 -37.5 24.5t-50.5 14.5q-4 4 -3 15.5t3 15.5q47 4 105.5 17t111.5 40q0 -23 -1 -61.5t-2 -86t-1 -99.5v-99v-182.5t2 -171.5q0 -53 43 -68q18 -6 30.5 -9t47.5 -7q0 -4 -1 -16.5t-5 -14.5q-29 0 -81 3t-95 3q-59 0 -107.5 -3t-70.5 -3 q-4 4 -4 15zM287 1094q0 23 8 36q10 10 28.5 18.5t36.5 8.5q16 0 28.5 -5t17.5 -9q8 -8 11 -20.5t3 -18.5q0 -27 -10.5 -47.5t-26.5 -24.5q-6 -4 -28.5 -6t-30.5 2q-37 14 -37 66z" />
<glyph unicode="&#xf0;" horiz-adv-x="913" d="M74 395q0 121 49 201t125 133q41 29 108.5 54.5t139.5 25.5t111.5 -10.5t80.5 -26.5q-16 74 -48 151.5t-97 155.5l-230 -108q-2 0 -4 6t-3 14t0 16.5t5 10.5l203 100q-76 94 -173 157.5t-218 104.5q-2 4 2 16.5t8 14.5q18 0 66.5 -14.5t113 -45t139 -78.5t146.5 -118 l193 92q2 0 4 -21.5t-2 -23.5l-164 -82q43 -53 81 -120.5t67.5 -142.5t46 -157t16.5 -165q0 -193 -50.5 -316t-156.5 -194q-41 -25 -88 -36.5t-96 -11.5q-86 0 -155 30t-118 84t-75.5 131t-26.5 173zM201 432q0 -98 23.5 -176t63.5 -131t89 -81t102 -28q43 0 86 20.5t77 72 t55.5 135.5t21.5 211q0 53 -8.5 113.5t-24.5 82.5q-47 66 -109.5 89.5t-134.5 23.5q-37 0 -78.5 -15.5t-77.5 -54.5t-60.5 -102.5t-24.5 -159.5z" />
<glyph unicode="&#xf1;" horiz-adv-x="937" d="M33 9.5q0 11.5 4 15.5q23 4 41 7t35 9q23 10 30 32.5t9 47.5q4 57 4 148v196q0 88 -2 131t-4 53q-4 20 -21.5 30.5t-77.5 27.5q-2 4 0 14t6 12q51 8 113.5 30.5t99.5 45.5q6 0 6 -8q-4 -33 -5 -63.5t-3 -57.5q0 -4 2 -8t6 0q100 78 171 107.5t118 29.5q59 0 103.5 -27.5 t74.5 -74.5q29 -43 39.5 -101.5t10.5 -134.5v-92t1 -102.5t1 -99.5v-81q0 -23 6 -35t24 -18q23 -8 43.5 -11t44.5 -7q4 -4 2 -15.5t-6 -15.5q-23 0 -61.5 3t-110.5 3t-118 -2t-72 -4q-4 4 -4 15t4 16q63 6 86 14q25 8 33 23.5t10 35.5q2 35 2 97.5v127t-2 122t-4 81.5 q-4 25 -15.5 68t-42.5 72q-23 23 -53.5 38t-83.5 15q-106 0 -186 -80q-12 -12 -17.5 -29.5t-5.5 -58.5v-121.5v-116t1 -103.5t3 -81q2 -43 9.5 -59.5t23.5 -24.5q14 -6 42 -10t52 -8q2 -4 2 -16.5t-4 -16.5q-16 0 -58 3t-126 3t-120 -3t-56 -3q-4 4 -4 15.5zM244 993 q-2 6 0 16.5t4 12.5q6 10 23.5 25.5t39 31t44 26.5t40.5 11q23 0 44.5 -4t49.5 -12q25 -6 51 -13.5t42 -7.5t44.5 9.5t69.5 48.5q4 -4 4 -7q0 -6 -1 -15t-3 -11q-8 -14 -26.5 -30.5t-41 -32t-46 -25.5t-41.5 -10q-25 0 -50.5 6t-66.5 18q-16 4 -33.5 8t-34.5 4 q-23 0 -49 -11t-57 -40q-2 -2 -6 2z" />
<glyph unicode="&#xf2;" horiz-adv-x="931" d="M76 399q0 117 47 197t125 133q53 35 118.5 57.5t133.5 22.5q86 0 153.5 -30.5t112.5 -85t68.5 -126t23.5 -153.5q0 -106 -46 -205.5t-140 -159.5q-39 -27 -97.5 -50.5t-119.5 -23.5q-109 0 -180.5 39t-116.5 100.5t-63.5 136.5t-18.5 148zM201 446q0 -86 22.5 -160.5 t63.5 -130t97 -87t126 -31.5q33 0 73 11t68 40q49 49 65.5 111.5t16.5 148.5t-20.5 160t-59.5 128t-96 85t-131 31q-25 0 -58.5 -8.5t-54.5 -24.5q-39 -25 -75.5 -88.5t-36.5 -184.5zM287 1190v4q0 4 2 6q4 2 17 4t30.5 4t34 2t24.5 -2q6 -16 20.5 -52t32 -81t35 -92 t31.5 -86q-2 -4 -12 -8t-15 -2q-16 23 -44.5 65.5t-59.5 90t-57.5 88t-38.5 59.5z" />
<glyph unicode="&#xf3;" horiz-adv-x="931" d="M76 399q0 117 47 197t125 133q53 35 118.5 57.5t133.5 22.5q86 0 153.5 -30.5t112.5 -85t68.5 -126t23.5 -153.5q0 -106 -46 -205.5t-140 -159.5q-39 -27 -97.5 -50.5t-119.5 -23.5q-109 0 -180.5 39t-116.5 100.5t-63.5 136.5t-18.5 148zM201 446q0 -86 22.5 -160.5 t63.5 -130t97 -87t126 -31.5q33 0 73 11t68 40q49 49 65.5 111.5t16.5 148.5t-20.5 160t-59.5 128t-96 85t-131 31q-25 0 -58.5 -8.5t-54.5 -24.5q-39 -25 -75.5 -88.5t-36.5 -184.5zM406 899q18 39 37.5 83t38 84t34 72t25.5 48q8 2 24.5 5t33.5 4t31.5 2t18.5 -1t5 -7 t-1 -7q-12 -18 -41.5 -59.5t-65.5 -87.5t-69 -89t-49 -63q-4 0 -12 6t-10 10z" />
<glyph unicode="&#xf4;" horiz-adv-x="931" d="M76 399q0 117 47 197t125 133q53 35 118.5 57.5t133.5 22.5q86 0 153.5 -30.5t112.5 -85t68.5 -126t23.5 -153.5q0 -106 -46 -205.5t-140 -159.5q-39 -27 -97.5 -50.5t-119.5 -23.5q-109 0 -180.5 39t-116.5 100.5t-63.5 136.5t-18.5 148zM201 446q0 -86 22.5 -160.5 t63.5 -130t97 -87t126 -31.5q33 0 73 11t68 40q49 49 65.5 111.5t16.5 148.5t-20.5 160t-59.5 128t-96 85t-131 31q-25 0 -58.5 -8.5t-54.5 -24.5q-39 -25 -75.5 -88.5t-36.5 -184.5zM279 907q12 20 35.5 59.5t49 84.5t49 88t33.5 69q2 4 14.5 9.5t18.5 5.5q8 -27 30.5 -72 t47.5 -92t48.5 -87t33.5 -54q-4 -8 -26.5 -11.5t-28.5 -1.5q-4 2 -20.5 25.5t-36 54.5t-39 63.5t-31.5 55.5q-4 4 -8 0q-12 -23 -30 -51.5t-36 -56t-33.5 -49t-23.5 -27.5q-8 -8 -23.5 -13.5t-17.5 -5.5q-6 0 -6 6z" />
<glyph unicode="&#xf5;" horiz-adv-x="931" d="M76 399q0 117 47 197t125 133q53 35 118.5 57.5t133.5 22.5q86 0 153.5 -30.5t112.5 -85t68.5 -126t23.5 -153.5q0 -106 -46 -205.5t-140 -159.5q-39 -27 -97.5 -50.5t-119.5 -23.5q-109 0 -180.5 39t-116.5 100.5t-63.5 136.5t-18.5 148zM201 446q0 -86 22.5 -160.5 t63.5 -130t97 -87t126 -31.5q33 0 73 11t68 40q49 49 65.5 111.5t16.5 148.5t-20.5 160t-59.5 128t-96 85t-131 31q-25 0 -58.5 -8.5t-54.5 -24.5q-39 -25 -75.5 -88.5t-36.5 -184.5zM244 993q-2 6 0 16.5t4 12.5q6 10 23.5 25.5t39 31t44 26.5t40.5 11q23 0 44.5 -4 t49.5 -12q25 -6 51 -13.5t42 -7.5t44.5 9.5t69.5 48.5q4 -4 4 -7q0 -6 -1 -15t-3 -11q-8 -14 -26.5 -30.5t-41 -32t-46 -25.5t-41.5 -10q-25 0 -50.5 6t-66.5 18q-16 4 -33.5 8t-34.5 4q-23 0 -49 -11t-57 -40q-2 -2 -6 2z" />
<glyph unicode="&#xf6;" horiz-adv-x="931" d="M76 399q0 117 47 197t125 133q53 35 118.5 57.5t133.5 22.5q86 0 153.5 -30.5t112.5 -85t68.5 -126t23.5 -153.5q0 -106 -46 -205.5t-140 -159.5q-39 -27 -97.5 -50.5t-119.5 -23.5q-109 0 -180.5 39t-116.5 100.5t-63.5 136.5t-18.5 148zM201 446q0 -86 22.5 -160.5 t63.5 -130t97 -87t126 -31.5q33 0 73 11t68 40q49 49 65.5 111.5t16.5 148.5t-20.5 160t-59.5 128t-96 85t-131 31q-25 0 -58.5 -8.5t-54.5 -24.5q-39 -25 -75.5 -88.5t-36.5 -184.5zM254 1094q0 23 8 36q10 10 28.5 18.5t37.5 8.5q16 0 28.5 -5t16.5 -9q8 -8 11 -20.5 t3 -18.5q0 -27 -10 -47.5t-27 -24.5q-6 -4 -28.5 -6t-30.5 2q-37 14 -37 66zM549 1094q0 23 8 36q10 10 28.5 18.5t37.5 8.5q16 0 28.5 -5t16.5 -9q8 -8 11 -20.5t3 -18.5q0 -27 -10 -47.5t-27 -24.5q-6 -4 -28.5 -6t-30.5 2q-37 14 -37 66z" />
<glyph unicode="&#xf7;" horiz-adv-x="942" d="M78 428l20 68q12 -4 66.5 -3t132.5 1h571q4 0 5 -8.5t-1 -12.5q-2 -6 -9 -30.5t-17 -26.5l-764 -4q-2 0 -3 6t-1 10zM401 197q0 4 4.5 22.5t6.5 20.5q10 10 32.5 17t38.5 7q35 0 47 -12q4 -4 7.5 -17.5t3.5 -19.5q0 -25 -5.5 -40t-19.5 -32q-2 -2 -12 -5t-23.5 -4t-26 -1 t-18.5 4q-16 14 -25.5 31.5t-9.5 28.5zM401 717q0 4 4.5 23.5t6.5 21.5q10 10 32.5 17t38.5 7q35 0 47 -12q4 -4 7.5 -14.5t3.5 -18.5q0 -27 -10.5 -44t-24.5 -33q-2 -2 -12.5 -5.5t-21.5 -4.5t-22.5 0t-17.5 5q-18 14 -24.5 31t-6.5 27z" />
<glyph unicode="&#xf8;" horiz-adv-x="931" d="M76 399q0 117 47 197t125 133q53 35 118.5 57.5t133.5 22.5q51 0 95 -11.5t83 -31.5l51 80q4 2 17.5 -10.5t15.5 -16.5l-51 -76q72 -53 109.5 -139t37.5 -190q0 -106 -46 -205.5t-140 -159.5q-39 -27 -97.5 -50.5t-119.5 -23.5q-63 0 -113.5 14.5t-91.5 39.5l-55 -88 q-4 0 -18.5 11t-16.5 15l53 86q-76 63 -106.5 157.5t-30.5 188.5zM195 442q0 -66 17 -147.5t69 -140.5l342 528q-29 27 -74 48.5t-117 21.5q-109 0 -173 -75t-64 -235zM309 119q23 -25 71 -53.5t130 -28.5q63 0 106 26.5t71 70.5t40 100.5t12 115.5q0 66 -17 150t-69 151z " />
<glyph unicode="&#xf9;" horiz-adv-x="913" d="M16 737q-2 4 0 16.5t7 14.5q29 0 64.5 3t70.5 8t63.5 10.5t42.5 11.5q-2 -12 -4 -28.5t-3 -56.5t-2 -114t-1 -199q0 -53 2 -113.5t10 -90.5q12 -51 51 -92t127 -41q63 0 103.5 19t75.5 48q25 18 28 64q0 14 1 75.5t0 136t-2 145.5t-3 105q-2 16 -8 34t-33 26q-20 6 -55 9 t-80 7q-4 4 -2 17.5t6 15.5q35 0 79 3t87 8t78 10.5t53 11.5q-4 -29 -6 -86.5t-2 -126.5l2 -412q0 -74 13.5 -90t49.5 -16q23 0 33 1t27 5q2 -4 2 -17.5t-4 -17.5q-27 -6 -59.5 -16.5t-63.5 -20.5t-58.5 -21.5t-46.5 -19.5q-4 -2 -8 3t-4 14q0 20 1 56t1 60q0 4 -4 7t-8 -1 q-90 -76 -155.5 -101.5t-108.5 -25.5q-76 0 -122 25t-70.5 64.5t-33 89t-8.5 100.5v90v109.5v108.5t-2 87q-2 25 -6 43.5t-20 26.5q-12 6 -39 10t-56 8zM254 1190v4q0 4 2 6q4 2 17.5 4t31 4t33.5 2t24 -2q6 -16 20.5 -52t32 -81t35 -92t31.5 -86q-2 -4 -12 -8t-14 -2 q-16 23 -45 65.5t-60 90t-57.5 88t-38.5 59.5z" />
<glyph unicode="&#xfa;" horiz-adv-x="913" d="M16 737q-2 4 0 16.5t7 14.5q29 0 64.5 3t70.5 8t63.5 10.5t42.5 11.5q-2 -12 -4 -28.5t-3 -56.5t-2 -114t-1 -199q0 -53 2 -113.5t10 -90.5q12 -51 51 -92t127 -41q63 0 103.5 19t75.5 48q25 18 28 64q0 14 1 75.5t0 136t-2 145.5t-3 105q-2 16 -8 34t-33 26q-20 6 -55 9 t-80 7q-4 4 -2 17.5t6 15.5q35 0 79 3t87 8t78 10.5t53 11.5q-4 -29 -6 -86.5t-2 -126.5l2 -412q0 -74 13.5 -90t49.5 -16q23 0 33 1t27 5q2 -4 2 -17.5t-4 -17.5q-27 -6 -59.5 -16.5t-63.5 -20.5t-58.5 -21.5t-46.5 -19.5q-4 -2 -8 3t-4 14q0 20 1 56t1 60q0 4 -4 7t-8 -1 q-90 -76 -155.5 -101.5t-108.5 -25.5q-76 0 -122 25t-70.5 64.5t-33 89t-8.5 100.5v90v109.5v108.5t-2 87q-2 25 -6 43.5t-20 26.5q-12 6 -39 10t-56 8zM393 899q18 39 38 83t38 84t33.5 72t25.5 48q8 2 24.5 5t34 4t32 2t18.5 -1t5 -7t-1 -7q-12 -18 -42 -59.5t-65.5 -87.5 t-68.5 -89t-49 -63q-4 0 -12.5 6t-10.5 10z" />
<glyph unicode="&#xfb;" horiz-adv-x="913" d="M16 737q-2 4 0 16.5t7 14.5q29 0 64.5 3t70.5 8t63.5 10.5t42.5 11.5q-2 -12 -4 -28.5t-3 -56.5t-2 -114t-1 -199q0 -53 2 -113.5t10 -90.5q12 -51 51 -92t127 -41q63 0 103.5 19t75.5 48q25 18 28 64q0 14 1 75.5t0 136t-2 145.5t-3 105q-2 16 -8 34t-33 26q-20 6 -55 9 t-80 7q-4 4 -2 17.5t6 15.5q35 0 79 3t87 8t78 10.5t53 11.5q-4 -29 -6 -86.5t-2 -126.5l2 -412q0 -74 13.5 -90t49.5 -16q23 0 33 1t27 5q2 -4 2 -17.5t-4 -17.5q-27 -6 -59.5 -16.5t-63.5 -20.5t-58.5 -21.5t-46.5 -19.5q-4 -2 -8 3t-4 14q0 20 1 56t1 60q0 4 -4 7t-8 -1 q-90 -76 -155.5 -101.5t-108.5 -25.5q-76 0 -122 25t-70.5 64.5t-33 89t-8.5 100.5v90v109.5v108.5t-2 87q-2 25 -6 43.5t-20 26.5q-12 6 -39 10t-56 8zM266 907q12 20 36 59.5t49.5 84.5t49 88t33.5 69q2 4 14.5 9.5t18.5 5.5q8 -27 30.5 -72t47 -92t48 -87t34.5 -54 q-4 -8 -26.5 -11.5t-29.5 -1.5q-4 2 -20 25.5t-35.5 54.5t-39 63.5t-32.5 55.5q-4 4 -8 0q-12 -23 -29.5 -51.5t-36 -56t-33.5 -49t-24 -27.5q-8 -8 -23.5 -13.5t-17.5 -5.5q-6 0 -6 6z" />
<glyph unicode="&#xfc;" horiz-adv-x="913" d="M16 737q-2 4 0 16.5t7 14.5q29 0 64.5 3t70.5 8t63.5 10.5t42.5 11.5q-2 -12 -4 -28.5t-3 -56.5t-2 -114t-1 -199q0 -53 2 -113.5t10 -90.5q12 -51 51 -92t127 -41q63 0 103.5 19t75.5 48q25 18 28 64q0 14 1 75.5t0 136t-2 145.5t-3 105q-2 16 -8 34t-33 26q-20 6 -55 9 t-80 7q-4 4 -2 17.5t6 15.5q35 0 79 3t87 8t78 10.5t53 11.5q-4 -29 -6 -86.5t-2 -126.5l2 -412q0 -74 13.5 -90t49.5 -16q23 0 33 1t27 5q2 -4 2 -17.5t-4 -17.5q-27 -6 -59.5 -16.5t-63.5 -20.5t-58.5 -21.5t-46.5 -19.5q-4 -2 -8 3t-4 14q0 20 1 56t1 60q0 4 -4 7t-8 -1 q-90 -76 -155.5 -101.5t-108.5 -25.5q-76 0 -122 25t-70.5 64.5t-33 89t-8.5 100.5v90v109.5v108.5t-2 87q-2 25 -6 43.5t-20 26.5q-12 6 -39 10t-56 8zM219 1094q0 23 8 36q10 10 28.5 18.5t37.5 8.5q16 0 28.5 -5t16.5 -9q8 -8 11 -20.5t3 -18.5q0 -27 -10 -47.5 t-27 -24.5q-6 -4 -28.5 -6t-30.5 2q-37 14 -37 66zM514 1094q0 23 8 36q10 10 28.5 18.5t37.5 8.5q16 0 28.5 -5t16.5 -9q8 -8 11 -20.5t3 -18.5q0 -27 -10 -47.5t-27 -24.5q-6 -4 -28.5 -6t-30.5 2q-37 14 -37 66z" />
<glyph unicode="&#xfd;" horiz-adv-x="786" d="M-25 772q2 12 7 14q27 0 59.5 -3t108.5 -3q55 0 106 3t61 3q4 -4 5.5 -15t-3.5 -15q-23 -4 -39 -8.5t-30 -8.5q-20 -8 -14 -28q4 -18 20 -65.5t38.5 -109t47.5 -127t46.5 -121t35.5 -93t16 -39.5h4q27 59 56.5 130.5t56.5 143.5t46.5 137.5t27.5 112.5q4 16 -1 33.5 t-40 27.5q-12 4 -31.5 7.5t-44.5 7.5q-4 4 -2 15t6 15q14 0 64.5 -3t97.5 -3q51 0 81 2t70 4q4 -4 4.5 -15t-4.5 -15q-41 -6 -57 -13q-25 -6 -42 -21t-32 -52q-55 -154 -110 -294t-115.5 -275.5t-127 -268.5t-144.5 -274q-16 -29 -38 -62t-32 -53l-10 -4q-18 4 -40 19.5 t-32 27.5q0 4 -2 9t0 9q27 35 68 91.5t87 124t90 142.5t77 146q2 -2 -4.5 12.5t-8.5 18.5q-14 41 -38.5 107.5t-52 141t-56.5 149.5t-53 134q-35 88 -54.5 123t-52.5 45q-14 4 -29.5 8.5t-44.5 8.5q-4 4 -2 16zM391 899q18 39 38 83t38 84t33.5 72t25.5 48q8 2 24.5 5t34 4 t32 2t18.5 -1t5 -7t-1 -7q-12 -18 -42 -59.5t-65.5 -87.5t-68.5 -89t-49 -63q-4 0 -12.5 6t-10.5 10z" />
<glyph unicode="&#xfe;" horiz-adv-x="919" d="M-7 1343.5q1 12.5 5 14.5q74 4 145.5 23.5t118.5 35.5q2 0 4 -4t2 -8q-6 -8 -9 -25.5t-6 -59.5t-4 -116t-1 -192v-109.5t1 -95.5t1 -72.5v-40.5q0 -10 10 -4q82 53 161 86t118 33q78 0 131 -29.5t92 -77.5q49 -59 64.5 -128.5t15.5 -114.5q0 -135 -53.5 -231.5 t-135.5 -151.5q-51 -37 -129 -65.5t-153 -35.5q-23 -2 -60 3.5t-59 9.5v-149.5v-107.5t1 -79t3 -64q4 -51 14.5 -65.5t46.5 -20.5q20 -4 43 -5t58 -5q0 -4 -1 -16.5t-5 -16.5q-23 -2 -58 -1t-49 1q-113 -2 -190.5 -12t-112.5 -12q-4 6 -3 18.5t3 16.5q16 4 41 10t41 12 q27 10 36 28.5t11 59.5q2 29 3 78t2 148.5t1 263v422.5v201.5t-2 228t-4 201.5t-4 122q-4 35 -7 45t-18 19q-16 10 -45.5 13t-62.5 5q-2 4 -1 16.5zM250 413.5q0 -75.5 1 -147t1 -104.5q0 -25 6 -39t16 -25q31 -25 75 -38t106 -13q57 0 101 17.5t83 58.5t60.5 108.5 t21.5 149.5q0 78 -18.5 135t-49.5 98q-43 55 -93 79t-116 24q-47 0 -90 -17.5t-78 -37.5q-6 -4 -14 -14.5t-10 -20.5q-2 -12 -2 -75v-138.5z" />
<glyph unicode="&#xff;" horiz-adv-x="786" d="M-25 772q2 12 7 14q27 0 59.5 -3t108.5 -3q55 0 106 3t61 3q4 -4 5.5 -15t-3.5 -15q-23 -4 -39 -8.5t-30 -8.5q-20 -8 -14 -28q4 -18 20 -65.5t38.5 -109t47.5 -127t46.5 -121t35.5 -93t16 -39.5h4q27 59 56.5 130.5t56.5 143.5t46.5 137.5t27.5 112.5q4 16 -1 33.5 t-40 27.5q-12 4 -31.5 7.5t-44.5 7.5q-4 4 -2 15t6 15q14 0 64.5 -3t97.5 -3q51 0 81 2t70 4q4 -4 4.5 -15t-4.5 -15q-41 -6 -57 -13q-25 -6 -42 -21t-32 -52q-55 -154 -110 -294t-115.5 -275.5t-127 -268.5t-144.5 -274q-16 -29 -38 -62t-32 -53l-10 -4q-18 4 -40 19.5 t-32 27.5q0 4 -2 9t0 9q27 35 68 91.5t87 124t90 142.5t77 146q2 -2 -4.5 12.5t-8.5 18.5q-14 41 -38.5 107.5t-52 141t-56.5 149.5t-53 134q-35 88 -54.5 123t-52.5 45q-14 4 -29.5 8.5t-44.5 8.5q-4 4 -2 16zM219 1094q0 23 8 36q10 10 28.5 18.5t37.5 8.5q16 0 28.5 -5 t16.5 -9q8 -8 11 -20.5t3 -18.5q0 -27 -10 -47.5t-27 -24.5q-6 -4 -28.5 -6t-30.5 2q-37 14 -37 66zM514 1094q0 23 8 36q10 10 28.5 18.5t37.5 8.5q16 0 28.5 -5t16.5 -9q8 -8 11 -20.5t3 -18.5q0 -27 -10 -47.5t-27 -24.5q-6 -4 -28.5 -6t-30.5 2q-37 14 -37 66z" />
<glyph unicode="&#x152;" horiz-adv-x="1972" d="M104 641q0 111 30 207t83 176q43 61 103.5 111.5t132 85t149.5 53t156 18.5q47 0 89 -5t83 -15q18 -4 49 -8t65 -7h580h60.5t60.5 1.5t51.5 2.5t34.5 3q6 0 6 -7q-6 -25 -12 -62.5t-11.5 -77.5t-8.5 -78t-5 -62q-4 -4 -18.5 -5t-18.5 3q-2 31 -9 75t-13 64 q-12 35 -31.5 57.5t-85.5 26.5q-14 0 -54 1t-94.5 2t-115 1h-112.5h-92t-52 -2q-4 0 -5 -3t3 -7q131 -92 192.5 -224t69.5 -282q0 -8 6 -8h143.5t104.5 2q47 2 62.5 17.5t27.5 49.5q16 41 23 86q4 4 19 3.5t17 -5.5q-2 -12 -4 -37.5t-4 -55t-3 -58.5t-1 -45q0 -86 2 -124 t2 -58q-4 -2 -19.5 -3.5t-17.5 3.5q-2 14 -5 31.5t-7 33.5q-10 41 -29.5 64.5t-62.5 25.5q-23 0 -44.5 1t-48 1h-62.5h-87q-12 -4 -12 -12q-8 -164 -76.5 -294t-187.5 -222q-10 -8 -5 -12.5t9 -4.5q43 -4 110.5 -5t143.5 -3t146.5 -2h119.5q55 0 90 9.5t68 43.5 q25 29 56.5 83.5t53.5 113.5q4 2 16.5 -4t16.5 -10q-2 -16 -12 -55t-23.5 -82t-27 -83t-23.5 -59q-4 -8 -19.5 -14t-50.5 -6t-99 1t-145 2t-167 2t-163 2t-137.5 2t-84.5 1q-6 0 -19.5 -2t-19.5 -4q-104 -31 -213 -31q-133 0 -250 53.5t-195 139.5q-90 100 -131 226t-41 259 zM250 682q0 -78 15.5 -160t49 -158.5t85 -143t122.5 -114.5q55 -37 124 -57t155 -20q145 0 237 75q104 86 146.5 212t42.5 274q0 80 -13.5 158.5t-42 151.5t-73.5 134.5t-111 106.5q-59 43 -131 67.5t-162 24.5q-59 0 -110.5 -13.5t-94.5 -35.5q-123 -70 -181 -206t-58 -296 z" />
<glyph unicode="&#x153;" horiz-adv-x="1439" d="M74 399q0 117 47 195t125 131q53 35 120.5 59.5t135.5 24.5q86 0 158.5 -30.5t136.5 -114.5q0 -2 8 -2q2 0 4 2q23 27 55.5 53t70.5 46.5t79 33t82 12.5q68 0 113.5 -27.5t74.5 -66.5t43 -81t21 -69q-2 0 7 -5t25 -7l-12 -31q-8 -4 -42 -9t-82 -11t-104.5 -12.5 t-110.5 -12.5t-97 -10t-66 -6q-12 0 -12 -21q2 -76 20.5 -145.5t57.5 -116.5t97 -76.5t126 -29.5q53 0 108.5 19.5t114.5 72.5q2 -4 7.5 -15.5t3.5 -15.5q-74 -82 -166.5 -119t-159.5 -37q-74 0 -142.5 40t-121.5 112q-6 6 -15 2q-72 -78 -158.5 -117t-168.5 -39 q-109 0 -181.5 38t-117.5 98.5t-64.5 136.5t-19.5 151zM199 449q0 -86 23.5 -162t65.5 -132.5t99 -89t127 -32.5q33 0 73 11t70 42q41 43 62.5 103.5t21.5 172.5q0 86 -23.5 158t-64.5 124t-99 81t-128 29q-25 0 -60.5 -9.5t-56.5 -25.5q-39 -25 -74.5 -87.5t-35.5 -182.5z M856 512q0 -8 6 -8q29 2 82 7t108.5 11t101.5 11.5t63 9.5q4 2 8 8t4 12q-4 27 -18.5 61.5t-38 63.5t-57.5 49.5t-79 20.5q-72 0 -123 -63.5t-57 -182.5z" />
<glyph unicode="&#x178;" horiz-adv-x="1095" d="M-30 1246q1 11 5 16q45 0 105.5 -3.5t138.5 -3.5q20 0 48 1t52.5 2.5t45 2.5t30.5 1q6 -4 6 -15.5t-4 -15.5q-16 -2 -34.5 -5t-30.5 -7q-23 -6 -29 -21.5t12 -52.5q20 -45 60.5 -123t83.5 -159t79.5 -150.5t53.5 -98.5h8q27 47 66 115t77.5 140.5t73.5 139t53 111.5 q16 41 8 63.5t-55 33.5q-20 4 -37.5 7t-48.5 7q-4 4 -3 16.5t7 14.5q47 -2 101.5 -4.5t101.5 -2.5q59 0 102.5 1t104.5 6q4 -4 3 -15.5t-3 -15.5l-88 -17q-53 -10 -77.5 -43.5t-49.5 -74.5q-33 -55 -79 -134t-91 -159t-81 -146.5t-48 -95.5q-4 -10 -8 -30.5t-4 -30.5l4 -320 q2 -66 14 -100.5t59 -44.5q25 -4 40.5 -7t56.5 -8q2 -4 1 -14t-5 -12q-29 0 -100.5 3t-143.5 3q-78 0 -137.5 -3t-106.5 -3q-4 4 -4 13t4 13q35 4 64.5 8.5t52.5 8.5q45 10 56.5 41t13.5 80l4 288q0 23 -3 53.5t-10 45.5q-16 39 -45.5 99.5t-65.5 128t-72 136t-66 123.5 q-33 59 -55.5 93t-39 52.5t-33 25.5t-36.5 14q-20 6 -42 8t-57 6q-4 4 -3 15zM371 1427q0 23 8 37q10 10 28.5 18.5t36.5 8.5q16 0 28.5 -5t16.5 -9q8 -8 11.5 -20.5t3.5 -18.5q0 -27 -10.5 -47.5t-26.5 -24.5q-6 -4 -28.5 -6t-30.5 2q-37 14 -37 65zM674 1427q0 23 8 37 q10 10 28.5 18.5t37.5 8.5q16 0 28 -5t17 -9q8 -8 11 -20.5t3 -18.5q0 -27 -10.5 -47.5t-26.5 -24.5q-6 -4 -28.5 -6t-30.5 2q-37 14 -37 65z" />
<glyph unicode="&#x2c6;" horiz-adv-x="819" d="M219 907q12 20 36 59.5t49.5 84.5t49 88t33.5 69q2 4 14.5 9.5t18.5 5.5q8 -27 30.5 -72t47 -92t48 -87t34.5 -54q-4 -8 -27 -11.5t-29 -1.5q-4 2 -20.5 25.5t-35.5 54.5t-38.5 63.5t-32.5 55.5q-4 4 -8 0q-12 -23 -29.5 -51.5t-36 -56t-34 -49t-23.5 -27.5 q-8 -8 -23.5 -13.5t-17.5 -5.5q-6 0 -6 6z" />
<glyph unicode="&#x2dc;" horiz-adv-x="819" d="M184 993q-2 6 0 16.5t4 12.5q6 10 23.5 25.5t39 31t44 26.5t41.5 11q23 0 44 -4t50 -12q25 -6 50.5 -13.5t41.5 -7.5t45 9.5t70 48.5q4 -4 4 -7q0 -6 -1 -15t-3 -11q-8 -14 -26.5 -30.5t-41 -32t-46 -25.5t-42.5 -10q-25 0 -50 6t-66 18q-16 4 -34 8t-34 4 q-23 0 -49.5 -11t-57.5 -40q-2 -2 -6 2z" />
<glyph unicode="&#x2000;" horiz-adv-x="805" />
<glyph unicode="&#x2001;" horiz-adv-x="1610" />
<glyph unicode="&#x2002;" horiz-adv-x="805" />
<glyph unicode="&#x2003;" horiz-adv-x="1610" />
<glyph unicode="&#x2004;" horiz-adv-x="536" />
<glyph unicode="&#x2005;" horiz-adv-x="402" />
<glyph unicode="&#x2006;" horiz-adv-x="268" />
<glyph unicode="&#x2007;" horiz-adv-x="268" />
<glyph unicode="&#x2008;" horiz-adv-x="201" />
<glyph unicode="&#x2009;" horiz-adv-x="322" />
<glyph unicode="&#x200a;" horiz-adv-x="89" />
<glyph unicode="&#x2010;" horiz-adv-x="512" d="M66 375q0 4 1 15t3 23.5t5 21.5t7 9q20 0 70.5 1t107.5 3.5t109.5 4.5t74.5 2l2 -11q-2 -16 -7 -41.5t-13 -27.5q-6 -2 -57.5 -4t-112.5 -4t-116.5 -3.5t-71.5 -1.5z" />
<glyph unicode="&#x2011;" horiz-adv-x="512" d="M66 375q0 4 1 15t3 23.5t5 21.5t7 9q20 0 70.5 1t107.5 3.5t109.5 4.5t74.5 2l2 -11q-2 -16 -7 -41.5t-13 -27.5q-6 -2 -57.5 -4t-112.5 -4t-116.5 -3.5t-71.5 -1.5z" />
<glyph unicode="&#x2012;" horiz-adv-x="512" d="M66 375q0 4 1 15t3 23.5t5 21.5t7 9q20 0 70.5 1t107.5 3.5t109.5 4.5t74.5 2l2 -11q-2 -16 -7 -41.5t-13 -27.5q-6 -2 -57.5 -4t-112.5 -4t-116.5 -3.5t-71.5 -1.5z" />
<glyph unicode="&#x2013;" horiz-adv-x="1024" d="M61 367q0 8 7.5 27.5t11.5 21.5q2 0 67.5 1t163 1h210h209.5h162.5h70.5v-4q-2 -16 -5.5 -31.5t-7.5 -17.5t-68.5 -2.5t-160.5 -1.5t-208 -1h-209t-164.5 1t-76.5 1z" />
<glyph unicode="&#x2014;" horiz-adv-x="2048" d="M82 367q0 8 7 27.5t11 21.5h83t211 1t297 1h341h340h297h213h84v-4q-2 -16 -5 -31.5t-7 -17.5t-85 -2.5t-211 -1.5t-296 -1h-339h-339h-297t-214 1t-89 1z" />
<glyph unicode="&#x2018;" horiz-adv-x="339" d="M61 1100q0 45 19.5 85t50.5 71.5t66.5 54t68.5 32.5q2 0 8.5 -10t4.5 -14q-47 -23 -73 -45.5t-38 -44t-15 -40t-3 -34.5q0 -29 23.5 -54.5t55.5 -35.5q8 -4 2 -16q-2 -6 -12 -17.5t-22.5 -23t-25.5 -19.5t-21 -8q-39 0 -64 36t-25 83z" />
<glyph unicode="&#x2019;" horiz-adv-x="339" d="M61 1006q43 23 69 45t39 43.5t17 41t4 35.5q0 29 -23.5 53.5t-55.5 35.5q-8 4 -2 16q2 6 12 17.5t22.5 22.5t24.5 19t22 8q39 0 64 -32.5t25 -79.5t-19.5 -87t-50.5 -73t-67 -56.5t-68 -33.5q-2 0 -8.5 10t-4.5 15z" />
<glyph unicode="&#x201a;" horiz-adv-x="290" d="M-57 -279q31 27 61.5 61t55 70.5t40 73.5t15.5 72q0 31 -15.5 66.5t-25.5 58.5q2 6 12 20.5t23.5 30.5t27 28.5t21.5 16.5q2 2 10 2t10 -2t16.5 -33.5t14.5 -85.5q0 -59 -24.5 -118.5t-60.5 -113.5t-77 -96t-76 -67q-10 2 -19 5t-9 5q-4 2 0 6z" />
<glyph unicode="&#x201c;" horiz-adv-x="569" d="M61 1098q0 43 19.5 83t50.5 72.5t66.5 56t66.5 33.5q4 0 10.5 -11t4.5 -15q-47 -23 -73 -45.5t-39 -43t-16.5 -39t-3.5 -34.5q0 -29 23 -56.5t55 -37.5q8 -4 2 -17q-4 -6 -13 -16t-20.5 -21.5t-23.5 -18.5t-20 -7q-41 0 -65 35t-24 82zM291 1096q0 43 19.5 84t50 73.5 t66.5 56t69 33.5q2 0 8 -11t4 -15q-47 -23 -72.5 -45.5t-39 -43t-16.5 -39t-3 -34.5q0 -29 22.5 -56.5t55.5 -37.5q8 -4 2 -17q-2 -6 -11.5 -16t-21.5 -21.5t-24.5 -18.5t-20.5 -7q-39 0 -63.5 34t-24.5 81z" />
<glyph unicode="&#x201d;" horiz-adv-x="569" d="M61 1008q45 23 72 45t40 42.5t16.5 39t3.5 34.5q0 29 -24 55.5t-56 37.5q-8 4 -2 16q2 6 12 17.5t22.5 21.5t24.5 18t20 8q39 0 64 -34.5t25 -81.5t-19.5 -87t-50.5 -72t-67 -54.5t-68 -32.5q-2 0 -8.5 11.5t-4.5 15.5zM291 1008q45 23 71.5 45t40 42.5t16.5 39t3 34.5 q0 29 -23.5 55.5t-56.5 37.5q-8 4 -2 16q2 6 12 17.5t22.5 21.5t25 18t20.5 8q41 0 64.5 -34.5t23.5 -81.5t-19.5 -87t-50 -72t-66.5 -54.5t-67 -32.5q-4 0 -10 11.5t-4 15.5z" />
<glyph unicode="&#x201e;" horiz-adv-x="520" d="M-41 -279q31 27 59.5 61t50 70.5t34 73.5t12.5 72q0 31 -15.5 66.5t-25.5 58.5q2 6 12 20.5t23.5 30.5t27 28.5t21.5 16.5q2 2 10 2t10 -2t16.5 -33.5t14.5 -85.5q0 -59 -21.5 -118.5t-54.5 -113.5t-73 -96t-74 -67q-8 2 -17.5 5t-9.5 5q-4 2 0 6zM201 -279 q31 27 59.5 61t50 70.5t33.5 73.5t12 72q0 31 -15 66.5t-26 58.5q2 6 12.5 20.5t24 30.5t26.5 28.5t21 16.5q2 2 10.5 2t10.5 -2t16.5 -33.5t14.5 -85.5q0 -59 -21.5 -118.5t-54.5 -113.5t-73 -96t-75 -67q-8 2 -17 5t-9 5q-4 2 0 6z" />
<glyph unicode="&#x2022;" horiz-adv-x="636" d="M156 387q0 33 10 60.5t39 56.5q49 45 112 45q66 0 113 -41q29 -29 37 -61.5t8 -61.5t-10 -60.5t-33 -56.5q-47 -45 -123 -45q-23 0 -55.5 10.5t-54.5 32.5q-25 27 -34 56.5t-9 64.5z" />
<glyph unicode="&#x2026;" horiz-adv-x="2048" d="M426 70q0 35 27 61q24 25 55 25q16 0 29.5 -6.5t23.5 -14.5q16 -16 21.5 -33.5t5.5 -33.5q0 -10 -6.5 -29t-18.5 -29q-29 -25 -61 -24q-29 0 -51 22q-25 25 -25 62zM938 70q0 35 27 61q24 25 55 25q16 0 29.5 -6.5t23.5 -14.5q16 -16 21.5 -33.5t5.5 -33.5 q0 -10 -6.5 -29t-18.5 -29q-23 -25 -61 -24q-12 0 -26.5 4t-26.5 16q-23 23 -23 64zM1460 70q0 35 27 61q24 25 55 25q16 0 29.5 -6.5t23.5 -14.5q16 -16 21.5 -33.5t5.5 -33.5q0 -10 -6 -29t-19 -29q-23 -25 -61 -24q-29 0 -51 22q-25 25 -25 62z" />
<glyph unicode="&#x202f;" horiz-adv-x="322" />
<glyph unicode="&#x2039;" horiz-adv-x="831" d="M133 373q0 4 3 12t7 10q88 35 179.5 80t168 88t132 76t71.5 45q4 0 4 -6q0 -4 -6 -19.5t-10 -19.5q-23 -20 -72 -53t-106.5 -69t-115.5 -69.5t-97 -56.5q-4 -4 0 -8q27 -14 80 -46t111.5 -71t110.5 -75.5t81 -61.5q0 -2 4 -15.5t2 -21.5q0 -8 -8 -8q-23 18 -90.5 59 t-151.5 85t-166 85t-131 60z" />
<glyph unicode="&#x203a;" horiz-adv-x="819" d="M133 92q4 10 9 21.5t10 15.5q25 20 73.5 53t104 70t111 70.5t96.5 56.5q4 4 0 8q-25 14 -79.5 46t-113.5 70t-115.5 74.5t-83.5 61.5q0 2 -2 18.5t-2 22.5q0 4 6 4q14 -12 51.5 -34.5t85.5 -51.5t105 -58.5t111.5 -58t103.5 -51t82 -35.5q0 -4 -3 -11t-7 -11 q-88 -35 -176 -80t-163 -88t-128 -76t-70 -45q-6 0 -6 8z" />
<glyph unicode="&#x205f;" horiz-adv-x="402" />
<glyph unicode="&#x20ac;" d="M49 522q2 14 5 26.5t7 16.5h68q-2 23 -1 50.5t1 50.5h-68q2 14 4.5 27.5t6.5 17.5h59q12 133 64.5 251.5t144.5 190.5q53 41 124 64.5t161 23.5q39 0 68.5 -2t54 -5t47 -6t51.5 -5q-8 -55 -11.5 -107.5t-0.5 -120.5q-4 -4 -15.5 -6t-13.5 0q-6 47 -13.5 78t-16.5 50.5 t-20.5 29.5t-25.5 20q-51 35 -141 35q-72 0 -129.5 -34.5t-98.5 -97t-66.5 -152t-33.5 -195.5q0 -12 6 -12h100.5t119 1t100.5 1h49q2 -4 -1 -22.5t-7 -22.5h-363q-6 0 -6 -11v-40.5t2 -43.5q0 -8 8 -8h95.5t113.5 1t97 1h49q2 -4 -1.5 -20.5t-7.5 -22.5h-346q-6 0 -6 -10 q6 -109 31.5 -197t70 -151.5t105.5 -98t137 -34.5q31 0 69 8t62 31q41 35 64.5 72.5t40.5 70.5q6 2 15 -4t9 -10q-27 -78 -57.5 -128t-50.5 -63q-29 -14 -72 -23.5t-102 -9.5q-92 0 -171 31t-139.5 97.5t-98.5 169t-44 247.5h-82z" />
<glyph unicode="&#x2122;" horiz-adv-x="661" d="M41 1130l14 76q20 -8 43 -8h144h23.5t25.5 4q-4 -10 -8 -34.5t-7 -43.5q-2 0 -8 -1t-6 1q-4 33 -13 43.5t-20 10.5h-45v-168q0 -23 7.5 -30t44.5 -11q2 -4 1 -9.5t-4 -5.5q-10 0 -29.5 2t-41.5 2q-20 0 -42 -2t-28 -2q-6 6 0 13q31 6 37 13t8 24l4 174h-47 q-8 0 -18 -11.5t-23 -40.5q-2 -2 -7 0t-5 4zM295 961.5q0 5.5 2 9.5q29 4 36 9t11 19q2 10 4 34t4 48.5t4 47t2 32.5q0 6 -7 13.5t-46 13.5q-4 6 2 12l84 -2q4 -10 5 -15t5 -12l74 -145q14 27 37 69t39 76q4 4 6 12.5t4 14.5l80 2q4 -4 0 -12q-33 -4 -39 -12.5t-6 -18.5 v-160q0 -14 10 -18t33 -8q4 -2 4 -8.5t-4 -6.5q-16 0 -30.5 1t-30.5 1t-32 -1t-34 -1q-2 2 -2 7.5t2 7.5q23 4 32 8t9 18l4 144q-6 -14 -18.5 -38t-24.5 -49.5t-24.5 -51t-20.5 -44.5h-14q-6 14 -15.5 37t-21.5 48.5t-23.5 49t-19.5 42.5q-2 -20 -3 -64.5t-1 -73.5 q0 -10 7 -16t42 -10q2 -2 2 -7.5t-2 -7.5q-16 0 -31.5 1t-32.5 1q-16 0 -29.5 -1t-29.5 -1q-2 0 -2 5.5z" />
<glyph unicode="&#xe000;" horiz-adv-x="788" d="M0 0v788h788v-788h-788z" />
<glyph unicode="&#xfb01;" horiz-adv-x="872" d="M28 8.5q-1 12.5 3 16.5q23 4 42 6t31 6q27 6 36.5 24.5t9.5 53.5q0 33 1 93t2 138t2 168t1 184q0 4 -2 10.5t-7 6.5l-104 6q0 14 12 31q12 2 44 10t46 16q4 0 7.5 6.5t3.5 10.5q0 88 10 166.5t34.5 148.5t68.5 128t112 108q43 31 95 51t87 20q68 0 114 -28.5t62 -63.5 q4 -12 0 -22q-2 -6 -8 -17.5t-15 -23t-19.5 -20.5t-18.5 -11q-6 -2 -19 2l-15 12t-21 21q-33 33 -69 52t-85 19q-25 0 -47.5 -8t-48.5 -31q-61 -53 -83 -171.5t-22 -307.5v-26q0 -2 2 -7.5t6 -5.5h277q53 0 100 4t82 17q-2 -23 -4 -67t-3 -98t-1 -112.5v-105.5v-160t2 -149 q0 -53 43 -68q18 -6 34.5 -9t51.5 -7q4 -4 1 -16.5t-7 -14.5q-14 0 -36.5 1t-48.5 2t-52.5 2t-46.5 1q-59 0 -104.5 -3t-67.5 -3q-4 4 -4 15t4 16q23 4 42 7t35 11t24.5 24.5t12.5 63.5q4 39 4 121v170v135v75.5t-1 39t-3 24.5q-4 20 -16 21h-320q-2 0 -5 -7.5t-3 -11.5 v-154.5v-166.5t1 -152.5t3 -111.5q2 -31 13.5 -50.5t40.5 -25.5q20 -4 37.5 -6t44.5 -6q4 -4 3 -16.5t-6 -14.5q-23 0 -77 3t-115 3q-35 0 -89 -3t-89 -3q-4 2 -5 14.5z" />
<glyph unicode="&#xfb02;" horiz-adv-x="872" d="M28 9.5q-1 11.5 3 15.5q47 6 69 12q27 6 38.5 22.5t11.5 51.5q0 33 1 92t2 136t2 167t1 184q0 4 -2 10.5t-7 6.5l-104 4q0 8 5 20t9 19q12 2 42 9t46 17q10 6 11 17q0 96 10 177t34.5 148.5t68.5 123.5t112 104q43 29 89 44t81 15q27 0 53.5 -6t44.5 -15q14 -4 25 0 q14 4 27.5 13.5t29.5 21.5q4 0 8 -4t4 -6q-4 -16 -6 -32.5t-4 -39t-3 -55.5t-1 -82q0 -39 -1 -104.5t-1 -142v-157.5v-151q0 -231 2 -362t4 -166t10.5 -50.5t30.5 -25.5q25 -8 41 -10t43 -6q4 -4 2 -16.5t-6 -14.5q-35 0 -74 3t-98 3q-68 0 -120 -3t-70 -3q-4 6 -3.5 15 t3.5 14q31 4 50 8t38 10q16 6 22 23.5t8 27.5q2 25 4 65t3 104.5t1 158.5v231v79t1.5 109.5t1.5 122t-1.5 117t-1.5 93t-2 51.5q0 8 -4 20t-8 17q-23 35 -58.5 52t-74.5 17q-29 0 -54.5 -6t-49.5 -29q-35 -29 -54.5 -81t-29 -116.5t-12.5 -136t-3 -141.5v-26q0 -2 2 -7.5 t6 -5.5q14 0 45 1t63 2t59.5 2t33.5 1q-4 -16 -9 -41.5t-7 -39.5q-14 0 -41 1t-55.5 1h-54h-36.5q-2 0 -5 -4.5t-3 -8.5v-154.5v-165.5t1 -150.5t3 -110.5q4 -63 58 -76q20 -4 30.5 -6t49.5 -6q2 -4 2 -15.5t-4 -15.5q-35 0 -84.5 3t-110.5 3q-35 0 -90 -3t-90 -3 q-2 4 -3 15.5z" />
<glyph unicode="&#xfb03;" horiz-adv-x="1337" d="M27 8q0 10 4 15l69 14q51 12 52 80q0 33 1 93t1 137t1 167t1 184q0 4 -2 10.5t-7 6.5l-104 6q0 16 10 31q12 2 47 10t47 16q8 4 9 13q0 76 9 147.5t33.5 136t68.5 122.5t112 108q43 31 95 50t87 21q53 2 105.5 -17.5t93.5 -72.5q20 25 51 49.5t66.5 44t75.5 30.5t79 11 q59 -2 106.5 -31.5t63.5 -70.5q4 -12 0 -29q-4 -14 -19.5 -32.5t-31.5 -24.5q-12 -4 -25 0q-10 8 -16 14l-23 23q-31 33 -67.5 53t-83.5 20q-68 0 -108 -39.5t-61.5 -109.5t-27.5 -166t-6 -209v-26q0 -2 2 -7.5t6 -5.5h277q53 0 100 4t82 17q-2 -23 -4 -67t-3 -98t-1 -112.5 v-105.5v-160t2 -149q0 -53 43 -68q18 -6 39.5 -9t56.5 -7q4 -4 2 -17.5t-8 -13.5q-14 0 -38.5 1t-52.5 2t-55.5 2t-47.5 1q-59 0 -107.5 -3t-71.5 -3q-4 4 -4 15t4 16q23 4 45.5 6t38.5 10t24.5 25.5t12.5 64.5q4 39 4 121v170v135v75.5t-1 39t-3 24.5q-2 10 -9 15.5 t-11 5.5h-316q-8 0 -8 -10v-156v-170t1 -155.5t3 -112.5q4 -63 58 -76q41 -10 77 -12q4 -4 3 -16.5t-5 -14.5q-23 0 -77 3t-115 3q-35 0 -89.5 -3t-88.5 -3q-4 2 -5 14t3 17q23 4 42 6t31 6q27 6 36 24.5t9 49.5q0 33 1 94t2 140t2.5 170t1.5 185q0 4 -2.5 10.5t-6.5 6.5 h-338q-2 0 -5 -6t-3 -11q0 -37 -1 -112.5t-1 -163.5t1 -173t5 -138q2 -31 14.5 -50.5t41.5 -25.5q20 -4 38.5 -6t45.5 -6q2 -4 1 -15.5t-5 -15.5q-25 0 -78.5 3t-114.5 3q-35 0 -91 -3t-91 -3q-4 4 -4 14zM268 793q0 -2 3 -7.5t8 -5.5h331q4 0 7.5 6.5t3.5 10.5q0 94 13 192 t58 199q-41 59 -88 87t-112 28q-27 0 -54.5 -8.5t-54.5 -30.5q-61 -53 -88 -161t-27 -304v-6z" />
<glyph unicode="&#xfb04;" horiz-adv-x="1345" d="M28 9.5q1 11.5 5 15.5q16 4 34.5 7t34.5 7q51 14 52 78v94v139t1 169t1 186q0 10 -9 10l-104 6q0 14 12 31q12 2 44 10t48 14q8 6 9 15q0 80 10 151.5t35.5 136t69.5 120.5t112 106q43 31 94 50t86 21q39 2 93.5 -12t107.5 -74q20 25 49 48.5t62.5 43t68.5 30.5t68 11 q35 0 62.5 -9t45.5 -21q10 -6 25 -2q10 4 21.5 9t31.5 19q4 0 7 -4t3 -6q-4 -16 -6 -32.5t-4 -39t-3 -55.5t-1 -82q0 -39 -1 -104.5t-1 -142v-157.5v-151q0 -231 3 -362t5 -166t10.5 -50.5t30.5 -25.5q25 -8 38 -10t54 -6q4 -4 4 -15.5t-6 -15.5q-18 0 -43.5 1t-51.5 2 t-50.5 2t-38.5 1q-27 0 -56.5 -1t-56 -2t-48 -2t-30.5 -1q-4 6 -3 15t5 14q31 6 50.5 9t38.5 9q16 6 23 23.5t7 27.5q2 25 3 65t2 104.5t1 158.5v231v82t1 115.5t1 129t-1 125t-1 99.5t-2 53q0 8 -5 18.5t-9 14.5q-29 31 -60.5 43t-76.5 12q-72 0 -112 -49t-59.5 -125.5 t-22.5 -169t-3 -180.5v-26q0 -2 2 -7.5t6 -5.5q14 0 45 1t63 2t59.5 2t33.5 1q-4 -16 -8 -36.5t-2 -34.5q-14 0 -42 1t-57.5 1h-56h-37.5q-2 0 -5 -4t-3 -8q0 -70 1 -156t1 -169t1 -154.5t3 -112.5q4 -63 58 -76q20 -4 30.5 -6t48.5 -6q2 -4 1 -15.5t-5 -15.5q-35 0 -84 3 t-110 3q-35 0 -92.5 -3t-91.5 -3q-4 4 -4.5 15t4.5 16q23 4 43 6t32 6q27 6 38 22.5t11 51.5q0 33 1 92t1 138t1.5 170t1.5 189q0 4 -2.5 10.5t-6.5 6.5h-338q-2 0 -5 -6t-3 -11q0 -70 1 -154.5t1 -167.5t1 -153.5t3 -111.5q2 -31 14.5 -50.5t41.5 -25.5q20 -4 32.5 -6 t51.5 -6q2 -4 0 -15.5t-6 -15.5q-25 0 -78.5 3t-114.5 3q-35 0 -91 -3t-91 -3q-4 4 -3 15.5zM268 793q0 -2 3 -7.5t8 -5.5h331q4 0 7.5 6.5t3.5 10.5q0 94 12 196.5t59 202.5q-37 55 -88 81t-110 26q-27 0 -54.5 -8.5t-54.5 -30.5q-61 -53 -89 -160t-28 -305v-6z" />
</font>
</defs>
</svg>
